<svg xmlns="http://www.w3.org/2000/svg" viewBox="0 0 379.913 320.2"><path d="M163.913 29.1c0 2.7-.6 5.4-.9 8.1-.6 3.9-.9 7.5-.9 11.4v48.3c0 5.7-1.8 11.4-5.1 16.5-1.8 2.4-3.6 4.2-6.3 5.7-2.4 1.8-5.1 2.4-8.4 2.4-5.7 0-10.5-2.4-14.7-6.3-2.1-1.8-3.9-3.9-5.7-6.3-1.8-2.1-3.6-4.2-5.1-6.3-3-4.2-8.4-11.4-16.8-21.3-3.9-4.5-7.5-8.7-10.8-11.7-3.3-3.3-5.7-4.8-7.5-5.1 0 8.4 0 17.1-.3 25.5 0 3-.3 6.3-.3 9.6 0 2.7.3 5.4 1.2 8.1.9 2.7 1.2 5.4 1.2 8.1 0 1.8-.6 3.6-1.8 5.1-1.5 1.5-3.3 3-5.4 4.5-4.5 2.7-8.4 4.2-12 4.2-.9-.3-1.5-1.2-1.8-2.4-.9-2.7-1.5-5.7-2.1-8.7-.6-3-.9-5.7-1.2-8.7l-3.6-28.8c-1.5-10.5-3.3-21-5.1-31.5-.6-3-1.2-6-1.8-9.3-.6-3.3-1.2-6.6-1.2-9.3 0-1.8.6-3.6 1.8-5.4.9-1.8 2.4-3.6 3.9-5.1 3.6-3.3 7.2-4.8 10.5-5.1 2.4 0 5.1.3 7.5 1.2 2.4.9 4.5 2.4 5.7 4.8 2.1 3.3 5.1 6 8.4 7.8 2.4 1.5 4.5 3.3 6.3 5.4 1.8 2.4 3.3 4.8 5.1 6.9 12 15.6 24.3 31.2 36.6 46.5.6-.6 1.2-1.5 1.5-3 .3-1.2.3-2.7.3-4.2V37.8c.3-12.9 6.6-19.5 19.2-19.8 2.1 0 4.2 1.5 6 3.6 2.7 3 3.6 5.5 3.6 7.5zm89.4 25.5c0 10.8-3 21.6-8.7 33-5.7 11.7-13.2 20.4-22.2 26.1-2.7 1.5-7.5 3.9-14.4 6.9-3.3 1.2-6 2.4-8.7 3.3-2.7 1.2-4.5 1.8-5.7 1.8-1.2 0-1.8-.6-2.4-1.8-.6-.9-.9-1.8-1.2-2.7-.6-3-1.2-6.3-1.5-9.9-.6-3.3-.9-6.6-1.2-9.9-1.5-11.4-2.7-22.8-3.6-34.5-1.2-10.8-2.1-21.6-2.7-32.4-.9-7.5-1.2-15.3-1.2-22.8 0-2.4.3-3.9.9-4.8.6-.9 1.8-1.8 3.3-2.7 5.7-2.7 11.7-4.2 18-4.2 10.5 0 19.8 3.6 27.9 10.2 7.8 6.3 13.8 14.4 18 24 3.6 6.9 5.1 13.6 5.4 20.4zm-24 2.5c-.3-14.1-6.9-23.7-20.1-28.5-1.5-.6-2.7-.9-4.2-1.2-1.5 0-2.4.9-2.4 2.4 0 .9 0 1.5.3 2.4 1.8 10.8 3 21.6 3 33 .3 6 .3 11.7.6 17.4 0 3.3-.3 6.3-.3 9.6 0 .6 0 1.2.3 2.1 0 .9.6 1.8 1.2 2.1 6-4.8 11.1-10.5 15.3-17.4 4.2-6.9 6.3-14.1 6.3-21.9zm146.399-42c-1.5-.9-3.6-1.5-6.3-1.8-5.4-.6-9.6-.9-12.3-.9-5.4 0-11.1.9-16.8 2.7-5.7 1.8-11.4 3-17.1 4.2-.9 0-1.8.3-2.4.6-.6 0-1.5.6-1.8 1.2-.9.9-1.5 2.4-1.5 4.5 0 1.5 0 3 .3 4.5-.3 18.9-1.2 37.5-3 56.1-.6 6.9-.9 13.8-.9 20.7 0 2.7.3 5.4.9 8.1.6 2.7 1.8 5.1 3.9 7.2 3 2.7 7.5 5.4 13.5 8.1 3 1.2 5.7 2.4 8.7 3 2.7.6 4.8 1.2 6.6 1.2 5.7 0 9.9-2.1 13.2-5.7 3.3-3.6 4.8-8.1 4.8-13.8 0-1.8 0-3-.3-3.9-.3-.6-1.2-.9-3-.9-8.4 0-15-1.5-19.8-5.1-5.1-3.3-7.8-9.6-7.8-18.6 0-3 .3-6 .6-8.7h15.3c2.1 0 4.8-.9 7.8-2.4 1.5-.6 2.7-1.5 3.6-2.7 1.2-1.5 1.5-3.3 2.4-4.8.9-1.5.9-2.4-.6-4.2-1.2-1.2-2.1-1.2-3.6-1.5-3.3 0-6-.3-8.7-.3-4.8 0-9.9 0-15 .3.3-11.1.6-21.9.6-32.7 1.2-.3 2.7-.3 3.9-.3 3.3 0 6.6.3 9.9.6 3.3.6 6.6.9 9.9.9.9 0 2.1 0 3.3-.3 1.2-.3 2.1-.6 2.7-.9l11.1-8.7c.6-.6.9-1.5.9-2.4-.3-1.3-1.2-2.4-3-3.3zm-81.599 73.8c-.3 4.5-4.8 16.8-12.3 14.7-6.6-1.8-10.2-10.8-10.8-16.5-1.5-13.5 1.5-31.5.9-44.7-1.2-10.8-1.5-21.3-.6-32.1.3-3.3 1.5-5.4 4.2-6.6 2.4-1.5 4.8-1.8 7.5-1.8 2.7.3 9.3 1.5 10.5 3.3 1.2 1.8 1.5 4.2 1.2 7.2l-1.8 23.4c-.3 6-.6 12-.6 18.3.3 3.9.6 8.4 1.5 12.9.3 5.1.6 18 .3 21.9zm3.3 38.1c-.3 3.3-2.1 6.3-4.5 8.4-2.7 2.1-10.2 3-13.8 3-3-.6-4.8-2.1-5.1-5.4-.3-2.7-.6-5.4 0-8.1.3-3 1.5-5.7 3.6-7.8 2.1-1.8 9-2.7 12-2.4 3 .3 5.1 1.8 6.3 4.2 1.2 2.4 1.8 5.1 1.5 8.1zm-291-71.1c.3-4.5.3-17.7 5.1-19.2 9.3-2.7 17.4 10.5 18 16.2 1.5 13.5-1.5 31.5-.9 44.7 1.2 10.8 1.5 21.3.6 32.1-.3 3.3-1.5 5.4-4.2 6.6-2.4 1.5-9.3 1.8-12 1.8-2.7-.3-4.8-1.5-6-3.3-1.2-1.8-1.5-4.2-1.2-7.2l1.8-23.4c.3-6 .6-12 .6-18.3-.3-3.9-.6-8.4-1.5-12.9-.6-4.9-.6-13.5-.3-17.1zm-3.3-42.6c.3-3.3 2.1-6.3 4.5-8.4 2.7-2.1 5.7-3 9.3-3 3 .6 9.3 2.1 9.6 5.4.3 2.7.6 5.4 0 8.1-.3 3-1.5 5.7-3.6 7.8-2.1 1.8-9 2.7-12 2.4-3-.3-5.1-1.8-6.3-4.2-1.2-2.4-1.8-5.1-1.5-8.1zm110.7 183.8c0 4.2-.3 8.4-.9 13.2-.6 4.8-2.1 9-3.9 13.2-1.8 4.2-4.2 7.5-7.5 9.9-3.3 2.7-7.5 4.2-12.9 4.2-11.1 0-18.9-3.3-22.8-9.9-3.9-6.3-6-14.7-5.7-25.2 0-7.5.9-15 3.3-22.2 2.4-7.2 6.9-12.9 13.5-16.8 3.9-2.4 7.8-3.3 12.3-3.3 4.2 0 7.8 1.2 11.1 3.9 3 2.4 5.4 5.7 7.5 9.6 3.9 7.9 6 15.9 6 23.4zm-18.3 9.7c0-3-.6-6-1.2-9-.3-2.1-1.5-6-3-12-.6-2.7-1.5-4.8-2.4-6.9-.9-1.8-1.8-2.7-2.4-2.7-2.1 0-3.6.9-4.8 2.1-1.2 1.5-2.1 3-2.4 5.4-.9 4.8-1.2 8.7-1.2 12 0 2.1.3 4.5.6 7.2.3 3 .9 6 1.8 8.7.9 2.7 2.1 5.4 3.9 7.2 1.8 2.1 4.2 3.3 6.9 3.3.9 0 1.8-.6 2.4-2.1.6-1.5.9-3 1.5-4.8 0-3.9.3-6.6.3-8.4zm28.8-24.9c0-2.7.9-5.4 3-8.1 1.8-3 3.6-5.4 5.4-7.5 1.5-1.8 3.6-4.5 6.6-7.8 1.5-1.5 2.7-2.7 4.2-3.6 3-2.1 8.4-2.1 9.9 1.8.6 1.2 1.2 2.1 1.2 2.7 0 1.2-.9 2.7-2.4 4.2s-3 3.3-4.8 5.1c-2.1 1.8-3.6 3.9-5.1 6-1.2 1.8-2.1 3.9-2.1 6 0 1.8.9 3.9 2.7 6.6 1.8 2.4 4.2 4.8 6.6 7.8 2.4 3 4.5 6 6.3 9.3 2.1 3.3 3 6.9 3 10.5 0 6.3-2.4 12.9-6.9 19.5-2.1 3.3-4.5 6-7.5 7.8-2.7 2.1-5.7 3-8.7 3-.6 0-1.5-.3-2.1-1.2-.6-.6-1.5-1.5-2.1-2.7-1.2-2.4-2.1-4.2-2.1-5.7 0-.6.3-1.2.6-1.8.6-.9 1.2-1.5 1.8-1.5.9 0 1.8-.6 2.7-1.5.9-1.2 1.8-2.4 2.7-4.2 1.8-3.6 3-6.3 3.6-7.8.6-2.4 1.2-4.8 1.2-7.2 0-3-.9-6-2.7-8.4-1.8-2.4-3.6-4.8-6-7.2-2.4-2.1-4.2-4.5-6-6.6-2.1-2.1-3-4.8-3-7.5zm102-15.6c0 2.7-.6 4.8-1.8 6.3-1.2 1.5-2.7 2.7-4.8 3-2.1.6-4.2.9-6.6.9-2.4.3-4.5.3-6.6.3h-5.7c-.3 3-.6 5.7-1.2 8.7-.6 3-.9 6-1.2 9l-.6 25.2v6.3c0 2.4-.3 5.1-.9 7.2-.6 2.4-1.5 4.2-2.7 5.7-1.2 1.5-3.3 2.4-6 2.7-.6.3-1.2.3-1.8.3-.9 0-1.5-.6-1.8-1.8-.3-.9-.6-1.8-.6-2.4 0-4.5.3-9 .9-13.5.9-10.8 1.5-21.6 1.5-32.1 0-5.7-.6-11.4-1.5-17.1-1.5-.3-3.6-.9-6-1.5s-5.1-1.2-7.5-2.1c-2.4-.9-4.5-2.4-6.3-3.9-1.8-1.5-2.7-3.3-2.7-5.1 0-.9.3-2.1 1.2-2.7.6-.9 1.5-1.2 2.4-1.2h5.1c.3-.3.9-.6 1.8-.9.9-.3 1.8-.3 2.7-.3h4.5c6.6 0 13.2.6 20.1 1.2 3.9.3 7.8.6 11.7 1.2 1.8.9 3.3 1.2 5.1 1.5 1.8-.3 3.3-.3 5.1-.6 1.5 0 2.4.6 3.3 1.8.6 1.2.9 2.4.9 3.9zm50.7 73.2c-1.2.6-2.4.9-4.2 1.2-3.6.3-6.6.6-8.4.6-3.6 0-7.5-.6-11.4-1.8-3.9-1.2-7.8-2.1-11.7-2.7-.6 0-1.2-.3-1.5-.3-.6 0-.9-.3-1.2-.9-.6-.6-.9-1.5-.9-3.3V229c-.3-12.9-.9-25.8-2.1-38.4-.3-4.8-.6-9.6-.6-14.1 0-1.8.3-3.6.6-5.7.6-1.8 1.2-3.6 2.7-5.1 2.1-1.8 5.1-3.6 9.3-5.4 2.1-.9 3.9-1.5 6-2.1 1.8-.6 3.3-.9 4.5-.9 3.9 0 6.9 1.5 9 3.9 2.1 2.4 3.3 5.7 3.3 9.6v2.7c-.3.6-.9.6-2.1.6-5.7 0-10.2 1.2-13.5 3.6-3.6 2.4-5.1 6.6-5.1 12.9 0 2.1 0 3.9.3 6h10.5c1.5 0 3.3.6 5.4 1.5 2.1.9 6.6 3 5.7 6-.3.9-.9 1.8-1.8 2.1-2.4 1.2-6 .9-8.7.9-3.3 0-6.9 0-10.2-.3.3 7.5.3 15 .3 22.5.9.3 1.8.3 2.7.3 2.4 0 4.5-.3 6.9-.6 2.4-.6 4.5-.6 6.9-.6h2.1c.9.3 1.5.3 1.8.6l7.8 6c.3.6.6 1.2.6 1.8-1.2 1.2-1.8 2-3 2.7zm63.3-5.4c0 2.7-6.6 4.8-8.7 4.8-.9 0-2.1-.6-3-1.2-.9-.9-2.1-1.8-3.3-3-2.4-2.7-4.5-5.7-6.6-8.7-2.1-3.3-4.2-6.3-6.3-8.7-2.1-2.4-3.9-3.9-5.4-3.9v18.9c0 .6-.3 1.8-1.2 3.3-.6 1.5-1.8 3-3 4.8-1.2 1.5-2.4 3-3.6 4.2-1.2 1.2-2.4 1.8-3.3 2.1-6 0-9-3.3-9-9.6 0-3 .3-6 .9-9 .6-4.5.6-8.7.6-12.9 0-11.4-.6-22.8-1.5-33.9-.6-5.7-.9-11.1-.9-16.8 0-9 8.1-15.6 16.5-15.6 5.7 0 12 1.2 18.3 3.9 3 1.5 5.4 3.3 7.5 5.4 1.8 2.4 2.7 5.1 2.7 8.7 0 3.3-.9 6.9-2.7 9.9-1.8 3.3-3.6 6.3-6 9-2.1 2.7-4.2 5.1-6 7.2-1.8 2.1-2.7 3.6-2.7 4.8 0 .3.6.9 1.5 1.8s2.1 1.8 3.3 2.7c2.7 2.1 4.8 3.6 6 4.5 2.1 1.8 4.2 3.9 6 6 1.8 1.8 3 3.9 3.9 6 .9 2.1 1.5 4.5 2.4 6.9.6.9 1.2 2.4 1.8 4.2 1.2 1.7 1.8 3.2 1.8 4.2zm-21.9-65.5c0-1.8-.6-3-1.5-3.6-.9-.6-2.1-.6-3.6-.6-1.2 0-2.7.3-4.2.9-1.5.6-3 1.2-4.2 1.8l.6 23.4c1.2-.6 2.7-1.8 4.2-3.6s3-3.9 4.2-6c3-5.3 4.5-9.3 4.5-12.3zm61.5 48c0 2.7-.9 5.4-3 8.1-1.8 3-3.6 5.4-5.4 7.5-1.5 1.8-3.6 4.5-6.6 7.8-1.5 1.5-2.7 2.7-4.2 3.9-5.7 4.2-14.4-2.4-8.7-8.4 1.5-1.5 3-3.3 4.8-5.1 2.1-1.8 3.6-3.9 5.1-6 1.2-1.8 2.1-3.9 2.1-6 0-1.8-.9-3.9-2.7-6.6-1.8-2.4-4.2-4.8-6.6-7.8-2.4-3-4.5-6-6.3-9.3-2.1-3.3-3-6.9-3-10.5 0-6.3 2.4-12.9 6.9-19.5 2.1-3.3 4.5-6 7.5-7.8 2.7-2.1 5.7-3 8.7-3 .6 0 1.5.3 2.1 1.2.6.6 1.5 1.5 2.1 2.7 1.2 2.4 2.1 4.2 2.1 5.7 0 2.4-3 3.3-4.5 4.5-3.6 3-5.7 8.1-6.9 12.3-.6 2.4-1.2 4.8-1.2 7.2 0 3 .9 6 2.7 8.4 1.8 2.4 3.6 4.8 6 7.2 2.4 2.1 4.2 4.5 6 6.6 2.1 1.6 3 3.9 3 6.9zm-333.3-56.3c.3-1.8 0-3.6-.9-4.8-.9-1.2-5.4-2.1-7.2-2.1-1.8-.3-3.6.3-5.1 1.2-1.8.9-2.7 2.4-2.7 4.2-.6 6.9-.3 13.8.6 20.7.3 1.5 0 3.3 0 4.8s0 3.6-.6 5.1c-.6 1.2-2.7 1.5-4.2 1.8-2.1.3-4.2.6-6.3.6-2.1 0-3.9-.3-3.9-2.4v-1.2c0-7.8.6-15.9 0-23.7v-1.2c-.6-3.6-6-9.3-12.3-7.5-3.3.9-3.3 9.6-3.6 12.3-.3 2.4 0 28.2.3 31.2.6 3 .9 5.7.9 8.1 0 3.9 0 8.1-.3 11.7-.3 5.1-.6 10.2-1.2 15-.3 1.8 0 3.6.9 4.8.9 1.2 2.1 2.1 4.2 2.1 1.8.3 6.6-.3 8.4-1.2 1.8-.9 2.7-2.4 2.7-4.2.6-6.9.3-13.8-.6-20.7-.3-1.2 0-2.4 0-3.6 0-.9 0-2.1.3-3 .6-.9 1.5-1.2 2.7-1.5 1.2-.3 2.4-.6 3.6-.6 1.8-.3 3.9-.3 6 0s2.7 1.2 2.7 3c-.3 2.4 0 4.8-.3 6.9v12.6c.3 3.6 3 9.3 7.5 10.5 5.1 1.2 8.1-6.6 8.4-9.6.3-2.4 0-30.9-.3-34.2-.6-3-.9-5.7-.9-8.1 0-3.9 0-8.1.3-11.7 0-5.5.3-10.5.9-15.3zM29.213 292v-17.7h3v7.8h8.7v-7.8h3V292h-3v-7.2h-8.7v7.2h-3zm34.5-2.4c-1.8 1.8-3.9 2.7-6.6 2.7-2.7 0-4.8-.9-6.6-2.7-1.8-1.8-2.7-3.9-2.7-6.6 0-2.7.9-4.8 2.7-6.6 1.8-1.8 3.9-2.7 6.6-2.7 2.7 0 4.8.9 6.6 2.7 1.8 1.8 2.7 3.9 2.7 6.6 0 2.6-.9 4.8-2.7 6.6zm-2.1-11.1c-1.2-1.2-2.7-1.8-4.5-1.8-1.8 0-3.3.6-4.5 1.8-1.2 1.2-1.8 2.7-1.8 4.5 0 1.8.6 3.3 1.8 4.5 1.2 1.2 2.7 1.8 4.5 1.8 1.8 0 3.3-.6 4.5-1.8 1.2-1.2 1.8-2.7 1.8-4.5 0-1.5-.6-3-1.8-4.5zm14.4-1.9c-.9 0-1.5.3-2.1.6-.6.3-.9.9-.9 1.5s.3 1.2.9 1.5c.6.3 1.8.9 3.6 1.2 1.8.3 3.3 1.2 4.2 1.8.9.9 1.5 2.1 1.5 3.6s-.6 2.7-1.8 3.9c-1.2 1.2-2.7 1.5-4.5 1.5-2.7 0-5.1-.9-7.5-3l1.8-2.4c1.8 1.5 3.6 2.4 5.7 2.4.9 0 1.8-.3 2.4-.6.6-.3.9-.9.9-1.5s-.3-1.2-.9-1.5c-.6-.3-1.5-.6-2.7-.9-1.2-.3-2.4-.6-3-.9l-1.8-.9c-.9-.9-1.5-2.1-1.5-3.6s.6-3 1.8-3.9c1.2-.9 2.7-1.2 4.5-1.2 1.2 0 2.4.3 3.3.6 1.2.3 2.1.9 3 1.5l-1.5 2.4c-.6-.6-1.2-.9-2.1-1.2-1.8-.5-2.7-.9-3.3-.9zm17.4.7v15h-3v-15h-5.4v-2.7h13.8v2.7h-5.4zm8.7-3h3V292h-3v-17.7zm21.6 0h3V292h-3.3l-9.9-12.9V292h-3v-17.7h3l10.2 13.2v-13.2zm20.4 9.3h3v6c-1.8 1.8-4.2 2.7-7.2 2.7-2.7 0-4.8-.9-6.6-2.7-1.8-1.8-2.7-3.9-2.7-6.6 0-2.7.9-4.8 2.7-6.6 1.8-1.8 3.9-2.7 6.6-2.7 2.4 0 4.8.6 6.3 2.1l-1.5 2.4c-.6-.6-1.5-.9-2.1-1.2-.6-.3-1.5-.3-2.4-.3-1.8 0-3.3.6-4.5 1.8-1.2 1.2-1.8 2.7-1.8 4.5 0 1.8.6 3.3 1.8 4.5 1.2 1.2 2.7 1.8 4.2 1.8 1.8 0 3-.3 4.2-1.2v-4.5zm17.4-6.3v4.8h7.8v2.7h-7.8v7.2h-3v-17.7h11.7v2.7h-8.7v.3zm27.3 12.3c-1.8 1.8-3.9 2.7-6.6 2.7-2.7 0-4.8-.9-6.6-2.7-1.8-1.8-2.7-3.9-2.7-6.6 0-2.7.9-4.8 2.7-6.6 1.8-1.8 3.9-2.7 6.6-2.7 2.7 0 4.8.9 6.6 2.7 1.8 1.8 2.7 3.9 2.7 6.6 0 2.6-.9 4.8-2.7 6.6zm-2.4-11.1c-1.2-1.2-2.7-1.8-4.5-1.8-1.8 0-3.3.6-4.5 1.8-1.2 1.2-1.8 2.7-1.8 4.5 0 1.8.6 3.3 1.8 4.5 1.2 1.2 2.7 1.8 4.5 1.8 1.8 0 3.3-.6 4.5-1.8 1.2-1.2 1.8-2.7 1.8-4.5 0-1.5-.6-3-1.8-4.5zm23.1 1.8c0 3-1.2 4.8-3.9 5.4l4.5 6.3h-3.9l-4.2-6h-3.9v6h-3v-17.7h6.6c2.7 0 4.5.6 5.7 1.5 1.5.8 2.1 2.3 2.1 4.5zm-3.9 2.3c.6-.6.9-1.5.9-2.4 0-1.2-.3-1.8-.9-2.4-.6-.3-1.8-.6-3.3-.6h-3.9v6.3h3.6c1.8.1 3-.2 3.6-.9zm18.599-5.3v4.8h7.8v2.7h-7.8v7.2h-3v-17.7h11.7v2.7h-8.7v.3zm26.701 3c0 3-1.2 4.8-3.9 5.4l4.5 6.3h-3.6l-4.2-6h-3.9v6h-3v-17.7h6.6c2.7 0 4.5.6 5.7 1.5 1.2.8 1.8 2.3 1.8 4.5zm-3.9 2.3c.6-.6.9-1.5.9-2.4 0-1.2-.3-1.8-.9-2.4-.6-.3-1.8-.6-3.3-.6h-3.9v6.3h3.6c1.8.1 3-.2 3.6-.9zm21-8.3v2.7h-9.3v4.8h8.4v2.7h-8.4v4.8h9.6v2.7h-12.6v-17.7h12.3zm16.8 0v2.7h-9.3v4.8h8.4v2.7h-8.4v4.8h9.6v2.7h-12.6v-17.7h12.3zm17.7 2.3c1.8 1.5 2.7 3.6 2.7 6.3 0 2.7-.9 4.8-2.4 6.6-1.8 1.5-4.2 2.4-7.5 2.4h-6v-17.7h6c3 .1 5.4.9 7.2 2.4zm-.6 6.7c0-3.9-2.4-6-6.9-6h-3v12h3.3c2.1 0 3.9-.6 4.8-1.5 1.2-1 1.8-2.5 1.8-4.5zm21.9 6.3c-1.8 1.8-3.9 2.7-6.6 2.7-2.7 0-4.8-.9-6.6-2.7-1.8-1.8-2.7-3.9-2.7-6.6 0-2.7.9-4.8 2.7-6.6 1.8-1.8 3.9-2.7 6.6-2.7 2.7 0 4.8.9 6.6 2.7 1.8 1.8 2.7 3.9 2.7 6.6 0 2.6-.9 4.8-2.7 6.6zm-2.1-11.1c-1.2-1.2-2.7-1.8-4.5-1.8-1.8 0-3.3.6-4.5 1.8-1.2 1.2-1.8 2.7-1.8 4.5 0 1.8.6 3.3 1.8 4.5 1.2 1.2 2.7 1.8 4.5 1.8 1.8 0 3.3-.6 4.5-1.8 1.2-1.2 1.8-2.7 1.8-4.5 0-1.5-.6-3-1.8-4.5zm11.999 13.5h-3v-17.7h4.8l5.4 11.1 5.4-11.1h4.5V292h-3v-13.9l-6.3 12.3h-1.8l-6-12.3V292zM93.113 302.1h3v17.7h-3.3l-9.9-12.9v12.9h-3v-17.7h3l10.2 13.2v-13.2zm23.1 15.4c-1.8 1.8-3.9 2.7-6.6 2.7-2.7 0-4.8-.9-6.6-2.7-1.8-1.8-2.7-3.9-2.7-6.6 0-2.7.9-4.8 2.7-6.6 1.8-1.8 3.9-2.7 6.6-2.7 2.7 0 4.8.9 6.6 2.7 1.8 1.8 2.7 3.9 2.7 6.6 0 2.7-.9 4.7-2.7 6.6zm-2.4-11.2c-1.2-1.2-2.7-1.8-4.5-1.8-1.8 0-3.3.6-4.5 1.8-1.2 1.2-1.8 2.7-1.8 4.5 0 1.8.6 3.3 1.8 4.5 1.2 1.2 2.7 1.8 4.5 1.8 1.8 0 3.3-.6 4.5-1.8 1.2-1.2 1.8-2.7 1.8-4.5 0-1.8-.6-3.2-1.8-4.5zm15.3-1.5v15h-3v-15h-5.4v-2.7h13.8v2.7h-5.4zm18.9 0v4.8h7.8v2.7h-7.8v7.2h-3v-17.7h11.7v2.7h-8.7v.3zm27.3 12.7c-1.8 1.8-3.9 2.7-6.6 2.7-2.7 0-4.8-.9-6.6-2.7-1.8-1.8-2.7-3.9-2.7-6.6 0-2.7.9-4.8 2.7-6.6 1.8-1.8 3.9-2.7 6.6-2.7 2.7 0 4.8.9 6.6 2.7 1.8 1.8 2.7 3.9 2.7 6.6 0 2.7-.9 4.7-2.7 6.6zm-2.1-11.2c-1.2-1.2-2.7-1.8-4.5-1.8-1.8 0-3.3.6-4.5 1.8-1.2 1.2-1.8 2.7-1.8 4.5 0 1.8.6 3.3 1.8 4.5 1.2 1.2 2.7 1.8 4.5 1.8 1.8 0 3.3-.6 4.5-1.8 1.2-1.2 1.8-2.7 1.8-4.5 0-1.8-.6-3.2-1.8-4.5zm23.1 1.5c0 3-1.2 4.8-3.9 5.4l4.5 6.3h-3.9l-4.2-6h-3.9v6h-3v-17.7h6.6c2.7 0 4.5.6 5.7 1.5 1.5 1.3 2.1 2.8 2.1 4.5zm-3.9 2.8c.6-.6.9-1.5.9-2.4 0-1.2-.3-1.8-.9-2.4-.6-.3-1.8-.6-3.3-.6h-3.9v6.3h3.6c1.8-.4 2.7-.7 3.6-.9zm27.6-7c1.2.9 1.8 2.7 1.8 4.8 0 2.1-.6 3.6-1.8 4.8-1.2.9-3.3 1.5-5.7 1.5h-3v5.1h-3v-17.7h6c2.4 0 4.5.7 5.7 1.5zm-2.1 7.5c.6-.6.9-1.5.9-2.7 0-1.2-.3-2.1-1.2-2.7-.9-.6-1.8-.9-3.6-.9h-3v7.2h3.6c1.5.1 2.7-.2 3.3-.9zm21.6-3.3c0 3-1.2 4.8-3.9 5.4l4.5 6.3h-3.9l-4.2-6h-3.9v6h-3v-17.7h6.6c2.7 0 4.5.6 5.7 1.5 1.8 1.3 2.1 2.8 2.1 4.5zm-3.9 2.8c.6-.6.9-1.5.9-2.4 0-1.2-.3-1.8-.9-2.4-.6-.3-1.8-.6-3.3-.6h-3.9v6.3h3.6c1.8-.4 3-.7 3.6-.9zm23.4 6.9c-1.8 1.8-3.9 2.7-6.6 2.7-2.7 0-4.8-.9-6.6-2.7-1.8-1.8-2.7-3.9-2.7-6.6 0-2.7.9-4.8 2.7-6.6 1.8-1.8 3.9-2.7 6.6-2.7 2.7 0 4.8.9 6.6 2.7 1.8 1.8 2.7 3.9 2.7 6.6 0 2.7-.9 4.7-2.7 6.6zm-2.1-11.2c-1.2-1.2-2.7-1.8-4.5-1.8-1.8 0-3.3.6-4.5 1.8-1.2 1.2-1.8 2.7-1.8 4.5 0 1.8.6 3.3 1.8 4.5 1.2 1.2 2.7 1.8 4.5 1.8 1.8 0 3.3-.6 4.5-1.8 1.2-1.2 1.8-2.7 1.8-4.5 0-1.8-.6-3.2-1.8-4.5zm11.7-1.5v4.8h7.8v2.7h-7.8v7.2h-3v-17.7h11.7v2.7h-8.7v.3zm12.599-2.7h3v17.7h-3v-17.7zm15 2.7v15h-3v-15h-5.4v-2.7h13.8v2.7h-5.4z"/></svg>