<?xml version="1.0" standalone="no"?>
<!DOCTYPE svg PUBLIC "-//W3C//DTD SVG 20010904//EN"
 "http://www.w3.org/TR/2001/REC-SVG-20010904/DTD/svg10.dtd">
<svg version="1.0" xmlns="http://www.w3.org/2000/svg"
 width="3617.000000pt" height="2473.000000pt" viewBox="0 0 3617.000000 2473.000000"
 preserveAspectRatio="xMidYMid meet">
<metadata>
Created by potrace 1.16, written by Peter Selinger 2001-2019
</metadata>
<g transform="translate(0.000000,2473.000000) scale(0.100000,-0.100000)"
fill="#000000" stroke="none">
<path d="M31483 24253 c-59 -4 -63 -6 -63 -28 0 -21 6 -25 45 -31 29 -4 49
-13 55 -25 14 -25 13 -774 0 -800 -8 -14 -21 -19 -55 -19 -41 0 -45 -2 -45
-25 l0 -25 160 0 160 0 0 25 c0 23 -4 25 -43 25 -24 0 -48 5 -55 12 -8 8 -12
60 -12 168 0 191 12 241 69 293 69 62 145 68 185 13 19 -25 21 -43 24 -243 2
-154 0 -219 -9 -229 -7 -8 -30 -14 -55 -14 -40 0 -44 -2 -44 -25 l0 -25 160 0
160 0 0 25 c0 23 -4 25 -45 25 -34 0 -47 5 -55 19 -6 12 -10 102 -10 223 0
179 -2 207 -19 238 -29 55 -62 74 -140 78 -87 5 -133 -10 -182 -59 l-39 -39 0
225 0 225 -42 -2 c-24 -1 -71 -3 -105 -5z"/>
<path d="M29320 24226 c0 -22 5 -24 65 -31 49 -5 68 -11 75 -25 6 -11 10 -168
10 -404 0 -443 6 -416 -91 -416 -56 0 -59 -1 -59 -25 l0 -25 205 0 205 0 0 25
c0 24 -3 25 -54 25 -86 0 -86 0 -86 216 l0 184 109 0 c96 0 112 -3 142 -23 63
-42 75 -72 82 -201 7 -131 21 -173 68 -208 72 -53 193 -66 244 -26 33 26 55
75 55 123 0 55 -30 43 -45 -17 -13 -54 -29 -76 -63 -89 -57 -22 -85 25 -112
190 -10 67 -27 137 -36 156 -18 39 -64 82 -107 100 l-28 12 45 17 c62 24 121
68 152 116 32 47 37 127 11 175 -41 79 -149 145 -267 164 -36 6 -167 11 -292
11 l-228 0 0 -24z m473 -36 c81 -12 118 -29 146 -69 46 -65 46 -197 -1 -256
-40 -52 -92 -68 -225 -73 l-123 -4 0 188 c0 104 4 194 8 200 15 24 89 29 195
14z"/>
<path d="M30443 24220 c-67 -27 -52 -132 22 -146 74 -14 118 88 59 135 -29 23
-46 25 -81 11z"/>
<path d="M23654 24136 c-56 -18 -97 -50 -125 -99 -20 -36 -24 -59 -27 -154
l-4 -113 -54 0 c-51 0 -54 -1 -54 -25 0 -24 3 -25 55 -25 l55 0 0 -238 c0
-172 -3 -241 -12 -250 -7 -7 -31 -12 -55 -12 -39 0 -43 -2 -43 -25 l0 -25 170
0 170 0 0 25 c0 24 -3 25 -53 25 -29 0 -58 5 -65 12 -9 9 -12 78 -12 250 l0
238 80 0 c79 0 80 0 80 25 0 25 -1 25 -80 25 l-80 0 0 110 c0 117 13 162 57
202 37 34 105 34 72 1 -20 -20 -6 -76 23 -92 58 -33 116 25 86 85 -29 59 -107
85 -184 60z"/>
<path d="M32305 24095 c-13 -106 -86 -205 -151 -205 -17 0 -24 -6 -24 -20 0
-18 7 -20 60 -20 l60 0 0 -218 c0 -206 1 -220 23 -262 27 -54 68 -80 139 -86
102 -10 157 58 158 194 0 65 -2 72 -20 72 -18 0 -20 -7 -20 -62 -1 -116 -54
-186 -118 -156 -51 25 -57 53 -60 296 l-3 222 100 0 101 0 0 25 0 25 -100 0
-100 0 0 125 c0 116 -1 125 -19 125 -15 0 -20 -10 -26 -55z"/>
<path d="M21910 24094 c0 -18 8 -22 54 -28 95 -11 86 33 86 -420 0 -299 -3
-405 -12 -414 -7 -7 -38 -12 -70 -12 -55 0 -58 -1 -58 -25 l0 -25 365 0 c248
0 365 3 365 10 0 12 28 268 34 318 4 28 2 32 -18 32 -21 0 -24 -6 -29 -60 -13
-119 -79 -216 -164 -239 -21 -6 -88 -11 -150 -11 -102 0 -113 2 -123 20 -7 13
-10 147 -8 410 3 329 5 392 18 400 7 5 47 12 87 16 66 6 73 8 73 28 0 21 -2
21 -225 21 -222 0 -225 0 -225 -21z"/>
<path d="M23965 23965 c-13 -106 -86 -205 -151 -205 -17 0 -24 -6 -24 -20 0
-18 7 -20 60 -20 l60 0 0 -218 c0 -206 1 -220 23 -262 27 -54 68 -80 139 -86
102 -10 157 58 158 194 0 65 -2 72 -20 72 -18 0 -20 -7 -20 -62 -1 -116 -54
-186 -118 -156 -51 25 -57 53 -60 296 l-3 222 100 0 101 0 0 25 0 25 -100 0
-100 0 0 125 c0 116 -1 125 -19 125 -15 0 -20 -10 -26 -55z"/>
<path d="M31225 23918 c-16 -6 -42 -19 -57 -30 -27 -19 -28 -19 -67 2 -52 26
-150 27 -206 1 -79 -36 -125 -104 -125 -183 0 -43 29 -120 48 -132 7 -4 4 -23
-10 -53 -25 -56 -20 -121 11 -164 l21 -28 -27 -15 c-97 -50 -115 -157 -39
-224 132 -116 458 -100 543 27 40 59 26 158 -28 208 -49 45 -96 56 -250 62
-125 5 -150 9 -168 25 -26 23 -37 77 -22 105 11 21 13 21 44 4 21 -12 55 -18
102 -18 82 0 139 26 189 88 25 31 31 49 34 102 4 53 0 71 -17 100 -11 20 -21
40 -21 45 0 13 39 37 72 45 24 6 27 4 30 -26 6 -64 70 -65 76 -1 6 61 -54 88
-133 60z m-162 -68 c36 -28 50 -79 45 -166 -3 -68 -6 -77 -36 -107 -27 -26
-40 -32 -76 -32 -82 0 -123 70 -113 192 5 64 22 99 59 120 35 19 92 16 121 -7z
m133 -569 c72 -32 86 -95 34 -155 -43 -48 -108 -71 -200 -71 -124 1 -223 62
-223 137 0 43 24 79 68 100 35 17 55 18 159 13 85 -4 132 -11 162 -24z"/>
<path d="M30393 23903 c-38 -4 -43 -7 -43 -29 0 -20 5 -24 28 -24 15 0 38 -7
50 -16 22 -15 22 -19 22 -238 0 -159 -3 -225 -12 -234 -7 -7 -31 -12 -55 -12
-39 0 -43 -2 -43 -25 l0 -25 150 0 150 0 0 25 c0 21 -5 25 -29 25 -64 0 -61
-14 -61 286 l0 274 -57 -2 c-32 -1 -77 -3 -100 -5z"/>
<path d="M33050 23874 c0 -18 7 -22 45 -26 25 -3 52 -12 61 -19 35 -29 185
-233 180 -245 -12 -30 -139 -181 -171 -203 -19 -13 -55 -26 -80 -29 -39 -4
-45 -8 -45 -28 l0 -24 130 0 130 0 0 24 c0 15 -7 26 -20 29 -35 9 -24 50 36
127 31 39 60 68 64 63 5 -4 36 -44 69 -87 48 -62 59 -82 50 -92 -6 -8 -18 -14
-25 -14 -8 0 -14 -10 -14 -25 l0 -25 145 0 145 0 0 25 c0 23 -4 25 -44 25 -57
0 -73 14 -183 157 l-91 119 70 85 c75 91 120 124 180 134 31 5 38 11 38 29 0
21 -3 22 -125 22 l-125 1 0 -24 c0 -13 6 -26 14 -29 38 -14 29 -46 -37 -131
l-40 -51 -59 74 c-32 40 -58 78 -58 84 0 6 11 16 25 22 16 7 25 19 25 34 0 22
-1 22 -145 21 -142 -1 -145 -1 -145 -23z"/>
<path d="M22941 23759 c-130 -65 -195 -229 -152 -385 37 -138 192 -241 332
-220 86 13 175 90 194 169 6 23 4 27 -13 27 -14 0 -27 -14 -42 -45 -26 -54
-69 -89 -127 -104 -123 -33 -233 81 -233 241 l0 48 208 2 207 3 -3 54 c-11
197 -192 299 -371 210z m189 -24 c34 -18 75 -99 85 -167 l6 -48 -162 0 -162 0
7 47 c19 140 126 220 226 168z"/>
<path d="M24720 23744 c0 -18 7 -22 45 -26 25 -3 52 -12 61 -19 35 -29 185
-233 180 -245 -12 -30 -139 -181 -171 -203 -19 -13 -55 -26 -80 -29 -39 -4
-45 -8 -45 -28 l0 -24 130 0 130 0 0 24 c0 15 -7 26 -20 29 -35 9 -24 50 36
127 31 39 60 68 64 63 5 -4 36 -44 69 -87 48 -62 59 -82 50 -92 -6 -8 -18 -14
-25 -14 -8 0 -14 -10 -14 -25 l0 -25 145 0 145 0 0 25 c0 23 -4 25 -44 25 -57
0 -73 14 -183 157 l-91 119 70 85 c75 91 120 124 180 134 31 5 38 11 38 29 0
21 -3 22 -125 22 l-125 1 0 -24 c0 -13 6 -26 14 -29 38 -14 29 -46 -37 -131
l-40 -51 -59 74 c-32 40 -58 78 -58 84 0 6 11 16 25 22 16 7 25 19 25 34 0 22
-1 22 -145 21 -142 -1 -145 -1 -145 -23z"/>
<path d="M19797 19842 l-2868 -2868 23 -22 24 -21 2867 2867 2868 2868 -23 22
-24 21 -2867 -2867z"/>
<path d="M24612 22688 l-21 -24 2867 -2867 2868 -2868 22 23 21 24 -2867 2867
-2868 2868 -22 -23z"/>
<path d="M15256 16429 c-278 -245 -337 -797 -125 -1156 40 -67 159 -193 183
-193 27 0 18 23 -34 85 -174 206 -236 575 -154 914 22 92 93 234 153 308 28
34 51 67 51 72 0 22 -28 10 -74 -30z"/>
<path d="M19045 16460 c-4 -6 16 -35 44 -66 62 -68 134 -210 161 -319 41 -160
41 -441 1 -600 -28 -108 -99 -248 -161 -317 -47 -52 -56 -78 -29 -78 42 0 170
156 223 271 67 145 81 220 80 429 -1 209 -14 282 -80 420 -43 91 -130 208
-182 244 -42 29 -48 31 -57 16z"/>
<path d="M31466 16429 c-278 -245 -337 -797 -125 -1156 40 -67 159 -193 183
-193 27 0 18 23 -34 85 -174 206 -236 575 -154 914 22 92 93 234 153 308 28
34 51 67 51 72 0 22 -28 10 -74 -30z"/>
<path d="M35255 16460 c-4 -6 16 -35 44 -66 62 -68 134 -210 161 -319 41 -160
41 -441 1 -600 -28 -108 -99 -248 -161 -317 -47 -52 -56 -78 -29 -78 42 0 170
156 223 271 67 145 81 220 80 429 -1 209 -14 282 -80 420 -43 91 -130 208
-182 244 -42 29 -48 31 -57 16z"/>
<path d="M13834 16396 c-56 -18 -97 -50 -125 -99 -20 -36 -24 -59 -27 -154
l-4 -113 -54 0 c-51 0 -54 -1 -54 -25 0 -24 3 -25 55 -25 l55 0 0 -238 c0
-172 -3 -241 -12 -250 -7 -7 -31 -12 -55 -12 -39 0 -43 -2 -43 -25 l0 -25 170
0 170 0 0 25 c0 24 -3 25 -53 25 -29 0 -58 5 -65 12 -9 9 -12 78 -12 250 l0
238 80 0 c79 0 80 0 80 25 0 25 -1 25 -80 25 l-80 0 0 110 c0 117 13 162 57
202 37 34 105 34 72 1 -20 -20 -6 -76 23 -92 58 -33 116 25 86 85 -29 59 -107
85 -184 60z"/>
<path d="M17194 16396 c-56 -18 -97 -50 -125 -99 -20 -36 -24 -59 -27 -154
l-4 -113 -54 0 c-51 0 -54 -1 -54 -25 0 -24 3 -25 55 -25 l55 0 0 -238 c0
-172 -3 -241 -12 -250 -7 -7 -31 -12 -55 -12 -39 0 -43 -2 -43 -25 l0 -25 170
0 170 0 0 25 c0 24 -3 25 -53 25 -29 0 -58 5 -65 12 -9 9 -12 78 -12 250 l0
238 80 0 c79 0 80 0 80 25 0 25 -1 25 -80 25 l-80 0 0 110 c0 117 13 162 57
202 37 34 105 34 72 1 -20 -20 -6 -76 23 -92 58 -33 116 25 86 85 -29 59 -107
85 -184 60z"/>
<path d="M33404 16396 c-56 -18 -97 -50 -125 -99 -20 -36 -24 -59 -27 -154
l-4 -113 -54 0 c-51 0 -54 -1 -54 -25 0 -24 3 -25 55 -25 l55 0 0 -238 c0
-172 -3 -241 -12 -250 -7 -7 -31 -12 -55 -12 -39 0 -43 -2 -43 -25 l0 -25 170
0 170 0 0 25 c0 24 -3 25 -53 25 -29 0 -58 5 -65 12 -9 9 -12 78 -12 250 l0
238 80 0 c79 0 80 0 80 25 0 25 -1 25 -80 25 l-80 0 0 110 c0 117 13 162 57
202 37 34 105 34 72 1 -20 -20 -6 -76 23 -92 58 -33 116 25 86 85 -29 59 -107
85 -184 60z"/>
<path d="M29533 16383 c-59 -4 -63 -6 -63 -28 0 -21 6 -25 45 -31 29 -4 49
-13 55 -25 14 -25 13 -774 0 -800 -8 -14 -21 -19 -55 -19 -41 0 -45 -2 -45
-25 l0 -25 160 0 160 0 0 25 c0 23 -4 25 -43 25 -24 0 -48 5 -55 12 -8 8 -12
60 -12 168 0 191 12 241 69 293 69 62 145 68 185 13 19 -25 21 -43 24 -243 2
-154 0 -219 -9 -229 -7 -8 -30 -14 -55 -14 -40 0 -44 -2 -44 -25 l0 -25 160 0
160 0 0 25 c0 23 -4 25 -45 25 -34 0 -47 5 -55 19 -6 12 -10 102 -10 223 0
179 -2 207 -19 238 -29 55 -62 74 -140 78 -87 5 -133 -10 -182 -59 l-39 -39 0
225 0 225 -42 -2 c-24 -1 -71 -3 -105 -5z"/>
<path d="M12090 16354 c0 -18 8 -22 54 -28 95 -11 86 33 86 -420 0 -299 -3
-405 -12 -414 -7 -7 -38 -12 -70 -12 -55 0 -58 -1 -58 -25 l0 -25 365 0 c248
0 365 3 365 10 0 12 28 268 34 318 4 28 2 32 -18 32 -21 0 -24 -6 -29 -60 -13
-119 -79 -216 -164 -239 -21 -6 -88 -11 -150 -11 -102 0 -113 2 -123 20 -7 13
-10 147 -8 410 3 329 5 392 18 400 7 5 47 12 87 16 66 6 73 8 73 28 0 21 -2
21 -225 21 -222 0 -225 0 -225 -21z"/>
<path d="M15450 16354 c0 -18 8 -22 54 -28 95 -11 86 33 86 -420 0 -299 -3
-405 -12 -414 -7 -7 -38 -12 -70 -12 -55 0 -58 -1 -58 -25 l0 -25 365 0 c248
0 365 3 365 10 0 12 28 268 34 318 4 28 2 32 -18 32 -21 0 -24 -6 -29 -60 -13
-119 -79 -216 -164 -239 -21 -6 -88 -11 -150 -11 -102 0 -113 2 -123 20 -7 13
-10 147 -8 410 3 329 5 392 18 400 7 5 47 12 87 16 66 6 73 8 73 28 0 21 -2
21 -225 21 -222 0 -225 0 -225 -21z"/>
<path d="M27370 16356 c0 -22 5 -24 65 -31 49 -5 68 -11 75 -25 6 -11 10 -168
10 -404 0 -443 6 -416 -91 -416 -56 0 -59 -1 -59 -25 l0 -25 205 0 205 0 0 25
c0 24 -3 25 -54 25 -86 0 -86 0 -86 216 l0 184 109 0 c96 0 112 -3 142 -23 63
-42 75 -72 82 -201 7 -131 21 -173 68 -208 72 -53 193 -66 244 -26 33 26 55
75 55 123 0 55 -30 43 -45 -17 -13 -54 -29 -76 -63 -89 -57 -22 -85 25 -112
190 -10 67 -27 137 -36 156 -18 39 -64 82 -107 100 l-28 12 45 17 c62 24 121
68 152 116 32 47 37 127 11 175 -41 79 -149 145 -267 164 -36 6 -167 11 -292
11 l-228 0 0 -24z m473 -36 c81 -12 118 -29 146 -69 46 -65 46 -197 -1 -256
-40 -52 -92 -68 -225 -73 l-123 -4 0 188 c0 104 4 194 8 200 15 24 89 29 195
14z"/>
<path d="M31660 16354 c0 -18 8 -22 54 -28 95 -11 86 33 86 -420 0 -299 -3
-405 -12 -414 -7 -7 -38 -12 -70 -12 -55 0 -58 -1 -58 -25 l0 -25 365 0 c248
0 365 3 365 10 0 12 28 268 34 318 4 28 2 32 -18 32 -21 0 -24 -6 -29 -60 -13
-119 -79 -216 -164 -239 -21 -6 -88 -11 -150 -11 -102 0 -113 2 -123 20 -7 13
-10 147 -8 410 3 329 5 392 18 400 7 5 47 12 87 16 66 6 73 8 73 28 0 21 -2
21 -225 21 -222 0 -225 0 -225 -21z"/>
<path d="M28493 16350 c-67 -27 -52 -132 22 -146 74 -14 118 88 59 135 -29 23
-46 25 -81 11z"/>
<path d="M14145 16225 c-13 -106 -86 -205 -151 -205 -17 0 -24 -6 -24 -20 0
-18 7 -20 60 -20 l60 0 0 -218 c0 -206 1 -220 23 -262 27 -54 68 -80 139 -86
102 -10 157 58 158 194 0 65 -2 72 -20 72 -18 0 -20 -7 -20 -62 -1 -116 -54
-186 -118 -156 -51 25 -57 53 -60 296 l-3 222 100 0 101 0 0 25 0 25 -100 0
-100 0 0 125 c0 116 -1 125 -19 125 -15 0 -20 -10 -26 -55z"/>
<path d="M17505 16225 c-13 -106 -86 -205 -151 -205 -17 0 -24 -6 -24 -20 0
-18 7 -20 60 -20 l60 0 0 -218 c0 -206 1 -220 23 -262 27 -54 68 -80 139 -86
102 -10 157 58 158 194 0 65 -2 72 -20 72 -18 0 -20 -7 -20 -62 -1 -116 -54
-186 -118 -156 -51 25 -57 53 -60 296 l-3 222 100 0 101 0 0 25 0 25 -100 0
-100 0 0 125 c0 116 -1 125 -19 125 -15 0 -20 -10 -26 -55z"/>
<path d="M30355 16225 c-13 -106 -86 -205 -151 -205 -17 0 -24 -6 -24 -20 0
-18 7 -20 60 -20 l60 0 0 -218 c0 -206 1 -220 23 -262 27 -54 68 -80 139 -86
102 -10 157 58 158 194 0 65 -2 72 -20 72 -18 0 -20 -7 -20 -62 -1 -116 -54
-186 -118 -156 -51 25 -57 53 -60 296 l-3 222 100 0 101 0 0 25 0 25 -100 0
-100 0 0 125 c0 116 -1 125 -19 125 -15 0 -20 -10 -26 -55z"/>
<path d="M33715 16225 c-13 -106 -86 -205 -151 -205 -17 0 -24 -6 -24 -20 0
-18 7 -20 60 -20 l60 0 0 -218 c0 -206 1 -220 23 -262 27 -54 68 -80 139 -86
102 -10 157 58 158 194 0 65 -2 72 -20 72 -18 0 -20 -7 -20 -62 -1 -116 -54
-186 -118 -156 -51 25 -57 53 -60 296 l-3 222 100 0 101 0 0 25 0 25 -100 0
-100 0 0 125 c0 116 -1 125 -19 125 -15 0 -20 -10 -26 -55z"/>
<path d="M29275 16048 c-16 -6 -42 -19 -57 -30 -27 -19 -28 -19 -67 2 -52 26
-150 27 -206 1 -79 -36 -125 -104 -125 -183 0 -43 29 -120 48 -132 7 -4 4 -23
-10 -53 -25 -56 -20 -121 11 -164 l21 -28 -27 -15 c-97 -50 -115 -157 -39
-224 132 -116 458 -100 543 27 40 59 26 158 -28 208 -49 45 -96 56 -250 62
-125 5 -150 9 -168 25 -26 23 -37 77 -22 105 11 21 13 21 44 4 21 -12 55 -18
102 -18 82 0 139 26 189 88 25 31 31 49 34 102 4 53 0 71 -17 100 -11 20 -21
40 -21 45 0 13 39 37 72 45 24 6 27 4 30 -26 6 -64 70 -65 76 -1 6 61 -54 88
-133 60z m-162 -68 c36 -28 50 -79 45 -166 -3 -68 -6 -77 -36 -107 -27 -26
-40 -32 -76 -32 -82 0 -123 70 -113 192 5 64 22 99 59 120 35 19 92 16 121 -7z
m133 -569 c72 -32 86 -95 34 -155 -43 -48 -108 -71 -200 -71 -124 1 -223 62
-223 137 0 43 24 79 68 100 35 17 55 18 159 13 85 -4 132 -11 162 -24z"/>
<path d="M13111 16019 c-130 -65 -195 -229 -152 -385 37 -138 192 -241 332
-220 86 13 175 90 194 169 6 23 4 27 -13 27 -14 0 -27 -14 -42 -45 -26 -54
-69 -89 -127 -104 -123 -33 -233 81 -233 241 l0 48 208 2 207 3 -3 54 c-11
197 -192 299 -371 210z m189 -24 c34 -18 75 -99 85 -167 l6 -48 -162 0 -162 0
7 47 c19 140 126 220 226 168z"/>
<path d="M16481 16019 c-130 -65 -195 -229 -152 -385 37 -138 192 -241 332
-220 86 13 175 90 194 169 6 23 4 27 -13 27 -14 0 -27 -14 -42 -45 -26 -54
-69 -89 -127 -104 -123 -33 -233 81 -233 241 l0 48 208 2 207 3 -3 54 c-11
197 -192 299 -371 210z m189 -24 c34 -18 75 -99 85 -167 l6 -48 -162 0 -162 0
7 47 c19 140 126 220 226 168z"/>
<path d="M32681 16019 c-130 -65 -195 -229 -152 -385 37 -138 192 -241 332
-220 86 13 175 90 194 169 6 23 4 27 -13 27 -14 0 -27 -14 -42 -45 -26 -54
-69 -89 -127 -104 -123 -33 -233 81 -233 241 l0 48 208 2 207 3 -3 54 c-11
197 -192 299 -371 210z m189 -24 c34 -18 75 -99 85 -167 l6 -48 -162 0 -162 0
7 47 c19 140 126 220 226 168z"/>
<path d="M28443 16033 c-38 -4 -43 -7 -43 -29 0 -20 5 -24 28 -24 15 0 38 -7
50 -16 22 -15 22 -19 22 -238 0 -159 -3 -225 -12 -234 -7 -7 -31 -12 -55 -12
-39 0 -43 -2 -43 -25 l0 -25 150 0 150 0 0 25 c0 21 -5 25 -29 25 -64 0 -61
-14 -61 286 l0 274 -57 -2 c-32 -1 -77 -3 -100 -5z"/>
<path d="M18260 16004 c0 -18 7 -22 45 -26 25 -3 52 -12 61 -19 35 -29 185
-233 180 -245 -12 -30 -139 -181 -171 -203 -19 -13 -55 -26 -80 -29 -39 -4
-45 -8 -45 -28 l0 -24 130 0 130 0 0 24 c0 15 -7 26 -20 29 -35 9 -24 50 36
127 31 39 60 68 64 63 5 -4 36 -44 69 -87 48 -62 59 -82 50 -92 -6 -8 -18 -14
-25 -14 -8 0 -14 -10 -14 -25 l0 -25 145 0 145 0 0 25 c0 23 -4 25 -44 25 -57
0 -73 14 -183 157 l-91 119 70 85 c75 91 120 124 180 134 31 5 38 11 38 29 0
21 -3 22 -125 22 l-125 1 0 -24 c0 -13 6 -26 14 -29 38 -14 29 -46 -37 -131
l-40 -51 -59 74 c-32 40 -58 78 -58 84 0 6 11 16 25 22 16 7 25 19 25 34 0 22
-1 22 -145 21 -142 -1 -145 -1 -145 -23z"/>
<path d="M34470 16004 c0 -18 7 -22 45 -26 25 -3 52 -12 61 -19 35 -29 185
-233 180 -245 -12 -30 -139 -181 -171 -203 -19 -13 -55 -26 -80 -29 -39 -4
-45 -8 -45 -28 l0 -24 130 0 130 0 0 24 c0 15 -7 26 -20 29 -35 9 -24 50 36
127 31 39 60 68 64 63 5 -4 36 -44 69 -87 48 -62 59 -82 50 -92 -6 -8 -18 -14
-25 -14 -8 0 -14 -10 -14 -25 l0 -25 145 0 145 0 0 25 c0 23 -4 25 -44 25 -57
0 -73 14 -183 157 l-91 119 70 85 c75 91 120 124 180 134 31 5 38 11 38 29 0
21 -3 22 -125 22 l-125 1 0 -24 c0 -13 6 -26 14 -29 38 -14 29 -46 -37 -131
l-40 -51 -59 74 c-32 40 -58 78 -58 84 0 6 11 16 25 22 16 7 25 19 25 34 0 22
-1 22 -145 21 -142 -1 -145 -1 -145 -23z"/>
<path d="M11815 11860 l-2760 -2760 23 -22 22 -23 2762 2762 c2739 2739 2762
2762 2743 2783 -10 11 -21 20 -24 20 -3 0 -1248 -1242 -2766 -2760z"/>
<path d="M16952 14597 l-21 -23 2759 -2759 c2736 -2736 2759 -2759 2780 -2740
11 10 20 23 20 29 0 11 -5500 5516 -5511 5516 -3 0 -15 -10 -27 -23z"/>
<path d="M5436 8559 c-278 -245 -337 -797 -125 -1156 40 -67 159 -193 183
-193 27 0 18 23 -34 85 -174 206 -236 575 -154 914 22 92 93 234 153 308 28
34 51 67 51 72 0 22 -28 10 -74 -30z"/>
<path d="M8796 8559 c-278 -245 -337 -797 -125 -1156 40 -67 159 -193 183
-193 27 0 18 23 -34 85 -174 206 -236 575 -154 914 22 92 93 234 153 308 28
34 51 67 51 72 0 22 -28 10 -74 -30z"/>
<path d="M12575 8590 c-4 -6 16 -35 44 -66 62 -68 134 -210 161 -319 41 -160
41 -441 1 -600 -28 -108 -99 -248 -161 -317 -47 -52 -56 -78 -29 -78 42 0 170
156 223 271 67 145 81 220 80 429 -1 209 -14 282 -80 420 -43 91 -130 208
-182 244 -42 29 -48 31 -57 16z"/>
<path d="M13115 8590 c-4 -6 16 -35 44 -66 62 -68 134 -210 161 -319 41 -160
41 -441 1 -600 -28 -108 -99 -248 -161 -317 -47 -52 -56 -78 -29 -78 42 0 170
156 223 271 67 145 81 220 80 429 -1 209 -14 282 -80 420 -43 91 -130 208
-182 244 -42 29 -48 31 -57 16z"/>
<path d="M21646 8559 c-278 -245 -337 -797 -125 -1156 40 -67 159 -193 183
-193 27 0 18 23 -34 85 -174 206 -236 575 -154 914 22 92 93 234 153 308 28
34 51 67 51 72 0 22 -28 10 -74 -30z"/>
<path d="M25006 8559 c-278 -245 -337 -797 -125 -1156 40 -67 159 -193 183
-193 27 0 18 23 -34 85 -174 206 -236 575 -154 914 22 92 93 234 153 308 28
34 51 67 51 72 0 22 -28 10 -74 -30z"/>
<path d="M28785 8590 c-4 -6 16 -35 44 -66 62 -68 134 -210 161 -319 41 -160
41 -441 1 -600 -28 -108 -99 -248 -161 -317 -47 -52 -56 -78 -29 -78 42 0 170
156 223 271 67 145 81 220 80 429 -1 209 -14 282 -80 420 -43 91 -130 208
-182 244 -42 29 -48 31 -57 16z"/>
<path d="M29325 8590 c-4 -6 16 -35 44 -66 62 -68 134 -210 161 -319 41 -160
41 -441 1 -600 -28 -108 -99 -248 -161 -317 -47 -52 -56 -78 -29 -78 42 0 170
156 223 271 67 145 81 220 80 429 -1 209 -14 282 -80 420 -43 91 -130 208
-182 244 -42 29 -48 31 -57 16z"/>
<path d="M4004 8526 c-56 -18 -97 -50 -125 -99 -20 -36 -24 -59 -27 -154 l-4
-113 -54 0 c-51 0 -54 -1 -54 -25 0 -24 3 -25 55 -25 l55 0 0 -238 c0 -172 -3
-241 -12 -250 -7 -7 -31 -12 -55 -12 -39 0 -43 -2 -43 -25 l0 -25 170 0 170 0
0 25 c0 24 -3 25 -53 25 -29 0 -58 5 -65 12 -9 9 -12 78 -12 250 l0 238 80 0
c79 0 80 0 80 25 0 25 -1 25 -80 25 l-80 0 0 110 c0 117 13 162 57 202 37 34
105 34 72 1 -20 -20 -6 -76 23 -92 58 -33 116 25 86 85 -29 59 -107 85 -184
60z"/>
<path d="M7374 8526 c-56 -18 -97 -50 -125 -99 -20 -36 -24 -59 -27 -154 l-4
-113 -54 0 c-51 0 -54 -1 -54 -25 0 -24 3 -25 55 -25 l55 0 0 -238 c0 -172 -3
-241 -12 -250 -7 -7 -31 -12 -55 -12 -39 0 -43 -2 -43 -25 l0 -25 170 0 170 0
0 25 c0 24 -3 25 -53 25 -29 0 -58 5 -65 12 -9 9 -12 78 -12 250 l0 238 80 0
c79 0 80 0 80 25 0 25 -1 25 -80 25 l-80 0 0 110 c0 117 13 162 57 202 37 34
105 34 72 1 -20 -20 -6 -76 23 -92 58 -33 116 25 86 85 -29 59 -107 85 -184
60z"/>
<path d="M10734 8526 c-56 -18 -97 -50 -125 -99 -20 -36 -24 -59 -27 -154 l-4
-113 -54 0 c-51 0 -54 -1 -54 -25 0 -24 3 -25 55 -25 l55 0 0 -238 c0 -172 -3
-241 -12 -250 -7 -7 -31 -12 -55 -12 -39 0 -43 -2 -43 -25 l0 -25 170 0 170 0
0 25 c0 24 -3 25 -53 25 -29 0 -58 5 -65 12 -9 9 -12 78 -12 250 l0 238 80 0
c79 0 80 0 80 25 0 25 -1 25 -80 25 l-80 0 0 110 c0 117 13 162 57 202 37 34
105 34 72 1 -20 -20 -6 -76 23 -92 58 -33 116 25 86 85 -29 59 -107 85 -184
60z"/>
<path d="M23574 8526 c-56 -18 -97 -50 -125 -99 -20 -36 -24 -59 -27 -154 l-4
-113 -54 0 c-51 0 -54 -1 -54 -25 0 -24 3 -25 55 -25 l55 0 0 -238 c0 -172 -3
-241 -12 -250 -7 -7 -31 -12 -55 -12 -39 0 -43 -2 -43 -25 l0 -25 170 0 170 0
0 25 c0 24 -3 25 -53 25 -29 0 -58 5 -65 12 -9 9 -12 78 -12 250 l0 238 80 0
c79 0 80 0 80 25 0 25 -1 25 -80 25 l-80 0 0 110 c0 117 13 162 57 202 37 34
105 34 72 1 -20 -20 -6 -76 23 -92 58 -33 116 25 86 85 -29 59 -107 85 -184
60z"/>
<path d="M26944 8526 c-56 -18 -97 -50 -125 -99 -20 -36 -24 -59 -27 -154 l-4
-113 -54 0 c-51 0 -54 -1 -54 -25 0 -24 3 -25 55 -25 l55 0 0 -238 c0 -172 -3
-241 -12 -250 -7 -7 -31 -12 -55 -12 -39 0 -43 -2 -43 -25 l0 -25 170 0 170 0
0 25 c0 24 -3 25 -53 25 -29 0 -58 5 -65 12 -9 9 -12 78 -12 250 l0 238 80 0
c79 0 80 0 80 25 0 25 -1 25 -80 25 l-80 0 0 110 c0 117 13 162 57 202 37 34
105 34 72 1 -20 -20 -6 -76 23 -92 58 -33 116 25 86 85 -29 59 -107 85 -184
60z"/>
<path d="M19703 8513 c-59 -4 -63 -6 -63 -28 0 -21 6 -25 45 -31 29 -4 49 -13
55 -25 14 -25 13 -774 0 -800 -8 -14 -21 -19 -55 -19 -41 0 -45 -2 -45 -25 l0
-25 160 0 160 0 0 25 c0 23 -4 25 -43 25 -24 0 -48 5 -55 12 -8 8 -12 60 -12
168 0 191 12 241 69 293 69 62 145 68 185 13 19 -25 21 -43 24 -243 2 -154 0
-219 -9 -229 -7 -8 -30 -14 -55 -14 -40 0 -44 -2 -44 -25 l0 -25 160 0 160 0
0 25 c0 23 -4 25 -45 25 -34 0 -47 5 -55 19 -6 12 -10 102 -10 223 0 179 -2
207 -19 238 -29 55 -62 74 -140 78 -87 5 -133 -10 -182 -59 l-39 -39 0 225 0
225 -42 -2 c-24 -1 -71 -3 -105 -5z"/>
<path d="M2260 8484 c0 -18 8 -22 54 -28 95 -11 86 33 86 -420 0 -299 -3 -405
-12 -414 -7 -7 -38 -12 -70 -12 -55 0 -58 -1 -58 -25 l0 -25 365 0 c248 0 365
3 365 10 0 12 28 268 34 318 4 28 2 32 -18 32 -21 0 -24 -6 -29 -60 -13 -119
-79 -216 -164 -239 -21 -6 -88 -11 -150 -11 -102 0 -113 2 -123 20 -7 13 -10
147 -8 410 3 329 5 392 18 400 7 5 47 12 87 16 66 6 73 8 73 28 0 21 -2 21
-225 21 -222 0 -225 0 -225 -21z"/>
<path d="M5630 8484 c0 -18 8 -22 54 -28 95 -11 86 33 86 -420 0 -299 -3 -405
-12 -414 -7 -7 -38 -12 -70 -12 -55 0 -58 -1 -58 -25 l0 -25 365 0 c248 0 365
3 365 10 0 12 28 268 34 318 4 28 2 32 -18 32 -21 0 -24 -6 -29 -60 -13 -119
-79 -216 -164 -239 -21 -6 -88 -11 -150 -11 -102 0 -113 2 -123 20 -7 13 -10
147 -8 410 3 329 5 392 18 400 7 5 47 12 87 16 66 6 73 8 73 28 0 21 -2 21
-225 21 -222 0 -225 0 -225 -21z"/>
<path d="M8990 8484 c0 -18 8 -22 54 -28 95 -11 86 33 86 -420 0 -299 -3 -405
-12 -414 -7 -7 -38 -12 -70 -12 -55 0 -58 -1 -58 -25 l0 -25 365 0 c248 0 365
3 365 10 0 12 28 268 34 318 4 28 2 32 -18 32 -21 0 -24 -6 -29 -60 -13 -119
-79 -216 -164 -239 -21 -6 -88 -11 -150 -11 -102 0 -113 2 -123 20 -7 13 -10
147 -8 410 3 329 5 392 18 400 7 5 47 12 87 16 66 6 73 8 73 28 0 21 -2 21
-225 21 -222 0 -225 0 -225 -21z"/>
<path d="M17550 8486 c0 -22 5 -24 65 -31 49 -5 68 -11 75 -25 6 -11 10 -168
10 -404 0 -443 6 -416 -91 -416 -56 0 -59 -1 -59 -25 l0 -25 205 0 205 0 0 25
c0 24 -3 25 -54 25 -86 0 -86 0 -86 216 l0 184 109 0 c96 0 112 -3 142 -23 63
-42 75 -72 82 -201 7 -131 21 -173 68 -208 72 -53 193 -66 244 -26 33 26 55
75 55 123 0 55 -30 43 -45 -17 -13 -54 -29 -76 -63 -89 -57 -22 -85 25 -112
190 -10 67 -27 137 -36 156 -18 39 -64 82 -107 100 l-28 12 45 17 c62 24 121
68 152 116 32 47 37 127 11 175 -41 79 -149 145 -267 164 -36 6 -167 11 -292
11 l-228 0 0 -24z m473 -36 c81 -12 118 -29 146 -69 46 -65 46 -197 -1 -256
-40 -52 -92 -68 -225 -73 l-123 -4 0 188 c0 104 4 194 8 200 15 24 89 29 195
14z"/>
<path d="M21840 8484 c0 -18 8 -22 54 -28 95 -11 86 33 86 -420 0 -299 -3
-405 -12 -414 -7 -7 -38 -12 -70 -12 -55 0 -58 -1 -58 -25 l0 -25 365 0 c248
0 365 3 365 10 0 12 28 268 34 318 4 28 2 32 -18 32 -21 0 -24 -6 -29 -60 -13
-119 -79 -216 -164 -239 -21 -6 -88 -11 -150 -11 -102 0 -113 2 -123 20 -7 13
-10 147 -8 410 3 329 5 392 18 400 7 5 47 12 87 16 66 6 73 8 73 28 0 21 -2
21 -225 21 -222 0 -225 0 -225 -21z"/>
<path d="M25200 8484 c0 -18 8 -22 54 -28 95 -11 86 33 86 -420 0 -299 -3
-405 -12 -414 -7 -7 -38 -12 -70 -12 -55 0 -58 -1 -58 -25 l0 -25 365 0 c248
0 365 3 365 10 0 12 28 268 34 318 4 28 2 32 -18 32 -21 0 -24 -6 -29 -60 -13
-119 -79 -216 -164 -239 -21 -6 -88 -11 -150 -11 -102 0 -113 2 -123 20 -7 13
-10 147 -8 410 3 329 5 392 18 400 7 5 47 12 87 16 66 6 73 8 73 28 0 21 -2
21 -225 21 -222 0 -225 0 -225 -21z"/>
<path d="M18673 8480 c-67 -27 -52 -132 22 -146 74 -14 118 88 59 135 -29 23
-46 25 -81 11z"/>
<path d="M4325 8355 c-13 -106 -86 -205 -151 -205 -17 0 -24 -6 -24 -20 0 -18
7 -20 60 -20 l60 0 0 -218 c0 -206 1 -220 23 -262 27 -54 68 -80 139 -86 102
-10 157 58 158 194 0 65 -2 72 -20 72 -18 0 -20 -7 -20 -62 -1 -116 -54 -186
-118 -156 -51 25 -57 53 -60 296 l-3 222 100 0 101 0 0 25 0 25 -100 0 -100 0
0 125 c0 116 -1 125 -19 125 -15 0 -20 -10 -26 -55z"/>
<path d="M7685 8355 c-13 -106 -86 -205 -151 -205 -17 0 -24 -6 -24 -20 0 -18
7 -20 60 -20 l60 0 0 -218 c0 -206 1 -220 23 -262 27 -54 68 -80 139 -86 102
-10 157 58 158 194 0 65 -2 72 -20 72 -18 0 -20 -7 -20 -62 -1 -116 -54 -186
-118 -156 -51 25 -57 53 -60 296 l-3 222 100 0 101 0 0 25 0 25 -100 0 -100 0
0 125 c0 116 -1 125 -19 125 -15 0 -20 -10 -26 -55z"/>
<path d="M11045 8355 c-13 -106 -86 -205 -151 -205 -17 0 -24 -6 -24 -20 0
-18 7 -20 60 -20 l60 0 0 -218 c0 -206 1 -220 23 -262 27 -54 68 -80 139 -86
102 -10 157 58 158 194 0 65 -2 72 -20 72 -18 0 -20 -7 -20 -62 -1 -116 -54
-186 -118 -156 -51 25 -57 53 -60 296 l-3 222 100 0 101 0 0 25 0 25 -100 0
-100 0 0 125 c0 116 -1 125 -19 125 -15 0 -20 -10 -26 -55z"/>
<path d="M20525 8355 c-13 -106 -86 -205 -151 -205 -17 0 -24 -6 -24 -20 0
-18 7 -20 60 -20 l60 0 0 -218 c0 -206 1 -220 23 -262 27 -54 68 -80 139 -86
102 -10 157 58 158 194 0 65 -2 72 -20 72 -18 0 -20 -7 -20 -62 -1 -116 -54
-186 -118 -156 -51 25 -57 53 -60 296 l-3 222 100 0 101 0 0 25 0 25 -100 0
-100 0 0 125 c0 116 -1 125 -19 125 -15 0 -20 -10 -26 -55z"/>
<path d="M23895 8355 c-13 -106 -86 -205 -151 -205 -17 0 -24 -6 -24 -20 0
-18 7 -20 60 -20 l60 0 0 -218 c0 -206 1 -220 23 -262 27 -54 68 -80 139 -86
102 -10 157 58 158 194 0 65 -2 72 -20 72 -18 0 -20 -7 -20 -62 -1 -116 -54
-186 -118 -156 -51 25 -57 53 -60 296 l-3 222 100 0 101 0 0 25 0 25 -100 0
-100 0 0 125 c0 116 -1 125 -19 125 -15 0 -20 -10 -26 -55z"/>
<path d="M27255 8355 c-13 -106 -86 -205 -151 -205 -17 0 -24 -6 -24 -20 0
-18 7 -20 60 -20 l60 0 0 -218 c0 -206 1 -220 23 -262 27 -54 68 -80 139 -86
102 -10 157 58 158 194 0 65 -2 72 -20 72 -18 0 -20 -7 -20 -62 -1 -116 -54
-186 -118 -156 -51 25 -57 53 -60 296 l-3 222 100 0 101 0 0 25 0 25 -100 0
-100 0 0 125 c0 116 -1 125 -19 125 -15 0 -20 -10 -26 -55z"/>
<path d="M19445 8178 c-16 -6 -42 -19 -57 -30 -27 -19 -28 -19 -67 2 -52 26
-150 27 -206 1 -79 -36 -125 -104 -125 -183 0 -43 29 -120 48 -132 7 -4 4 -23
-10 -53 -25 -56 -20 -121 11 -164 l21 -28 -27 -15 c-97 -50 -115 -157 -39
-224 132 -116 458 -100 543 27 40 59 26 158 -28 208 -49 45 -96 56 -250 62
-125 5 -150 9 -168 25 -26 23 -37 77 -22 105 11 21 13 21 44 4 21 -12 55 -18
102 -18 82 0 139 26 189 88 25 31 31 49 34 102 4 53 0 71 -17 100 -11 20 -21
40 -21 45 0 13 39 37 72 45 24 6 27 4 30 -26 6 -64 70 -65 76 -1 6 61 -54 88
-133 60z m-162 -68 c36 -28 50 -79 45 -166 -3 -68 -6 -77 -36 -107 -27 -26
-40 -32 -76 -32 -82 0 -123 70 -113 192 5 64 22 99 59 120 35 19 92 16 121 -7z
m133 -569 c72 -32 86 -95 34 -155 -43 -48 -108 -71 -200 -71 -124 1 -223 62
-223 137 0 43 24 79 68 100 35 17 55 18 159 13 85 -4 132 -11 162 -24z"/>
<path d="M3291 8149 c-130 -65 -195 -229 -152 -385 37 -138 192 -241 332 -220
86 13 175 90 194 169 6 23 4 27 -13 27 -14 0 -27 -14 -42 -45 -26 -54 -69 -89
-127 -104 -123 -33 -233 81 -233 241 l0 48 208 2 207 3 -3 54 c-11 197 -192
299 -371 210z m189 -24 c34 -18 75 -99 85 -167 l6 -48 -162 0 -162 0 7 47 c19
140 126 220 226 168z"/>
<path d="M6651 8149 c-130 -65 -195 -229 -152 -385 37 -138 192 -241 332 -220
86 13 175 90 194 169 6 23 4 27 -13 27 -14 0 -27 -14 -42 -45 -26 -54 -69 -89
-127 -104 -123 -33 -233 81 -233 241 l0 48 208 2 207 3 -3 54 c-11 197 -192
299 -371 210z m189 -24 c34 -18 75 -99 85 -167 l6 -48 -162 0 -162 0 7 47 c19
140 126 220 226 168z"/>
<path d="M10011 8149 c-130 -65 -195 -229 -152 -385 37 -138 192 -241 332
-220 86 13 175 90 194 169 6 23 4 27 -13 27 -14 0 -27 -14 -42 -45 -26 -54
-69 -89 -127 -104 -123 -33 -233 81 -233 241 l0 48 208 2 207 3 -3 54 c-11
197 -192 299 -371 210z m189 -24 c34 -18 75 -99 85 -167 l6 -48 -162 0 -162 0
7 47 c19 140 126 220 226 168z"/>
<path d="M22861 8149 c-130 -65 -195 -229 -152 -385 37 -138 192 -241 332
-220 86 13 175 90 194 169 6 23 4 27 -13 27 -14 0 -27 -14 -42 -45 -26 -54
-69 -89 -127 -104 -123 -33 -233 81 -233 241 l0 48 208 2 207 3 -3 54 c-11
197 -192 299 -371 210z m189 -24 c34 -18 75 -99 85 -167 l6 -48 -162 0 -162 0
7 47 c19 140 126 220 226 168z"/>
<path d="M26221 8149 c-130 -65 -195 -229 -152 -385 37 -138 192 -241 332
-220 86 13 175 90 194 169 6 23 4 27 -13 27 -14 0 -27 -14 -42 -45 -26 -54
-69 -89 -127 -104 -123 -33 -233 81 -233 241 l0 48 208 2 207 3 -3 54 c-11
197 -192 299 -371 210z m189 -24 c34 -18 75 -99 85 -167 l6 -48 -162 0 -162 0
7 47 c19 140 126 220 226 168z"/>
<path d="M18623 8163 c-38 -4 -43 -7 -43 -29 0 -20 5 -24 28 -24 15 0 38 -7
50 -16 22 -15 22 -19 22 -238 0 -159 -3 -225 -12 -234 -7 -7 -31 -12 -55 -12
-39 0 -43 -2 -43 -25 l0 -25 150 0 150 0 0 25 c0 21 -5 25 -29 25 -64 0 -61
-14 -61 286 l0 274 -57 -2 c-32 -1 -77 -3 -100 -5z"/>
<path d="M11790 8134 c0 -18 7 -22 45 -26 25 -3 52 -12 61 -19 35 -29 185
-233 180 -245 -12 -30 -139 -181 -171 -203 -19 -13 -55 -26 -80 -29 -39 -4
-45 -8 -45 -28 l0 -24 130 0 130 0 0 24 c0 15 -7 26 -20 29 -35 9 -24 50 36
127 31 39 60 68 64 63 5 -4 36 -44 69 -87 48 -62 59 -82 50 -92 -6 -8 -18 -14
-25 -14 -8 0 -14 -10 -14 -25 l0 -25 145 0 145 0 0 25 c0 23 -4 25 -44 25 -57
0 -73 14 -183 157 l-91 119 70 85 c75 91 120 124 180 134 31 5 38 11 38 29 0
21 -3 22 -125 22 l-125 1 0 -24 c0 -13 6 -26 14 -29 38 -14 29 -46 -37 -131
l-40 -51 -59 74 c-32 40 -58 78 -58 84 0 6 11 16 25 22 16 7 25 19 25 34 0 22
-1 22 -145 21 -142 -1 -145 -1 -145 -23z"/>
<path d="M28000 8134 c0 -18 7 -22 45 -26 25 -3 52 -12 61 -19 35 -29 185
-233 180 -245 -12 -30 -139 -181 -171 -203 -19 -13 -55 -26 -80 -29 -39 -4
-45 -8 -45 -28 l0 -24 130 0 130 0 0 24 c0 15 -7 26 -20 29 -35 9 -24 50 36
127 31 39 60 68 64 63 5 -4 36 -44 69 -87 48 -62 59 -82 50 -92 -6 -8 -18 -14
-25 -14 -8 0 -14 -10 -14 -25 l0 -25 145 0 145 0 0 25 c0 23 -4 25 -44 25 -57
0 -73 14 -183 157 l-91 119 70 85 c75 91 120 124 180 134 31 5 38 11 38 29 0
21 -3 22 -125 22 l-125 1 0 -24 c0 -13 6 -26 14 -29 38 -14 29 -46 -37 -131
l-40 -51 -59 74 c-32 40 -58 78 -58 84 0 6 11 16 25 22 16 7 25 19 25 34 0 22
-1 22 -145 21 -142 -1 -145 -1 -145 -23z"/>
<path d="M3352 3397 l-3353 -3353 23 -22 24 -21 3352 3352 3353 3353 -23 22
-24 21 -3352 -3352z"/>
<path d="M9080 6725 l-24 -26 3349 -3349 3350 -3350 25 25 25 25 -3351 3351
-3350 3350 -24 -26z"/>
</g>
</svg>
