<?xml version="1.0" standalone="no"?>
<!DOCTYPE svg PUBLIC "-//W3C//DTD SVG 20010904//EN"
 "http://www.w3.org/TR/2001/REC-SVG-20010904/DTD/svg10.dtd">
<svg version="1.0" xmlns="http://www.w3.org/2000/svg"
 width="3555.000000pt" height="2460.000000pt" viewBox="0 0 3555.000000 2460.000000"
 preserveAspectRatio="xMidYMid meet">
<metadata>
Created by potrace 1.16, written by Peter Selinger 2001-2019
</metadata>
<g transform="translate(0.000000,2460.000000) scale(0.100000,-0.100000)"
fill="#000000" stroke="none">
<path d="M31493 24133 c-49 -4 -53 -6 -53 -29 0 -21 5 -24 35 -24 29 0 37 -5
45 -26 6 -14 10 -149 10 -309 0 -160 -4 -295 -10 -309 -8 -21 -16 -26 -45 -26
-28 0 -35 -4 -35 -20 0 -19 7 -20 130 -20 123 0 130 1 130 20 0 14 -7 20 -24
20 -56 0 -56 1 -56 151 0 119 3 146 19 178 31 60 96 92 156 77 44 -11 55 -56
55 -229 0 -168 -3 -177 -57 -177 -26 0 -33 -4 -33 -20 0 -19 7 -20 130 -20
123 0 130 1 130 20 0 15 -7 20 -28 20 -49 0 -52 11 -52 185 0 132 -3 166 -18
195 -43 88 -199 94 -284 13 l-28 -27 0 182 0 182 -32 -2 c-18 -1 -57 -3 -85
-5z"/>
<path d="M29670 24106 c0 -24 3 -26 43 -26 24 0 48 -5 55 -12 9 -9 12 -95 12
-325 0 -299 -1 -313 -19 -323 -11 -5 -36 -10 -55 -10 -29 0 -36 -4 -36 -20 0
-19 7 -20 165 -20 158 0 165 1 165 20 0 17 -7 20 -44 20 -72 0 -76 9 -76 177
l0 145 98 -4 c155 -6 188 -37 195 -189 3 -49 11 -98 20 -115 30 -57 142 -97
211 -74 44 14 79 67 74 112 -3 37 -31 46 -36 13 -11 -69 -52 -107 -95 -88 -27
13 -41 53 -58 171 -13 94 -36 136 -91 167 l-36 20 46 19 c138 58 172 193 70
280 -81 70 -124 79 -380 84 l-228 4 0 -26z m481 -54 c44 -27 64 -70 63 -135
-1 -51 -20 -85 -68 -121 -23 -18 -45 -22 -147 -25 l-119 -3 0 140 c0 77 3 148
6 157 6 15 21 17 118 13 94 -3 117 -7 147 -26z"/>
<path d="M30615 24108 c-27 -15 -35 -28 -35 -59 0 -34 29 -59 68 -59 53 0 83
69 45 102 -26 23 -55 29 -78 16z"/>
<path d="M23622 24029 c-67 -34 -92 -85 -92 -192 l0 -87 -45 0 c-38 0 -45 -3
-45 -20 0 -17 7 -20 45 -20 l45 0 0 -181 c0 -105 -4 -188 -10 -200 -8 -13 -21
-19 -45 -19 -28 0 -35 -4 -35 -20 0 -19 7 -20 140 -20 133 0 140 1 140 20 0
16 -7 20 -37 20 -68 0 -68 -2 -71 210 l-3 190 70 0 c64 0 71 2 71 20 0 18 -7
20 -70 20 l-70 0 0 78 c1 116 37 182 101 182 18 0 19 -2 9 -15 -18 -21 -4 -64
25 -77 35 -16 75 12 75 51 0 72 -108 104 -198 60z"/>
<path d="M32181 24000 c-19 -88 -52 -134 -107 -149 -16 -4 -30 -15 -32 -24 -3
-14 5 -17 47 -17 l50 0 3 -190 3 -190 32 -32 c27 -27 41 -32 91 -36 35 -2 68
1 81 8 39 21 61 69 61 138 0 55 -2 62 -20 62 -17 0 -20 -7 -20 -52 0 -99 -65
-153 -116 -97 -17 19 -19 41 -22 205 l-3 184 80 0 c74 0 81 2 81 20 0 18 -7
20 -80 20 l-80 0 0 100 c0 92 -2 100 -19 100 -15 0 -22 -11 -30 -50z"/>
<path d="M22180 24003 c0 -21 5 -23 50 -23 38 0 52 -4 60 -19 6 -12 10 -132
10 -320 0 -339 2 -331 -76 -331 -37 0 -44 -3 -44 -20 0 -20 7 -20 308 -20
l308 0 13 123 c7 67 15 132 18 145 4 18 1 22 -21 22 -22 0 -26 -4 -26 -28 0
-16 -7 -53 -16 -83 -31 -105 -107 -144 -269 -137 l-80 3 -3 324 c-2 253 1 326
10 333 7 4 37 8 66 8 47 0 52 2 52 23 0 22 0 22 -180 22 l-180 0 0 -22z"/>
<path d="M23921 23900 c-19 -88 -52 -134 -107 -149 -16 -4 -30 -15 -32 -24 -3
-14 5 -17 47 -17 l50 0 3 -190 3 -190 32 -32 c27 -27 41 -32 91 -36 35 -2 68
1 81 8 39 21 61 69 61 138 0 55 -2 62 -20 62 -17 0 -20 -7 -20 -52 0 -99 -65
-153 -116 -97 -17 19 -19 41 -22 205 l-3 184 80 0 c74 0 81 2 81 20 0 18 -7
20 -80 20 l-80 0 0 100 c0 92 -2 100 -19 100 -15 0 -22 -11 -30 -50z"/>
<path d="M31231 23849 c-32 -19 -36 -19 -79 -5 -102 35 -202 6 -254 -72 -25
-38 -24 -116 3 -158 16 -26 18 -38 10 -53 -17 -31 -13 -113 6 -141 14 -20 15
-24 2 -28 -8 -3 -29 -20 -46 -38 -91 -90 11 -199 197 -211 189 -13 316 65 291
178 -20 88 -79 120 -236 126 -60 2 -120 6 -132 9 -31 6 -57 48 -49 78 6 24 7
25 41 10 85 -35 203 -5 250 64 29 43 33 111 10 156 -20 38 -19 41 10 54 40 18
55 15 55 -12 0 -29 33 -44 55 -26 20 16 19 55 -1 74 -22 23 -92 20 -133 -5z
m-118 -40 c73 -33 74 -194 1 -228 -68 -31 -128 5 -140 84 -9 61 3 100 38 130
32 27 63 31 101 14z m134 -462 c63 -34 54 -100 -19 -139 -34 -18 -59 -23 -123
-23 -90 0 -144 20 -178 67 -18 24 -18 30 -7 58 21 52 50 61 180 57 85 -2 123
-7 147 -20z"/>
<path d="M30583 23853 c-38 -4 -43 -7 -43 -29 0 -20 5 -24 30 -24 19 0 33 -7
40 -19 6 -11 10 -87 10 -176 0 -89 -4 -165 -10 -176 -8 -13 -21 -19 -45 -19
-28 0 -35 -4 -35 -20 0 -19 7 -20 125 -20 118 0 125 1 125 20 0 16 -7 20 -30
20 -19 0 -33 7 -40 19 -6 12 -10 103 -10 225 l0 206 -37 -2 c-21 -1 -57 -3
-80 -5z"/>
<path d="M32830 23831 c0 -15 10 -21 41 -26 34 -6 49 -18 106 -83 101 -119
100 -116 68 -154 -75 -92 -130 -139 -172 -151 -30 -8 -43 -16 -43 -29 0 -16
11 -18 100 -18 92 0 100 1 100 19 0 11 -4 23 -10 26 -20 13 -9 44 36 98 l47
55 53 -61 c56 -65 64 -84 39 -93 -8 -4 -15 -15 -15 -25 0 -18 9 -19 115 -19
108 0 115 1 115 20 0 15 -7 20 -29 20 -17 0 -41 10 -55 23 -32 28 -166 188
-166 198 0 4 33 41 73 82 47 50 82 78 102 82 51 11 55 14 55 35 0 19 -6 20
-100 20 l-100 0 0 -25 c0 -14 5 -25 10 -25 21 0 9 -38 -26 -83 -20 -26 -40
-47 -45 -47 -4 0 -29 26 -55 57 -45 57 -46 58 -25 71 12 8 21 23 21 33 0 18
-9 19 -120 19 -111 0 -120 -1 -120 -19z"/>
<path d="M23085 23759 c-60 -15 -129 -70 -156 -126 -32 -65 -33 -179 -2 -238
46 -86 128 -134 230 -135 34 0 74 5 90 11 71 26 149 149 96 149 -10 0 -27 -16
-38 -37 -43 -80 -144 -108 -216 -60 -43 28 -79 98 -79 154 l0 43 176 0 177 0
-6 55 c-14 138 -132 218 -272 184z m110 -43 c37 -16 68 -65 79 -128 l7 -38
-136 0 c-150 0 -148 -1 -124 71 15 43 45 78 84 95 39 17 48 17 90 0z"/>
<path d="M24560 23731 c0 -15 10 -21 41 -26 34 -6 49 -18 106 -83 101 -119
100 -116 68 -154 -75 -92 -130 -139 -172 -151 -30 -8 -43 -16 -43 -29 0 -16
11 -18 100 -18 92 0 100 1 100 19 0 11 -4 23 -10 26 -20 13 -9 44 36 98 l47
55 53 -61 c56 -65 64 -84 39 -93 -8 -4 -15 -15 -15 -25 0 -18 9 -19 115 -19
108 0 115 1 115 20 0 15 -7 20 -29 20 -17 0 -41 10 -55 23 -32 28 -166 188
-166 198 0 4 33 41 73 82 47 50 82 78 102 82 51 11 55 14 55 35 0 19 -6 20
-100 20 l-100 0 0 -25 c0 -14 5 -25 10 -25 21 0 9 -38 -26 -83 -20 -26 -40
-47 -45 -47 -4 0 -29 26 -55 57 -45 57 -46 58 -25 71 12 8 21 23 21 33 0 18
-9 19 -120 19 -111 0 -120 -1 -120 -19z"/>
<path d="M19772 19817 l-2983 -2983 23 -22 24 -21 2984 2984 c2959 2959 2984
2984 2965 3005 -10 11 -21 20 -24 20 -3 0 -1348 -1342 -2989 -2983z"/>
<path d="M24515 22780 c-19 -21 6 -46 2965 -3005 l2984 -2984 24 21 23 22
-2983 2983 c-1641 1641 -2986 2983 -2989 2983 -3 0 -14 -9 -24 -20z"/>
<path d="M15300 16262 c-72 -75 -127 -173 -156 -282 -25 -91 -25 -319 0 -410
30 -108 85 -207 156 -282 60 -62 100 -85 100 -57 0 6 -17 32 -39 58 -120 144
-171 318 -158 540 11 185 60 322 152 428 25 28 45 56 45 62 0 28 -41 5 -100
-57z"/>
<path d="M18550 16319 c0 -6 20 -33 44 -60 90 -100 138 -220 155 -384 24 -231
-34 -449 -154 -583 -44 -48 -51 -72 -21 -72 7 0 43 31 79 69 78 80 137 192
163 308 25 114 16 321 -20 430 -31 94 -106 215 -168 268 -41 34 -78 46 -78 24z"/>
<path d="M31440 16262 c-72 -75 -127 -173 -156 -282 -25 -91 -25 -319 0 -410
30 -108 85 -207 156 -282 60 -62 100 -85 100 -57 0 6 -17 32 -39 58 -120 144
-171 318 -158 540 11 185 60 322 152 428 25 28 45 56 45 62 0 28 -41 5 -100
-57z"/>
<path d="M34690 16319 c0 -6 20 -33 44 -60 90 -100 138 -220 155 -384 24 -231
-34 -449 -154 -583 -44 -48 -51 -72 -21 -72 7 0 43 31 79 69 78 80 137 192
163 308 25 114 16 321 -20 430 -31 94 -106 215 -168 268 -41 34 -78 46 -78 24z"/>
<path d="M14082 16259 c-67 -34 -92 -85 -92 -192 l0 -87 -45 0 c-38 0 -45 -3
-45 -20 0 -17 7 -20 45 -20 l45 0 0 -181 c0 -105 -4 -188 -10 -200 -8 -13 -21
-19 -45 -19 -28 0 -35 -4 -35 -20 0 -19 7 -20 140 -20 133 0 140 1 140 20 0
16 -7 20 -37 20 -68 0 -68 -2 -71 210 l-3 190 70 0 c64 0 71 2 71 20 0 18 -7
20 -70 20 l-70 0 0 78 c1 116 37 182 101 182 18 0 19 -2 9 -15 -18 -21 -4 -64
25 -77 35 -16 75 12 75 51 0 72 -108 104 -198 60z"/>
<path d="M16942 16259 c-67 -34 -92 -85 -92 -192 l0 -87 -45 0 c-38 0 -45 -3
-45 -20 0 -17 7 -20 45 -20 l45 0 0 -181 c0 -105 -4 -188 -10 -200 -8 -13 -21
-19 -45 -19 -28 0 -35 -4 -35 -20 0 -19 7 -20 140 -20 133 0 140 1 140 20 0
16 -7 20 -37 20 -68 0 -68 -2 -71 210 l-3 190 70 0 c64 0 71 2 71 20 0 18 -7
20 -70 20 l-70 0 0 78 c1 116 37 182 101 182 18 0 19 -2 9 -15 -18 -21 -4 -64
25 -77 35 -16 75 12 75 51 0 72 -108 104 -198 60z"/>
<path d="M33082 16259 c-67 -34 -92 -85 -92 -192 l0 -87 -45 0 c-38 0 -45 -3
-45 -20 0 -17 7 -20 45 -20 l45 0 0 -181 c0 -105 -4 -188 -10 -200 -8 -13 -21
-19 -45 -19 -28 0 -35 -4 -35 -20 0 -19 7 -20 140 -20 133 0 140 1 140 20 0
16 -7 20 -37 20 -68 0 -68 -2 -71 210 l-3 190 70 0 c64 0 71 2 71 20 0 18 -7
20 -70 20 l-70 0 0 78 c1 116 37 182 101 182 18 0 19 -2 9 -15 -18 -21 -4 -64
25 -77 35 -16 75 12 75 51 0 72 -108 104 -198 60z"/>
<path d="M29833 16263 c-49 -4 -53 -6 -53 -29 0 -21 5 -24 35 -24 29 0 37 -5
45 -26 6 -14 10 -149 10 -309 0 -160 -4 -295 -10 -309 -8 -21 -16 -26 -45 -26
-28 0 -35 -4 -35 -20 0 -19 7 -20 130 -20 123 0 130 1 130 20 0 14 -7 20 -24
20 -56 0 -56 1 -56 151 0 119 3 146 19 178 31 60 96 92 156 77 44 -11 55 -56
55 -229 0 -168 -3 -177 -57 -177 -26 0 -33 -4 -33 -20 0 -19 7 -20 130 -20
123 0 130 1 130 20 0 15 -7 20 -28 20 -49 0 -52 11 -52 185 0 132 -3 166 -18
195 -43 88 -199 94 -284 13 l-28 -27 0 182 0 182 -32 -2 c-18 -1 -57 -3 -85
-5z"/>
<path d="M12650 16233 c0 -21 5 -23 50 -23 38 0 52 -4 60 -19 6 -12 10 -132
10 -320 0 -339 2 -331 -76 -331 -37 0 -44 -3 -44 -20 0 -20 7 -20 308 -20
l308 0 13 123 c7 67 15 132 18 145 4 18 1 22 -21 22 -22 0 -26 -4 -26 -28 0
-16 -7 -53 -16 -83 -31 -105 -107 -144 -269 -137 l-80 3 -3 324 c-2 253 1 326
10 333 7 4 37 8 66 8 47 0 52 2 52 23 0 22 0 22 -180 22 l-180 0 0 -22z"/>
<path d="M15510 16233 c0 -21 5 -23 50 -23 38 0 52 -4 60 -19 6 -12 10 -132
10 -320 0 -339 2 -331 -76 -331 -37 0 -44 -3 -44 -20 0 -20 7 -20 308 -20
l308 0 13 123 c7 67 15 132 18 145 4 18 1 22 -21 22 -22 0 -26 -4 -26 -28 0
-16 -7 -53 -16 -83 -31 -105 -107 -144 -269 -137 l-80 3 -3 324 c-2 253 1 326
10 333 7 4 37 8 66 8 47 0 52 2 52 23 0 22 0 22 -180 22 l-180 0 0 -22z"/>
<path d="M28010 16236 c0 -24 3 -26 43 -26 24 0 48 -5 55 -12 9 -9 12 -95 12
-325 0 -299 -1 -313 -19 -323 -11 -5 -36 -10 -55 -10 -29 0 -36 -4 -36 -20 0
-19 7 -20 165 -20 158 0 165 1 165 20 0 17 -7 20 -44 20 -72 0 -76 9 -76 177
l0 145 98 -4 c155 -6 188 -37 195 -189 3 -49 11 -98 20 -115 30 -57 142 -97
211 -74 44 14 79 67 74 112 -3 37 -31 46 -36 13 -11 -69 -52 -107 -95 -88 -27
13 -41 53 -58 171 -13 94 -36 136 -91 167 l-36 20 46 19 c138 58 172 193 70
280 -81 70 -124 79 -380 84 l-228 4 0 -26z m481 -54 c44 -27 64 -70 63 -135
-1 -51 -20 -85 -68 -121 -23 -18 -45 -22 -147 -25 l-119 -3 0 140 c0 77 3 148
6 157 6 15 21 17 118 13 94 -3 117 -7 147 -26z"/>
<path d="M31650 16233 c0 -21 5 -23 50 -23 38 0 52 -4 60 -19 6 -12 10 -132
10 -320 0 -339 2 -331 -76 -331 -37 0 -44 -3 -44 -20 0 -20 7 -20 308 -20
l308 0 13 123 c7 67 15 132 18 145 4 18 1 22 -21 22 -22 0 -26 -4 -26 -28 0
-16 -7 -53 -16 -83 -31 -105 -107 -144 -269 -137 l-80 3 -3 324 c-2 253 1 326
10 333 7 4 37 8 66 8 47 0 52 2 52 23 0 22 0 22 -180 22 l-180 0 0 -22z"/>
<path d="M28955 16238 c-27 -15 -35 -28 -35 -59 0 -34 29 -59 68 -59 53 0 83
69 45 102 -26 23 -55 29 -78 16z"/>
<path d="M14381 16130 c-19 -88 -52 -134 -107 -149 -16 -4 -30 -15 -32 -24 -3
-14 5 -17 47 -17 l50 0 3 -190 3 -190 32 -32 c27 -27 41 -32 91 -36 35 -2 68
1 81 8 39 21 61 69 61 138 0 55 -2 62 -20 62 -17 0 -20 -7 -20 -52 0 -99 -65
-153 -116 -97 -17 19 -19 41 -22 205 l-3 184 80 0 c74 0 81 2 81 20 0 18 -7
20 -80 20 l-80 0 0 100 c0 92 -2 100 -19 100 -15 0 -22 -11 -30 -50z"/>
<path d="M17241 16130 c-19 -88 -52 -134 -107 -149 -16 -4 -30 -15 -32 -24 -3
-14 5 -17 47 -17 l50 0 3 -190 3 -190 32 -32 c27 -27 41 -32 91 -36 35 -2 68
1 81 8 39 21 61 69 61 138 0 55 -2 62 -20 62 -17 0 -20 -7 -20 -52 0 -99 -65
-153 -116 -97 -17 19 -19 41 -22 205 l-3 184 80 0 c74 0 81 2 81 20 0 18 -7
20 -80 20 l-80 0 0 100 c0 92 -2 100 -19 100 -15 0 -22 -11 -30 -50z"/>
<path d="M30521 16130 c-19 -88 -52 -134 -107 -149 -16 -4 -30 -15 -32 -24 -3
-14 5 -17 47 -17 l50 0 3 -190 3 -190 32 -32 c27 -27 41 -32 91 -36 35 -2 68
1 81 8 39 21 61 69 61 138 0 55 -2 62 -20 62 -17 0 -20 -7 -20 -52 0 -99 -65
-153 -116 -97 -17 19 -19 41 -22 205 l-3 184 80 0 c74 0 81 2 81 20 0 18 -7
20 -80 20 l-80 0 0 100 c0 92 -2 100 -19 100 -15 0 -22 -11 -30 -50z"/>
<path d="M33381 16130 c-19 -88 -52 -134 -107 -149 -16 -4 -30 -15 -32 -24 -3
-14 5 -17 47 -17 l50 0 3 -190 3 -190 32 -32 c27 -27 41 -32 91 -36 35 -2 68
1 81 8 39 21 61 69 61 138 0 55 -2 62 -20 62 -17 0 -20 -7 -20 -52 0 -99 -65
-153 -116 -97 -17 19 -19 41 -22 205 l-3 184 80 0 c74 0 81 2 81 20 0 18 -7
20 -80 20 l-80 0 0 100 c0 92 -2 100 -19 100 -15 0 -22 -11 -30 -50z"/>
<path d="M13555 15989 c-60 -15 -129 -70 -156 -126 -32 -65 -33 -179 -2 -238
46 -86 128 -134 230 -135 34 0 74 5 90 11 71 26 149 149 96 149 -10 0 -27 -16
-38 -37 -43 -80 -144 -108 -216 -60 -43 28 -79 98 -79 154 l0 43 176 0 177 0
-6 55 c-14 138 -132 218 -272 184z m110 -43 c37 -16 68 -65 79 -128 l7 -38
-136 0 c-150 0 -148 -1 -124 71 15 43 45 78 84 95 39 17 48 17 90 0z"/>
<path d="M16415 15989 c-60 -15 -129 -70 -156 -126 -32 -65 -33 -179 -2 -238
46 -86 128 -134 230 -135 34 0 74 5 90 11 71 26 149 149 96 149 -10 0 -27 -16
-38 -37 -43 -80 -144 -108 -216 -60 -43 28 -79 98 -79 154 l0 43 176 0 177 0
-6 55 c-14 138 -132 218 -272 184z m110 -43 c37 -16 68 -65 79 -128 l7 -38
-136 0 c-150 0 -148 -1 -124 71 15 43 45 78 84 95 39 17 48 17 90 0z"/>
<path d="M29581 15979 c-32 -19 -36 -19 -79 -5 -102 35 -202 6 -254 -72 -25
-38 -24 -116 3 -158 16 -26 18 -38 10 -53 -17 -31 -13 -113 6 -141 14 -20 15
-24 2 -28 -8 -3 -29 -20 -46 -38 -91 -90 11 -199 197 -211 189 -13 316 65 291
178 -20 88 -79 120 -236 126 -60 2 -120 6 -132 9 -31 6 -57 48 -49 78 6 24 7
25 41 10 85 -35 203 -5 250 64 29 43 33 111 10 156 -20 38 -19 41 10 54 40 18
55 15 55 -12 0 -29 33 -44 55 -26 20 16 19 55 -1 74 -22 23 -92 20 -133 -5z
m-118 -40 c73 -33 74 -194 1 -228 -68 -31 -128 5 -140 84 -9 61 3 100 38 130
32 27 63 31 101 14z m134 -462 c63 -34 54 -100 -19 -139 -34 -18 -59 -23 -123
-23 -90 0 -144 20 -178 67 -18 24 -18 30 -7 58 21 52 50 61 180 57 85 -2 123
-7 147 -20z"/>
<path d="M32555 15989 c-60 -15 -129 -70 -156 -126 -32 -65 -33 -179 -2 -238
46 -86 128 -134 230 -135 34 0 74 5 90 11 71 26 149 149 96 149 -10 0 -27 -16
-38 -37 -43 -80 -144 -108 -216 -60 -43 28 -79 98 -79 154 l0 43 176 0 177 0
-6 55 c-14 138 -132 218 -272 184z m110 -43 c37 -16 68 -65 79 -128 l7 -38
-136 0 c-150 0 -148 -1 -124 71 15 43 45 78 84 95 39 17 48 17 90 0z"/>
<path d="M28923 15983 c-38 -4 -43 -7 -43 -29 0 -20 5 -24 30 -24 19 0 33 -7
40 -19 6 -11 10 -87 10 -176 0 -89 -4 -165 -10 -176 -8 -13 -21 -19 -45 -19
-28 0 -35 -4 -35 -20 0 -19 7 -20 125 -20 118 0 125 1 125 20 0 16 -7 20 -30
20 -19 0 -33 7 -40 19 -6 12 -10 103 -10 225 l0 206 -37 -2 c-21 -1 -57 -3
-80 -5z"/>
<path d="M17890 15961 c0 -15 10 -21 41 -26 34 -6 49 -18 106 -83 101 -119
100 -116 68 -154 -75 -92 -130 -139 -172 -151 -30 -8 -43 -16 -43 -29 0 -16
11 -18 100 -18 92 0 100 1 100 19 0 11 -4 23 -10 26 -20 13 -9 44 36 98 l47
55 53 -61 c56 -65 64 -84 39 -93 -8 -4 -15 -15 -15 -25 0 -18 9 -19 115 -19
108 0 115 1 115 20 0 15 -7 20 -29 20 -17 0 -41 10 -55 23 -32 28 -166 188
-166 198 0 4 33 41 73 82 47 50 82 78 102 82 51 11 55 14 55 35 0 19 -6 20
-100 20 l-100 0 0 -25 c0 -14 5 -25 10 -25 21 0 9 -38 -26 -83 -20 -26 -40
-47 -45 -47 -4 0 -29 26 -55 57 -45 57 -46 58 -25 71 12 8 21 23 21 33 0 18
-9 19 -120 19 -111 0 -120 -1 -120 -19z"/>
<path d="M34030 15961 c0 -15 10 -21 41 -26 34 -6 49 -18 106 -83 101 -119
100 -116 68 -154 -75 -92 -130 -139 -172 -151 -30 -8 -43 -16 -43 -29 0 -16
11 -18 100 -18 92 0 100 1 100 19 0 11 -4 23 -10 26 -20 13 -9 44 36 98 l47
55 53 -61 c56 -65 64 -84 39 -93 -8 -4 -15 -15 -15 -25 0 -18 9 -19 115 -19
108 0 115 1 115 20 0 15 -7 20 -29 20 -17 0 -41 10 -55 23 -32 28 -166 188
-166 198 0 4 33 41 73 82 47 50 82 78 102 82 51 11 55 14 55 35 0 19 -6 20
-100 20 l-100 0 0 -25 c0 -14 5 -25 10 -25 21 0 9 -38 -26 -83 -20 -26 -40
-47 -45 -47 -4 0 -29 26 -55 57 -45 57 -46 58 -25 71 12 8 21 23 21 33 0 18
-9 19 -120 19 -111 0 -120 -1 -120 -19z"/>
<path d="M11815 11860 l-2900 -2900 23 -22 22 -23 2901 2901 2900 2900 -23 22
-24 21 -2899 -2899z"/>
<path d="M16812 14737 l-21 -23 2899 -2899 c2875 -2875 2899 -2899 2920 -2880
11 10 20 23 20 29 0 11 -5780 5796 -5791 5796 -3 0 -15 -10 -27 -23z"/>
<path d="M5770 8382 c-72 -75 -127 -173 -156 -282 -25 -91 -25 -319 0 -410 30
-108 85 -207 156 -282 60 -62 100 -85 100 -57 0 6 -17 32 -39 58 -120 144
-171 318 -158 540 11 185 60 322 152 428 25 28 45 56 45 62 0 28 -41 5 -100
-57z"/>
<path d="M8620 8382 c-72 -75 -127 -173 -156 -282 -25 -91 -25 -319 0 -410 30
-108 85 -207 156 -282 60 -62 100 -85 100 -57 0 6 -17 32 -39 58 -120 144
-171 318 -158 540 11 185 60 322 152 428 25 28 45 56 45 62 0 28 -41 5 -100
-57z"/>
<path d="M11870 8439 c0 -6 20 -33 44 -60 90 -100 138 -220 155 -384 24 -231
-34 -449 -154 -583 -44 -48 -51 -72 -21 -72 7 0 43 31 79 69 78 80 137 192
163 308 25 114 16 321 -20 430 -31 94 -106 215 -168 268 -41 34 -78 46 -78 24z"/>
<path d="M12330 8439 c0 -6 20 -33 44 -60 90 -100 138 -220 155 -384 24 -231
-34 -449 -154 -583 -44 -48 -51 -72 -21 -72 7 0 43 31 79 69 78 80 137 192
163 308 25 114 16 321 -20 430 -31 94 -106 215 -168 268 -41 34 -78 46 -78 24z"/>
<path d="M21910 8382 c-72 -75 -127 -173 -156 -282 -25 -91 -25 -319 0 -410
30 -108 85 -207 156 -282 60 -62 100 -85 100 -57 0 6 -17 32 -39 58 -120 144
-171 318 -158 540 11 185 60 322 152 428 25 28 45 56 45 62 0 28 -41 5 -100
-57z"/>
<path d="M24760 8382 c-72 -75 -127 -173 -156 -282 -25 -91 -25 -319 0 -410
30 -108 85 -207 156 -282 60 -62 100 -85 100 -57 0 6 -17 32 -39 58 -120 144
-171 318 -158 540 11 185 60 322 152 428 25 28 45 56 45 62 0 28 -41 5 -100
-57z"/>
<path d="M28010 8439 c0 -6 20 -33 44 -60 90 -100 138 -220 155 -384 24 -231
-34 -449 -154 -583 -44 -48 -51 -72 -21 -72 7 0 43 31 79 69 78 80 137 192
163 308 25 114 16 321 -20 430 -31 94 -106 215 -168 268 -41 34 -78 46 -78 24z"/>
<path d="M28470 8439 c0 -6 20 -33 44 -60 90 -100 138 -220 155 -384 24 -231
-34 -449 -154 -583 -44 -48 -51 -72 -21 -72 7 0 43 31 79 69 78 80 137 192
163 308 25 114 16 321 -20 430 -31 94 -106 215 -168 268 -41 34 -78 46 -78 24z"/>
<path d="M4552 8379 c-67 -34 -92 -85 -92 -192 l0 -87 -45 0 c-38 0 -45 -3
-45 -20 0 -17 7 -20 45 -20 l45 0 0 -181 c0 -105 -4 -188 -10 -200 -8 -13 -21
-19 -45 -19 -28 0 -35 -4 -35 -20 0 -19 7 -20 140 -20 133 0 140 1 140 20 0
16 -7 20 -37 20 -68 0 -68 -2 -71 210 l-3 190 70 0 c64 0 71 2 71 20 0 18 -7
20 -70 20 l-70 0 0 78 c1 116 37 182 101 182 18 0 19 -2 9 -15 -18 -21 -4 -64
25 -77 35 -16 75 12 75 51 0 72 -108 104 -198 60z"/>
<path d="M7412 8379 c-67 -34 -92 -85 -92 -192 l0 -87 -45 0 c-38 0 -45 -3
-45 -20 0 -17 7 -20 45 -20 l45 0 0 -181 c0 -105 -4 -188 -10 -200 -8 -13 -21
-19 -45 -19 -28 0 -35 -4 -35 -20 0 -19 7 -20 140 -20 133 0 140 1 140 20 0
16 -7 20 -37 20 -68 0 -68 -2 -71 210 l-3 190 70 0 c64 0 71 2 71 20 0 18 -7
20 -70 20 l-70 0 0 78 c1 116 37 182 101 182 18 0 19 -2 9 -15 -18 -21 -4 -64
25 -77 35 -16 75 12 75 51 0 72 -108 104 -198 60z"/>
<path d="M10272 8379 c-67 -34 -92 -85 -92 -192 l0 -87 -45 0 c-38 0 -45 -3
-45 -20 0 -17 7 -20 45 -20 l45 0 0 -181 c0 -105 -4 -188 -10 -200 -8 -13 -21
-19 -45 -19 -28 0 -35 -4 -35 -20 0 -19 7 -20 140 -20 133 0 140 1 140 20 0
16 -7 20 -37 20 -68 0 -68 -2 -71 210 l-3 190 70 0 c64 0 71 2 71 20 0 18 -7
20 -70 20 l-70 0 0 78 c1 116 37 182 101 182 18 0 19 -2 9 -15 -18 -21 -4 -64
25 -77 35 -16 75 12 75 51 0 72 -108 104 -198 60z"/>
<path d="M23552 8379 c-67 -34 -92 -85 -92 -192 l0 -87 -45 0 c-38 0 -45 -3
-45 -20 0 -17 7 -20 45 -20 l45 0 0 -181 c0 -105 -4 -188 -10 -200 -8 -13 -21
-19 -45 -19 -28 0 -35 -4 -35 -20 0 -19 7 -20 140 -20 133 0 140 1 140 20 0
16 -7 20 -37 20 -68 0 -68 -2 -71 210 l-3 190 70 0 c64 0 71 2 71 20 0 18 -7
20 -70 20 l-70 0 0 78 c1 116 37 182 101 182 18 0 19 -2 9 -15 -18 -21 -4 -64
25 -77 35 -16 75 12 75 51 0 72 -108 104 -198 60z"/>
<path d="M26412 8379 c-67 -34 -92 -85 -92 -192 l0 -87 -45 0 c-38 0 -45 -3
-45 -20 0 -17 7 -20 45 -20 l45 0 0 -181 c0 -105 -4 -188 -10 -200 -8 -13 -21
-19 -45 -19 -28 0 -35 -4 -35 -20 0 -19 7 -20 140 -20 133 0 140 1 140 20 0
16 -7 20 -37 20 -68 0 -68 -2 -71 210 l-3 190 70 0 c64 0 71 2 71 20 0 18 -7
20 -70 20 l-70 0 0 78 c1 116 37 182 101 182 18 0 19 -2 9 -15 -18 -21 -4 -64
25 -77 35 -16 75 12 75 51 0 72 -108 104 -198 60z"/>
<path d="M20303 8383 c-49 -4 -53 -6 -53 -29 0 -21 5 -24 35 -24 29 0 37 -5
45 -26 6 -14 10 -149 10 -309 0 -160 -4 -295 -10 -309 -8 -21 -16 -26 -45 -26
-28 0 -35 -4 -35 -20 0 -19 7 -20 130 -20 123 0 130 1 130 20 0 14 -7 20 -24
20 -56 0 -56 1 -56 151 0 119 3 146 19 178 31 60 96 92 156 77 44 -11 55 -56
55 -229 0 -168 -3 -177 -57 -177 -26 0 -33 -4 -33 -20 0 -19 7 -20 130 -20
123 0 130 1 130 20 0 15 -7 20 -28 20 -49 0 -52 11 -52 185 0 132 -3 166 -18
195 -43 88 -199 94 -284 13 l-28 -27 0 182 0 182 -32 -2 c-18 -1 -57 -3 -85
-5z"/>
<path d="M3120 8353 c0 -21 5 -23 50 -23 38 0 52 -4 60 -19 6 -12 10 -132 10
-320 0 -339 2 -331 -76 -331 -37 0 -44 -3 -44 -20 0 -20 7 -20 308 -20 l308 0
13 123 c7 67 15 132 18 145 4 18 1 22 -21 22 -22 0 -26 -4 -26 -28 0 -16 -7
-53 -16 -83 -31 -105 -107 -144 -269 -137 l-80 3 -3 324 c-2 253 1 326 10 333
7 4 37 8 66 8 47 0 52 2 52 23 0 22 0 22 -180 22 l-180 0 0 -22z"/>
<path d="M5970 8353 c0 -21 5 -23 50 -23 38 0 52 -4 60 -19 6 -12 10 -132 10
-320 0 -339 2 -331 -76 -331 -37 0 -44 -3 -44 -20 0 -20 7 -20 308 -20 l308 0
13 123 c7 67 15 132 18 145 4 18 1 22 -21 22 -22 0 -26 -4 -26 -28 0 -16 -7
-53 -16 -83 -31 -105 -107 -144 -269 -137 l-80 3 -3 324 c-2 253 1 326 10 333
7 4 37 8 66 8 47 0 52 2 52 23 0 22 0 22 -180 22 l-180 0 0 -22z"/>
<path d="M8830 8353 c0 -21 5 -23 50 -23 38 0 52 -4 60 -19 6 -12 10 -132 10
-320 0 -339 2 -331 -76 -331 -37 0 -44 -3 -44 -20 0 -20 7 -20 308 -20 l308 0
13 123 c7 67 15 132 18 145 4 18 1 22 -21 22 -22 0 -26 -4 -26 -28 0 -16 -7
-53 -16 -83 -31 -105 -107 -144 -269 -137 l-80 3 -3 324 c-2 253 1 326 10 333
7 4 37 8 66 8 47 0 52 2 52 23 0 22 0 22 -180 22 l-180 0 0 -22z"/>
<path d="M18480 8356 c0 -24 3 -26 43 -26 24 0 48 -5 55 -12 9 -9 12 -95 12
-325 0 -299 -1 -313 -19 -323 -11 -5 -36 -10 -55 -10 -29 0 -36 -4 -36 -20 0
-19 7 -20 165 -20 158 0 165 1 165 20 0 17 -7 20 -44 20 -72 0 -76 9 -76 177
l0 145 98 -4 c155 -6 188 -37 195 -189 3 -49 11 -98 20 -115 30 -57 142 -97
211 -74 44 14 79 67 74 112 -3 37 -31 46 -36 13 -11 -69 -52 -107 -95 -88 -27
13 -41 53 -58 171 -13 94 -36 136 -91 167 l-36 20 46 19 c138 58 172 193 70
280 -81 70 -124 79 -380 84 l-228 4 0 -26z m481 -54 c44 -27 64 -70 63 -135
-1 -51 -20 -85 -68 -121 -23 -18 -45 -22 -147 -25 l-119 -3 0 140 c0 77 3 148
6 157 6 15 21 17 118 13 94 -3 117 -7 147 -26z"/>
<path d="M22110 8353 c0 -21 5 -23 50 -23 38 0 52 -4 60 -19 6 -12 10 -132 10
-320 0 -339 2 -331 -76 -331 -37 0 -44 -3 -44 -20 0 -20 7 -20 308 -20 l308 0
13 123 c7 67 15 132 18 145 4 18 1 22 -21 22 -22 0 -26 -4 -26 -28 0 -16 -7
-53 -16 -83 -31 -105 -107 -144 -269 -137 l-80 3 -3 324 c-2 253 1 326 10 333
7 4 37 8 66 8 47 0 52 2 52 23 0 22 0 22 -180 22 l-180 0 0 -22z"/>
<path d="M24970 8353 c0 -21 5 -23 50 -23 38 0 52 -4 60 -19 6 -12 10 -132 10
-320 0 -339 2 -331 -76 -331 -37 0 -44 -3 -44 -20 0 -20 7 -20 308 -20 l308 0
13 123 c7 67 15 132 18 145 4 18 1 22 -21 22 -22 0 -26 -4 -26 -28 0 -16 -7
-53 -16 -83 -31 -105 -107 -144 -269 -137 l-80 3 -3 324 c-2 253 1 326 10 333
7 4 37 8 66 8 47 0 52 2 52 23 0 22 0 22 -180 22 l-180 0 0 -22z"/>
<path d="M19425 8358 c-27 -15 -35 -28 -35 -59 0 -34 29 -59 68 -59 53 0 83
69 45 102 -26 23 -55 29 -78 16z"/>
<path d="M4851 8250 c-19 -88 -52 -134 -107 -149 -16 -4 -30 -15 -32 -24 -3
-14 5 -17 47 -17 l50 0 3 -190 3 -190 32 -32 c27 -27 41 -32 91 -36 35 -2 68
1 81 8 39 21 61 69 61 138 0 55 -2 62 -20 62 -17 0 -20 -7 -20 -52 0 -99 -65
-153 -116 -97 -17 19 -19 41 -22 205 l-3 184 80 0 c74 0 81 2 81 20 0 18 -7
20 -80 20 l-80 0 0 100 c0 92 -2 100 -19 100 -15 0 -22 -11 -30 -50z"/>
<path d="M7711 8250 c-19 -88 -52 -134 -107 -149 -16 -4 -30 -15 -32 -24 -3
-14 5 -17 47 -17 l50 0 3 -190 3 -190 32 -32 c27 -27 41 -32 91 -36 35 -2 68
1 81 8 39 21 61 69 61 138 0 55 -2 62 -20 62 -17 0 -20 -7 -20 -52 0 -99 -65
-153 -116 -97 -17 19 -19 41 -22 205 l-3 184 80 0 c74 0 81 2 81 20 0 18 -7
20 -80 20 l-80 0 0 100 c0 92 -2 100 -19 100 -15 0 -22 -11 -30 -50z"/>
<path d="M10571 8250 c-19 -88 -52 -134 -107 -149 -16 -4 -30 -15 -32 -24 -3
-14 5 -17 47 -17 l50 0 3 -190 3 -190 32 -32 c27 -27 41 -32 91 -36 35 -2 68
1 81 8 39 21 61 69 61 138 0 55 -2 62 -20 62 -17 0 -20 -7 -20 -52 0 -99 -65
-153 -116 -97 -17 19 -19 41 -22 205 l-3 184 80 0 c74 0 81 2 81 20 0 18 -7
20 -80 20 l-80 0 0 100 c0 92 -2 100 -19 100 -15 0 -22 -11 -30 -50z"/>
<path d="M20991 8250 c-19 -88 -52 -134 -107 -149 -16 -4 -30 -15 -32 -24 -3
-14 5 -17 47 -17 l50 0 3 -190 3 -190 32 -32 c27 -27 41 -32 91 -36 35 -2 68
1 81 8 39 21 61 69 61 138 0 55 -2 62 -20 62 -17 0 -20 -7 -20 -52 0 -99 -65
-153 -116 -97 -17 19 -19 41 -22 205 l-3 184 80 0 c74 0 81 2 81 20 0 18 -7
20 -80 20 l-80 0 0 100 c0 92 -2 100 -19 100 -15 0 -22 -11 -30 -50z"/>
<path d="M23851 8250 c-19 -88 -52 -134 -107 -149 -16 -4 -30 -15 -32 -24 -3
-14 5 -17 47 -17 l50 0 3 -190 3 -190 32 -32 c27 -27 41 -32 91 -36 35 -2 68
1 81 8 39 21 61 69 61 138 0 55 -2 62 -20 62 -17 0 -20 -7 -20 -52 0 -99 -65
-153 -116 -97 -17 19 -19 41 -22 205 l-3 184 80 0 c74 0 81 2 81 20 0 18 -7
20 -80 20 l-80 0 0 100 c0 92 -2 100 -19 100 -15 0 -22 -11 -30 -50z"/>
<path d="M26711 8250 c-19 -88 -52 -134 -107 -149 -16 -4 -30 -15 -32 -24 -3
-14 5 -17 47 -17 l50 0 3 -190 3 -190 32 -32 c27 -27 41 -32 91 -36 35 -2 68
1 81 8 39 21 61 69 61 138 0 55 -2 62 -20 62 -17 0 -20 -7 -20 -52 0 -99 -65
-153 -116 -97 -17 19 -19 41 -22 205 l-3 184 80 0 c74 0 81 2 81 20 0 18 -7
20 -80 20 l-80 0 0 100 c0 92 -2 100 -19 100 -15 0 -22 -11 -30 -50z"/>
<path d="M4025 8109 c-60 -15 -129 -70 -156 -126 -32 -65 -33 -179 -2 -238 46
-86 128 -134 230 -135 34 0 74 5 90 11 71 26 149 149 96 149 -10 0 -27 -16
-38 -37 -43 -80 -144 -108 -216 -60 -43 28 -79 98 -79 154 l0 43 176 0 177 0
-6 55 c-14 138 -132 218 -272 184z m110 -43 c37 -16 68 -65 79 -128 l7 -38
-136 0 c-150 0 -148 -1 -124 71 15 43 45 78 84 95 39 17 48 17 90 0z"/>
<path d="M6885 8109 c-60 -15 -129 -70 -156 -126 -32 -65 -33 -179 -2 -238 46
-86 128 -134 230 -135 34 0 74 5 90 11 71 26 149 149 96 149 -10 0 -27 -16
-38 -37 -43 -80 -144 -108 -216 -60 -43 28 -79 98 -79 154 l0 43 176 0 177 0
-6 55 c-14 138 -132 218 -272 184z m110 -43 c37 -16 68 -65 79 -128 l7 -38
-136 0 c-150 0 -148 -1 -124 71 15 43 45 78 84 95 39 17 48 17 90 0z"/>
<path d="M9745 8109 c-60 -15 -129 -70 -156 -126 -32 -65 -33 -179 -2 -238 46
-86 128 -134 230 -135 34 0 74 5 90 11 71 26 149 149 96 149 -10 0 -27 -16
-38 -37 -43 -80 -144 -108 -216 -60 -43 28 -79 98 -79 154 l0 43 176 0 177 0
-6 55 c-14 138 -132 218 -272 184z m110 -43 c37 -16 68 -65 79 -128 l7 -38
-136 0 c-150 0 -148 -1 -124 71 15 43 45 78 84 95 39 17 48 17 90 0z"/>
<path d="M20041 8099 c-32 -19 -36 -19 -79 -5 -102 35 -202 6 -254 -72 -25
-38 -24 -116 3 -158 16 -26 18 -38 10 -53 -17 -31 -13 -113 6 -141 14 -20 15
-24 2 -28 -8 -3 -29 -20 -46 -38 -91 -90 11 -199 197 -211 189 -13 316 65 291
178 -20 88 -79 120 -236 126 -60 2 -120 6 -132 9 -31 6 -57 48 -49 78 6 24 7
25 41 10 85 -35 203 -5 250 64 29 43 33 111 10 156 -20 38 -19 41 10 54 40 18
55 15 55 -12 0 -29 33 -44 55 -26 20 16 19 55 -1 74 -22 23 -92 20 -133 -5z
m-118 -40 c73 -33 74 -194 1 -228 -68 -31 -128 5 -140 84 -9 61 3 100 38 130
32 27 63 31 101 14z m134 -462 c63 -34 54 -100 -19 -139 -34 -18 -59 -23 -123
-23 -90 0 -144 20 -178 67 -18 24 -18 30 -7 58 21 52 50 61 180 57 85 -2 123
-7 147 -20z"/>
<path d="M23025 8109 c-60 -15 -129 -70 -156 -126 -32 -65 -33 -179 -2 -238
46 -86 128 -134 230 -135 34 0 74 5 90 11 71 26 149 149 96 149 -10 0 -27 -16
-38 -37 -43 -80 -144 -108 -216 -60 -43 28 -79 98 -79 154 l0 43 176 0 177 0
-6 55 c-14 138 -132 218 -272 184z m110 -43 c37 -16 68 -65 79 -128 l7 -38
-136 0 c-150 0 -148 -1 -124 71 15 43 45 78 84 95 39 17 48 17 90 0z"/>
<path d="M25885 8109 c-60 -15 -129 -70 -156 -126 -32 -65 -33 -179 -2 -238
46 -86 128 -134 230 -135 34 0 74 5 90 11 71 26 149 149 96 149 -10 0 -27 -16
-38 -37 -43 -80 -144 -108 -216 -60 -43 28 -79 98 -79 154 l0 43 176 0 177 0
-6 55 c-14 138 -132 218 -272 184z m110 -43 c37 -16 68 -65 79 -128 l7 -38
-136 0 c-150 0 -148 -1 -124 71 15 43 45 78 84 95 39 17 48 17 90 0z"/>
<path d="M19393 8103 c-38 -4 -43 -7 -43 -29 0 -20 5 -24 30 -24 19 0 33 -7
40 -19 6 -11 10 -87 10 -176 0 -89 -4 -165 -10 -176 -8 -13 -21 -19 -45 -19
-28 0 -35 -4 -35 -20 0 -19 7 -20 125 -20 118 0 125 1 125 20 0 16 -7 20 -30
20 -19 0 -33 7 -40 19 -6 12 -10 103 -10 225 l0 206 -37 -2 c-21 -1 -57 -3
-80 -5z"/>
<path d="M11210 8081 c0 -15 10 -21 41 -26 34 -6 49 -18 106 -83 101 -119 100
-116 68 -154 -75 -92 -130 -139 -172 -151 -30 -8 -43 -16 -43 -29 0 -16 11
-18 100 -18 92 0 100 1 100 19 0 11 -4 23 -10 26 -20 13 -9 44 36 98 l47 55
53 -61 c56 -65 64 -84 39 -93 -8 -4 -15 -15 -15 -25 0 -18 9 -19 115 -19 108
0 115 1 115 20 0 15 -7 20 -29 20 -17 0 -41 10 -55 23 -32 28 -166 188 -166
198 0 4 33 41 73 82 47 50 82 78 102 82 51 11 55 14 55 35 0 19 -6 20 -100 20
l-100 0 0 -25 c0 -14 5 -25 10 -25 21 0 9 -38 -26 -83 -20 -26 -40 -47 -45
-47 -4 0 -29 26 -55 57 -45 57 -46 58 -25 71 12 8 21 23 21 33 0 18 -9 19
-120 19 -111 0 -120 -1 -120 -19z"/>
<path d="M27350 8081 c0 -15 10 -21 41 -26 34 -6 49 -18 106 -83 101 -119 100
-116 68 -154 -75 -92 -130 -139 -172 -151 -30 -8 -43 -16 -43 -29 0 -16 11
-18 100 -18 92 0 100 1 100 19 0 11 -4 23 -10 26 -20 13 -9 44 36 98 l47 55
53 -61 c56 -65 64 -84 39 -93 -8 -4 -15 -15 -15 -25 0 -18 9 -19 115 -19 108
0 115 1 115 20 0 15 -7 20 -29 20 -17 0 -41 10 -55 23 -32 28 -166 188 -166
198 0 4 33 41 73 82 47 50 82 78 102 82 51 11 55 14 55 35 0 19 -6 20 -100 20
l-100 0 0 -25 c0 -14 5 -25 10 -25 21 0 9 -38 -26 -83 -20 -26 -40 -47 -45
-47 -4 0 -29 26 -55 57 -45 57 -46 58 -25 71 12 8 21 23 21 33 0 18 -9 19
-120 19 -111 0 -120 -1 -120 -19z"/>
<path d="M3417 3462 l-3418 -3418 23 -22 24 -21 3419 3419 c3391 3391 3419
3419 3400 3440 -10 11 -21 20 -24 20 -3 0 -1544 -1538 -3424 -3418z"/>
<path d="M8935 6860 c-19 -21 9 -49 3400 -3440 l3420 -3420 25 25 25 25 -3415
3415 c-1878 1878 -3420 3415 -3426 3415 -6 0 -19 -9 -29 -20z"/>
</g>
</svg>
