<?xml version="1.0" standalone="no"?>
<!DOCTYPE svg PUBLIC "-//W3C//DTD SVG 20010904//EN"
 "http://www.w3.org/TR/2001/REC-SVG-20010904/DTD/svg10.dtd">
<svg version="1.0" xmlns="http://www.w3.org/2000/svg"
 width="3023.000000pt" height="1156.000000pt" viewBox="0 0 3023.000000 1156.000000"
 preserveAspectRatio="xMidYMid meet">
<metadata>
Created by potrace 1.16, written by Peter Selinger 2001-2019
</metadata>
<g transform="translate(0.000000,1156.000000) scale(0.100000,-0.100000)"
fill="#000000" stroke="none">
<path d="M17230 11032 c-72 -75 -127 -173 -156 -282 -25 -91 -25 -319 0 -410
30 -108 85 -207 156 -282 60 -62 100 -85 100 -57 0 6 -17 32 -39 58 -120 144
-171 318 -158 540 11 185 60 322 152 428 25 28 45 56 45 62 0 28 -41 5 -100
-57z"/>
<path d="M26020 11089 c0 -6 20 -33 44 -60 90 -100 138 -220 155 -384 24 -231
-34 -449 -154 -583 -44 -48 -51 -72 -21 -72 7 0 43 31 79 69 78 80 137 192
163 308 25 114 16 321 -20 430 -31 94 -106 215 -168 268 -41 34 -78 46 -78 24z"/>
<path d="M5000 10931 c-52 -27 -80 -74 -80 -132 l0 -49 -70 0 c-65 0 -71 -2
-82 -25 -18 -41 3 -55 83 -55 l69 0 0 -160 0 -160 -64 0 c-80 0 -107 -20 -90
-64 5 -14 32 -16 195 -16 176 0 189 1 199 19 13 25 13 27 -6 45 -11 11 -35 16
-80 16 l-64 0 0 160 0 159 81 3 c65 2 84 7 93 21 8 12 8 22 0 35 -9 13 -28 18
-93 20 l-81 3 0 38 c0 64 74 110 100 61 15 -29 56 -36 80 -15 20 18 26 60 12
81 -25 38 -143 47 -202 15z"/>
<path d="M5970 10936 c-6 -8 -10 -25 -8 -38 3 -22 8 -23 96 -26 l92 -3 0 -259
0 -260 -78 0 c-88 0 -116 -13 -110 -51 l3 -24 225 0 225 0 3 29 c5 39 -10 46
-100 46 l-78 0 0 288 c0 211 -3 291 -12 300 -19 19 -242 16 -258 -2z"/>
<path d="M6800 10936 c-6 -8 -10 -25 -8 -38 2 -19 10 -23 46 -26 l42 -3 0 -75
0 -75 -31 16 c-35 19 -131 22 -172 6 -88 -34 -150 -127 -151 -226 0 -77 17
-128 63 -178 61 -68 142 -92 222 -66 19 7 41 18 51 26 14 13 17 12 23 -6 6
-19 14 -21 90 -21 82 0 95 5 95 40 0 20 -34 40 -66 40 l-34 0 0 294 c0 334 9
306 -95 306 -42 0 -66 -5 -75 -14z m46 -300 c33 -33 34 -37 34 -107 0 -88 -19
-133 -70 -167 -85 -57 -190 22 -190 145 0 93 63 163 147 163 38 0 51 -6 79
-34z"/>
<path d="M7122 10941 c-8 -5 -12 -21 -10 -37 2 -25 8 -29 36 -32 l32 -3 0
-260 0 -259 -22 0 c-36 0 -50 -15 -46 -46 l3 -29 95 -3 c80 -2 97 0 107 15 7
9 13 20 13 24 0 16 -33 39 -56 39 l-24 0 0 243 1 242 98 -271 c53 -148 101
-276 105 -282 11 -19 103 -15 110 4 3 9 6 144 6 300 l0 284 30 0 c23 0 31 5
36 25 11 45 -9 55 -106 55 -95 0 -114 -9 -108 -52 2 -18 10 -24 36 -26 l32 -3
0 -237 -1 -237 -79 220 c-111 306 -110 304 -127 320 -16 17 -138 21 -161 6z"/>
<path d="M8882 10941 c-8 -5 -12 -21 -10 -37 3 -26 7 -29 41 -32 l37 -3 0
-260 0 -259 -27 0 c-41 0 -55 -13 -51 -46 l3 -29 130 0 130 0 3 24 c5 31 -21
51 -65 51 l-33 0 0 110 0 110 69 0 c69 0 70 0 73 -27 3 -24 8 -29 37 -31 44
-4 51 8 51 94 0 83 -13 107 -55 102 -24 -2 -31 -8 -33 -30 -3 -28 -4 -28 -73
-28 l-69 0 0 110 0 110 130 0 130 0 0 -45 c0 -38 4 -47 24 -56 17 -8 29 -8 45
0 18 10 21 20 21 84 0 44 -5 78 -12 85 -14 14 -474 17 -496 3z"/>
<path d="M14540 10931 c-52 -27 -80 -74 -80 -132 l0 -49 -70 0 c-65 0 -71 -2
-82 -25 -18 -41 3 -55 83 -55 l69 0 0 -160 0 -160 -64 0 c-80 0 -107 -20 -90
-64 5 -14 32 -16 195 -16 176 0 189 1 199 19 13 25 13 27 -6 45 -11 11 -35 16
-80 16 l-64 0 0 160 0 159 81 3 c65 2 84 7 93 21 8 12 8 22 0 35 -9 13 -28 18
-93 20 l-81 3 0 38 c0 64 74 110 100 61 15 -29 56 -36 80 -15 20 18 26 60 12
81 -25 38 -143 47 -202 15z"/>
<path d="M17680 10931 c-52 -27 -80 -74 -80 -132 l0 -49 -70 0 c-65 0 -71 -2
-82 -25 -18 -41 3 -55 83 -55 l69 0 0 -160 0 -160 -64 0 c-80 0 -107 -20 -90
-64 5 -14 32 -16 195 -16 176 0 189 1 199 19 13 25 13 27 -6 45 -11 11 -35 16
-80 16 l-64 0 0 160 0 159 81 3 c65 2 84 7 93 21 8 12 8 22 0 35 -9 13 -28 18
-93 20 l-81 3 0 38 c0 64 74 110 100 61 15 -29 56 -36 80 -15 20 18 26 60 12
81 -25 38 -143 47 -202 15z"/>
<path d="M18650 10936 c-6 -8 -10 -25 -8 -38 3 -22 8 -23 96 -26 l92 -3 0
-259 0 -260 -78 0 c-88 0 -116 -13 -110 -51 l3 -24 225 0 225 0 3 29 c5 39
-10 46 -100 46 l-78 0 0 288 c0 211 -3 291 -12 300 -19 19 -242 16 -258 -2z"/>
<path d="M19470 10936 c-6 -8 -10 -25 -8 -38 2 -19 10 -23 46 -26 l42 -3 0
-75 0 -75 -31 16 c-35 19 -131 22 -172 6 -88 -34 -150 -127 -151 -226 0 -77
17 -128 63 -178 61 -68 142 -92 222 -66 19 7 41 18 51 26 14 13 17 12 23 -6 6
-19 14 -21 90 -21 82 0 95 5 95 40 0 20 -34 40 -66 40 l-34 0 0 294 c0 334 9
306 -95 306 -42 0 -66 -5 -75 -14z m46 -300 c33 -33 34 -37 34 -107 0 -88 -19
-133 -70 -167 -85 -57 -190 22 -190 145 0 93 63 163 147 163 38 0 51 -6 79
-34z"/>
<path d="M19792 10941 c-8 -5 -12 -21 -10 -37 2 -25 8 -29 36 -32 l32 -3 0
-260 0 -259 -22 0 c-36 0 -50 -15 -46 -46 l3 -29 95 -3 c80 -2 97 0 107 15 7
9 13 20 13 24 0 16 -33 39 -56 39 l-24 0 0 243 1 242 98 -271 c53 -148 101
-276 105 -282 11 -19 103 -15 110 4 3 9 6 144 6 300 l0 284 30 0 c23 0 31 5
36 25 11 45 -9 55 -106 55 -95 0 -114 -9 -108 -52 2 -18 10 -24 36 -26 l32 -3
0 -237 -1 -237 -79 220 c-111 306 -110 304 -127 320 -16 17 -138 21 -161 6z"/>
<path d="M21562 10941 c-8 -5 -12 -21 -10 -37 3 -26 7 -29 41 -32 l37 -3 0
-260 0 -259 -27 0 c-41 0 -55 -13 -51 -46 l3 -29 130 0 130 0 3 24 c5 31 -21
51 -65 51 l-33 0 0 110 0 110 69 0 c69 0 70 0 73 -27 3 -24 8 -29 37 -31 44
-4 51 8 51 94 0 83 -13 107 -55 102 -24 -2 -31 -8 -33 -30 -3 -28 -4 -28 -73
-28 l-69 0 0 110 0 110 130 0 130 0 0 -45 c0 -38 4 -47 24 -56 17 -8 29 -8 45
0 18 10 21 20 21 84 0 44 -5 78 -12 85 -14 14 -474 17 -496 3z"/>
<path d="M8440 10883 c-24 -9 -30 -25 -30 -80 l0 -53 -60 0 c-49 0 -61 -3 -70
-20 -8 -14 -8 -26 0 -40 9 -17 21 -20 69 -20 l59 0 4 -152 c4 -177 14 -204 86
-240 113 -54 261 23 250 132 -3 32 -6 35 -37 38 -37 4 -51 -9 -51 -45 0 -34
-48 -66 -90 -59 -55 9 -60 23 -60 183 l0 142 101 3 c84 3 104 6 113 21 8 12 8
22 0 35 -9 14 -29 17 -111 20 l-101 3 -4 59 c-2 33 -6 61 -9 64 -9 8 -45 14
-59 9z"/>
<path d="M12890 10883 c-24 -9 -30 -25 -30 -80 l0 -53 -60 0 c-49 0 -61 -3
-70 -20 -8 -14 -8 -26 0 -40 9 -17 21 -20 69 -20 l59 0 4 -152 c4 -177 14
-204 86 -240 113 -54 261 23 250 132 -3 32 -6 35 -37 38 -37 4 -51 -9 -51 -45
0 -34 -48 -66 -90 -59 -55 9 -60 23 -60 183 l0 142 101 3 c84 3 104 6 113 21
8 12 8 22 0 35 -9 14 -29 17 -111 20 l-101 3 -4 59 c-2 33 -6 61 -9 64 -9 8
-45 14 -59 9z"/>
<path d="M21120 10883 c-24 -9 -30 -25 -30 -80 l0 -53 -60 0 c-49 0 -61 -3
-70 -20 -8 -14 -8 -26 0 -40 9 -17 21 -20 69 -20 l59 0 4 -152 c4 -177 14
-204 86 -240 113 -54 261 23 250 132 -3 32 -6 35 -37 38 -37 4 -51 -9 -51 -45
0 -34 -48 -66 -90 -59 -55 9 -60 23 -60 183 l0 142 101 3 c84 3 104 6 113 21
8 12 8 22 0 35 -9 14 -29 17 -111 20 l-101 3 -4 59 c-2 33 -6 61 -9 64 -9 8
-45 14 -59 9z"/>
<path d="M25560 10883 c-24 -9 -30 -25 -30 -80 l0 -53 -60 0 c-49 0 -61 -3
-70 -20 -8 -14 -8 -26 0 -40 9 -17 21 -20 69 -20 l59 0 4 -152 c4 -177 14
-204 86 -240 113 -54 261 23 250 132 -3 32 -6 35 -37 38 -37 4 -51 -9 -51 -45
0 -34 -48 -66 -90 -59 -55 9 -60 23 -60 183 l0 142 101 3 c84 3 104 6 113 21
8 12 8 22 0 35 -9 14 -29 17 -111 20 l-101 3 -4 59 c-2 33 -6 61 -9 64 -9 8
-45 14 -59 9z"/>
<path d="M5529 10747 c-50 -19 -88 -50 -121 -99 -33 -48 -42 -89 -36 -168 14
-190 234 -286 378 -163 167 143 82 421 -134 439 -29 2 -66 -1 -87 -9z m151
-97 c89 -63 84 -216 -8 -285 -36 -27 -102 -26 -139 1 -37 27 -73 99 -73 145 0
130 123 208 220 139z"/>
<path d="M7805 10745 c-22 -8 -41 -15 -41 -15 -1 0 -7 -14 -14 -30 -10 -23
-10 -37 -2 -55 22 -48 95 -41 108 10 5 21 12 25 43 25 78 0 130 -27 145 -76 6
-20 2 -21 -71 -27 -138 -9 -233 -56 -252 -122 -21 -79 32 -162 121 -186 51
-13 146 -6 188 16 27 14 32 14 54 0 17 -12 43 -15 92 -13 65 3 69 5 72 27 5
32 -21 51 -70 51 l-38 0 0 133 c0 121 -2 138 -23 178 -33 61 -93 91 -195 96
-52 2 -90 -2 -117 -12z m245 -290 c0 -65 -18 -88 -82 -105 -81 -22 -162 14
-156 70 4 33 74 68 159 79 35 5 67 9 72 10 4 0 7 -24 7 -54z"/>
<path d="M9823 10750 c-23 -3 -64 -20 -92 -37 l-50 -31 -3 31 -3 32 -94 3
c-100 3 -121 -4 -121 -43 0 -28 17 -35 81 -35 l49 0 0 -160 0 -160 -48 0 c-58
0 -85 -17 -80 -51 l3 -24 187 -3 188 -2 6 26 c10 40 -16 54 -98 54 l-68 0 0
66 c0 36 5 86 12 111 15 61 79 129 130 138 33 6 40 4 61 -20 19 -22 29 -27 50
-21 32 8 51 39 43 72 -11 44 -74 66 -153 54z"/>
<path d="M10244 10746 c-63 -20 -110 -62 -140 -123 -69 -140 0 -304 147 -347
66 -20 112 -20 176 -1 81 24 139 105 101 143 -23 23 -54 13 -86 -28 -23 -27
-43 -41 -68 -46 -69 -13 -156 32 -190 97 l-15 29 174 0 c121 0 177 4 185 12 7
7 12 30 12 53 0 68 -20 117 -64 161 -61 61 -141 78 -232 50z m131 -80 c32 -14
54 -43 69 -93 l7 -23 -140 0 c-129 0 -140 1 -134 18 14 39 48 75 87 93 50 22
67 23 111 5z"/>
<path d="M10834 10746 c-63 -20 -110 -62 -140 -123 -69 -140 0 -304 147 -347
66 -20 112 -20 176 -1 81 24 139 105 101 143 -23 23 -54 13 -86 -28 -23 -27
-43 -41 -68 -46 -69 -13 -156 32 -190 97 l-15 29 174 0 c121 0 177 4 185 12 7
7 12 30 12 53 0 68 -20 117 -64 161 -61 61 -141 78 -232 50z m131 -80 c32 -14
54 -43 69 -93 l7 -23 -140 0 c-129 0 -140 1 -134 18 14 39 48 75 87 93 50 22
67 23 111 5z"/>
<path d="M11815 10750 c-22 -4 -55 -14 -72 -23 -27 -14 -33 -15 -33 -3 0 20
-22 26 -93 26 -75 0 -90 -8 -85 -46 3 -26 7 -29 46 -32 l42 -3 0 -160 0 -159
-34 0 c-39 0 -59 -19 -54 -52 3 -22 6 -23 128 -26 106 -2 127 0 137 14 12 17
7 44 -11 56 -6 4 -26 8 -43 8 l-33 0 0 102 c0 116 19 171 69 201 41 24 107 23
121 -2 5 -11 10 -83 10 -160 0 -141 0 -141 -23 -141 -35 0 -59 -22 -55 -51 3
-24 4 -24 127 -27 125 -3 140 1 141 35 0 22 -32 43 -66 43 l-34 0 0 151 c0
199 -15 232 -110 249 -19 3 -53 3 -75 0z"/>
<path d="M12255 10745 c-22 -8 -41 -15 -41 -15 -1 0 -7 -14 -14 -30 -10 -23
-10 -37 -2 -55 22 -48 95 -41 108 10 5 21 12 25 43 25 78 0 130 -27 145 -76 6
-20 2 -21 -71 -27 -138 -9 -233 -56 -252 -122 -21 -79 32 -162 121 -186 51
-13 146 -6 188 16 27 14 32 14 54 0 17 -12 43 -15 92 -13 65 3 69 5 72 27 5
32 -21 51 -70 51 l-38 0 0 133 c0 121 -2 138 -23 178 -33 61 -93 91 -195 96
-52 2 -90 -2 -117 -12z m245 -290 c0 -65 -18 -88 -82 -105 -81 -22 -162 14
-156 70 4 33 74 68 159 79 35 5 67 9 72 10 4 0 7 -24 7 -54z"/>
<path d="M15020 10745 c-30 -10 -48 -11 -56 -4 -20 16 -105 7 -118 -13 -14
-23 3 -52 33 -56 20 -3 21 -7 21 -161 l0 -157 -31 -11 c-25 -10 -30 -16 -27
-40 l3 -28 95 0 95 0 3 28 c3 24 -2 30 -27 40 l-31 11 0 116 c0 129 16 177 64
194 45 17 51 0 54 -164 3 -140 2 -149 -16 -154 -24 -8 -35 -32 -26 -58 5 -17
14 -18 87 -16 l82 3 3 33 c3 29 0 33 -27 38 l-31 7 0 101 c0 114 10 159 42
193 25 26 63 30 72 7 3 -9 6 -79 6 -157 0 -133 -1 -143 -21 -155 -14 -9 -19
-21 -17 -40 3 -27 3 -27 88 -27 l85 0 3 28 c3 23 -2 30 -26 39 l-30 12 -4 160
c-5 211 -20 241 -117 238 -18 -1 -48 -10 -66 -21 -31 -18 -33 -18 -51 -1 -27
25 -63 30 -114 15z"/>
<path d="M15585 10745 c-22 -8 -41 -15 -41 -15 -1 0 -7 -14 -14 -30 -10 -23
-10 -37 -2 -55 22 -48 95 -41 108 10 5 21 12 25 43 25 78 0 130 -27 145 -76 6
-20 2 -21 -71 -27 -138 -9 -233 -56 -252 -122 -21 -79 32 -162 121 -186 51
-13 146 -6 188 16 27 14 32 14 54 0 17 -12 43 -15 92 -13 65 3 69 5 72 27 5
32 -21 51 -70 51 l-38 0 0 133 c0 121 -2 138 -23 178 -33 61 -93 91 -195 96
-52 2 -90 -2 -117 -12z m245 -290 c0 -65 -18 -88 -82 -105 -81 -22 -162 14
-156 70 4 33 74 68 159 79 35 5 67 9 72 10 4 0 7 -24 7 -54z"/>
<path d="M16311 10748 c-24 -4 -54 -14 -66 -22 -21 -14 -23 -13 -28 4 -5 18
-14 20 -79 20 -86 0 -101 -7 -96 -46 3 -26 7 -29 46 -32 l42 -3 0 -284 0 -284
-42 -3 c-39 -3 -43 -6 -46 -32 -2 -16 2 -32 10 -37 7 -5 66 -9 130 -9 107 0
118 2 128 20 18 34 -4 60 -50 60 l-40 0 0 101 c0 55 3 99 8 97 63 -33 91 -40
138 -35 61 6 100 25 143 68 45 45 63 85 69 155 13 169 -109 290 -267 262z
m107 -98 c38 -24 72 -89 72 -140 0 -87 -70 -165 -146 -165 -73 0 -123 72 -124
176 0 120 103 187 198 129z"/>
<path d="M18209 10747 c-50 -19 -88 -50 -121 -99 -33 -48 -42 -89 -36 -168 14
-190 234 -286 378 -163 167 143 82 421 -134 439 -29 2 -66 -1 -87 -9z m151
-97 c89 -63 84 -216 -8 -285 -36 -27 -102 -26 -139 1 -37 27 -73 99 -73 145 0
130 123 208 220 139z"/>
<path d="M20485 10745 c-22 -8 -41 -15 -41 -15 -1 0 -7 -14 -14 -30 -10 -23
-10 -37 -2 -55 22 -48 95 -41 108 10 5 21 12 25 43 25 78 0 130 -27 145 -76 6
-20 2 -21 -71 -27 -138 -9 -233 -56 -252 -122 -21 -79 32 -162 121 -186 51
-13 146 -6 188 16 27 14 32 14 54 0 17 -12 43 -15 92 -13 65 3 69 5 72 27 5
32 -21 51 -70 51 l-38 0 0 133 c0 121 -2 138 -23 178 -33 61 -93 91 -195 96
-52 2 -90 -2 -117 -12z m245 -290 c0 -65 -18 -88 -82 -105 -81 -22 -162 14
-156 70 4 33 74 68 159 79 35 5 67 9 72 10 4 0 7 -24 7 -54z"/>
<path d="M22503 10750 c-23 -3 -64 -20 -92 -37 l-50 -31 -3 31 -3 32 -94 3
c-100 3 -121 -4 -121 -43 0 -28 17 -35 81 -35 l49 0 0 -160 0 -160 -48 0 c-58
0 -85 -17 -80 -51 l3 -24 187 -3 188 -2 6 26 c10 40 -16 54 -98 54 l-68 0 0
66 c0 36 5 86 12 111 15 61 79 129 130 138 33 6 40 4 61 -20 19 -22 29 -27 50
-21 32 8 51 39 43 72 -11 44 -74 66 -153 54z"/>
<path d="M22914 10746 c-63 -20 -110 -62 -140 -123 -69 -140 0 -304 147 -347
66 -20 112 -20 176 -1 81 24 139 105 101 143 -23 23 -54 13 -86 -28 -23 -27
-43 -41 -68 -46 -69 -13 -156 32 -190 97 l-15 29 174 0 c121 0 177 4 185 12 7
7 12 30 12 53 0 68 -20 117 -64 161 -61 61 -141 78 -232 50z m131 -80 c32 -14
54 -43 69 -93 l7 -23 -140 0 c-129 0 -140 1 -134 18 14 39 48 75 87 93 50 22
67 23 111 5z"/>
<path d="M23504 10746 c-63 -20 -110 -62 -140 -123 -69 -140 0 -304 147 -347
66 -20 112 -20 176 -1 81 24 139 105 101 143 -23 23 -54 13 -86 -28 -23 -27
-43 -41 -68 -46 -69 -13 -156 32 -190 97 l-15 29 174 0 c121 0 177 4 185 12 7
7 12 30 12 53 0 68 -20 117 -64 161 -61 61 -141 78 -232 50z m131 -80 c32 -14
54 -43 69 -93 l7 -23 -140 0 c-129 0 -140 1 -134 18 14 39 48 75 87 93 50 22
67 23 111 5z"/>
<path d="M24495 10750 c-22 -4 -55 -14 -72 -23 -27 -14 -33 -15 -33 -3 0 20
-22 26 -93 26 -75 0 -90 -8 -85 -46 3 -26 7 -29 46 -32 l42 -3 0 -160 0 -159
-34 0 c-39 0 -59 -19 -54 -52 3 -22 6 -23 128 -26 106 -2 127 0 137 14 12 17
7 44 -11 56 -6 4 -26 8 -43 8 l-33 0 0 102 c0 116 19 171 69 201 41 24 107 23
121 -2 5 -11 10 -83 10 -160 0 -141 0 -141 -23 -141 -35 0 -59 -22 -55 -51 3
-24 4 -24 127 -27 125 -3 140 1 141 35 0 22 -32 43 -66 43 l-34 0 0 151 c0
199 -15 232 -110 249 -19 3 -53 3 -75 0z"/>
<path d="M24925 10745 c-22 -8 -41 -15 -41 -15 -1 0 -7 -14 -14 -30 -10 -23
-10 -37 -2 -55 22 -48 95 -41 108 10 5 21 12 25 43 25 78 0 130 -27 145 -76 6
-20 2 -21 -71 -27 -138 -9 -233 -56 -252 -122 -21 -79 32 -162 121 -186 51
-13 146 -6 188 16 27 14 32 14 54 0 17 -12 43 -15 92 -13 65 3 69 5 72 27 5
32 -21 51 -70 51 l-38 0 0 133 c0 121 -2 138 -23 178 -33 61 -93 91 -195 96
-52 2 -90 -2 -117 -12z m245 -290 c0 -65 -18 -88 -82 -105 -81 -22 -162 14
-156 70 4 33 74 68 159 79 35 5 67 9 72 10 4 0 7 -24 7 -54z"/>
<path d="M13750 10393 c-41 -15 -54 -78 -22 -106 27 -25 78 -22 96 5 22 32 20
55 -9 83 -24 25 -36 28 -65 18z"/>
<path d="M2840 9982 c-72 -75 -127 -173 -156 -282 -25 -91 -25 -319 0 -410 30
-108 85 -207 156 -282 60 -62 100 -85 100 -57 0 6 -17 32 -39 58 -120 144
-171 318 -158 540 11 185 60 322 152 428 25 28 45 56 45 62 0 28 -41 5 -100
-57z"/>
<path d="M5490 10039 c0 -6 20 -33 44 -60 90 -100 138 -220 155 -384 24 -231
-34 -449 -154 -583 -44 -48 -51 -72 -21 -72 7 0 43 31 79 69 78 80 137 192
163 308 25 114 16 321 -20 430 -31 94 -106 215 -168 268 -41 34 -78 46 -78 24z"/>
<path d="M26460 9982 c-72 -75 -127 -173 -156 -282 -25 -91 -25 -319 0 -410
30 -108 85 -207 156 -282 60 -62 100 -85 100 -57 0 6 -17 32 -39 58 -120 144
-171 318 -158 540 11 185 60 322 152 428 25 28 45 56 45 62 0 28 -41 5 -100
-57z"/>
<path d="M28190 10039 c0 -6 20 -33 44 -60 90 -100 138 -220 155 -384 24 -231
-34 -449 -154 -583 -44 -48 -51 -72 -21 -72 7 0 43 31 79 69 78 80 137 192
163 308 25 114 16 321 -20 430 -31 94 -106 215 -168 268 -41 34 -78 46 -78 24z"/>
<path d="M1920 9881 c-52 -27 -80 -74 -80 -132 l0 -49 -70 0 c-65 0 -71 -2
-82 -25 -18 -41 3 -55 83 -55 l69 0 0 -160 0 -160 -64 0 c-80 0 -107 -20 -90
-64 5 -14 32 -16 195 -16 176 0 189 1 199 19 13 25 13 27 -6 45 -11 11 -35 16
-80 16 l-64 0 0 160 0 159 81 3 c65 2 84 7 93 21 8 12 8 22 0 35 -9 13 -28 18
-93 20 l-81 3 0 38 c0 64 74 110 100 61 15 -29 56 -36 80 -15 20 18 26 60 12
81 -25 38 -143 47 -202 15z"/>
<path d="M4200 9881 c-52 -27 -80 -74 -80 -132 l0 -49 -70 0 c-65 0 -71 -2
-82 -25 -18 -41 3 -55 83 -55 l69 0 0 -160 0 -160 -64 0 c-80 0 -107 -20 -90
-64 5 -14 32 -16 195 -16 176 0 189 1 199 19 13 25 13 27 -6 45 -11 11 -35 16
-80 16 l-64 0 0 160 0 159 81 3 c65 2 84 7 93 21 8 12 8 22 0 35 -9 13 -28 18
-93 20 l-81 3 0 38 c0 64 74 110 100 61 15 -29 56 -36 80 -15 20 18 26 60 12
81 -25 38 -143 47 -202 15z"/>
<path d="M25570 9886 c-6 -8 -10 -25 -8 -38 2 -19 10 -23 46 -26 l42 -3 0 -75
0 -75 -31 16 c-35 19 -131 22 -172 6 -88 -34 -150 -127 -151 -226 0 -77 17
-128 63 -178 61 -68 142 -92 222 -66 19 7 41 18 51 26 14 13 17 12 23 -6 6
-19 14 -21 90 -21 82 0 95 5 95 40 0 20 -34 40 -66 40 l-34 0 0 294 c0 334 9
306 -95 306 -42 0 -66 -5 -75 -14z m46 -300 c33 -33 34 -37 34 -107 0 -88 -19
-133 -70 -167 -85 -57 -190 22 -190 145 0 93 63 163 147 163 38 0 51 -6 79
-34z"/>
<path d="M26940 9886 c-6 -8 -10 -25 -8 -38 2 -19 10 -23 46 -26 l42 -3 0 -75
0 -75 -31 16 c-35 19 -131 22 -172 6 -88 -34 -150 -127 -151 -226 0 -77 17
-128 63 -178 61 -68 142 -92 222 -66 19 7 41 18 51 26 14 13 17 12 23 -6 6
-19 14 -21 90 -21 82 0 95 5 95 40 0 20 -34 40 -66 40 l-34 0 0 294 c0 334 9
306 -95 306 -42 0 -66 -5 -75 -14z m46 -300 c33 -33 34 -37 34 -107 0 -88 -19
-133 -70 -167 -85 -57 -190 22 -190 145 0 93 63 163 147 163 38 0 51 -6 79
-34z"/>
<path d="M24515 9731 c-9 -28 27 -93 84 -152 l47 -49 -9138 0 -9138 0 0 -30 0
-30 9136 0 9136 0 -47 -52 c-26 -29 -57 -72 -68 -96 -20 -40 -20 -43 -3 -60
20 -19 16 -23 80 73 18 27 61 71 97 99 35 27 65 57 67 66 2 11 -9 25 -30 38
-51 32 -145 133 -163 175 -17 41 -49 51 -60 18z"/>
<path d="M890 9695 c-30 -10 -48 -11 -56 -4 -20 16 -105 7 -118 -13 -14 -23 3
-52 33 -56 20 -3 21 -7 21 -161 l0 -157 -31 -11 c-25 -10 -30 -16 -27 -40 l3
-28 95 0 95 0 3 28 c3 24 -2 30 -27 40 l-31 11 0 116 c0 129 16 177 64 194 45
17 51 0 54 -164 3 -140 2 -149 -16 -154 -24 -8 -35 -32 -26 -58 5 -17 14 -18
87 -16 l82 3 3 33 c3 29 0 33 -27 38 l-31 7 0 101 c0 114 10 159 42 193 25 26
63 30 72 7 3 -9 6 -79 6 -157 0 -133 -1 -143 -21 -155 -14 -9 -19 -21 -17 -40
3 -27 3 -27 88 -27 l85 0 3 28 c3 23 -2 30 -26 39 l-30 12 -4 160 c-5 211 -20
241 -117 238 -18 -1 -48 -10 -66 -21 -31 -18 -33 -18 -51 -1 -27 25 -63 30
-114 15z"/>
<path d="M3180 9695 c-30 -10 -48 -11 -56 -4 -20 16 -105 7 -118 -13 -14 -23
3 -52 33 -56 20 -3 21 -7 21 -161 l0 -157 -31 -11 c-25 -10 -30 -16 -27 -40
l3 -28 95 0 95 0 3 28 c3 24 -2 30 -27 40 l-31 11 0 116 c0 129 16 177 64 194
45 17 51 0 54 -164 3 -140 2 -149 -16 -154 -24 -8 -35 -32 -26 -58 5 -17 14
-18 87 -16 l82 3 3 33 c3 29 0 33 -27 38 l-31 7 0 101 c0 114 10 159 42 193
25 26 63 30 72 7 3 -9 6 -79 6 -157 0 -133 -1 -143 -21 -155 -14 -9 -19 -21
-17 -40 3 -27 3 -27 88 -27 l85 0 3 28 c3 23 -2 30 -26 39 l-30 12 -4 160 c-5
211 -20 241 -117 238 -18 -1 -48 -10 -66 -21 -31 -18 -33 -18 -51 -1 -27 25
-63 30 -114 15z"/>
<path d="M4985 9695 c-22 -8 -41 -15 -41 -15 -1 0 -7 -14 -14 -30 -10 -23 -10
-37 -2 -55 22 -48 95 -41 108 10 5 21 12 25 43 25 78 0 130 -27 145 -76 6 -20
2 -21 -71 -27 -138 -9 -233 -56 -252 -122 -21 -79 32 -162 121 -186 51 -13
146 -6 188 16 27 14 32 14 54 0 17 -12 43 -15 92 -13 65 3 69 5 72 27 5 32
-21 51 -70 51 l-38 0 0 133 c0 121 -2 138 -23 178 -33 61 -93 91 -195 96 -52
2 -90 -2 -117 -12z m245 -290 c0 -65 -18 -88 -82 -105 -81 -22 -162 14 -156
70 4 33 74 68 159 79 35 5 67 9 72 10 4 0 7 -24 7 -54z"/>
<path d="M27695 9695 c-22 -8 -41 -15 -41 -15 -1 0 -7 -14 -14 -30 -10 -23
-10 -37 -2 -55 22 -48 95 -41 108 10 5 21 12 25 43 25 78 0 130 -27 145 -76 6
-20 2 -21 -71 -27 -138 -9 -233 -56 -252 -122 -21 -79 32 -162 121 -186 51
-13 146 -6 188 16 27 14 32 14 54 0 17 -12 43 -15 92 -13 65 3 69 5 72 27 5
32 -21 51 -70 51 l-38 0 0 133 c0 121 -2 138 -23 178 -33 61 -93 91 -195 96
-52 2 -90 -2 -117 -12z m245 -290 c0 -65 -18 -88 -82 -105 -81 -22 -162 14
-156 70 4 33 74 68 159 79 35 5 67 9 72 10 4 0 7 -24 7 -54z"/>
<path d="M3270 5519 l0 -2942 -53 50 c-61 58 -109 86 -140 81 -41 -6 -31 -34
25 -65 56 -32 131 -106 163 -161 11 -17 26 -32 35 -32 8 0 36 28 60 62 45 61
125 130 168 143 16 5 22 13 20 28 -7 47 -75 25 -158 -50 l-50 -45 0 2936 0
2936 -35 0 -35 0 0 -2941z"/>
<path d="M26890 5520 l0 -2939 -46 45 c-80 77 -164 108 -164 60 0 -17 9 -27
33 -37 40 -16 129 -99 169 -156 16 -24 35 -43 43 -43 8 0 27 19 43 43 41 58
135 146 172 158 19 7 30 18 30 30 0 50 -81 24 -161 -51 l-49 -46 0 2938 0
2938 -35 0 -35 0 0 -2940z"/>
<path d="M770 5900 c-39 -39 -11 -110 43 -110 29 0 67 39 67 68 0 29 -34 62
-65 62 -14 0 -34 -9 -45 -20z"/>
<path d="M1886 5901 c-26 -29 -18 -82 17 -101 24 -13 30 -13 55 0 55 31 34
120 -28 120 -15 0 -35 -9 -44 -19z"/>
<path d="M27720 5900 c-39 -39 -11 -110 43 -110 29 0 67 39 67 68 0 29 -34 62
-65 62 -14 0 -34 -9 -45 -20z"/>
<path d="M28836 5901 c-26 -29 -18 -82 17 -101 24 -13 30 -13 55 0 55 31 34
120 -28 120 -15 0 -35 -9 -44 -19z"/>
<path d="M1269 5717 c-50 -19 -88 -50 -121 -99 -33 -48 -42 -89 -36 -168 14
-190 234 -286 378 -163 167 143 82 421 -134 439 -29 2 -66 -1 -87 -9z m151
-97 c89 -63 84 -216 -8 -285 -36 -27 -102 -26 -139 1 -37 27 -73 99 -73 145 0
130 123 208 220 139z"/>
<path d="M2525 5720 c-22 -4 -55 -14 -72 -23 -27 -14 -33 -15 -33 -3 0 20 -22
26 -93 26 -75 0 -90 -8 -85 -46 3 -26 7 -29 46 -32 l42 -3 0 -160 0 -159 -34
0 c-39 0 -59 -19 -54 -52 3 -22 6 -23 128 -26 106 -2 127 0 137 14 12 17 7 44
-11 56 -6 4 -26 8 -43 8 l-33 0 0 102 c0 116 19 171 69 201 41 24 107 23 121
-2 5 -11 10 -83 10 -160 0 -141 0 -141 -23 -141 -35 0 -59 -22 -55 -51 3 -24
4 -24 127 -27 125 -3 140 1 141 35 0 22 -32 43 -66 43 l-34 0 0 151 c0 199
-15 232 -110 249 -19 3 -53 3 -75 0z"/>
<path d="M28219 5717 c-50 -19 -88 -50 -121 -99 -33 -48 -42 -89 -36 -168 14
-190 234 -286 378 -163 167 143 82 421 -134 439 -29 2 -66 -1 -87 -9z m151
-97 c89 -63 84 -216 -8 -285 -36 -27 -102 -26 -139 1 -37 27 -73 99 -73 145 0
130 123 208 220 139z"/>
<path d="M29475 5720 c-22 -4 -55 -14 -72 -23 -27 -14 -33 -15 -33 -3 0 20
-22 26 -93 26 -75 0 -90 -8 -85 -46 3 -26 7 -29 46 -32 l42 -3 0 -160 0 -159
-34 0 c-39 0 -59 -19 -54 -52 3 -22 6 -23 128 -26 106 -2 127 0 137 14 12 17
7 44 -11 56 -6 4 -26 8 -43 8 l-33 0 0 102 c0 116 19 171 69 201 41 24 107 23
121 -2 5 -11 10 -83 10 -160 0 -141 0 -141 -23 -141 -35 0 -59 -22 -55 -51 3
-24 4 -24 127 -27 125 -3 140 1 141 35 0 22 -32 43 -66 43 l-34 0 0 151 c0
199 -15 232 -110 249 -19 3 -53 3 -75 0z"/>
<path d="M612 5708 c-17 -17 -15 -55 4 -62 9 -3 51 -6 95 -6 l79 0 0 -221 c0
-130 -5 -238 -11 -265 -15 -59 -47 -84 -110 -84 -42 0 -49 3 -49 20 0 11 -11
27 -24 36 -22 13 -29 14 -53 2 -40 -19 -44 -74 -8 -108 21 -20 39 -25 95 -28
97 -6 135 4 181 45 63 57 69 93 69 398 0 190 -3 264 -12 273 -8 8 -51 12 -128
12 -77 0 -120 -4 -128 -12z"/>
<path d="M1742 5708 c-7 -7 -12 -19 -12 -28 0 -31 23 -40 97 -40 l73 0 0 -160
0 -160 -74 0 c-74 0 -106 -13 -106 -43 1 -35 13 -37 221 -35 l204 3 3 24 c6
36 -22 51 -95 51 l-63 0 0 194 c0 168 -2 195 -16 200 -30 11 -219 7 -232 -6z"/>
<path d="M27562 5708 c-17 -17 -15 -55 4 -62 9 -3 51 -6 95 -6 l79 0 0 -221
c0 -130 -5 -238 -11 -265 -15 -59 -47 -84 -110 -84 -42 0 -49 3 -49 20 0 11
-11 27 -24 36 -22 13 -29 14 -53 2 -40 -19 -44 -74 -8 -108 21 -20 39 -25 95
-28 97 -6 135 4 181 45 63 57 69 93 69 398 0 190 -3 264 -12 273 -8 8 -51 12
-128 12 -77 0 -120 -4 -128 -12z"/>
<path d="M28692 5708 c-7 -7 -12 -19 -12 -28 0 -31 23 -40 97 -40 l73 0 0
-160 0 -160 -74 0 c-74 0 -106 -13 -106 -43 1 -35 13 -37 221 -35 l204 3 3 24
c6 36 -22 51 -95 51 l-63 0 0 194 c0 168 -2 195 -16 200 -30 11 -219 7 -232
-6z"/>
<path d="M3290 1951 c-52 -27 -80 -74 -80 -132 l0 -49 -70 0 c-65 0 -71 -2
-82 -25 -18 -41 3 -55 83 -55 l69 0 0 -160 0 -160 -64 0 c-80 0 -107 -20 -90
-64 5 -14 32 -16 195 -16 176 0 189 1 199 19 13 25 13 27 -6 45 -11 11 -35 16
-80 16 l-64 0 0 160 0 159 81 3 c65 2 84 7 93 21 8 12 8 22 0 35 -9 13 -28 18
-93 20 l-81 3 0 38 c0 64 74 110 100 61 15 -29 56 -36 80 -15 20 18 26 60 12
81 -25 38 -143 47 -202 15z"/>
<path d="M26480 1956 c-6 -8 -10 -25 -8 -38 2 -19 10 -23 46 -26 l42 -3 0 -75
0 -75 -31 16 c-35 19 -131 22 -172 6 -88 -34 -150 -127 -151 -226 0 -77 17
-128 63 -178 61 -68 142 -92 222 -66 19 7 41 18 51 26 14 13 17 12 23 -6 6
-19 14 -21 90 -21 82 0 95 5 95 40 0 20 -34 40 -66 40 l-34 0 0 294 c0 334 9
306 -95 306 -42 0 -66 -5 -75 -14z m46 -300 c33 -33 34 -37 34 -107 0 -88 -19
-133 -70 -167 -85 -57 -190 22 -190 145 0 93 63 163 147 163 38 0 51 -6 79
-34z"/>
<path d="M25440 1870 c-30 -19 30 -137 97 -190 l26 -20 -10282 0 -10281 0 0
-35 0 -35 10277 0 10277 0 -36 -37 c-54 -57 -88 -112 -88 -144 0 -42 34 -39
56 4 28 54 78 110 143 157 33 24 61 50 61 57 0 7 -19 25 -43 42 -56 38 -155
145 -163 176 -7 27 -25 37 -44 25z"/>
<path d="M2260 1765 c-30 -10 -48 -11 -56 -4 -20 16 -105 7 -118 -13 -14 -23
3 -52 33 -56 20 -3 21 -7 21 -161 l0 -157 -31 -11 c-25 -10 -30 -16 -27 -40
l3 -28 95 0 95 0 3 28 c3 24 -2 30 -27 40 l-31 11 0 116 c0 129 16 177 64 194
45 17 51 0 54 -164 3 -140 2 -149 -16 -154 -24 -8 -35 -32 -26 -58 5 -17 14
-18 87 -16 l82 3 3 33 c3 29 0 33 -27 38 l-31 7 0 101 c0 114 10 159 42 193
25 26 63 30 72 7 3 -9 6 -79 6 -157 0 -133 -1 -143 -21 -155 -14 -9 -19 -21
-17 -40 3 -27 3 -27 88 -27 l85 0 3 28 c3 23 -2 30 -26 39 l-30 12 -4 160 c-5
211 -20 241 -117 238 -18 -1 -48 -10 -66 -21 -31 -18 -33 -18 -51 -1 -27 25
-63 30 -114 15z"/>
<path d="M4065 1765 c-22 -8 -41 -15 -41 -15 -1 0 -7 -14 -14 -30 -10 -23 -10
-37 -2 -55 22 -48 95 -41 108 10 5 21 12 25 43 25 78 0 130 -27 145 -76 6 -20
2 -21 -71 -27 -138 -9 -233 -56 -252 -122 -21 -79 32 -162 121 -186 51 -13
146 -6 188 16 27 14 32 14 54 0 17 -12 43 -15 92 -13 65 3 69 5 72 27 5 32
-21 51 -70 51 l-38 0 0 133 c0 121 -2 138 -23 178 -33 61 -93 91 -195 96 -52
2 -90 -2 -117 -12z m245 -290 c0 -65 -18 -88 -82 -105 -81 -22 -162 14 -156
70 4 33 74 68 159 79 35 5 67 9 72 10 4 0 7 -24 7 -54z"/>
<path d="M27235 1765 c-22 -8 -41 -15 -41 -15 -1 0 -7 -14 -14 -30 -10 -23
-10 -37 -2 -55 22 -48 95 -41 108 10 5 21 12 25 43 25 78 0 130 -27 145 -76 6
-20 2 -21 -71 -27 -138 -9 -233 -56 -252 -122 -21 -79 32 -162 121 -186 51
-13 146 -6 188 16 27 14 32 14 54 0 17 -12 43 -15 92 -13 65 3 69 5 72 27 5
32 -21 51 -70 51 l-38 0 0 133 c0 121 -2 138 -23 178 -33 61 -93 91 -195 96
-52 2 -90 -2 -117 -12z m245 -290 c0 -65 -18 -88 -82 -105 -81 -22 -162 14
-156 70 4 33 74 68 159 79 35 5 67 9 72 10 4 0 7 -24 7 -54z"/>
<path d="M11340 1121 c-52 -27 -80 -74 -80 -132 l0 -49 -70 0 c-65 0 -71 -2
-82 -25 -18 -41 3 -55 83 -55 l69 0 0 -160 0 -160 -64 0 c-80 0 -107 -20 -90
-64 5 -14 32 -16 195 -16 176 0 189 1 199 19 13 25 13 27 -6 45 -11 11 -35 16
-80 16 l-64 0 0 160 0 159 81 3 c65 2 84 7 93 21 8 12 8 22 0 35 -9 13 -28 18
-93 20 l-81 3 0 38 c0 64 74 110 100 61 15 -29 56 -36 80 -15 20 18 26 60 12
81 -25 38 -143 47 -202 15z"/>
<path d="M12310 1126 c-6 -8 -10 -25 -8 -38 3 -22 8 -23 96 -26 l92 -3 0 -259
0 -260 -78 0 c-88 0 -116 -13 -110 -51 l3 -24 225 0 225 0 3 29 c5 39 -10 46
-100 46 l-78 0 0 288 c0 211 -3 291 -12 300 -19 19 -242 16 -258 -2z"/>
<path d="M13140 1126 c-6 -8 -10 -25 -8 -38 2 -19 10 -23 46 -26 l42 -3 0 -75
0 -75 -31 16 c-35 19 -131 22 -172 6 -88 -34 -150 -127 -151 -226 0 -77 17
-128 63 -178 61 -68 142 -92 222 -66 19 7 41 18 51 26 14 13 17 12 23 -6 6
-19 14 -21 90 -21 82 0 95 5 95 40 0 20 -34 40 -66 40 l-34 0 0 294 c0 334 9
306 -95 306 -42 0 -66 -5 -75 -14z m46 -300 c33 -33 34 -37 34 -107 0 -88 -19
-133 -70 -167 -85 -57 -190 22 -190 145 0 93 63 163 147 163 38 0 51 -6 79
-34z"/>
<path d="M13452 1131 c-8 -5 -12 -21 -10 -37 2 -25 8 -29 36 -32 l32 -3 0
-260 0 -259 -22 0 c-36 0 -50 -15 -46 -46 l3 -29 95 -3 c80 -2 97 0 107 15 7
9 13 20 13 24 0 16 -33 39 -56 39 l-24 0 0 243 1 242 98 -271 c53 -148 101
-276 105 -282 11 -19 103 -15 110 4 3 9 6 144 6 300 l0 284 30 0 c23 0 31 5
36 25 11 45 -9 55 -106 55 -95 0 -114 -9 -108 -52 2 -18 10 -24 36 -26 l32 -3
0 -237 -1 -237 -79 220 c-111 306 -110 304 -127 320 -16 17 -138 21 -161 6z"/>
<path d="M15222 1131 c-8 -5 -12 -21 -10 -37 3 -26 7 -29 41 -32 l37 -3 0
-260 0 -259 -27 0 c-41 0 -55 -13 -51 -46 l3 -29 130 0 130 0 3 24 c5 31 -21
51 -65 51 l-33 0 0 110 0 110 69 0 c69 0 70 0 73 -27 3 -24 8 -29 37 -31 44
-4 51 8 51 94 0 83 -13 107 -55 102 -24 -2 -31 -8 -33 -30 -3 -28 -4 -28 -73
-28 l-69 0 0 110 0 110 130 0 130 0 0 -45 c0 -38 4 -47 24 -56 17 -8 29 -8 45
0 18 10 21 20 21 84 0 44 -5 78 -12 85 -14 14 -474 17 -496 3z"/>
<path d="M14780 1073 c-24 -9 -30 -25 -30 -80 l0 -53 -60 0 c-49 0 -61 -3 -70
-20 -8 -14 -8 -26 0 -40 9 -17 21 -20 69 -20 l59 0 4 -152 c4 -177 14 -204 86
-240 113 -54 261 23 250 132 -3 32 -6 35 -37 38 -37 4 -51 -9 -51 -45 0 -34
-48 -66 -90 -59 -55 9 -60 23 -60 183 l0 142 101 3 c84 3 104 6 113 21 8 12 8
22 0 35 -9 14 -29 17 -111 20 l-101 3 -4 59 c-2 33 -6 61 -9 64 -9 8 -45 14
-59 9z"/>
<path d="M19220 1073 c-24 -9 -30 -25 -30 -80 l0 -53 -60 0 c-49 0 -61 -3 -70
-20 -8 -14 -8 -26 0 -40 9 -17 21 -20 69 -20 l59 0 4 -152 c4 -177 14 -204 86
-240 113 -54 261 23 250 132 -3 32 -6 35 -37 38 -37 4 -51 -9 -51 -45 0 -34
-48 -66 -90 -59 -55 9 -60 23 -60 183 l0 142 101 3 c84 3 104 6 113 21 8 12 8
22 0 35 -9 14 -29 17 -111 20 l-101 3 -4 59 c-2 33 -6 61 -9 64 -9 8 -45 14
-59 9z"/>
<path d="M11869 937 c-50 -19 -88 -50 -121 -99 -33 -48 -42 -89 -36 -168 14
-190 234 -286 378 -163 167 143 82 421 -134 439 -29 2 -66 -1 -87 -9z m151
-97 c89 -63 84 -216 -8 -285 -36 -27 -102 -26 -139 1 -37 27 -73 99 -73 145 0
130 123 208 220 139z"/>
<path d="M14145 935 c-22 -8 -41 -15 -41 -15 -1 0 -7 -14 -14 -30 -10 -23 -10
-37 -2 -55 22 -48 95 -41 108 10 5 21 12 25 43 25 78 0 130 -27 145 -76 6 -20
2 -21 -71 -27 -138 -9 -233 -56 -252 -122 -21 -79 32 -162 121 -186 51 -13
146 -6 188 16 27 14 32 14 54 0 17 -12 43 -15 92 -13 65 3 69 5 72 27 5 32
-21 51 -70 51 l-38 0 0 133 c0 121 -2 138 -23 178 -33 61 -93 91 -195 96 -52
2 -90 -2 -117 -12z m245 -290 c0 -65 -18 -88 -82 -105 -81 -22 -162 14 -156
70 4 33 74 68 159 79 35 5 67 9 72 10 4 0 7 -24 7 -54z"/>
<path d="M16163 940 c-23 -3 -64 -20 -92 -37 l-50 -31 -3 31 -3 32 -94 3
c-100 3 -121 -4 -121 -43 0 -28 17 -35 81 -35 l49 0 0 -160 0 -160 -48 0 c-58
0 -85 -17 -80 -51 l3 -24 187 -3 188 -2 6 26 c10 40 -16 54 -98 54 l-68 0 0
66 c0 36 5 86 12 111 15 61 79 129 130 138 33 6 40 4 61 -20 19 -22 29 -27 50
-21 32 8 51 39 43 72 -11 44 -74 66 -153 54z"/>
<path d="M16584 936 c-63 -20 -110 -62 -140 -123 -69 -140 0 -304 147 -347 66
-20 112 -20 176 -1 81 24 139 105 101 143 -23 23 -54 13 -86 -28 -23 -27 -43
-41 -68 -46 -69 -13 -156 32 -190 97 l-15 29 174 0 c121 0 177 4 185 12 7 7
12 30 12 53 0 68 -20 117 -64 161 -61 61 -141 78 -232 50z m131 -80 c32 -14
54 -43 69 -93 l7 -23 -140 0 c-129 0 -140 1 -134 18 14 39 48 75 87 93 50 22
67 23 111 5z"/>
<path d="M17164 936 c-63 -20 -110 -62 -140 -123 -69 -140 0 -304 147 -347 66
-20 112 -20 176 -1 81 24 139 105 101 143 -23 23 -54 13 -86 -28 -23 -27 -43
-41 -68 -46 -69 -13 -156 32 -190 97 l-15 29 174 0 c121 0 177 4 185 12 7 7
12 30 12 53 0 68 -20 117 -64 161 -61 61 -141 78 -232 50z m131 -80 c32 -14
54 -43 69 -93 l7 -23 -140 0 c-129 0 -140 1 -134 18 14 39 48 75 87 93 50 22
67 23 111 5z"/>
<path d="M18155 940 c-22 -4 -55 -14 -72 -23 -27 -14 -33 -15 -33 -3 0 20 -22
26 -93 26 -75 0 -90 -8 -85 -46 3 -26 7 -29 46 -32 l42 -3 0 -160 0 -159 -34
0 c-39 0 -59 -19 -54 -52 3 -22 6 -23 128 -26 106 -2 127 0 137 14 12 17 7 44
-11 56 -6 4 -26 8 -43 8 l-33 0 0 102 c0 116 19 171 69 201 41 24 107 23 121
-2 5 -11 10 -83 10 -160 0 -141 0 -141 -23 -141 -35 0 -59 -22 -55 -51 3 -24
4 -24 127 -27 125 -3 140 1 141 35 0 22 -32 43 -66 43 l-34 0 0 151 c0 199
-15 232 -110 249 -19 3 -53 3 -75 0z"/>
<path d="M18595 935 c-22 -8 -41 -15 -41 -15 -1 0 -7 -14 -14 -30 -10 -23 -10
-37 -2 -55 22 -48 95 -41 108 10 5 21 12 25 43 25 78 0 130 -27 145 -76 6 -20
2 -21 -71 -27 -138 -9 -233 -56 -252 -122 -21 -79 32 -162 121 -186 51 -13
146 -6 188 16 27 14 32 14 54 0 17 -12 43 -15 92 -13 65 3 69 5 72 27 5 32
-21 51 -70 51 l-38 0 0 133 c0 121 -2 138 -23 178 -33 61 -93 91 -195 96 -52
2 -90 -2 -117 -12z m245 -290 c0 -65 -18 -88 -82 -105 -81 -22 -162 14 -156
70 4 33 74 68 159 79 35 5 67 9 72 10 4 0 7 -24 7 -54z"/>
</g>
</svg>
