<?xml version="1.0" standalone="no"?>
<!DOCTYPE svg PUBLIC "-//W3C//DTD SVG 20010904//EN"
 "http://www.w3.org/TR/2001/REC-SVG-20010904/DTD/svg10.dtd">
<svg version="1.0" xmlns="http://www.w3.org/2000/svg"
 width="2217.000000pt" height="1062.000000pt" viewBox="0 0 2217.000000 1062.000000"
 preserveAspectRatio="xMidYMid meet">
<metadata>
Created by potrace 1.16, written by Peter Selinger 2001-2019
</metadata>
<g transform="translate(0.000000,1062.000000) scale(0.100000,-0.100000)"
fill="#000000" stroke="none">
<path d="M8837 10144 c-19 -10 -31 -28 -39 -59 -11 -42 -14 -44 -52 -47 -36
-3 -41 -6 -41 -28 0 -22 5 -25 43 -28 l42 -3 0 -94 0 -94 -42 -3 c-36 -2 -44
-7 -46 -25 -3 -23 -2 -23 123 -23 125 0 126 0 123 23 -2 18 -10 23 -45 25
l-43 3 0 95 0 94 39 0 c52 0 71 8 71 30 0 22 -19 30 -71 30 -38 0 -40 2 -37
26 4 38 35 55 53 31 19 -26 59 -19 63 11 2 13 -2 30 -8 38 -16 19 -97 18 -133
-2z"/>
<path d="M9447 10153 c-4 -3 -7 -15 -7 -25 0 -15 8 -18 60 -18 l60 0 0 -160 0
-159 -57 -3 c-51 -3 -58 -6 -61 -25 -3 -23 -3 -23 143 -23 146 0 146 0 143 23
-3 19 -10 22 -55 25 l-53 3 0 169 c0 92 -3 175 -6 184 -5 13 -22 16 -83 16
-43 0 -81 -3 -84 -7z"/>
<path d="M9967 10154 c-4 -4 -7 -16 -7 -26 0 -13 8 -18 30 -18 29 0 30 -2 30
-46 0 -40 -2 -45 -17 -38 -38 16 -92 16 -127 -1 -51 -24 -79 -68 -83 -129 -5
-72 26 -124 90 -150 46 -19 51 -19 93 -4 24 8 44 11 44 6 0 -5 26 -8 58 -6 49
3 57 6 57 23 0 14 -8 21 -27 23 l-28 3 -2 182 -3 182 -50 3 c-28 2 -54 0 -58
-4z m7 -175 c78 -36 46 -189 -39 -189 -95 0 -111 153 -20 191 27 11 31 11 59
-2z"/>
<path d="M10160 10135 c0 -18 5 -25 20 -25 19 0 20 -7 20 -159 0 -150 -1 -159
-20 -164 -12 -3 -20 -14 -20 -27 0 -20 4 -21 68 -18 59 3 67 5 67 23 0 13 -8
21 -22 23 -23 3 -23 6 -23 145 l1 142 62 -165 62 -165 38 -3 37 -3 0 185 c0
177 1 186 19 186 24 0 33 13 25 34 -5 12 -21 16 -69 16 -48 0 -64 -4 -69 -16
-8 -21 1 -34 25 -34 18 0 19 -8 19 -142 l-1 -143 -62 165 -62 165 -58 3 c-55
3 -57 2 -57 -23z"/>
<path d="M11260 10135 c0 -20 5 -25 25 -25 l25 0 0 -159 c0 -158 0 -160 -22
-163 -15 -2 -24 -11 -26 -25 -3 -22 -1 -23 83 -23 84 0 86 1 83 23 -2 16 -11
23 -30 25 -27 3 -28 5 -28 68 l0 64 40 0 c28 0 40 -4 40 -14 0 -16 34 -31 50
-21 5 3 10 33 10 66 0 57 -1 59 -26 59 -17 0 -28 -6 -31 -20 -4 -16 -14 -20
-44 -20 l-39 0 0 70 0 70 79 0 80 0 3 -32 c2 -28 7 -33 28 -33 24 0 25 3 25
55 l0 55 -162 3 -163 2 0 -25z"/>
<path d="M10977 10113 c-4 -3 -7 -21 -7 -40 0 -31 -2 -33 -34 -33 -18 0 -39
-7 -46 -15 -19 -22 5 -45 46 -45 l34 0 0 -85 c0 -104 15 -138 65 -155 48 -16
97 -6 129 27 43 42 29 105 -19 87 -8 -4 -15 -14 -15 -23 0 -25 -20 -41 -52
-41 -38 0 -48 24 -48 114 l0 76 64 0 c44 0 67 5 76 15 23 28 -5 45 -76 45
l-64 0 0 40 c0 35 -3 40 -23 40 -13 0 -27 -3 -30 -7z"/>
<path d="M13837 10113 c-4 -3 -7 -21 -7 -40 0 -31 -2 -33 -34 -33 -18 0 -39
-7 -46 -15 -19 -22 5 -45 46 -45 l34 0 0 -85 c0 -104 15 -138 65 -155 48 -16
97 -6 129 27 43 42 29 105 -19 87 -8 -4 -15 -14 -15 -23 0 -25 -20 -41 -52
-41 -38 0 -48 24 -48 114 l0 76 64 0 c44 0 67 5 76 15 23 28 -5 45 -76 45
l-64 0 0 40 c0 35 -3 40 -23 40 -13 0 -27 -3 -30 -7z"/>
<path d="M9154 10030 c-32 -13 -84 -78 -86 -108 -6 -120 47 -186 149 -186 57
0 90 17 127 67 29 39 28 121 -2 169 -36 58 -123 85 -188 58z m116 -67 c64 -60
29 -173 -54 -173 -79 0 -116 111 -57 171 37 37 72 37 111 2z"/>
<path d="M10572 10024 c-24 -17 -29 -43 -10 -62 18 -18 46 -14 60 8 16 24 64
27 96 4 38 -26 27 -41 -36 -47 -32 -2 -73 -12 -90 -21 -132 -68 -20 -213 126
-163 23 8 45 11 48 6 8 -14 101 -11 106 4 9 23 -4 37 -33 37 l-29 0 0 75 c0
95 -17 136 -63 158 -45 22 -145 23 -175 1z m168 -179 c0 -41 -20 -55 -78 -55
-43 0 -66 18 -60 47 4 20 57 42 106 42 30 1 32 -1 32 -34z"/>
<path d="M11637 10033 c-13 -12 -7 -41 9 -47 9 -3 27 -6 40 -6 24 0 24 -1 24
-94 l0 -95 -37 -3 c-31 -2 -39 -7 -41 -26 l-3 -23 123 3 c115 3 123 4 123 23
0 17 -8 20 -52 23 l-53 3 0 47 c0 64 26 113 73 136 36 17 39 17 51 1 16 -22
60 -16 64 8 10 53 -67 73 -145 38 -40 -19 -41 -19 -46 0 -4 16 -14 19 -64 19
-33 0 -63 -3 -66 -7z"/>
<path d="M12084 10022 c-74 -47 -99 -120 -66 -195 36 -82 138 -117 225 -79 32
14 48 28 53 46 12 49 -31 65 -60 21 -14 -21 -24 -25 -62 -25 -38 0 -51 5 -77
33 l-32 32 115 5 115 5 0 53 c-1 45 -5 57 -32 84 -27 27 -41 32 -90 35 -45 3
-65 0 -89 -15z m123 -47 c11 -8 23 -24 26 -35 5 -19 1 -20 -80 -20 l-85 0 14
23 c30 44 86 59 125 32z"/>
<path d="M12454 10022 c-74 -47 -99 -120 -66 -195 36 -82 138 -117 225 -79 32
14 48 28 53 46 12 49 -31 65 -60 21 -14 -21 -24 -25 -62 -25 -38 0 -51 5 -77
33 l-32 32 115 5 115 5 0 53 c-1 45 -5 57 -32 84 -27 27 -41 32 -90 35 -45 3
-65 0 -89 -15z m123 -47 c11 -8 23 -24 26 -35 5 -19 1 -20 -80 -20 l-85 0 14
23 c30 44 86 59 125 32z"/>
<path d="M13000 10025 c-16 -19 3 -45 31 -45 17 0 19 -9 19 -95 0 -94 0 -95
-24 -95 -24 0 -41 -23 -30 -41 3 -5 43 -9 90 -9 83 0 85 1 82 23 -2 16 -11 23
-30 25 -27 3 -28 6 -28 56 0 71 16 114 51 131 35 19 44 19 63 -1 12 -12 16
-36 16 -100 0 -82 -1 -84 -24 -84 -25 0 -43 -27 -28 -42 5 -5 44 -8 88 -6 71
3 79 5 79 23 0 14 -8 21 -27 23 -26 3 -26 3 -30 103 -3 96 -4 102 -31 125 -32
28 -87 32 -129 10 -23 -12 -27 -12 -32 0 -7 19 -90 19 -106 -1z"/>
<path d="M13432 10024 c-24 -17 -29 -43 -10 -62 18 -18 46 -14 60 8 16 24 64
27 96 4 38 -26 27 -41 -36 -47 -32 -2 -73 -12 -90 -21 -132 -68 -20 -213 126
-163 23 8 45 11 48 6 8 -14 101 -11 106 4 9 23 -4 37 -33 37 l-29 0 0 75 c0
95 -17 136 -63 158 -45 22 -145 23 -175 1z m168 -179 c0 -41 -20 -55 -78 -55
-43 0 -66 18 -60 47 4 20 57 42 106 42 30 1 32 -1 32 -34z"/>
<path d="M3420 9522 c-28 -28 -50 -85 -50 -129 0 -19 -6 -22 -42 -25 -31 -2
-44 -8 -46 -20 -3 -15 4 -18 37 -18 38 0 41 -2 36 -22 -3 -13 -17 -86 -31
-163 -24 -137 -42 -185 -67 -185 -7 0 -12 13 -12 33 0 26 -4 33 -23 35 -29 4
-52 -14 -52 -43 0 -34 31 -55 79 -55 35 0 49 6 76 33 37 37 48 69 80 242 l22
120 52 3 c43 3 52 6 49 20 -2 12 -15 18 -46 20 -47 4 -50 11 -31 92 15 65 54
85 54 28 0 -30 3 -33 30 -33 23 0 32 6 40 29 8 24 6 31 -14 47 -37 30 -106 26
-141 -9z"/>
<path d="M17563 9493 c-34 -12 -3 -83 70 -160 l50 -53 -6367 0 -6366 0 0 -35
0 -35 6361 0 6361 0 -46 -52 c-75 -86 -95 -149 -51 -156 16 -2 25 7 38 36 18
41 113 141 165 174 38 24 41 51 9 65 -41 19 -143 120 -168 167 -25 47 -35 56
-56 49z"/>
<path d="M18637 9473 c-17 -17 -5 -33 24 -33 28 0 31 -3 25 -22 -3 -13 -11
-47 -17 -76 -10 -42 -15 -51 -28 -46 -9 4 -39 9 -67 12 -134 10 -246 -138
-189 -248 30 -58 118 -78 185 -41 35 18 36 18 59 0 48 -39 117 -16 141 47 26
68 -10 75 -39 8 -22 -48 -53 -59 -59 -19 -1 11 20 107 48 213 27 106 50 197
50 202 0 11 -123 14 -133 3z m-17 -215 c22 -24 22 -27 -6 -126 -12 -42 -22
-57 -53 -78 -49 -32 -90 -29 -110 7 -13 23 -13 35 -2 85 25 108 118 169 171
112z"/>
<path d="M2072 9363 c-15 -6 -52 -75 -52 -98 0 -31 30 -13 49 30 20 45 53 61
64 33 2 -7 -9 -64 -25 -127 -31 -120 -31 -141 0 -141 28 0 39 17 58 95 29 119
94 190 167 183 27 -3 32 -7 35 -33 2 -17 -8 -72 -22 -123 -28 -104 -26 -125
12 -120 23 3 28 12 52 93 14 50 34 102 45 117 48 64 133 90 155 48 9 -16 4
-39 -20 -110 -33 -95 -31 -118 10 -140 40 -21 81 -12 121 29 39 39 52 81 24
81 -8 0 -20 -10 -26 -22 -17 -34 -51 -68 -66 -68 -25 0 -25 29 1 94 35 86 35
138 0 165 -47 37 -154 24 -193 -23 -12 -14 -17 -12 -42 15 -28 30 -32 31 -92
27 -43 -2 -72 -10 -91 -24 l-29 -21 -23 24 c-22 22 -77 30 -112 16z"/>
<path d="M4115 9353 c-94 -49 -140 -156 -100 -233 30 -58 118 -78 185 -41 35
18 36 18 59 0 48 -39 117 -16 141 47 26 67 -10 75 -39 9 -20 -45 -46 -59 -57
-30 -4 8 6 64 21 124 15 61 24 115 20 120 -8 14 -42 14 -50 1 -4 -7 -14 -5
-28 5 -28 20 -113 19 -152 -2z m135 -35 c22 -24 22 -27 -6 -126 -12 -42 -22
-57 -53 -78 -49 -32 -90 -29 -110 7 -13 23 -13 35 -2 85 25 108 118 169 171
112z"/>
<path d="M19275 9293 c-94 -49 -140 -156 -100 -233 30 -58 118 -78 185 -41 35
18 36 18 59 0 48 -39 117 -16 141 47 26 67 -10 75 -39 9 -20 -45 -46 -59 -57
-30 -4 8 6 64 21 124 15 61 24 115 20 120 -8 14 -42 14 -50 1 -4 -7 -14 -5
-28 5 -28 20 -113 19 -152 -2z m135 -35 c22 -24 22 -27 -6 -126 -12 -42 -22
-57 -53 -78 -49 -32 -90 -29 -110 7 -13 23 -13 35 -2 85 25 108 118 169 171
112z"/>
<path d="M18930 5374 l0 -3146 -54 49 c-85 78 -161 105 -161 58 0 -12 14 -26
40 -39 47 -24 148 -123 170 -166 21 -41 47 -38 78 9 40 60 122 137 167 157 31
14 40 23 38 39 -7 46 -73 23 -161 -56 l-57 -51 0 3146 0 3146 -30 0 -30 0 0
-3146z"/>
<path d="M3180 5379 l0 -3081 -52 48 c-29 26 -73 56 -97 66 -40 19 -44 19 -60
3 -15 -15 -14 -18 6 -33 12 -9 41 -28 64 -42 36 -22 99 -89 149 -160 18 -25
43 -19 58 14 19 42 122 144 167 166 29 14 45 28 45 40 0 50 -75 25 -155 -51
l-55 -52 0 3082 0 3081 -35 0 -35 0 0 -3081z"/>
<path d="M627 5584 c-19 -10 -31 -28 -39 -59 -11 -42 -14 -44 -52 -47 -36 -3
-41 -6 -41 -28 0 -22 5 -25 43 -28 l42 -3 0 -94 0 -94 -42 -3 c-36 -2 -44 -7
-46 -25 -3 -23 -2 -23 123 -23 125 0 126 0 123 23 -2 18 -10 23 -45 25 l-43 3
0 95 0 94 39 0 c52 0 71 8 71 30 0 22 -19 30 -71 30 -38 0 -40 2 -37 26 4 38
35 55 53 31 19 -26 59 -19 63 11 2 13 -2 30 -8 38 -16 19 -97 18 -133 -2z"/>
<path d="M19617 5584 c-19 -10 -31 -28 -39 -59 -11 -42 -14 -44 -52 -47 -36
-3 -41 -6 -41 -28 0 -22 5 -25 43 -28 l42 -3 0 -94 0 -94 -42 -3 c-36 -2 -44
-7 -46 -25 -3 -23 -2 -23 123 -23 125 0 126 0 123 23 -2 18 -10 23 -45 25
l-43 3 0 95 0 94 39 0 c52 0 71 8 71 30 0 22 -19 30 -71 30 -38 0 -40 2 -37
26 4 38 35 55 53 31 19 -26 59 -19 63 11 2 13 -2 30 -8 38 -16 19 -97 18 -133
-2z"/>
<path d="M833 5473 c-19 -7 -15 -31 7 -45 18 -11 20 -24 20 -104 0 -85 -2 -92
-21 -97 -13 -4 -20 -12 -17 -24 3 -15 15 -19 66 -21 58 -3 62 -1 62 18 0 13
-8 24 -20 27 -39 10 -22 171 21 194 27 14 39 -22 39 -116 0 -55 -4 -74 -15
-79 -8 -3 -15 -14 -15 -25 0 -19 7 -20 120 -20 115 0 120 1 120 20 0 12 -8 23
-20 26 -18 5 -20 14 -20 100 0 89 -9 129 -34 145 -18 13 -60 9 -83 -7 -18 -13
-22 -13 -33 0 -14 17 -53 20 -80 5 -13 -7 -21 -7 -25 0 -6 10 -50 12 -72 3z
m271 -59 c3 -9 6 -52 6 -97 0 -71 -3 -84 -20 -95 -12 -7 -20 -8 -20 -2 0 5 -7
10 -15 10 -12 0 -15 16 -15 80 0 67 3 83 20 100 24 24 36 25 44 4z"/>
<path d="M1272 5464 c-24 -17 -29 -43 -10 -62 18 -18 46 -14 60 8 16 24 64 27
96 4 38 -26 27 -41 -36 -47 -32 -2 -73 -12 -90 -21 -132 -68 -20 -213 126
-163 23 8 45 11 48 6 8 -14 101 -11 106 4 9 23 -4 37 -33 37 l-29 0 0 75 c0
95 -17 136 -63 158 -45 22 -145 23 -175 1z m168 -179 c0 -41 -20 -55 -78 -55
-43 0 -66 18 -60 47 4 20 57 42 106 42 30 1 32 -1 32 -34z"/>
<path d="M1570 5465 c-16 -19 3 -45 31 -45 18 0 19 -10 19 -170 l0 -170 -24 0
c-24 0 -41 -23 -30 -41 3 -5 43 -9 90 -9 83 0 85 1 82 23 -2 16 -11 23 -30 25
-27 3 -28 5 -28 62 l0 59 28 -15 c38 -20 72 -17 122 9 162 85 55 341 -116 277
-19 -8 -30 -8 -38 0 -16 16 -92 12 -106 -5z m229 -50 c58 -29 66 -124 14 -165
-47 -37 -103 -22 -122 31 -22 64 -5 120 43 139 29 12 33 12 65 -5z"/>
<path d="M2425 5463 c-67 -35 -114 -104 -115 -168 0 -40 34 -93 68 -106 28
-11 105 -8 134 5 14 7 15 3 6 -32 -15 -59 -47 -84 -112 -90 l-55 -4 2 28 c2
27 -1 29 -33 29 -31 0 -35 -3 -38 -30 -5 -42 19 -55 102 -55 92 0 139 14 168
49 26 30 115 351 103 371 -8 13 -42 13 -50 0 -4 -7 -14 -5 -28 5 -28 20 -113
19 -152 -2z m136 -34 c14 -14 19 -28 15 -42 -4 -12 -12 -44 -18 -70 -15 -61
-63 -107 -113 -107 -68 0 -81 67 -33 168 32 68 106 94 149 51z"/>
<path d="M19823 5473 c-19 -7 -15 -31 7 -45 18 -11 20 -24 20 -104 0 -85 -2
-92 -21 -97 -13 -4 -20 -12 -17 -24 3 -15 15 -19 66 -21 58 -3 62 -1 62 18 0
13 -8 24 -20 27 -39 10 -22 171 21 194 27 14 39 -22 39 -116 0 -55 -4 -74 -15
-79 -8 -3 -15 -14 -15 -25 0 -19 7 -20 120 -20 115 0 120 1 120 20 0 12 -8 23
-20 26 -18 5 -20 14 -20 100 0 89 -9 129 -34 145 -18 13 -60 9 -83 -7 -18 -13
-22 -13 -33 0 -14 17 -53 20 -80 5 -13 -7 -21 -7 -25 0 -6 10 -50 12 -72 3z
m271 -59 c3 -9 6 -52 6 -97 0 -71 -3 -84 -20 -95 -12 -7 -20 -8 -20 -2 0 5 -7
10 -15 10 -12 0 -15 16 -15 80 0 67 3 83 20 100 24 24 36 25 44 4z"/>
<path d="M20252 5464 c-24 -17 -29 -43 -10 -62 18 -18 46 -14 60 8 16 24 64
27 96 4 38 -26 27 -41 -36 -47 -32 -2 -73 -12 -90 -21 -132 -68 -20 -213 126
-163 23 8 45 11 48 6 8 -14 101 -11 106 4 9 23 -4 37 -33 37 l-29 0 0 75 c0
95 -17 136 -63 158 -45 22 -145 23 -175 1z m168 -179 c0 -41 -20 -55 -78 -55
-43 0 -66 18 -60 47 4 20 57 42 106 42 30 1 32 -1 32 -34z"/>
<path d="M20560 5465 c-16 -19 3 -45 31 -45 18 0 19 -10 19 -170 l0 -170 -24
0 c-24 0 -41 -23 -30 -41 3 -5 43 -9 90 -9 83 0 85 1 82 23 -2 16 -11 23 -30
25 -27 3 -28 5 -28 62 l0 59 28 -15 c38 -20 72 -17 122 9 162 85 55 341 -116
277 -19 -8 -30 -8 -38 0 -16 16 -92 12 -106 -5z m229 -50 c58 -29 66 -124 14
-165 -47 -37 -103 -22 -122 31 -22 64 -5 120 43 139 29 12 33 12 65 -5z"/>
<path d="M21415 5463 c-67 -35 -114 -104 -115 -168 0 -40 34 -93 68 -106 28
-11 105 -8 134 5 14 7 15 3 6 -32 -15 -59 -47 -84 -112 -90 l-55 -4 2 28 c2
27 -1 29 -33 29 -31 0 -35 -3 -38 -30 -5 -42 19 -55 102 -55 92 0 139 14 168
49 26 30 115 351 103 371 -8 13 -42 13 -50 0 -4 -7 -14 -5 -28 5 -28 20 -113
19 -152 -2z m136 -34 c14 -14 19 -28 15 -42 -4 -12 -12 -44 -18 -70 -15 -61
-63 -107 -113 -107 -68 0 -81 67 -33 168 32 68 106 94 149 51z"/>
<path d="M3470 1652 c-28 -28 -50 -85 -50 -129 0 -19 -6 -22 -42 -25 -31 -2
-44 -8 -46 -20 -3 -15 4 -18 37 -18 38 0 41 -2 36 -22 -3 -13 -17 -86 -31
-163 -24 -137 -42 -185 -67 -185 -7 0 -12 13 -12 33 0 26 -4 33 -23 35 -29 4
-52 -14 -52 -43 0 -34 31 -55 79 -55 35 0 49 6 76 33 37 37 48 69 80 242 l22
120 52 3 c43 3 52 6 49 20 -2 12 -15 18 -46 20 -47 4 -50 11 -31 92 15 65 54
85 54 28 0 -30 3 -33 30 -33 23 0 32 6 40 29 8 24 6 31 -14 47 -37 30 -106 26
-141 -9z"/>
<path d="M4077 1663 c-17 -16 -5 -33 24 -33 24 0 29 -4 25 -17 -36 -123 -75
-305 -70 -329 23 -116 178 -127 272 -20 95 109 47 243 -83 233 -27 -2 -58 -7
-67 -11 -15 -7 -14 2 7 84 14 50 25 93 25 96 0 7 -126 5 -133 -3z m219 -218
c13 -20 14 -32 5 -75 -15 -70 -36 -107 -74 -130 -85 -52 -127 4 -95 126 24 90
125 139 164 79z"/>
<path d="M17607 1613 c-23 -22 11 -92 81 -165 l36 -38 -6412 0 -6412 0 0 -35
0 -35 6417 0 6417 0 -51 -52 c-54 -56 -83 -104 -83 -137 0 -44 41 -36 61 12
17 40 88 117 151 163 26 20 48 41 48 48 0 6 -28 32 -62 56 -66 48 -134 127
-144 166 -6 23 -32 32 -47 17z"/>
<path d="M18677 1593 c-17 -17 -5 -33 24 -33 28 0 31 -3 25 -22 -3 -13 -11
-47 -17 -76 -10 -42 -15 -51 -28 -46 -9 4 -39 9 -67 12 -134 10 -246 -138
-189 -248 30 -58 118 -78 185 -41 35 18 36 18 59 0 48 -39 117 -16 141 47 26
68 -10 75 -39 8 -22 -48 -53 -59 -59 -19 -1 11 20 107 48 213 27 106 50 197
50 202 0 11 -123 14 -133 3z m-17 -215 c22 -24 22 -27 -6 -126 -12 -42 -22
-57 -53 -78 -49 -32 -90 -29 -110 7 -13 23 -13 35 -2 85 25 108 118 169 171
112z"/>
<path d="M19237 1593 c-17 -16 -5 -33 24 -33 24 0 29 -4 25 -17 -36 -123 -75
-305 -70 -329 23 -116 178 -127 272 -20 95 109 47 243 -83 233 -27 -2 -58 -7
-67 -11 -15 -7 -14 2 7 84 14 50 25 93 25 96 0 7 -126 5 -133 -3z m219 -218
c13 -20 14 -32 5 -75 -15 -70 -36 -107 -74 -130 -85 -52 -127 4 -95 126 24 90
125 139 164 79z"/>
<path d="M2122 1493 c-15 -6 -52 -75 -52 -98 0 -31 30 -13 49 30 20 45 53 61
64 33 2 -7 -9 -64 -25 -127 -31 -120 -31 -141 0 -141 28 0 39 17 58 95 29 119
94 190 167 183 27 -3 32 -7 35 -33 2 -17 -8 -72 -22 -123 -28 -104 -26 -125
12 -120 23 3 28 12 52 93 14 50 34 102 45 117 48 64 133 90 155 48 9 -16 4
-39 -20 -110 -33 -95 -31 -118 10 -140 40 -21 81 -12 121 29 39 39 52 81 24
81 -8 0 -20 -10 -26 -22 -17 -34 -51 -68 -66 -68 -25 0 -25 29 1 94 35 86 35
138 0 165 -47 37 -154 24 -193 -23 -12 -14 -17 -12 -42 15 -28 30 -32 31 -92
27 -43 -2 -72 -10 -91 -24 l-29 -21 -23 24 c-22 22 -77 30 -112 16z"/>
<path d="M8837 864 c-19 -10 -31 -28 -39 -59 -11 -42 -14 -44 -52 -47 -36 -3
-41 -6 -41 -28 0 -22 5 -25 43 -28 l42 -3 0 -94 0 -94 -42 -3 c-36 -2 -44 -7
-46 -25 -3 -23 -2 -23 123 -23 125 0 126 0 123 23 -2 18 -10 23 -45 25 l-43 3
0 95 0 94 39 0 c52 0 71 8 71 30 0 22 -19 30 -71 30 -38 0 -40 2 -37 26 4 38
35 55 53 31 19 -26 59 -19 63 11 2 13 -2 30 -8 38 -16 19 -97 18 -133 -2z"/>
<path d="M9447 873 c-4 -3 -7 -15 -7 -25 0 -15 8 -18 60 -18 l60 0 0 -160 0
-159 -57 -3 c-51 -3 -58 -6 -61 -25 -3 -23 -3 -23 143 -23 146 0 146 0 143 23
-3 19 -10 22 -55 25 l-53 3 0 169 c0 92 -3 175 -6 184 -5 13 -22 16 -83 16
-43 0 -81 -3 -84 -7z"/>
<path d="M9967 874 c-4 -4 -7 -16 -7 -26 0 -13 8 -18 30 -18 29 0 30 -2 30
-46 0 -40 -2 -45 -17 -38 -38 16 -92 16 -127 -1 -51 -24 -79 -68 -83 -129 -5
-72 26 -124 90 -150 46 -19 51 -19 93 -4 24 8 44 11 44 6 0 -5 26 -8 58 -6 49
3 57 6 57 23 0 14 -8 21 -27 23 l-28 3 -2 182 -3 182 -50 3 c-28 2 -54 0 -58
-4z m7 -175 c78 -36 46 -189 -39 -189 -95 0 -111 153 -20 191 27 11 31 11 59
-2z"/>
<path d="M10160 855 c0 -18 5 -25 20 -25 19 0 20 -7 20 -159 0 -150 -1 -159
-20 -164 -12 -3 -20 -14 -20 -27 0 -20 4 -21 68 -18 59 3 67 5 67 23 0 13 -8
21 -22 23 -23 3 -23 6 -23 145 l1 142 62 -165 62 -165 38 -3 37 -3 0 185 c0
177 1 186 19 186 24 0 33 13 25 34 -9 23 -129 23 -138 0 -8 -21 1 -34 25 -34
18 0 19 -8 19 -142 l-1 -143 -62 165 -62 165 -58 3 c-55 3 -57 2 -57 -23z"/>
<path d="M11260 855 c0 -20 5 -25 25 -25 l25 0 0 -159 c0 -158 0 -160 -22
-163 -15 -2 -24 -11 -26 -25 -3 -22 -1 -23 83 -23 84 0 86 1 83 23 -2 16 -11
23 -30 25 -27 3 -28 5 -28 68 l0 64 40 0 c28 0 40 -4 40 -14 0 -16 34 -31 50
-21 5 3 10 33 10 66 0 57 -1 59 -26 59 -17 0 -28 -6 -31 -20 -4 -16 -14 -20
-44 -20 l-39 0 0 70 0 70 79 0 80 0 3 -32 c2 -28 7 -33 28 -33 24 0 25 3 25
55 l0 55 -162 3 -163 2 0 -25z"/>
<path d="M10977 833 c-4 -3 -7 -21 -7 -40 0 -31 -2 -33 -34 -33 -18 0 -39 -7
-46 -15 -19 -22 5 -45 46 -45 l34 0 0 -85 c0 -104 15 -138 65 -155 48 -16 97
-6 129 27 43 42 29 105 -19 87 -8 -4 -15 -14 -15 -23 0 -25 -20 -41 -52 -41
-38 0 -48 24 -48 114 l0 76 64 0 c71 0 99 17 76 45 -9 10 -32 15 -76 15 l-64
0 0 40 c0 35 -3 40 -23 40 -13 0 -27 -3 -30 -7z"/>
<path d="M13837 833 c-4 -3 -7 -21 -7 -40 0 -31 -2 -33 -34 -33 -41 0 -65 -23
-46 -45 7 -8 28 -15 46 -15 l34 0 0 -85 c0 -104 15 -138 65 -155 48 -16 97 -6
129 27 43 42 29 105 -19 87 -8 -4 -15 -14 -15 -23 0 -25 -20 -41 -52 -41 -38
0 -48 24 -48 114 l0 76 64 0 c71 0 99 17 76 45 -9 10 -32 15 -76 15 l-64 0 0
40 c0 35 -3 40 -23 40 -13 0 -27 -3 -30 -7z"/>
<path d="M9154 750 c-32 -13 -84 -78 -86 -108 -6 -120 47 -186 149 -186 57 0
90 17 127 67 29 39 28 121 -2 169 -36 58 -123 85 -188 58z m116 -67 c64 -60
29 -173 -54 -173 -79 0 -116 111 -57 171 37 37 72 37 111 2z"/>
<path d="M10572 744 c-24 -17 -29 -43 -10 -62 18 -18 46 -14 60 8 16 24 64 27
96 4 38 -26 27 -41 -36 -47 -32 -2 -73 -12 -90 -21 -132 -68 -20 -213 126
-163 23 8 45 11 48 6 8 -14 101 -11 106 4 9 23 -4 37 -33 37 l-29 0 0 75 c0
95 -17 136 -63 158 -45 22 -145 23 -175 1z m168 -179 c0 -41 -20 -55 -78 -55
-43 0 -66 18 -60 47 4 20 57 42 106 42 30 1 32 -1 32 -34z"/>
<path d="M11637 753 c-13 -12 -7 -41 9 -47 9 -3 27 -6 40 -6 24 0 24 -1 24
-94 l0 -95 -37 -3 c-31 -2 -39 -7 -41 -26 l-3 -23 123 3 c115 3 123 4 123 23
0 17 -8 20 -52 23 l-53 3 0 47 c0 64 26 113 73 136 36 17 39 17 51 1 16 -22
60 -16 64 8 10 53 -67 73 -145 38 -40 -19 -41 -19 -46 0 -4 16 -14 19 -64 19
-33 0 -63 -3 -66 -7z"/>
<path d="M12084 742 c-74 -47 -99 -120 -66 -195 36 -82 138 -117 225 -79 32
14 48 28 53 46 12 49 -31 65 -60 21 -14 -21 -24 -25 -62 -25 -38 0 -51 5 -77
33 l-32 32 115 5 115 5 0 53 c-1 45 -5 57 -32 84 -27 27 -41 32 -90 35 -45 3
-65 0 -89 -15z m123 -47 c11 -8 23 -24 26 -35 5 -19 1 -20 -80 -20 l-85 0 14
23 c30 44 86 59 125 32z"/>
<path d="M12454 742 c-74 -47 -99 -120 -66 -195 36 -82 138 -117 225 -79 32
14 48 28 53 46 12 49 -31 65 -60 21 -14 -21 -24 -25 -62 -25 -38 0 -51 5 -77
33 l-32 32 115 5 115 5 0 53 c-1 45 -5 57 -32 84 -27 27 -41 32 -90 35 -45 3
-65 0 -89 -15z m123 -47 c11 -8 23 -24 26 -35 5 -19 1 -20 -80 -20 l-85 0 14
23 c30 44 86 59 125 32z"/>
<path d="M13000 745 c-16 -19 3 -45 31 -45 17 0 19 -9 19 -95 0 -94 0 -95 -24
-95 -24 0 -41 -23 -30 -41 3 -5 43 -9 90 -9 83 0 85 1 82 23 -2 16 -11 23 -30
25 -27 3 -28 6 -28 56 0 71 16 114 51 131 35 19 44 19 63 -1 12 -12 16 -36 16
-100 0 -82 -1 -84 -24 -84 -25 0 -43 -27 -28 -42 5 -5 44 -8 88 -6 71 3 79 5
79 23 0 14 -8 21 -27 23 -26 3 -26 3 -30 103 -3 96 -4 102 -31 125 -32 28 -87
32 -129 10 -23 -12 -27 -12 -32 0 -7 19 -90 19 -106 -1z"/>
<path d="M13432 744 c-24 -17 -29 -43 -10 -62 18 -18 46 -14 60 8 16 24 64 27
96 4 38 -26 27 -41 -36 -47 -32 -2 -73 -12 -90 -21 -132 -68 -20 -213 126
-163 23 8 45 11 48 6 8 -14 101 -11 106 4 9 23 -4 37 -33 37 l-29 0 0 75 c0
95 -17 136 -63 158 -45 22 -145 23 -175 1z m168 -179 c0 -41 -20 -55 -78 -55
-43 0 -66 18 -60 47 4 20 57 42 106 42 30 1 32 -1 32 -34z"/>
</g>
</svg>
