<?xml version="1.0" standalone="no"?>
<!DOCTYPE svg PUBLIC "-//W3C//DTD SVG 20010904//EN"
 "http://www.w3.org/TR/2001/REC-SVG-20010904/DTD/svg10.dtd">
<svg version="1.0" xmlns="http://www.w3.org/2000/svg"
 width="2421.000000pt" height="1113.000000pt" viewBox="0 0 2421.000000 1113.000000"
 preserveAspectRatio="xMidYMid meet">
<metadata>
Created by potrace 1.16, written by Peter Selinger 2001-2019
</metadata>
<g transform="translate(0.000000,1113.000000) scale(0.100000,-0.100000)"
fill="#000000" stroke="none">
<path d="M8460 10651 c-52 -27 -80 -74 -80 -132 l0 -49 -70 0 c-65 0 -71 -2
-82 -25 -18 -41 3 -55 83 -55 l69 0 0 -160 0 -160 -64 0 c-80 0 -107 -20 -90
-64 5 -14 32 -16 195 -16 176 0 189 1 199 19 13 25 13 27 -6 45 -11 11 -35 16
-80 16 l-64 0 0 160 0 159 81 3 c65 2 84 7 93 21 8 12 8 22 0 35 -9 13 -28 18
-93 20 l-81 3 0 38 c0 64 74 110 100 61 15 -29 56 -36 80 -15 20 18 26 60 12
81 -25 38 -143 47 -202 15z"/>
<path d="M9430 10656 c-6 -8 -10 -25 -8 -38 3 -22 8 -23 96 -26 l92 -3 0 -259
0 -260 -78 0 c-88 0 -116 -13 -110 -51 l3 -24 225 0 225 0 3 29 c5 39 -10 46
-100 46 l-78 0 0 288 c0 211 -3 291 -12 300 -19 19 -242 16 -258 -2z"/>
<path d="M10260 10656 c-6 -8 -10 -25 -8 -38 2 -19 10 -23 46 -26 l42 -3 0
-75 0 -75 -31 16 c-35 19 -131 22 -172 6 -88 -34 -150 -127 -151 -226 0 -77
17 -128 63 -178 61 -68 142 -92 222 -66 19 7 41 18 51 26 14 13 17 12 23 -6 6
-19 14 -21 90 -21 82 0 95 5 95 40 0 20 -34 40 -66 40 l-34 0 0 294 c0 334 9
306 -95 306 -42 0 -66 -5 -75 -14z m46 -300 c33 -33 34 -37 34 -107 0 -88 -19
-133 -70 -167 -85 -57 -190 22 -190 145 0 93 63 163 147 163 38 0 51 -6 79
-34z"/>
<path d="M10582 10661 c-8 -5 -12 -21 -10 -37 2 -25 8 -29 36 -32 l32 -3 0
-260 0 -259 -22 0 c-36 0 -50 -15 -46 -46 l3 -29 95 -3 c80 -2 97 0 107 15 7
9 13 20 13 24 0 16 -33 39 -56 39 l-24 0 0 243 1 242 98 -271 c53 -148 101
-276 105 -282 11 -19 103 -15 110 4 3 9 6 144 6 300 l0 284 30 0 c23 0 31 5
36 25 11 45 -9 55 -106 55 -95 0 -114 -9 -108 -52 2 -18 10 -24 36 -26 l32 -3
0 -237 -1 -237 -79 220 c-111 306 -110 304 -127 320 -16 17 -138 21 -161 6z"/>
<path d="M12342 10661 c-8 -5 -12 -21 -10 -37 3 -26 7 -29 41 -32 l37 -3 0
-260 0 -259 -27 0 c-41 0 -55 -13 -51 -46 l3 -29 130 0 130 0 3 24 c5 31 -21
51 -65 51 l-33 0 0 110 0 110 69 0 c69 0 70 0 73 -27 3 -24 8 -29 37 -31 44
-4 51 8 51 94 0 83 -13 107 -55 102 -24 -2 -31 -8 -33 -30 -3 -28 -4 -28 -73
-28 l-69 0 0 110 0 110 130 0 130 0 0 -45 c0 -38 4 -47 24 -56 17 -8 29 -8 45
0 18 10 21 20 21 84 0 44 -5 78 -12 85 -14 14 -474 17 -496 3z"/>
<path d="M11900 10603 c-24 -9 -30 -25 -30 -80 l0 -53 -60 0 c-49 0 -61 -3
-70 -20 -8 -14 -8 -26 0 -40 9 -17 21 -20 69 -20 l59 0 4 -152 c4 -177 14
-204 86 -240 113 -54 261 23 250 132 -3 32 -6 35 -37 38 -37 4 -51 -9 -51 -45
0 -34 -48 -66 -90 -59 -55 9 -60 23 -60 183 l0 142 101 3 c84 3 104 6 113 21
8 12 8 22 0 35 -9 14 -29 17 -111 20 l-101 3 -4 59 c-2 33 -6 61 -9 64 -9 8
-45 14 -59 9z"/>
<path d="M16350 10603 c-24 -9 -30 -25 -30 -80 l0 -53 -60 0 c-49 0 -61 -3
-70 -20 -8 -14 -8 -26 0 -40 9 -17 21 -20 69 -20 l59 0 4 -152 c4 -177 14
-204 86 -240 113 -54 261 23 250 132 -3 32 -6 35 -37 38 -37 4 -51 -9 -51 -45
0 -34 -48 -66 -90 -59 -55 9 -60 23 -60 183 l0 142 101 3 c84 3 104 6 113 21
8 12 8 22 0 35 -9 14 -29 17 -111 20 l-101 3 -4 59 c-2 33 -6 61 -9 64 -9 8
-45 14 -59 9z"/>
<path d="M8989 10467 c-50 -19 -88 -50 -121 -99 -33 -48 -42 -89 -36 -168 14
-190 234 -286 378 -163 167 143 82 421 -134 439 -29 2 -66 -1 -87 -9z m151
-97 c89 -63 84 -216 -8 -285 -36 -27 -102 -26 -139 1 -37 27 -73 99 -73 145 0
130 123 208 220 139z"/>
<path d="M11275 10465 c-22 -8 -41 -15 -41 -15 -1 0 -7 -14 -14 -30 -10 -23
-10 -37 -2 -55 22 -48 95 -41 108 10 5 21 12 25 43 25 78 0 130 -27 145 -76 6
-20 2 -21 -71 -27 -138 -9 -233 -56 -252 -122 -21 -79 32 -162 121 -186 51
-13 146 -6 188 16 27 14 32 14 54 0 17 -12 43 -15 92 -13 65 3 69 5 72 27 5
32 -21 51 -70 51 l-38 0 0 133 c0 121 -2 138 -23 178 -33 61 -93 91 -195 96
-52 2 -90 -2 -117 -12z m245 -290 c0 -65 -18 -88 -82 -105 -81 -22 -162 14
-156 70 4 33 74 68 159 79 35 5 67 9 72 10 4 0 7 -24 7 -54z"/>
<path d="M13283 10470 c-23 -3 -64 -20 -92 -37 l-50 -31 -3 31 -3 32 -94 3
c-100 3 -121 -4 -121 -43 0 -28 17 -35 81 -35 l49 0 0 -160 0 -160 -48 0 c-58
0 -85 -17 -80 -51 l3 -24 187 -3 188 -2 6 26 c10 40 -16 54 -98 54 l-68 0 0
66 c0 36 5 86 12 111 15 61 79 129 130 138 33 6 40 4 61 -20 19 -22 29 -27 50
-21 32 8 51 39 43 72 -11 44 -74 66 -153 54z"/>
<path d="M13704 10466 c-63 -20 -110 -62 -140 -123 -69 -140 0 -304 147 -347
66 -20 112 -20 176 -1 81 24 139 105 101 143 -23 23 -54 13 -86 -28 -23 -27
-43 -41 -68 -46 -69 -13 -156 32 -190 97 l-15 29 174 0 c121 0 177 4 185 12 7
7 12 30 12 53 0 68 -20 117 -64 161 -61 61 -141 78 -232 50z m131 -80 c32 -14
54 -43 69 -93 l7 -23 -140 0 c-129 0 -140 1 -134 18 14 39 48 75 87 93 50 22
67 23 111 5z"/>
<path d="M14294 10466 c-63 -20 -110 -62 -140 -123 -69 -140 0 -304 147 -347
66 -20 112 -20 176 -1 81 24 139 105 101 143 -23 23 -54 13 -86 -28 -23 -27
-43 -41 -68 -46 -69 -13 -156 32 -190 97 l-15 29 174 0 c121 0 177 4 185 12 7
7 12 30 12 53 0 68 -20 117 -64 161 -61 61 -141 78 -232 50z m131 -80 c32 -14
54 -43 69 -93 l7 -23 -140 0 c-129 0 -140 1 -134 18 14 39 48 75 87 93 50 22
67 23 111 5z"/>
<path d="M15275 10470 c-22 -4 -55 -14 -72 -23 -27 -14 -33 -15 -33 -3 0 20
-22 26 -93 26 -75 0 -90 -8 -85 -46 3 -26 7 -29 46 -32 l42 -3 0 -160 0 -159
-34 0 c-39 0 -59 -19 -54 -52 3 -22 6 -23 128 -26 106 -2 127 0 137 14 12 17
7 44 -11 56 -6 4 -26 8 -43 8 l-33 0 0 102 c0 116 19 171 69 201 41 24 107 23
121 -2 5 -11 10 -83 10 -160 0 -141 0 -141 -23 -141 -35 0 -59 -22 -55 -51 3
-24 4 -24 127 -27 125 -3 140 1 141 35 0 22 -32 43 -66 43 l-34 0 0 151 c0
199 -15 232 -110 249 -19 3 -53 3 -75 0z"/>
<path d="M15715 10465 c-22 -8 -41 -15 -41 -15 -1 0 -7 -14 -14 -30 -10 -23
-10 -37 -2 -55 22 -48 95 -41 108 10 5 21 12 25 43 25 78 0 130 -27 145 -76 6
-20 2 -21 -71 -27 -138 -9 -233 -56 -252 -122 -21 -79 32 -162 121 -186 51
-13 146 -6 188 16 27 14 32 14 54 0 17 -12 43 -15 92 -13 65 3 69 5 72 27 5
32 -21 51 -70 51 l-38 0 0 133 c0 121 -2 138 -23 178 -33 61 -93 91 -195 96
-52 2 -90 -2 -117 -12z m245 -290 c0 -65 -18 -88 -82 -105 -81 -22 -162 14
-156 70 4 33 74 68 159 79 35 5 67 9 72 10 4 0 7 -24 7 -54z"/>
<path d="M4550 9981 c-45 -24 -76 -78 -96 -171 -8 -41 -18 -83 -20 -92 -4 -13
-18 -18 -62 -20 -45 -2 -58 -7 -60 -20 -3 -15 5 -18 52 -18 41 0 56 -4 56 -14
0 -41 -101 -539 -115 -570 -11 -22 -27 -39 -42 -42 -32 -8 -40 2 -20 24 34 37
15 82 -33 82 -49 0 -77 -60 -50 -110 10 -19 59 -40 92 -40 40 0 91 34 120 79
40 64 62 144 106 381 l38 205 67 3 c59 3 67 5 67 22 0 18 -7 20 -60 20 -71 0
-69 -7 -40 137 20 102 33 123 77 123 l24 0 -22 -30 c-19 -25 -21 -33 -11 -55
22 -48 93 -27 108 31 18 73 -92 120 -176 75z"/>
<path d="M19672 9883 c-48 -4 -53 -6 -50 -26 2 -18 11 -23 41 -25 30 -3 37 -7
33 -20 -3 -9 -17 -64 -31 -122 -36 -145 -31 -137 -61 -109 -22 20 -36 24 -88
24 -56 0 -70 -5 -118 -36 -164 -110 -207 -357 -76 -440 26 -16 46 -19 95 -17
52 3 68 9 103 36 22 18 40 28 40 22 0 -6 11 -22 25 -35 19 -20 34 -25 74 -25
42 0 53 4 74 30 29 34 60 110 55 136 -4 22 -26 30 -33 12 -33 -95 -50 -130
-66 -139 -27 -14 -49 5 -49 42 0 16 36 173 80 349 44 176 80 326 80 335 0 16
-7 16 -128 8z m-91 -342 c16 -16 29 -40 29 -53 0 -13 -13 -74 -29 -137 -33
-126 -55 -159 -128 -192 -107 -49 -143 60 -81 247 16 51 34 81 68 116 57 59
95 64 141 19z"/>
<path d="M18455 9731 c-9 -28 27 -93 84 -152 l47 -49 -6183 0 -6183 0 0 -30 0
-30 6181 0 6181 0 -47 -52 c-26 -29 -57 -72 -68 -96 -20 -40 -20 -43 -3 -60
20 -19 16 -23 80 73 18 27 61 71 97 99 35 27 65 57 67 66 2 11 -9 25 -30 38
-51 32 -145 133 -163 175 -17 41 -49 51 -60 18z"/>
<path d="M2822 9682 c-27 -29 -62 -111 -62 -144 0 -11 8 -18 19 -18 13 0 22
12 31 44 19 68 47 108 73 104 36 -5 32 -56 -17 -252 -24 -98 -42 -185 -39
-192 6 -17 69 -19 79 -3 4 7 24 79 44 161 24 93 48 163 64 188 75 114 216 136
216 33 0 -18 -19 -107 -41 -198 -23 -90 -39 -171 -35 -180 7 -18 59 -20 74 -2
6 7 27 77 47 156 41 162 43 167 93 223 43 48 80 68 125 68 74 0 79 -66 18
-245 -44 -129 -45 -163 -3 -195 36 -29 106 -27 146 4 56 42 98 161 57 161 -7
0 -22 -23 -32 -51 -26 -69 -60 -100 -106 -95 -21 2 -15 41 27 161 61 175 54
253 -26 286 -71 30 -171 8 -223 -50 -31 -33 -33 -33 -49 3 -33 75 -180 81
-264 11 l-32 -27 -36 39 c-32 32 -43 38 -79 38 -34 0 -48 -6 -69 -28z"/>
<path d="M5368 9701 c-158 -51 -265 -292 -187 -420 32 -53 74 -73 146 -69 52
3 68 9 103 36 22 18 40 28 40 22 0 -6 11 -22 25 -35 19 -20 34 -25 74 -25 42
0 53 4 74 30 29 34 60 110 55 136 -4 22 -26 30 -33 12 -46 -133 -69 -164 -101
-137 -21 18 -18 51 26 228 22 89 40 170 40 180 0 32 -48 41 -75 15 -15 -15
-18 -15 -40 6 -27 25 -100 36 -147 21z m123 -60 c16 -16 29 -40 29 -53 0 -13
-13 -74 -29 -137 -33 -126 -55 -159 -128 -192 -107 -49 -143 60 -81 247 16 51
34 81 68 116 57 59 95 64 141 19z"/>
<path d="M20388 9601 c-158 -51 -265 -292 -187 -420 32 -53 74 -73 146 -69 52
3 68 9 103 36 22 18 40 28 40 22 0 -6 11 -22 25 -35 19 -20 34 -25 74 -25 42
0 53 4 74 30 29 34 60 110 55 136 -4 22 -26 30 -33 12 -46 -133 -69 -164 -101
-137 -21 18 -18 51 26 228 22 89 40 170 40 180 0 32 -48 41 -75 15 -15 -15
-18 -15 -40 6 -27 25 -100 36 -147 21z m123 -60 c16 -16 29 -40 29 -53 0 -13
-13 -74 -29 -137 -33 -126 -55 -159 -128 -192 -107 -49 -143 60 -81 247 16 51
34 81 68 116 57 59 95 64 141 19z"/>
<path d="M19940 5629 l0 -3002 -55 52 c-80 76 -155 101 -155 51 0 -12 16 -26
45 -40 45 -22 148 -124 167 -166 6 -13 17 -25 25 -28 14 -6 16 -4 83 82 40 51
124 121 146 122 6 0 17 7 24 16 11 12 10 18 -3 32 -16 15 -20 15 -63 -6 -25
-12 -67 -43 -95 -69 l-49 -46 0 3002 0 3001 -35 0 -35 0 0 -3001z"/>
<path d="M4200 5623 l0 -2897 -52 51 c-59 57 -109 86 -141 81 -40 -6 -31 -34
19 -59 48 -25 143 -120 169 -170 21 -40 39 -37 74 14 38 56 145 155 176 163
24 6 39 29 29 45 -3 5 -18 9 -33 9 -32 0 -135 -70 -163 -111 -16 -23 -17 151
-17 2874 l-1 2897 -30 0 -30 0 0 -2897z"/>
<path d="M740 6011 c-52 -27 -80 -74 -80 -132 l0 -49 -70 0 c-65 0 -71 -2 -82
-25 -18 -41 3 -55 83 -55 l69 0 0 -160 0 -160 -64 0 c-80 0 -107 -20 -90 -64
5 -14 32 -16 195 -16 176 0 189 1 199 19 13 25 13 27 -6 45 -11 11 -35 16 -80
16 l-64 0 0 160 0 159 81 3 c65 2 84 7 93 21 8 12 8 22 0 35 -9 13 -28 18 -93
20 l-81 3 0 38 c0 64 74 110 100 61 15 -29 56 -36 80 -15 20 18 26 60 12 81
-25 38 -143 47 -202 15z"/>
<path d="M20750 6011 c-52 -27 -80 -74 -80 -132 l0 -49 -70 0 c-65 0 -71 -2
-82 -25 -18 -41 3 -55 83 -55 l69 0 0 -160 0 -160 -64 0 c-80 0 -107 -20 -90
-64 5 -14 32 -16 195 -16 176 0 189 1 199 19 13 25 13 27 -6 45 -11 11 -35 16
-80 16 l-64 0 0 160 0 159 81 3 c65 2 84 7 93 21 8 12 8 22 0 35 -9 13 -28 18
-93 20 l-81 3 0 38 c0 64 74 110 100 61 15 -29 56 -36 80 -15 20 18 26 60 12
81 -25 38 -143 47 -202 15z"/>
<path d="M1220 5825 c-30 -10 -48 -11 -56 -4 -20 16 -105 7 -118 -13 -14 -23
3 -52 33 -56 20 -3 21 -7 21 -161 l0 -157 -31 -11 c-25 -10 -30 -16 -27 -40
l3 -28 95 0 95 0 3 28 c3 24 -2 30 -27 40 l-31 11 0 116 c0 129 16 177 64 194
45 17 51 0 54 -164 3 -140 2 -149 -16 -154 -24 -8 -35 -32 -26 -58 5 -17 14
-18 87 -16 l82 3 3 33 c3 29 0 33 -27 38 l-31 7 0 101 c0 114 10 159 42 193
25 26 63 30 72 7 3 -9 6 -79 6 -157 0 -133 -1 -143 -21 -155 -14 -9 -19 -21
-17 -40 3 -27 3 -27 88 -27 l85 0 3 28 c3 23 -2 30 -26 39 l-30 12 -4 160 c-5
211 -20 241 -117 238 -18 -1 -48 -10 -66 -21 -31 -18 -33 -18 -51 -1 -27 25
-63 30 -114 15z"/>
<path d="M1785 5825 c-22 -8 -41 -15 -41 -15 -1 0 -7 -14 -14 -30 -10 -23 -10
-37 -2 -55 22 -48 95 -41 108 10 5 21 12 25 43 25 78 0 130 -27 145 -76 6 -20
2 -21 -71 -27 -138 -9 -233 -56 -252 -122 -21 -79 32 -162 121 -186 51 -13
146 -6 188 16 27 14 32 14 54 0 17 -12 43 -15 92 -13 65 3 69 5 72 27 5 32
-21 51 -70 51 l-38 0 0 133 c0 121 -2 138 -23 178 -33 61 -93 91 -195 96 -52
2 -90 -2 -117 -12z m245 -290 c0 -65 -18 -88 -82 -105 -81 -22 -162 14 -156
70 4 33 74 68 159 79 35 5 67 9 72 10 4 0 7 -24 7 -54z"/>
<path d="M2511 5828 c-24 -4 -54 -14 -66 -22 -21 -14 -23 -13 -28 4 -5 18 -14
20 -79 20 -86 0 -101 -7 -96 -46 3 -26 7 -29 46 -32 l42 -3 0 -284 0 -284 -42
-3 c-39 -3 -43 -6 -46 -32 -2 -16 2 -32 10 -37 7 -5 66 -9 130 -9 107 0 118 2
128 20 18 34 -4 60 -50 60 l-40 0 0 101 c0 55 3 99 8 97 63 -33 91 -40 138
-35 61 6 100 25 143 68 45 45 63 85 69 155 13 169 -109 290 -267 262z m107
-98 c38 -24 72 -89 72 -140 0 -87 -70 -165 -146 -165 -73 0 -123 72 -124 176
0 120 103 187 198 129z"/>
<path d="M3405 5816 c-168 -78 -241 -318 -130 -426 30 -29 43 -34 95 -38 48
-4 66 0 95 17 20 11 38 21 40 21 2 0 -5 -30 -15 -66 -31 -114 -76 -156 -175
-162 l-64 -4 12 31 c15 41 1 65 -41 69 -58 6 -87 -81 -37 -114 34 -22 149 -30
213 -14 58 13 118 50 146 87 28 38 158 561 145 585 -12 22 -52 24 -68 4 -10
-12 -18 -11 -48 10 -46 31 -102 31 -168 0z m136 -26 c10 -6 26 -24 34 -40 14
-28 13 -38 -14 -147 -37 -145 -68 -189 -147 -212 -44 -13 -76 6 -91 52 -11 32
-10 52 3 115 26 126 57 185 119 223 34 21 67 24 96 9z"/>
<path d="M21220 5825 c-30 -10 -48 -11 -56 -4 -20 16 -105 7 -118 -13 -14 -23
3 -52 33 -56 20 -3 21 -7 21 -161 l0 -157 -31 -11 c-25 -10 -30 -16 -27 -40
l3 -28 95 0 95 0 3 28 c3 24 -2 30 -27 40 l-31 11 0 116 c0 129 16 177 64 194
45 17 51 0 54 -164 3 -140 2 -149 -16 -154 -24 -8 -35 -32 -26 -58 5 -17 14
-18 87 -16 l82 3 3 33 c3 29 0 33 -27 38 l-31 7 0 101 c0 114 10 159 42 193
25 26 63 30 72 7 3 -9 6 -79 6 -157 0 -133 -1 -143 -21 -155 -14 -9 -19 -21
-17 -40 3 -27 3 -27 88 -27 l85 0 3 28 c3 23 -2 30 -26 39 l-30 12 -4 160 c-5
211 -20 241 -117 238 -18 -1 -48 -10 -66 -21 -31 -18 -33 -18 -51 -1 -27 25
-63 30 -114 15z"/>
<path d="M21785 5825 c-22 -8 -41 -15 -41 -15 -1 0 -7 -14 -14 -30 -10 -23
-10 -37 -2 -55 22 -48 95 -41 108 10 5 21 12 25 43 25 78 0 130 -27 145 -76 6
-20 2 -21 -71 -27 -138 -9 -233 -56 -252 -122 -21 -79 32 -162 121 -186 51
-13 146 -6 188 16 27 14 32 14 54 0 17 -12 43 -15 92 -13 65 3 69 5 72 27 5
32 -21 51 -70 51 l-38 0 0 133 c0 121 -2 138 -23 178 -33 61 -93 91 -195 96
-52 2 -90 -2 -117 -12z m245 -290 c0 -65 -18 -88 -82 -105 -81 -22 -162 14
-156 70 4 33 74 68 159 79 35 5 67 9 72 10 4 0 7 -24 7 -54z"/>
<path d="M22511 5828 c-24 -4 -54 -14 -66 -22 -21 -14 -23 -13 -28 4 -5 18
-14 20 -79 20 -86 0 -101 -7 -96 -46 3 -26 7 -29 46 -32 l42 -3 0 -284 0 -284
-42 -3 c-39 -3 -43 -6 -46 -32 -2 -16 2 -32 10 -37 7 -5 66 -9 130 -9 107 0
118 2 128 20 18 34 -4 60 -50 60 l-40 0 0 101 c0 55 3 99 8 97 63 -33 91 -40
138 -35 61 6 100 25 143 68 45 45 63 85 69 155 13 169 -109 290 -267 262z
m107 -98 c38 -24 72 -89 72 -140 0 -87 -70 -165 -146 -165 -73 0 -123 72 -124
176 0 120 103 187 198 129z"/>
<path d="M23405 5816 c-168 -78 -241 -318 -130 -426 30 -29 43 -34 95 -38 48
-4 66 0 95 17 20 11 38 21 40 21 2 0 -5 -30 -15 -66 -31 -114 -76 -156 -175
-162 l-64 -4 12 31 c15 41 1 65 -41 69 -58 6 -87 -81 -37 -114 34 -22 149 -30
213 -14 58 13 118 50 146 87 28 38 158 561 145 585 -12 22 -52 24 -68 4 -10
-12 -18 -11 -48 10 -46 31 -102 31 -168 0z m136 -26 c10 -6 26 -24 34 -40 14
-28 13 -38 -14 -147 -37 -145 -68 -189 -147 -212 -44 -13 -76 6 -91 52 -11 32
-10 52 3 115 26 126 57 185 119 223 34 21 67 24 96 9z"/>
<path d="M4610 2111 c-45 -24 -76 -78 -96 -171 -8 -41 -18 -83 -20 -92 -4 -13
-18 -18 -62 -20 -45 -2 -58 -7 -60 -20 -3 -15 5 -18 52 -18 41 0 56 -4 56 -14
0 -41 -101 -539 -115 -570 -11 -22 -27 -39 -42 -42 -32 -8 -40 2 -20 24 34 37
15 82 -33 82 -49 0 -77 -60 -50 -110 10 -19 59 -40 92 -40 40 0 91 34 120 79
40 64 62 144 106 381 l38 205 67 3 c59 3 67 5 67 22 0 18 -7 20 -60 20 -71 0
-69 -7 -40 137 20 102 33 123 77 123 l24 0 -22 -30 c-19 -25 -21 -33 -11 -55
22 -48 93 -27 108 31 18 73 -92 120 -176 75z"/>
<path d="M5320 2111 c-46 -5 -55 -9 -55 -26 0 -16 8 -21 38 -23 20 -2 37 -7
37 -12 0 -5 -27 -119 -61 -252 -50 -200 -60 -253 -56 -300 6 -67 35 -122 77
-143 42 -22 126 -19 176 5 54 26 129 107 157 168 28 61 30 181 4 229 -42 78
-141 105 -221 60 -25 -14 -46 -25 -46 -24 0 1 18 72 40 156 21 85 37 159 34
163 -6 9 -36 8 -124 -1z m219 -332 c26 -28 30 -70 15 -148 -16 -85 -43 -154
-78 -198 -91 -113 -195 -50 -166 102 29 156 47 193 115 239 46 31 87 33 114 5z"/>
<path d="M19732 2003 c-48 -4 -53 -6 -50 -26 2 -18 11 -23 41 -25 30 -3 37 -7
33 -20 -3 -9 -17 -64 -31 -122 -36 -145 -31 -137 -61 -109 -22 20 -36 24 -88
24 -56 0 -70 -5 -118 -36 -164 -110 -207 -357 -76 -440 26 -16 46 -19 95 -17
52 3 68 9 103 36 22 18 40 28 40 22 0 -6 11 -22 25 -35 19 -20 34 -25 74 -25
42 0 53 4 74 30 29 34 60 110 55 136 -4 22 -26 30 -33 12 -33 -95 -50 -130
-66 -139 -27 -14 -49 5 -49 42 0 16 36 173 80 349 44 176 80 326 80 335 0 16
-7 16 -128 8z m-91 -342 c16 -16 29 -40 29 -53 0 -13 -13 -74 -29 -137 -33
-126 -55 -159 -128 -192 -107 -49 -143 60 -81 247 16 51 34 81 68 116 57 59
95 64 141 19z"/>
<path d="M20340 2001 c-46 -5 -55 -9 -55 -26 0 -16 8 -21 38 -23 20 -2 37 -7
37 -12 0 -5 -27 -119 -61 -252 -50 -200 -60 -253 -56 -300 6 -67 35 -122 77
-143 42 -22 126 -19 176 5 54 26 129 107 157 168 28 61 30 181 4 229 -42 78
-141 105 -221 60 -25 -14 -46 -25 -46 -24 0 1 18 72 40 156 21 85 37 159 34
163 -6 9 -36 8 -124 -1z m219 -332 c26 -28 30 -70 15 -148 -16 -85 -43 -154
-78 -198 -91 -113 -195 -50 -166 102 29 156 47 193 115 239 46 31 87 33 114 5z"/>
<path d="M18520 1865 c-18 -22 15 -90 77 -156 l46 -49 -6247 0 -6246 0 0 -35
0 -35 6246 0 6247 0 -52 -55 c-76 -80 -101 -155 -51 -155 12 0 26 16 40 45 22
45 124 148 166 167 13 6 25 17 28 25 6 14 4 16 -81 82 -53 42 -88 82 -120 140
-23 41 -35 47 -53 26z"/>
<path d="M2882 1812 c-27 -29 -62 -111 -62 -144 0 -11 8 -18 19 -18 13 0 22
12 31 44 19 68 47 108 73 104 36 -5 32 -56 -17 -252 -24 -98 -42 -185 -39
-192 6 -17 69 -19 79 -3 4 7 24 79 44 161 24 93 48 163 64 188 75 114 216 136
216 33 0 -18 -19 -107 -41 -198 -23 -90 -39 -171 -35 -180 7 -18 59 -20 74 -2
6 7 27 77 47 156 41 162 43 167 93 223 43 48 80 68 125 68 74 0 79 -66 18
-245 -44 -129 -45 -163 -3 -195 36 -29 106 -27 146 4 56 42 98 161 57 161 -7
0 -22 -23 -32 -51 -26 -69 -60 -100 -106 -95 -21 2 -15 41 27 161 61 175 54
253 -26 286 -71 30 -171 8 -223 -50 -31 -33 -33 -33 -49 3 -33 75 -180 81
-264 11 l-32 -27 -36 39 c-32 32 -43 38 -79 38 -34 0 -48 -6 -69 -28z"/>
<path d="M8460 1121 c-52 -27 -80 -74 -80 -132 l0 -49 -70 0 c-65 0 -71 -2
-82 -25 -18 -41 3 -55 83 -55 l69 0 0 -160 0 -160 -64 0 c-80 0 -107 -20 -90
-64 5 -14 32 -16 195 -16 176 0 189 1 199 19 13 25 13 27 -6 45 -11 11 -35 16
-80 16 l-64 0 0 160 0 159 81 3 c65 2 84 7 93 21 8 12 8 22 0 35 -9 13 -28 18
-93 20 l-81 3 0 38 c0 64 74 110 100 61 15 -29 56 -36 80 -15 20 18 26 60 12
81 -25 38 -143 47 -202 15z"/>
<path d="M9430 1126 c-6 -8 -10 -25 -8 -38 3 -22 8 -23 96 -26 l92 -3 0 -259
0 -260 -78 0 c-88 0 -116 -13 -110 -51 l3 -24 225 0 225 0 3 29 c5 39 -10 46
-100 46 l-78 0 0 288 c0 211 -3 291 -12 300 -19 19 -242 16 -258 -2z"/>
<path d="M10260 1126 c-6 -8 -10 -25 -8 -38 2 -19 10 -23 46 -26 l42 -3 0 -75
0 -75 -31 16 c-35 19 -131 22 -172 6 -88 -34 -150 -127 -151 -226 0 -77 17
-128 63 -178 61 -68 142 -92 222 -66 19 7 41 18 51 26 14 13 17 12 23 -6 6
-19 14 -21 90 -21 82 0 95 5 95 40 0 20 -34 40 -66 40 l-34 0 0 294 c0 334 9
306 -95 306 -42 0 -66 -5 -75 -14z m46 -300 c33 -33 34 -37 34 -107 0 -88 -19
-133 -70 -167 -85 -57 -190 22 -190 145 0 93 63 163 147 163 38 0 51 -6 79
-34z"/>
<path d="M10582 1131 c-8 -5 -12 -21 -10 -37 2 -25 8 -29 36 -32 l32 -3 0
-260 0 -259 -22 0 c-36 0 -50 -15 -46 -46 l3 -29 95 -3 c80 -2 97 0 107 15 7
9 13 20 13 24 0 16 -33 39 -56 39 l-24 0 0 243 1 242 98 -271 c53 -148 101
-276 105 -282 11 -19 103 -15 110 4 3 9 6 144 6 300 l0 284 30 0 c23 0 31 5
36 25 11 45 -9 55 -106 55 -95 0 -114 -9 -108 -52 2 -18 10 -24 36 -26 l32 -3
0 -237 -1 -237 -79 220 c-111 306 -110 304 -127 320 -16 17 -138 21 -161 6z"/>
<path d="M12342 1131 c-8 -5 -12 -21 -10 -37 3 -26 7 -29 41 -32 l37 -3 0
-260 0 -259 -27 0 c-41 0 -55 -13 -51 -46 l3 -29 130 0 130 0 3 24 c5 31 -21
51 -65 51 l-33 0 0 110 0 110 69 0 c69 0 70 0 73 -27 3 -24 8 -29 37 -31 44
-4 51 8 51 94 0 83 -13 107 -55 102 -24 -2 -31 -8 -33 -30 -3 -28 -4 -28 -73
-28 l-69 0 0 110 0 110 130 0 130 0 0 -45 c0 -38 4 -47 24 -56 17 -8 29 -8 45
0 18 10 21 20 21 84 0 44 -5 78 -12 85 -14 14 -474 17 -496 3z"/>
<path d="M11900 1073 c-24 -9 -30 -25 -30 -80 l0 -53 -60 0 c-49 0 -61 -3 -70
-20 -8 -14 -8 -26 0 -40 9 -17 21 -20 69 -20 l59 0 4 -152 c4 -177 14 -204 86
-240 113 -54 261 23 250 132 -3 32 -6 35 -37 38 -37 4 -51 -9 -51 -45 0 -34
-48 -66 -90 -59 -55 9 -60 23 -60 183 l0 142 101 3 c84 3 104 6 113 21 8 12 8
22 0 35 -9 14 -29 17 -111 20 l-101 3 -4 59 c-2 33 -6 61 -9 64 -9 8 -45 14
-59 9z"/>
<path d="M16350 1073 c-24 -9 -30 -25 -30 -80 l0 -53 -60 0 c-49 0 -61 -3 -70
-20 -8 -14 -8 -26 0 -40 9 -17 21 -20 69 -20 l59 0 4 -152 c4 -177 14 -204 86
-240 113 -54 261 23 250 132 -3 32 -6 35 -37 38 -37 4 -51 -9 -51 -45 0 -34
-48 -66 -90 -59 -55 9 -60 23 -60 183 l0 142 101 3 c84 3 104 6 113 21 8 12 8
22 0 35 -9 14 -29 17 -111 20 l-101 3 -4 59 c-2 33 -6 61 -9 64 -9 8 -45 14
-59 9z"/>
<path d="M8989 937 c-50 -19 -88 -50 -121 -99 -33 -48 -42 -89 -36 -168 14
-190 234 -286 378 -163 167 143 82 421 -134 439 -29 2 -66 -1 -87 -9z m151
-97 c89 -63 84 -216 -8 -285 -36 -27 -102 -26 -139 1 -37 27 -73 99 -73 145 0
130 123 208 220 139z"/>
<path d="M11275 935 c-22 -8 -41 -15 -41 -15 -1 0 -7 -14 -14 -30 -10 -23 -10
-37 -2 -55 22 -48 95 -41 108 10 5 21 12 25 43 25 78 0 130 -27 145 -76 6 -20
2 -21 -71 -27 -138 -9 -233 -56 -252 -122 -21 -79 32 -162 121 -186 51 -13
146 -6 188 16 27 14 32 14 54 0 17 -12 43 -15 92 -13 65 3 69 5 72 27 5 32
-21 51 -70 51 l-38 0 0 133 c0 121 -2 138 -23 178 -33 61 -93 91 -195 96 -52
2 -90 -2 -117 -12z m245 -290 c0 -65 -18 -88 -82 -105 -81 -22 -162 14 -156
70 4 33 74 68 159 79 35 5 67 9 72 10 4 0 7 -24 7 -54z"/>
<path d="M13283 940 c-23 -3 -64 -20 -92 -37 l-50 -31 -3 31 -3 32 -94 3
c-100 3 -121 -4 -121 -43 0 -28 17 -35 81 -35 l49 0 0 -160 0 -160 -48 0 c-58
0 -85 -17 -80 -51 l3 -24 187 -3 188 -2 6 26 c10 40 -16 54 -98 54 l-68 0 0
66 c0 36 5 86 12 111 15 61 79 129 130 138 33 6 40 4 61 -20 19 -22 29 -27 50
-21 32 8 51 39 43 72 -11 44 -74 66 -153 54z"/>
<path d="M13704 936 c-63 -20 -110 -62 -140 -123 -69 -140 0 -304 147 -347 66
-20 112 -20 176 -1 81 24 139 105 101 143 -23 23 -54 13 -86 -28 -23 -27 -43
-41 -68 -46 -69 -13 -156 32 -190 97 l-15 29 174 0 c121 0 177 4 185 12 7 7
12 30 12 53 0 68 -20 117 -64 161 -61 61 -141 78 -232 50z m131 -80 c32 -14
54 -43 69 -93 l7 -23 -140 0 c-129 0 -140 1 -134 18 14 39 48 75 87 93 50 22
67 23 111 5z"/>
<path d="M14294 936 c-63 -20 -110 -62 -140 -123 -69 -140 0 -304 147 -347 66
-20 112 -20 176 -1 81 24 139 105 101 143 -23 23 -54 13 -86 -28 -23 -27 -43
-41 -68 -46 -69 -13 -156 32 -190 97 l-15 29 174 0 c121 0 177 4 185 12 7 7
12 30 12 53 0 68 -20 117 -64 161 -61 61 -141 78 -232 50z m131 -80 c32 -14
54 -43 69 -93 l7 -23 -140 0 c-129 0 -140 1 -134 18 14 39 48 75 87 93 50 22
67 23 111 5z"/>
<path d="M15275 940 c-22 -4 -55 -14 -72 -23 -27 -14 -33 -15 -33 -3 0 20 -22
26 -93 26 -75 0 -90 -8 -85 -46 3 -26 7 -29 46 -32 l42 -3 0 -160 0 -159 -34
0 c-39 0 -59 -19 -54 -52 3 -22 6 -23 128 -26 106 -2 127 0 137 14 12 17 7 44
-11 56 -6 4 -26 8 -43 8 l-33 0 0 102 c0 116 19 171 69 201 41 24 107 23 121
-2 5 -11 10 -83 10 -160 0 -141 0 -141 -23 -141 -35 0 -59 -22 -55 -51 3 -24
4 -24 127 -27 125 -3 140 1 141 35 0 22 -32 43 -66 43 l-34 0 0 151 c0 199
-15 232 -110 249 -19 3 -53 3 -75 0z"/>
<path d="M15715 935 c-22 -8 -41 -15 -41 -15 -1 0 -7 -14 -14 -30 -10 -23 -10
-37 -2 -55 22 -48 95 -41 108 10 5 21 12 25 43 25 78 0 130 -27 145 -76 6 -20
2 -21 -71 -27 -138 -9 -233 -56 -252 -122 -21 -79 32 -162 121 -186 51 -13
146 -6 188 16 27 14 32 14 54 0 17 -12 43 -15 92 -13 65 3 69 5 72 27 5 32
-21 51 -70 51 l-38 0 0 133 c0 121 -2 138 -23 178 -33 61 -93 91 -195 96 -52
2 -90 -2 -117 -12z m245 -290 c0 -65 -18 -88 -82 -105 -81 -22 -162 14 -156
70 4 33 74 68 159 79 35 5 67 9 72 10 4 0 7 -24 7 -54z"/>
</g>
</svg>
