<?xml version="1.0" standalone="no"?>
<!DOCTYPE svg PUBLIC "-//W3C//DTD SVG 20010904//EN"
 "http://www.w3.org/TR/2001/REC-SVG-20010904/DTD/svg10.dtd">
<svg version="1.0" xmlns="http://www.w3.org/2000/svg"
 width="2601.000000pt" height="1024.000000pt" viewBox="0 0 2601.000000 1024.000000"
 preserveAspectRatio="xMidYMid meet">
<metadata>
Created by potrace 1.16, written by Peter Selinger 2001-2019
</metadata>
<g transform="translate(0.000000,1024.000000) scale(0.100000,-0.100000)"
fill="#000000" stroke="none">
<path d="M7770 9773 c-24 -9 -30 -25 -30 -80 l0 -53 -60 0 c-49 0 -61 -3 -70
-20 -8 -14 -8 -26 0 -40 9 -17 21 -20 69 -20 l59 0 4 -152 c4 -177 14 -204 86
-240 113 -54 261 23 250 132 -3 32 -6 35 -37 38 -37 4 -51 -9 -51 -45 0 -34
-48 -66 -90 -59 -55 9 -60 23 -60 183 l0 142 101 3 c84 3 104 6 113 21 8 12 8
22 0 35 -9 14 -29 17 -111 20 l-101 3 -4 59 c-2 33 -6 61 -9 64 -9 8 -45 14
-59 9z"/>
<path d="M6803 9640 c-23 -3 -64 -20 -92 -37 l-50 -31 -3 31 -3 32 -94 3
c-100 3 -121 -4 -121 -43 0 -28 17 -35 81 -35 l49 0 0 -160 0 -160 -48 0 c-58
0 -85 -17 -80 -51 l3 -24 187 -3 188 -2 6 26 c10 40 -16 54 -98 54 l-68 0 0
66 c0 36 5 86 12 111 15 61 79 129 130 138 33 6 40 4 61 -20 19 -22 29 -27 50
-21 32 8 51 39 43 72 -11 44 -74 66 -153 54z"/>
<path d="M7224 9636 c-63 -20 -110 -62 -140 -123 -69 -140 0 -304 147 -347 66
-20 112 -20 176 -1 81 24 139 105 101 143 -23 23 -54 13 -86 -28 -23 -27 -43
-41 -68 -46 -69 -13 -156 32 -190 97 l-15 29 174 0 c121 0 177 4 185 12 7 7
12 30 12 53 0 68 -20 117 -64 161 -61 61 -141 78 -232 50z m131 -80 c32 -14
54 -43 69 -93 l7 -23 -140 0 c-129 0 -140 1 -134 18 14 39 48 75 87 93 50 22
67 23 111 5z"/>
<path d="M9153 9640 c-23 -3 -64 -20 -92 -37 l-50 -31 -3 31 -3 32 -94 3
c-100 3 -121 -4 -121 -43 0 -28 17 -35 81 -35 l49 0 0 -160 0 -160 -48 0 c-58
0 -85 -17 -80 -51 l3 -24 187 -3 188 -2 6 26 c10 40 -16 54 -98 54 l-68 0 0
66 c0 36 5 86 12 111 15 61 79 129 130 138 33 6 40 4 61 -20 19 -22 29 -27 50
-21 32 8 51 39 43 72 -11 44 -74 66 -153 54z"/>
<path d="M9645 9640 c-22 -4 -55 -14 -72 -23 -27 -14 -33 -15 -33 -3 0 20 -22
26 -93 26 -75 0 -90 -8 -85 -46 3 -26 7 -29 46 -32 l42 -3 0 -160 0 -159 -34
0 c-39 0 -59 -19 -54 -52 3 -22 6 -23 128 -26 106 -2 127 0 137 14 12 17 7 44
-11 56 -6 4 -26 8 -43 8 l-33 0 0 102 c0 116 19 171 69 201 41 24 107 23 121
-2 5 -11 10 -83 10 -160 0 -141 0 -141 -23 -141 -35 0 -59 -22 -55 -51 3 -24
4 -24 127 -27 125 -3 140 1 141 35 0 22 -32 43 -66 43 l-34 0 0 151 c0 199
-15 232 -110 249 -19 3 -53 3 -75 0z"/>
<path d="M8192 9631 c-8 -5 -12 -21 -10 -37 3 -26 7 -29 46 -32 l42 -3 0 -150
c0 -164 9 -205 54 -234 38 -25 141 -31 196 -11 27 9 46 11 48 6 2 -6 41 -10
87 -10 82 0 95 5 95 40 0 19 -34 40 -66 40 l-34 0 -2 198 -3 197 -73 3 c-83 3
-105 -7 -100 -47 3 -23 8 -26 46 -29 l42 -3 0 -133 c0 -130 -1 -134 -26 -159
-44 -44 -142 -48 -164 -7 -6 10 -10 97 -10 193 0 150 -2 176 -16 181 -23 9
-137 7 -152 -3z"/>
<path d="M16490 9001 c-52 -27 -80 -74 -80 -132 l0 -49 -70 0 c-65 0 -71 -2
-82 -25 -18 -41 3 -55 83 -55 l69 0 0 -160 0 -160 -64 0 c-80 0 -107 -20 -90
-64 5 -14 32 -16 195 -16 176 0 189 1 199 19 13 25 13 27 -6 45 -11 11 -35 16
-80 16 l-64 0 0 160 0 159 81 3 c65 2 84 7 93 21 8 12 8 22 0 35 -9 13 -28 18
-93 20 l-81 3 0 38 c0 64 74 110 100 61 15 -29 56 -36 80 -15 20 18 26 60 12
81 -25 38 -143 47 -202 15z"/>
<path d="M605 8915 c-22 -8 -41 -15 -41 -15 -1 0 -7 -14 -14 -30 -10 -23 -10
-37 -2 -55 22 -48 95 -41 108 10 5 21 12 25 43 25 78 0 130 -27 145 -76 6 -20
2 -21 -71 -27 -138 -9 -233 -56 -252 -122 -21 -79 32 -162 121 -186 51 -13
146 -6 188 16 27 14 32 14 54 0 17 -12 43 -15 92 -13 65 3 69 5 72 27 5 32
-21 51 -70 51 l-38 0 0 133 c0 121 -2 138 -23 178 -33 61 -93 91 -195 96 -52
2 -90 -2 -117 -12z m245 -290 c0 -65 -18 -88 -82 -105 -81 -22 -162 14 -156
70 4 33 74 68 159 79 35 5 67 9 72 10 4 0 7 -24 7 -54z"/>
<path d="M14555 8909 c-17 -26 19 -92 88 -166 l31 -33 -6572 0 -6572 0 0 -35
0 -35 6575 0 6575 0 -46 -47 c-71 -74 -104 -153 -71 -166 20 -7 32 3 55 48 21
41 103 125 160 164 17 12 32 28 32 35 0 7 -18 25 -39 39 -59 39 -136 121 -157
166 -18 39 -45 53 -59 30z"/>
<path d="M15460 8815 c-30 -10 -48 -11 -56 -4 -20 16 -105 7 -118 -13 -14 -23
3 -52 33 -56 20 -3 21 -7 21 -161 l0 -157 -31 -11 c-25 -10 -30 -16 -27 -40
l3 -28 95 0 95 0 3 28 c3 24 -2 30 -27 40 l-31 11 0 116 c0 129 16 177 64 194
45 17 51 0 54 -164 3 -140 2 -149 -16 -154 -24 -8 -35 -32 -26 -58 5 -17 14
-18 87 -16 l82 3 3 33 c3 29 0 33 -27 38 l-31 7 0 101 c0 114 10 159 42 193
25 26 63 30 72 7 3 -9 6 -79 6 -157 0 -133 -1 -143 -21 -155 -14 -9 -19 -21
-17 -40 3 -27 3 -27 88 -27 l85 0 3 28 c3 23 -2 30 -26 39 l-30 12 -4 160 c-5
211 -20 241 -117 238 -18 -1 -48 -10 -66 -21 -31 -18 -33 -18 -51 -1 -27 25
-63 30 -114 15z"/>
<path d="M17265 8815 c-22 -8 -41 -15 -41 -15 -1 0 -7 -14 -14 -30 -10 -23
-10 -37 -2 -55 22 -48 95 -41 108 10 5 21 12 25 43 25 78 0 130 -27 145 -76 6
-20 2 -21 -71 -27 -138 -9 -233 -56 -252 -122 -21 -79 32 -162 121 -186 51
-13 146 -6 188 16 27 14 32 14 54 0 17 -12 43 -15 92 -13 65 3 69 5 72 27 5
32 -21 51 -70 51 l-38 0 0 133 c0 121 -2 138 -23 178 -33 61 -93 91 -195 96
-52 2 -90 -2 -117 -12z m245 -290 c0 -65 -18 -88 -82 -105 -81 -22 -162 14
-156 70 4 33 74 68 159 79 35 5 67 9 72 10 4 0 7 -24 7 -54z"/>
<path d="M1531 8284 c-6 -15 -10 -28 -9 -29 2 -2 3064 -1535 6806 -3408 l6803
-3404 -66 -24 c-78 -27 -142 -77 -132 -102 9 -24 33 -21 70 7 40 30 173 76
222 76 49 0 53 20 17 88 -38 71 -62 153 -62 208 0 46 -9 58 -34 48 -21 -8 -22
-102 -1 -170 8 -27 15 -52 15 -57 0 -4 -3060 1523 -6800 3393 -3740 1870
-6804 3400 -6808 3400 -5 0 -14 -12 -21 -26z"/>
<path d="M16470 4803 l0 -3047 -32 31 c-85 80 -167 116 -181 80 -7 -19 2 -29
44 -50 44 -22 120 -96 161 -154 16 -24 35 -43 42 -43 6 0 31 27 54 59 43 62
104 117 160 145 40 21 45 56 7 56 -37 0 -81 -25 -137 -77 l-48 -46 0 3047 0
3046 -35 0 -35 0 0 -3047z"/>
<path d="M17270 5061 c-52 -27 -80 -74 -80 -132 l0 -49 -70 0 c-65 0 -71 -2
-82 -25 -18 -41 3 -55 83 -55 l69 0 0 -160 0 -160 -64 0 c-80 0 -107 -20 -90
-64 5 -14 32 -16 195 -16 176 0 189 1 199 19 13 25 13 27 -6 45 -11 11 -35 16
-80 16 l-64 0 0 160 0 159 81 3 c65 2 84 7 93 21 8 12 8 22 0 35 -9 13 -28 18
-93 20 l-81 3 0 38 c0 64 74 110 100 61 15 -29 56 -36 80 -15 20 18 26 60 12
81 -25 38 -143 47 -202 15z"/>
<path d="M18240 5066 c-6 -8 -10 -25 -8 -38 3 -22 8 -23 96 -26 l92 -3 0 -259
0 -260 -78 0 c-88 0 -116 -13 -110 -51 l3 -24 225 0 225 0 3 29 c5 39 -10 46
-100 46 l-78 0 0 288 c0 211 -3 291 -12 300 -19 19 -242 16 -258 -2z"/>
<path d="M19070 5066 c-6 -8 -10 -25 -8 -38 2 -19 10 -23 46 -26 l42 -3 0 -75
0 -75 -31 16 c-35 19 -131 22 -172 6 -88 -34 -150 -127 -151 -226 0 -77 17
-128 63 -178 61 -68 142 -92 222 -66 19 7 41 18 51 26 14 13 17 12 23 -6 6
-19 14 -21 90 -21 82 0 95 5 95 40 0 20 -34 40 -66 40 l-34 0 0 294 c0 334 9
306 -95 306 -42 0 -66 -5 -75 -14z m46 -300 c33 -33 34 -37 34 -107 0 -88 -19
-133 -70 -167 -85 -57 -190 22 -190 145 0 93 63 163 147 163 38 0 51 -6 79
-34z"/>
<path d="M19382 5071 c-8 -5 -12 -21 -10 -37 2 -25 8 -29 36 -32 l32 -3 0
-260 0 -259 -22 0 c-36 0 -50 -15 -46 -46 l3 -29 95 -3 c80 -2 97 0 107 15 7
9 13 20 13 24 0 16 -33 39 -56 39 l-24 0 0 243 1 242 98 -271 c53 -148 101
-276 105 -282 11 -19 103 -15 110 4 3 9 6 144 6 300 l0 284 30 0 c23 0 31 5
36 25 11 45 -9 55 -106 55 -95 0 -114 -9 -108 -52 2 -18 10 -24 36 -26 l32 -3
0 -237 -1 -237 -79 220 c-111 306 -110 304 -127 320 -16 17 -138 21 -161 6z"/>
<path d="M21152 5071 c-8 -5 -12 -21 -10 -37 3 -26 7 -29 41 -32 l37 -3 0
-260 0 -259 -27 0 c-41 0 -55 -13 -51 -46 l3 -29 130 0 130 0 3 24 c5 31 -21
51 -65 51 l-33 0 0 110 0 110 69 0 c69 0 70 0 73 -27 3 -24 8 -29 37 -31 44
-4 51 8 51 94 0 83 -13 107 -55 102 -24 -2 -31 -8 -33 -30 -3 -28 -4 -28 -73
-28 l-69 0 0 110 0 110 130 0 130 0 0 -45 c0 -38 4 -47 24 -56 17 -8 29 -8 45
0 18 10 21 20 21 84 0 44 -5 78 -12 85 -14 14 -474 17 -496 3z"/>
<path d="M20710 5013 c-24 -9 -30 -25 -30 -80 l0 -53 -60 0 c-49 0 -61 -3 -70
-20 -8 -14 -8 -26 0 -40 9 -17 21 -20 69 -20 l59 0 4 -152 c4 -177 14 -204 86
-240 113 -54 261 23 250 132 -3 32 -6 35 -37 38 -37 4 -51 -9 -51 -45 0 -34
-48 -66 -90 -59 -55 9 -60 23 -60 183 l0 142 101 3 c84 3 104 6 113 21 8 12 8
22 0 35 -9 14 -29 17 -111 20 l-101 3 -4 59 c-2 33 -6 61 -9 64 -9 8 -45 14
-59 9z"/>
<path d="M25150 5013 c-24 -9 -30 -25 -30 -80 l0 -53 -60 0 c-49 0 -61 -3 -70
-20 -8 -14 -8 -26 0 -40 9 -17 21 -20 69 -20 l59 0 4 -152 c4 -177 14 -204 86
-240 113 -54 261 23 250 132 -3 32 -6 35 -37 38 -37 4 -51 -9 -51 -45 0 -34
-48 -66 -90 -59 -55 9 -60 23 -60 183 l0 142 101 3 c84 3 104 6 113 21 8 12 8
22 0 35 -9 14 -29 17 -111 20 l-101 3 -4 59 c-2 33 -6 61 -9 64 -9 8 -45 14
-59 9z"/>
<path d="M17799 4877 c-50 -19 -88 -50 -121 -99 -33 -48 -42 -89 -36 -168 14
-190 234 -286 378 -163 167 143 82 421 -134 439 -29 2 -66 -1 -87 -9z m151
-97 c89 -63 84 -216 -8 -285 -36 -27 -102 -26 -139 1 -37 27 -73 99 -73 145 0
130 123 208 220 139z"/>
<path d="M20075 4875 c-22 -8 -41 -15 -41 -15 -1 0 -7 -14 -14 -30 -10 -23
-10 -37 -2 -55 22 -48 95 -41 108 10 5 21 12 25 43 25 78 0 130 -27 145 -76 6
-20 2 -21 -71 -27 -138 -9 -233 -56 -252 -122 -21 -79 32 -162 121 -186 51
-13 146 -6 188 16 27 14 32 14 54 0 17 -12 43 -15 92 -13 65 3 69 5 72 27 5
32 -21 51 -70 51 l-38 0 0 133 c0 121 -2 138 -23 178 -33 61 -93 91 -195 96
-52 2 -90 -2 -117 -12z m245 -290 c0 -65 -18 -88 -82 -105 -81 -22 -162 14
-156 70 4 33 74 68 159 79 35 5 67 9 72 10 4 0 7 -24 7 -54z"/>
<path d="M22093 4880 c-23 -3 -64 -20 -92 -37 l-50 -31 -3 31 -3 32 -94 3
c-100 3 -121 -4 -121 -43 0 -28 17 -35 81 -35 l49 0 0 -160 0 -160 -48 0 c-58
0 -85 -17 -80 -51 l3 -24 187 -3 188 -2 6 26 c10 40 -16 54 -98 54 l-68 0 0
66 c0 36 5 86 12 111 15 61 79 129 130 138 33 6 40 4 61 -20 19 -22 29 -27 50
-21 32 8 51 39 43 72 -11 44 -74 66 -153 54z"/>
<path d="M22514 4876 c-63 -20 -110 -62 -140 -123 -69 -140 0 -304 147 -347
66 -20 112 -20 176 -1 81 24 139 105 101 143 -23 23 -54 13 -86 -28 -23 -27
-43 -41 -68 -46 -69 -13 -156 32 -190 97 l-15 29 174 0 c121 0 177 4 185 12 7
7 12 30 12 53 0 68 -20 117 -64 161 -61 61 -141 78 -232 50z m131 -80 c32 -14
54 -43 69 -93 l7 -23 -140 0 c-129 0 -140 1 -134 18 14 39 48 75 87 93 50 22
67 23 111 5z"/>
<path d="M23094 4876 c-63 -20 -110 -62 -140 -123 -69 -140 0 -304 147 -347
66 -20 112 -20 176 -1 81 24 139 105 101 143 -23 23 -54 13 -86 -28 -23 -27
-43 -41 -68 -46 -69 -13 -156 32 -190 97 l-15 29 174 0 c121 0 177 4 185 12 7
7 12 30 12 53 0 68 -20 117 -64 161 -61 61 -141 78 -232 50z m131 -80 c32 -14
54 -43 69 -93 l7 -23 -140 0 c-129 0 -140 1 -134 18 14 39 48 75 87 93 50 22
67 23 111 5z"/>
<path d="M24085 4880 c-22 -4 -55 -14 -72 -23 -27 -14 -33 -15 -33 -3 0 20
-22 26 -93 26 -75 0 -90 -8 -85 -46 3 -26 7 -29 46 -32 l42 -3 0 -160 0 -159
-34 0 c-39 0 -59 -19 -54 -52 3 -22 6 -23 128 -26 106 -2 127 0 137 14 12 17
7 44 -11 56 -6 4 -26 8 -43 8 l-33 0 0 102 c0 116 19 171 69 201 41 24 107 23
121 -2 5 -11 10 -83 10 -160 0 -141 0 -141 -23 -141 -35 0 -59 -22 -55 -51 3
-24 4 -24 127 -27 125 -3 140 1 141 35 0 22 -32 43 -66 43 l-34 0 0 151 c0
199 -15 232 -110 249 -19 3 -53 3 -75 0z"/>
<path d="M24525 4875 c-22 -8 -41 -15 -41 -15 -1 0 -7 -14 -14 -30 -10 -23
-10 -37 -2 -55 22 -48 95 -41 108 10 5 21 12 25 43 25 78 0 130 -27 145 -76 6
-20 2 -21 -71 -27 -138 -9 -233 -56 -252 -122 -21 -79 32 -162 121 -186 51
-13 146 -6 188 16 27 14 32 14 54 0 17 -12 43 -15 92 -13 65 3 69 5 72 27 5
32 -21 51 -70 51 l-38 0 0 133 c0 121 -2 138 -23 178 -33 61 -93 91 -195 96
-52 2 -90 -2 -117 -12z m245 -290 c0 -65 -18 -88 -82 -105 -81 -22 -162 14
-156 70 4 33 74 68 159 79 35 5 67 9 72 10 4 0 7 -24 7 -54z"/>
<path d="M5750 4363 c-24 -9 -30 -25 -30 -80 l0 -53 -60 0 c-49 0 -61 -3 -70
-20 -8 -14 -8 -26 0 -40 9 -17 21 -20 69 -20 l59 0 4 -152 c4 -177 14 -204 86
-240 113 -54 261 23 250 132 -3 32 -6 35 -37 38 -37 4 -51 -9 -51 -45 0 -34
-48 -66 -90 -59 -55 9 -60 23 -60 183 l0 142 101 3 c84 3 104 6 113 21 8 12 8
22 0 35 -9 14 -29 17 -111 20 l-101 3 -4 59 c-2 33 -6 61 -9 64 -9 8 -45 14
-59 9z"/>
<path d="M4773 4230 c-23 -3 -64 -20 -92 -37 l-50 -31 -3 31 -3 32 -94 3
c-100 3 -121 -4 -121 -43 0 -28 17 -35 81 -35 l49 0 0 -160 0 -160 -48 0 c-58
0 -85 -17 -80 -51 l3 -24 187 -3 188 -2 6 26 c10 40 -16 54 -98 54 l-68 0 0
66 c0 36 5 86 12 111 15 61 79 129 130 138 33 6 40 4 61 -20 19 -22 29 -27 50
-21 32 8 51 39 43 72 -11 44 -74 66 -153 54z"/>
<path d="M5194 4226 c-63 -20 -110 -62 -140 -123 -69 -140 0 -304 147 -347 66
-20 112 -20 176 -1 81 24 139 105 101 143 -23 23 -54 13 -86 -28 -23 -27 -43
-41 -68 -46 -69 -13 -156 32 -190 97 l-15 29 174 0 c121 0 177 4 185 12 7 7
12 30 12 53 0 68 -20 117 -64 161 -61 61 -141 78 -232 50z m131 -80 c32 -14
54 -43 69 -93 l7 -23 -140 0 c-129 0 -140 1 -134 18 14 39 48 75 87 93 50 22
67 23 111 5z"/>
<path d="M7133 4230 c-23 -3 -64 -20 -92 -37 l-50 -31 -3 31 -3 32 -94 3
c-100 3 -121 -4 -121 -43 0 -28 17 -35 81 -35 l49 0 0 -160 0 -160 -48 0 c-58
0 -85 -17 -80 -51 l3 -24 187 -3 188 -2 6 26 c10 40 -16 54 -98 54 l-68 0 0
66 c0 36 5 86 12 111 15 61 79 129 130 138 33 6 40 4 61 -20 19 -22 29 -27 50
-21 32 8 51 39 43 72 -11 44 -74 66 -153 54z"/>
<path d="M7615 4230 c-22 -4 -55 -14 -72 -23 -27 -14 -33 -15 -33 -3 0 20 -22
26 -93 26 -75 0 -90 -8 -85 -46 3 -26 7 -29 46 -32 l42 -3 0 -160 0 -159 -34
0 c-39 0 -59 -19 -54 -52 3 -22 6 -23 128 -26 106 -2 127 0 137 14 12 17 7 44
-11 56 -6 4 -26 8 -43 8 l-33 0 0 102 c0 116 19 171 69 201 41 24 107 23 121
-2 5 -11 10 -83 10 -160 0 -141 0 -141 -23 -141 -35 0 -59 -22 -55 -51 3 -24
4 -24 127 -27 125 -3 140 1 141 35 0 22 -32 43 -66 43 l-34 0 0 151 c0 199
-15 232 -110 249 -19 3 -53 3 -75 0z"/>
<path d="M6172 4221 c-8 -5 -12 -21 -10 -37 3 -26 7 -29 46 -32 l42 -3 0 -150
c0 -164 9 -205 54 -234 38 -25 141 -31 196 -11 27 9 46 11 48 6 2 -6 41 -10
87 -10 82 0 95 5 95 40 0 19 -34 40 -66 40 l-34 0 -2 198 -3 197 -73 3 c-83 3
-105 -7 -100 -47 3 -23 8 -26 46 -29 l42 -3 0 -133 c0 -130 -1 -134 -26 -159
-44 -44 -142 -48 -164 -7 -6 10 -10 97 -10 193 0 150 -2 176 -16 181 -23 9
-137 7 -152 -3z"/>
<path d="M16060 1126 c-6 -8 -10 -25 -8 -38 2 -19 10 -23 46 -26 l42 -3 0 -75
0 -75 -31 16 c-35 19 -131 22 -172 6 -88 -34 -150 -127 -151 -226 0 -77 17
-128 63 -178 61 -68 142 -92 222 -66 19 7 41 18 51 26 14 13 17 12 23 -6 6
-19 14 -21 90 -21 82 0 95 5 95 40 0 20 -34 40 -66 40 l-34 0 0 294 c0 334 9
306 -95 306 -42 0 -66 -5 -75 -14z m46 -300 c33 -33 34 -37 34 -107 0 -88 -19
-133 -70 -167 -85 -57 -190 22 -190 145 0 93 63 163 147 163 38 0 51 -6 79
-34z"/>
<path d="M16692 1131 c-8 -5 -12 -21 -10 -37 3 -26 7 -29 46 -32 l42 -3 0
-284 c0 -156 3 -290 6 -299 8 -21 70 -21 81 -1 8 13 14 12 48 -6 47 -24 131
-22 182 5 40 20 89 70 110 109 24 48 29 145 9 205 -19 57 -73 118 -124 139
-50 21 -135 18 -183 -5 l-39 -19 0 112 c0 94 -3 114 -16 119 -23 9 -137 7
-152 -3z m366 -291 c38 -24 72 -89 72 -140 0 -87 -70 -165 -146 -165 -73 0
-123 72 -124 176 0 120 103 187 198 129z"/>
</g>
</svg>
