<?xml version="1.0" standalone="no"?>
<!DOCTYPE svg PUBLIC "-//W3C//DTD SVG 20010904//EN"
 "http://www.w3.org/TR/2001/REC-SVG-20010904/DTD/svg10.dtd">
<svg version="1.0" xmlns="http://www.w3.org/2000/svg"
 width="3352.000000pt" height="260.000000pt" viewBox="0 0 3352.000000 260.000000"
 preserveAspectRatio="xMidYMid meet">
<metadata>
Created by potrace 1.16, written by Peter Selinger 2001-2019
</metadata>
<g transform="translate(0.000000,260.000000) scale(0.100000,-0.100000)"
fill="#000000" stroke="none">
<path d="M12550 2121 c-52 -27 -80 -74 -80 -132 l0 -49 -70 0 c-65 0 -71 -2
-82 -25 -18 -41 3 -55 83 -55 l69 0 0 -160 0 -160 -64 0 c-80 0 -107 -20 -90
-64 5 -14 32 -16 195 -16 176 0 189 1 199 19 13 25 13 27 -6 45 -11 11 -35 16
-80 16 l-64 0 0 160 0 159 81 3 c65 2 84 7 93 21 8 12 8 22 0 35 -9 13 -28 18
-93 20 l-81 3 0 38 c0 64 74 110 100 61 15 -29 56 -36 80 -15 20 18 26 60 12
81 -25 38 -143 47 -202 15z"/>
<path d="M28610 2121 c-52 -27 -80 -74 -80 -132 l0 -49 -70 0 c-65 0 -71 -2
-82 -25 -18 -41 3 -55 83 -55 l69 0 0 -160 0 -160 -64 0 c-80 0 -107 -20 -90
-64 5 -14 32 -16 195 -16 176 0 189 1 199 19 13 25 13 27 -6 45 -11 11 -35 16
-80 16 l-64 0 0 160 0 159 81 3 c65 2 84 7 93 21 8 12 8 22 0 35 -9 13 -28 18
-93 20 l-81 3 0 38 c0 64 74 110 100 61 15 -29 56 -36 80 -15 20 18 26 60 12
81 -25 38 -143 47 -202 15z"/>
<path d="M4456 1984 c-41 -40 -10 -64 81 -64 l73 0 0 -260 0 -260 -69 0 c-69
0 -101 -14 -101 -43 1 -35 13 -37 216 -35 l199 3 3 24 c6 36 -22 51 -95 51
l-63 0 0 260 0 259 78 3 c72 3 77 5 80 26 7 49 -7 52 -204 52 -153 0 -185 -3
-198 -16z"/>
<path d="M5260 1986 c-6 -8 -10 -25 -8 -38 2 -19 10 -23 46 -26 l42 -3 0 -75
0 -75 -31 16 c-35 19 -131 22 -172 6 -88 -34 -150 -127 -151 -226 0 -77 17
-128 63 -178 61 -68 142 -92 222 -66 19 7 41 18 51 26 14 13 17 12 23 -6 6
-19 14 -21 90 -21 82 0 95 5 95 40 0 20 -34 40 -66 40 l-34 0 0 294 c0 334 9
306 -95 306 -42 0 -66 -5 -75 -14z m46 -300 c33 -33 34 -37 34 -107 0 -88 -19
-133 -70 -167 -85 -57 -190 22 -190 145 0 93 63 163 147 163 38 0 51 -6 79
-34z"/>
<path d="M13055 1800 c-14 -23 -38 -46 -53 -51 -47 -19 -57 -26 -60 -42 -6
-28 32 -39 78 -23 l40 14 0 -159 0 -158 -52 -3 c-49 -3 -53 -5 -56 -30 l-3
-28 141 0 c116 0 142 3 146 15 10 26 -16 45 -62 45 l-44 0 0 218 c0 220 -3
242 -37 242 -7 0 -24 -18 -38 -40z"/>
<path d="M28930 1650 c0 -27 3 -30 30 -30 l30 0 0 -119 0 -120 -27 -3 c-22 -2
-29 -9 -31 -30 l-3 -28 101 0 101 0 -3 28 c-2 21 -9 28 -30 30 l-28 3 0 90 c0
87 1 92 29 120 31 31 77 39 99 17 8 -8 12 -49 12 -119 l0 -108 -27 -3 c-22 -2
-28 -8 -28 -28 0 -25 1 -25 98 -28 l98 -3 -3 28 c-2 23 -8 29 -35 31 l-33 3 0
115 c0 157 -16 183 -108 184 -29 0 -66 -7 -82 -15 -27 -14 -30 -14 -30 0 0 12
-13 15 -65 15 l-65 0 0 -30z"/>
<path d="M23605 1205 c-22 -8 -41 -15 -41 -15 -1 0 -7 -14 -14 -30 -10 -23
-10 -37 -2 -55 22 -48 95 -41 108 10 5 21 12 25 43 25 78 0 130 -27 145 -76 6
-20 2 -21 -71 -27 -138 -9 -233 -56 -252 -122 -21 -79 32 -162 121 -186 51
-13 146 -6 188 16 27 14 32 14 54 0 17 -12 43 -15 92 -13 65 3 69 5 72 27 5
32 -21 51 -70 51 l-38 0 0 133 c0 121 -2 138 -23 178 -33 61 -93 91 -195 96
-52 2 -90 -2 -117 -12z m245 -290 c0 -65 -18 -88 -82 -105 -81 -22 -162 14
-156 70 4 33 74 68 159 79 35 5 67 9 72 10 4 0 7 -24 7 -54z"/>
<path d="M605 1135 c-22 -8 -41 -15 -41 -15 -1 0 -7 -14 -14 -30 -10 -23 -10
-37 -2 -55 22 -48 95 -41 108 10 5 21 12 25 43 25 78 0 130 -27 145 -76 6 -20
2 -21 -71 -27 -138 -9 -233 -56 -252 -122 -21 -79 32 -162 121 -186 51 -13
146 -6 188 16 27 14 32 14 54 0 17 -12 43 -15 92 -13 65 3 69 5 72 27 5 32
-21 51 -70 51 l-38 0 0 133 c0 121 -2 138 -23 178 -33 61 -93 91 -195 96 -52
2 -90 -2 -117 -12z m245 -290 c0 -65 -18 -88 -82 -105 -81 -22 -162 14 -156
70 4 33 74 68 159 79 35 5 67 9 72 10 4 0 7 -24 7 -54z"/>
<path d="M8485 1135 c-22 -8 -41 -15 -41 -15 -1 0 -7 -14 -14 -30 -10 -23 -10
-37 -2 -55 22 -48 95 -41 108 10 5 21 12 25 43 25 78 0 130 -27 145 -76 6 -20
2 -21 -71 -27 -138 -9 -233 -56 -252 -122 -21 -79 32 -162 121 -186 51 -13
146 -6 188 16 27 14 32 14 54 0 17 -12 43 -15 92 -13 65 3 69 5 72 27 5 32
-21 51 -70 51 l-38 0 0 133 c0 121 -2 138 -23 178 -33 61 -93 91 -195 96 -52
2 -90 -2 -117 -12z m245 -290 c0 -65 -18 -88 -82 -105 -81 -22 -162 14 -156
70 4 33 74 68 159 79 35 5 67 9 72 10 4 0 7 -24 7 -54z"/>
<path d="M16355 1135 c-22 -8 -41 -15 -41 -15 -1 0 -7 -14 -14 -30 -10 -23
-10 -37 -2 -55 22 -48 95 -41 108 10 5 21 12 25 43 25 78 0 130 -27 145 -76 6
-20 2 -21 -71 -27 -138 -9 -233 -56 -252 -122 -21 -79 32 -162 121 -186 51
-13 146 -6 188 16 27 14 32 14 54 0 17 -12 43 -15 92 -13 65 3 69 5 72 27 5
32 -21 51 -70 51 l-38 0 0 133 c0 121 -2 138 -23 178 -33 61 -93 91 -195 96
-52 2 -90 -2 -117 -12z m245 -290 c0 -65 -18 -88 -82 -105 -81 -22 -162 14
-156 70 4 33 74 68 159 79 35 5 67 9 72 10 4 0 7 -24 7 -54z"/>
<path d="M32105 1135 c-22 -8 -41 -15 -41 -15 -1 0 -7 -14 -14 -30 -10 -23
-10 -37 -2 -55 22 -48 95 -41 108 10 5 21 12 25 43 25 78 0 130 -27 145 -76 6
-20 2 -21 -71 -27 -138 -9 -233 -56 -252 -122 -21 -79 32 -162 121 -186 51
-13 146 -6 188 16 27 14 32 14 54 0 17 -12 43 -15 92 -13 65 3 69 5 72 27 5
32 -21 51 -70 51 l-38 0 0 133 c0 121 -2 138 -23 178 -33 61 -93 91 -195 96
-52 2 -90 -2 -117 -12z m245 -290 c0 -65 -18 -88 -82 -105 -81 -22 -162 14
-156 70 4 33 74 68 159 79 35 5 67 9 72 10 4 0 7 -24 7 -54z"/>
<path d="M25485 1060 c-14 -23 -38 -46 -53 -51 -47 -19 -57 -26 -60 -42 -6
-28 32 -39 78 -23 l40 14 0 -159 0 -158 -52 -3 c-49 -3 -53 -5 -56 -30 l-3
-28 141 0 c116 0 142 3 146 15 10 26 -16 45 -62 45 l-44 0 0 218 c0 220 -3
242 -37 242 -7 0 -24 -18 -38 -40z"/>
<path d="M7595 1069 c-17 -27 18 -92 89 -166 l40 -43 -2842 0 -2842 0 0 -30 0
-30 2841 0 2842 0 -50 -53 c-58 -61 -86 -109 -81 -140 6 -42 34 -31 66 26 30
53 108 132 163 164 16 10 29 24 29 33 0 8 -30 37 -66 64 -66 49 -129 122 -140
164 -6 23 -38 30 -49 11z"/>
<path d="M15466 1064 c-10 -26 30 -97 85 -153 l50 -51 -2840 0 -2841 0 0 -30
0 -30 2836 0 2836 0 -47 -52 c-26 -29 -57 -72 -68 -96 -20 -40 -20 -43 -3 -60
16 -16 18 -16 34 5 9 12 30 43 45 68 16 25 54 64 84 88 30 23 65 49 76 58 l22
17 -34 28 c-99 85 -153 141 -172 180 -22 46 -51 59 -63 28z"/>
<path d="M22727 1073 c-24 -23 7 -87 76 -160 l50 -53 -42 0 c-39 0 -41 -1 -41
-30 0 -29 2 -30 42 -30 l41 0 -47 -47 c-78 -78 -109 -162 -63 -171 12 -3 22 7
33 33 18 44 90 123 156 171 55 41 59 58 20 78 -50 26 -133 108 -164 163 -28
49 -45 62 -61 46z"/>
<path d="M31213 1064 c-9 -25 28 -93 82 -150 l51 -54 -2528 0 -2528 0 0 -30 0
-30 2526 0 2526 0 -49 -54 c-60 -66 -90 -123 -76 -145 17 -26 36 -18 57 24 24
47 123 148 166 170 39 20 38 48 -2 74 -52 31 -146 132 -163 174 -16 39 -50 51
-62 21z"/>
<path d="M1215 1026 c-44 -19 -90 -76 -110 -136 -27 -82 -18 -209 20 -279 41
-74 89 -105 154 -99 65 6 104 36 138 106 54 110 41 272 -28 356 -51 61 -112
79 -174 52z m124 -94 c65 -94 48 -291 -31 -346 -34 -24 -57 -19 -93 18 -42 45
-59 108 -53 199 6 83 26 130 70 157 37 22 78 12 107 -28z"/>
<path d="M9085 1026 c-44 -19 -90 -76 -110 -136 -27 -82 -18 -209 20 -279 41
-74 89 -105 154 -99 65 6 104 36 138 106 54 110 41 272 -28 356 -51 61 -112
79 -174 52z m124 -94 c65 -94 48 -291 -31 -346 -34 -24 -57 -19 -93 18 -42 45
-59 108 -53 199 6 83 26 130 70 157 37 22 78 12 107 -28z"/>
<path d="M16995 1000 c-14 -23 -38 -46 -53 -51 -47 -19 -57 -26 -60 -42 -6
-28 32 -39 78 -23 l40 14 0 -159 0 -158 -52 -3 c-49 -3 -53 -5 -56 -30 l-3
-28 141 0 c116 0 142 3 146 15 10 26 -16 45 -62 45 l-44 0 0 218 c0 220 -3
242 -37 242 -7 0 -24 -18 -38 -40z"/>
<path d="M24060 910 c0 -27 3 -30 30 -30 l30 0 0 -119 0 -120 -27 -3 c-22 -2
-29 -9 -31 -30 l-3 -28 101 0 101 0 -3 28 c-2 21 -9 28 -30 30 l-28 3 0 90 c0
87 1 92 29 120 31 31 77 39 99 17 8 -8 12 -49 12 -119 l0 -108 -27 -3 c-22 -2
-28 -8 -28 -28 0 -25 1 -25 98 -28 l98 -3 -3 28 c-2 23 -8 29 -35 31 l-33 3 0
115 c0 157 -16 183 -108 184 -29 0 -66 -7 -82 -15 -27 -14 -30 -14 -30 0 0 12
-13 15 -65 15 l-65 0 0 -30z"/>
<path d="M32560 850 c0 -27 3 -30 30 -30 l30 0 0 -119 0 -120 -27 -3 c-22 -2
-29 -9 -31 -30 l-3 -28 101 0 101 0 -3 28 c-2 21 -9 28 -30 30 l-28 3 0 90 c0
87 1 92 29 120 31 31 77 39 99 17 8 -8 12 -49 12 -119 l0 -108 -27 -3 c-22 -2
-28 -8 -28 -28 0 -25 1 -25 98 -28 l98 -3 -3 28 c-2 23 -8 29 -35 31 l-33 3 0
115 c0 157 -16 183 -108 184 -29 0 -66 -7 -82 -15 -27 -14 -30 -14 -30 0 0 12
-13 15 -65 15 l-65 0 0 -30z"/>
<path d="M17790 830 l0 -30 215 0 215 0 0 30 0 30 -215 0 -215 0 0 -30z"/>
<path d="M18620 830 l0 -30 215 0 215 0 0 30 0 30 -215 0 -215 0 0 -30z"/>
<path d="M19450 830 l0 -30 215 0 215 0 0 30 0 30 -215 0 -215 0 0 -30z"/>
<path d="M20280 830 l0 -30 215 0 215 0 0 30 0 30 -215 0 -215 0 0 -30z"/>
<path d="M21110 830 l0 -30 215 0 215 0 0 30 0 30 -215 0 -215 0 0 -30z"/>
<path d="M21940 830 l0 -30 215 0 215 0 0 30 0 30 -215 0 -215 0 0 -30z"/>
<path d="M24592 788 l3 -23 295 0 c288 0 295 0 295 20 0 19 -8 20 -298 23
l-298 2 3 -22z"/>
</g>
</svg>
