<?xml version="1.0" standalone="no"?>
<!DOCTYPE svg PUBLIC "-//W3C//DTD SVG 20010904//EN"
 "http://www.w3.org/TR/2001/REC-SVG-20010904/DTD/svg10.dtd">
<svg version="1.0" xmlns="http://www.w3.org/2000/svg"
 width="1500.000000pt" height="1197.000000pt" viewBox="0 0 1500.000000 1197.000000"
 preserveAspectRatio="xMidYMid meet">
<metadata>
Created by potrace 1.16, written by Peter Selinger 2001-2019
</metadata>
<g transform="translate(0.000000,1197.000000) scale(0.100000,-0.100000)"
fill="#000000" stroke="none">
<path d="M5754 11506 c-56 -18 -97 -50 -125 -99 -20 -36 -24 -59 -27 -154 l-4
-113 -54 0 c-51 0 -54 -1 -54 -25 0 -24 3 -25 55 -25 l55 0 0 -238 c0 -172 -3
-241 -12 -250 -7 -7 -31 -12 -55 -12 -39 0 -43 -2 -43 -25 l0 -25 170 0 170 0
0 25 c0 24 -3 25 -53 25 -29 0 -58 5 -65 12 -9 9 -12 78 -12 250 l0 238 80 0
c79 0 80 0 80 25 0 25 -1 25 -80 25 l-80 0 0 110 c0 117 13 162 57 202 37 34
105 34 72 1 -20 -20 -6 -76 23 -92 58 -33 116 25 86 85 -29 59 -107 85 -184
60z"/>
<path d="M9254 11506 c-56 -18 -97 -50 -125 -99 -20 -36 -24 -59 -27 -154 l-4
-113 -54 0 c-51 0 -54 -1 -54 -25 0 -24 3 -25 55 -25 l55 0 0 -238 c0 -172 -3
-241 -12 -250 -7 -7 -31 -12 -55 -12 -39 0 -43 -2 -43 -25 l0 -25 170 0 170 0
0 25 c0 24 -3 25 -53 25 -29 0 -58 5 -65 12 -9 9 -12 78 -12 250 l0 238 80 0
c79 0 80 0 80 25 0 25 -1 25 -80 25 l-80 0 0 110 c0 117 13 162 57 202 37 34
105 34 72 1 -20 -20 -6 -76 23 -92 58 -33 116 25 86 85 -29 59 -107 85 -184
60z"/>
<path d="M7232 11147 c-87 -33 -139 -115 -110 -174 19 -41 61 -52 96 -26 41
30 42 71 2 105 l-32 26 40 21 c60 31 132 28 172 -5 41 -35 58 -71 66 -137 l6
-54 -78 -6 c-115 -9 -197 -40 -255 -96 -107 -104 -79 -223 63 -266 100 -29
179 -14 238 45 35 35 40 37 45 20 11 -36 63 -70 107 -70 32 0 47 7 74 34 32
32 34 38 34 105 0 64 -2 71 -20 71 -18 0 -20 -7 -20 -63 0 -49 -4 -68 -18 -80
-25 -23 -38 -21 -56 5 -13 18 -16 56 -16 203 -1 235 -11 266 -109 323 -34 20
-60 26 -120 29 -44 1 -90 -3 -109 -10z m238 -348 c0 -123 -22 -176 -91 -218
-86 -52 -189 2 -189 99 0 98 108 174 268 189 8 1 12 -19 12 -70z"/>
<path d="M5953 11143 c-37 -4 -43 -7 -43 -27 0 -20 6 -24 42 -29 23 -3 48 -14
55 -23 16 -22 19 -425 3 -455 -8 -14 -21 -19 -55 -19 -41 0 -45 -2 -45 -25 l0
-25 160 0 160 0 0 25 c0 23 -4 25 -43 25 -24 0 -48 5 -55 12 -8 8 -12 60 -12
168 0 191 12 241 69 293 69 62 145 68 185 13 19 -25 21 -43 24 -243 2 -154 0
-219 -9 -229 -7 -8 -30 -14 -55 -14 -40 0 -44 -2 -44 -25 l0 -25 160 0 160 0
0 25 c0 23 -4 25 -45 25 -60 0 -65 15 -65 180 0 145 11 215 43 261 63 93 184
112 224 35 13 -25 18 -69 21 -216 2 -102 0 -201 -5 -220 -9 -33 -12 -35 -56
-38 -42 -3 -47 -6 -47 -28 l0 -24 160 0 160 0 0 25 c0 23 -4 25 -42 25 -24 0
-48 4 -55 8 -8 5 -12 73 -15 222 -3 193 -5 218 -23 249 -34 58 -67 75 -149 79
-88 5 -128 -11 -181 -69 -19 -21 -37 -39 -39 -39 -2 0 -7 11 -10 25 -3 13 -23
37 -43 52 -30 23 -48 28 -109 31 -91 5 -148 -19 -194 -81 l-30 -41 0 62 0 62
-57 -2 c-32 -1 -77 -3 -100 -5z"/>
<path d="M7798 11143 c-43 -4 -48 -7 -48 -29 0 -20 5 -24 29 -24 16 0 41 -4
55 -10 l26 -10 0 -363 c0 -269 -3 -366 -12 -375 -7 -7 -31 -12 -55 -12 -39 0
-43 -2 -43 -25 l0 -25 160 0 160 0 0 25 c0 22 -4 25 -34 25 -67 0 -66 -1 -66
142 l0 130 30 -26 c93 -78 258 -50 359 60 58 63 81 123 81 210 0 87 -25 156
-79 216 -60 67 -126 98 -209 98 -71 0 -124 -19 -164 -57 l-28 -27 0 42 0 42
-57 -2 c-32 -1 -79 -3 -105 -5z m419 -62 c26 -19 51 -50 69 -88 26 -51 29 -69
29 -153 0 -84 -3 -102 -28 -152 -67 -137 -192 -167 -281 -68 l-36 40 0 178 0
178 33 31 c74 71 147 82 214 34z"/>
<path d="M13863 10253 c-59 -4 -63 -6 -63 -28 0 -20 6 -24 43 -30 23 -4 48
-12 55 -17 9 -8 12 -109 12 -444 l0 -434 25 0 c18 0 29 9 41 33 9 17 18 34 20
36 2 2 21 -12 43 -32 99 -90 264 -68 370 49 65 71 85 131 79 233 -8 127 -82
234 -191 276 -72 27 -170 18 -236 -22 l-51 -32 0 209 0 210 -42 -2 c-24 -1
-71 -3 -105 -5z m398 -399 c69 -35 109 -127 109 -254 0 -135 -39 -219 -121
-260 -72 -37 -139 -22 -198 45 l-31 36 0 175 c0 194 3 206 67 245 63 39 115
43 174 13z"/>
<path d="M2212 10097 c-87 -33 -139 -115 -110 -174 19 -41 61 -52 96 -26 41
30 42 71 2 105 l-32 26 40 21 c60 31 132 28 172 -5 41 -35 58 -71 66 -137 l6
-54 -78 -6 c-115 -9 -197 -40 -255 -96 -107 -104 -79 -223 63 -266 100 -29
179 -14 238 45 35 35 40 37 45 20 11 -36 63 -70 107 -70 32 0 47 7 74 34 32
32 34 38 34 105 0 64 -2 71 -20 71 -18 0 -20 -7 -20 -63 0 -49 -4 -68 -18 -80
-25 -23 -38 -21 -56 5 -13 18 -16 56 -16 203 -1 235 -11 266 -109 323 -34 20
-60 26 -120 29 -44 1 -90 -3 -109 -10z m238 -348 c0 -123 -22 -176 -91 -218
-86 -52 -189 2 -189 99 0 98 108 174 268 189 8 1 12 -19 12 -70z"/>
<path d="M543 10093 c-37 -4 -43 -7 -43 -27 0 -20 6 -24 42 -29 23 -3 48 -14
55 -23 16 -22 19 -425 3 -455 -8 -14 -21 -19 -55 -19 -41 0 -45 -2 -45 -25 l0
-25 160 0 160 0 0 25 c0 23 -4 25 -43 25 -24 0 -48 5 -55 12 -8 8 -12 60 -12
168 0 191 12 241 69 293 69 62 145 68 185 13 19 -25 21 -43 24 -243 2 -154 0
-219 -9 -229 -7 -8 -30 -14 -55 -14 -40 0 -44 -2 -44 -25 l0 -25 160 0 160 0
0 25 c0 23 -4 25 -45 25 -60 0 -65 15 -65 180 0 145 11 215 43 261 63 93 184
112 224 35 13 -25 18 -69 21 -216 2 -102 0 -201 -5 -220 -9 -33 -12 -35 -56
-38 -42 -3 -47 -6 -47 -28 l0 -24 160 0 160 0 0 25 c0 23 -4 25 -42 25 -24 0
-48 4 -55 8 -8 5 -12 73 -15 222 -3 193 -5 218 -23 249 -34 58 -67 75 -149 79
-88 5 -128 -11 -181 -69 -19 -21 -37 -39 -39 -39 -2 0 -7 11 -10 25 -3 13 -23
37 -43 52 -30 23 -48 28 -109 31 -91 5 -148 -19 -194 -81 l-30 -41 0 62 0 62
-57 -2 c-32 -1 -77 -3 -100 -5z"/>
<path d="M11490 10009 c0 -33 26 -80 76 -137 l46 -52 -4221 0 -4221 0 0 -35 0
-35 4221 0 4221 0 -46 -52 c-75 -86 -99 -158 -53 -158 16 0 27 11 39 38 20 43
94 121 156 164 23 16 42 35 42 43 0 8 -19 27 -43 44 -57 39 -155 145 -163 176
-8 33 -54 36 -54 4z"/>
<path d="M12313 9903 c-37 -4 -43 -7 -43 -27 0 -20 6 -24 42 -29 23 -3 48 -14
55 -23 16 -22 19 -425 3 -455 -8 -14 -21 -19 -55 -19 -41 0 -45 -2 -45 -25 l0
-25 160 0 160 0 0 25 c0 23 -4 25 -43 25 -24 0 -48 5 -55 12 -8 8 -12 60 -12
168 0 191 12 241 69 293 69 62 145 68 185 13 19 -25 21 -43 24 -243 2 -154 0
-219 -9 -229 -7 -8 -30 -14 -55 -14 -40 0 -44 -2 -44 -25 l0 -25 160 0 160 0
0 25 c0 23 -4 25 -45 25 -60 0 -65 15 -65 180 0 145 11 215 43 261 63 93 184
112 224 35 13 -25 18 -69 21 -216 2 -102 0 -201 -5 -220 -9 -33 -12 -35 -56
-38 -42 -3 -47 -6 -47 -28 l0 -24 160 0 160 0 0 25 c0 23 -4 25 -42 25 -24 0
-48 4 -55 8 -8 5 -12 73 -15 222 -3 193 -5 218 -23 249 -34 58 -67 75 -149 79
-88 5 -128 -11 -181 -69 -19 -21 -37 -39 -39 -39 -2 0 -7 11 -10 25 -3 13 -23
37 -43 52 -30 23 -48 28 -109 31 -91 5 -148 -19 -194 -81 l-30 -41 0 62 0 62
-57 -2 c-32 -1 -77 -3 -100 -5z"/>
<path d="M1540 5914 l0 -3087 -48 46 c-56 52 -100 77 -137 77 -41 0 -33 -36
15 -60 56 -28 110 -80 156 -145 20 -30 43 -55 51 -55 7 0 25 19 39 42 37 58
114 132 163 157 50 26 58 61 12 61 -32 0 -87 -34 -143 -88 l-38 -36 0 3087 0
3087 -35 0 -35 0 0 -3086z"/>
<path d="M13350 5914 l0 -2907 -55 52 c-82 77 -155 102 -155 51 0 -13 11 -24
35 -34 42 -18 127 -96 167 -153 16 -24 37 -43 46 -43 9 0 32 23 51 51 39 58
97 111 156 144 42 23 50 41 24 58 -22 14 -79 -16 -145 -76 l-54 -49 0 2906 0
2906 -35 0 -35 0 0 -2906z"/>
<path d="M13093 2383 c-59 -4 -63 -6 -63 -28 0 -20 6 -24 43 -30 23 -4 48 -12
55 -17 9 -8 12 -109 12 -444 l0 -434 25 0 c18 0 29 9 41 33 9 17 18 34 20 36
2 2 21 -12 43 -32 99 -90 264 -68 370 49 65 71 85 131 79 233 -8 127 -82 234
-191 276 -72 27 -170 18 -236 -22 l-51 -32 0 209 0 210 -42 -2 c-24 -1 -71 -3
-105 -5z m398 -399 c69 -35 109 -127 109 -254 0 -135 -39 -219 -121 -260 -72
-37 -139 -22 -198 45 l-31 36 0 175 c0 194 3 206 67 245 63 39 115 43 174 13z"/>
<path d="M1442 2217 c-87 -33 -139 -115 -110 -174 19 -41 61 -52 96 -26 41 30
42 71 2 105 l-32 26 40 21 c60 31 132 28 172 -5 41 -35 58 -71 66 -137 l6 -54
-78 -6 c-115 -9 -197 -40 -255 -96 -107 -104 -79 -223 63 -266 100 -29 179
-14 238 45 35 35 40 37 45 20 11 -36 63 -70 107 -70 32 0 47 7 74 34 32 32 34
38 34 105 0 64 -2 71 -20 71 -18 0 -20 -7 -20 -63 0 -49 -4 -68 -18 -80 -25
-23 -38 -21 -56 5 -13 18 -16 56 -16 203 -1 235 -11 266 -109 323 -34 20 -60
26 -120 29 -44 1 -90 -3 -109 -10z m238 -348 c0 -123 -22 -176 -91 -218 -86
-52 -189 2 -189 99 0 98 108 174 268 189 8 1 12 -19 12 -70z"/>
<path d="M12267 2153 c-24 -23 8 -90 76 -160 l51 -53 -4992 0 -4992 0 0 -30 0
-30 4992 0 4992 0 -51 -52 c-57 -59 -86 -109 -81 -141 5 -38 37 -33 54 8 18
44 90 123 156 171 55 41 59 58 20 78 -50 26 -133 108 -164 163 -28 49 -45 62
-61 46z"/>
<path d="M7504 1426 c-56 -18 -97 -50 -125 -99 -20 -36 -24 -59 -27 -154 l-4
-113 -54 0 c-51 0 -54 -1 -54 -25 0 -24 3 -25 55 -25 l55 0 0 -238 c0 -172 -3
-241 -12 -250 -7 -7 -31 -12 -55 -12 -39 0 -43 -2 -43 -25 l0 -25 170 0 170 0
0 25 c0 24 -3 25 -53 25 -29 0 -58 5 -65 12 -9 9 -12 78 -12 250 l0 238 80 0
c79 0 80 0 80 25 0 25 -1 25 -80 25 l-80 0 0 110 c0 117 13 162 57 202 37 34
105 34 72 1 -20 -20 -6 -76 23 -92 58 -33 116 25 86 85 -29 59 -107 85 -184
60z"/>
</g>
</svg>
