<?xml version="1.0" standalone="no"?>
<!DOCTYPE svg PUBLIC "-//W3C//DTD SVG 20010904//EN"
 "http://www.w3.org/TR/2001/REC-SVG-20010904/DTD/svg10.dtd">
<svg version="1.0" xmlns="http://www.w3.org/2000/svg"
 width="2731.000000pt" height="1073.000000pt" viewBox="0 0 2731.000000 1073.000000"
 preserveAspectRatio="xMidYMid meet">
<metadata>
Created by potrace 1.16, written by Peter Selinger 2001-2019
</metadata>
<g transform="translate(0.000000,1073.000000) scale(0.100000,-0.100000)"
fill="#000000" stroke="none">
<path d="M12753 10253 c-59 -4 -63 -6 -63 -28 0 -20 6 -24 43 -30 23 -4 48
-12 55 -17 9 -8 12 -103 12 -413 0 -449 6 -415 -71 -415 -35 0 -39 -3 -39 -25
l0 -25 155 0 155 0 0 24 c0 23 -5 25 -47 28 l-48 3 -3 96 -3 97 41 32 c23 18
45 29 49 24 18 -21 129 -181 140 -202 16 -30 8 -52 -19 -52 -15 0 -20 -7 -20
-25 l0 -25 140 0 140 0 0 25 c0 22 -4 25 -35 25 -45 0 -74 31 -195 202 l-89
127 52 44 c90 76 136 105 187 117 41 10 50 16 50 33 0 21 -4 22 -130 24 -129
1 -130 1 -130 -22 0 -12 10 -29 22 -37 33 -22 18 -44 -97 -143 l-100 -86 -3
325 -2 326 -43 -2 c-23 -1 -70 -3 -104 -5z"/>
<path d="M945 9448 c-3 -7 -69 -200 -148 -428 -79 -228 -149 -425 -156 -438
-17 -32 -70 -62 -108 -62 -28 0 -33 -3 -33 -25 l0 -25 155 0 155 0 0 25 c0 20
-5 25 -26 25 -14 0 -34 5 -45 11 -37 20 -38 48 -4 149 l32 95 169 3 170 2 38
-116 c37 -112 38 -118 20 -131 -10 -7 -35 -13 -56 -13 -34 0 -38 -3 -38 -25
l0 -25 190 0 190 0 0 25 c0 23 -3 25 -48 25 -27 0 -56 6 -65 13 -10 7 -82 199
-172 460 -85 247 -158 453 -161 458 -8 14 -54 11 -59 -3z m65 -397 c38 -112
70 -208 70 -212 0 -5 -66 -9 -146 -9 -113 0 -145 3 -142 13 3 6 36 103 74 214
38 111 70 201 71 199 1 -1 34 -93 73 -205z"/>
<path d="M25205 9448 c-3 -7 -69 -200 -148 -428 -79 -228 -149 -425 -156 -438
-17 -32 -70 -62 -108 -62 -28 0 -33 -3 -33 -25 l0 -25 155 0 155 0 0 25 c0 20
-5 25 -26 25 -14 0 -34 5 -45 11 -37 20 -38 48 -4 149 l32 95 169 3 170 2 38
-116 c37 -112 38 -118 20 -131 -10 -7 -35 -13 -56 -13 -34 0 -38 -3 -38 -25
l0 -25 190 0 190 0 0 25 c0 23 -3 25 -48 25 -27 0 -56 6 -65 13 -10 7 -82 199
-172 460 -85 247 -158 453 -161 458 -8 14 -54 11 -59 -3z m65 -397 c38 -112
70 -208 70 -212 0 -5 -66 -9 -146 -9 -113 0 -145 3 -142 13 3 6 36 103 74 214
38 111 70 201 71 199 1 -1 34 -93 73 -205z"/>
<path d="M1603 9423 c-59 -4 -63 -6 -63 -28 0 -21 6 -25 45 -31 29 -4 49 -13
55 -25 15 -28 13 -792 -2 -807 -7 -7 -31 -12 -55 -12 -39 0 -43 -2 -43 -25 l0
-25 160 0 160 0 0 25 c0 23 -4 25 -43 25 -24 0 -48 5 -55 12 -9 9 -12 124 -12
455 l0 443 -42 -2 c-24 -1 -71 -3 -105 -5z"/>
<path d="M25863 9423 c-59 -4 -63 -6 -63 -28 0 -21 6 -25 45 -31 29 -4 49 -13
55 -25 15 -28 13 -792 -2 -807 -7 -7 -31 -12 -55 -12 -39 0 -43 -2 -43 -25 l0
-25 160 0 160 0 0 25 c0 23 -4 25 -43 25 -24 0 -48 5 -55 12 -9 9 -12 124 -12
455 l0 443 -42 -2 c-24 -1 -71 -3 -105 -5z"/>
<path d="M23500 9396 c0 -21 6 -24 57 -30 31 -4 63 -12 70 -18 10 -8 13 -88
13 -389 l0 -378 -23 -26 c-17 -20 -35 -28 -70 -32 -41 -5 -47 -8 -47 -29 l0
-24 165 0 165 0 0 25 c0 22 -4 25 -35 25 -47 0 -93 25 -100 53 -3 12 -4 184
-3 382 l3 360 149 -385 c82 -212 155 -402 164 -423 11 -30 19 -37 36 -35 18 3
46 67 188 433 92 237 170 435 172 440 3 6 4 -174 3 -398 -2 -350 -4 -409 -17
-417 -8 -5 -41 -10 -72 -10 -55 0 -58 -1 -58 -25 l0 -25 205 0 205 0 0 25 c0
24 -3 25 -57 25 -32 0 -65 5 -73 10 -13 8 -15 65 -18 393 -2 233 1 394 7 410
9 22 17 26 75 32 61 7 66 9 66 31 l0 24 -135 0 c-129 0 -135 -1 -148 -22 -8
-13 -79 -190 -158 -395 -79 -205 -147 -369 -150 -365 -4 4 -72 178 -153 387
-81 209 -152 383 -159 387 -7 4 -69 8 -139 8 -128 0 -128 0 -128 -24z"/>
<path d="M2415 9088 c-16 -6 -42 -19 -57 -30 -27 -19 -28 -19 -67 2 -52 26
-150 27 -206 1 -79 -36 -125 -104 -125 -183 0 -43 29 -120 48 -132 7 -4 4 -23
-10 -53 -25 -56 -20 -121 11 -164 l21 -28 -27 -15 c-97 -50 -115 -157 -39
-224 132 -116 458 -100 543 27 40 59 26 158 -28 208 -49 45 -96 56 -250 62
-125 5 -150 9 -168 25 -26 23 -37 77 -22 105 11 21 13 21 44 4 21 -12 55 -18
102 -18 82 0 139 26 189 88 25 31 31 49 34 102 4 53 0 71 -17 100 -11 20 -21
40 -21 45 0 13 39 37 72 45 24 6 27 4 30 -26 6 -64 70 -65 76 -1 6 61 -54 88
-133 60z m-162 -68 c36 -28 50 -79 45 -166 -3 -68 -6 -77 -36 -107 -27 -26
-40 -32 -76 -32 -82 0 -123 70 -113 192 5 64 22 99 59 120 35 19 92 16 121 -7z
m133 -569 c72 -32 86 -95 34 -155 -43 -48 -108 -71 -200 -71 -124 1 -223 62
-223 137 0 43 24 79 68 100 35 17 55 18 159 13 85 -4 132 -11 162 -24z"/>
<path d="M26675 9088 c-16 -6 -42 -19 -57 -30 -27 -19 -28 -19 -67 2 -52 26
-150 27 -206 1 -79 -36 -125 -104 -125 -183 0 -43 29 -120 48 -132 7 -4 4 -23
-10 -53 -25 -56 -20 -121 11 -164 l21 -28 -27 -15 c-97 -50 -115 -157 -39
-224 132 -116 458 -100 543 27 40 59 26 158 -28 208 -49 45 -96 56 -250 62
-125 5 -150 9 -168 25 -26 23 -37 77 -22 105 11 21 13 21 44 4 21 -12 55 -18
102 -18 82 0 139 26 189 88 25 31 31 49 34 102 4 53 0 71 -17 100 -11 20 -21
40 -21 45 0 13 39 37 72 45 24 6 27 4 30 -26 6 -64 70 -65 76 -1 6 61 -54 88
-133 60z m-162 -68 c36 -28 50 -79 45 -166 -3 -68 -6 -77 -36 -107 -27 -26
-40 -32 -76 -32 -82 0 -123 70 -113 192 5 64 22 99 59 120 35 19 92 16 121 -7z
m133 -569 c72 -32 86 -95 34 -155 -43 -48 -108 -71 -200 -71 -124 1 -223 62
-223 137 0 43 24 79 68 100 35 17 55 18 159 13 85 -4 132 -11 162 -24z"/>
<path d="M22704 9046 c-9 -23 25 -83 79 -142 l49 -54 -9876 0 -9876 0 0 -35 0
-35 9876 0 9877 0 -52 -55 c-76 -80 -101 -155 -51 -155 12 0 26 16 40 45 22
45 124 148 166 167 13 6 25 17 28 25 6 14 4 16 -82 83 -53 41 -106 106 -123
148 -10 25 -46 30 -55 8z"/>
<path d="M3190 8485 c-8 -16 -10 -29 -4 -34 5 -5 1977 -1347 4382 -2982 l4373
-2973 -66 -13 c-80 -15 -149 -50 -153 -79 -5 -34 20 -34 86 -2 52 26 77 32
158 36 61 3 97 9 100 17 3 6 -7 47 -22 91 -20 60 -27 99 -27 162 0 78 -1 82
-22 82 -15 0 -25 -8 -29 -22 -9 -34 -7 -117 4 -163 5 -22 7 -41 5 -43 -1 -2
-1972 1336 -4379 2972 -2406 1637 -4379 2976 -4384 2976 -5 0 -15 -11 -22 -25z"/>
<path d="M18881 5335 c-2296 -1531 -4176 -2783 -4177 -2782 -2 1 1 20 6 42 23
100 5 207 -32 193 -12 -5 -15 -25 -16 -90 0 -60 -6 -100 -22 -143 -12 -33 -23
-73 -24 -90 -1 -26 2 -30 24 -28 60 4 185 -21 236 -47 44 -23 56 -26 70 -16
39 29 -48 88 -151 103 -25 3 -45 9 -45 13 0 4 1881 1261 4181 2794 4104 2736
4180 2788 4166 2809 -8 12 -21 23 -28 24 -8 1 -1893 -1251 -4188 -2782z"/>
<path d="M3344 7839 c-38 -23 -150 -49 -216 -49 -26 0 -49 -4 -52 -8 -3 -5 7
-37 21 -73 20 -50 27 -87 31 -166 4 -93 7 -103 24 -103 28 0 41 45 34 125 -3
39 -9 81 -12 93 -5 18 1058 -686 4346 -2878 3312 -2208 4355 -2899 4362 -2888
5 7 13 20 18 29 8 14 -712 497 -4342 2917 -3909 2606 -4348 2901 -4322 2907
122 25 184 56 184 90 0 31 -30 33 -76 4z"/>
<path d="M23161 7786 c-6 -7 -9 -21 -5 -29 9 -23 100 -66 156 -73 26 -4 48
-10 48 -14 0 -4 -1933 -1295 -4295 -2870 -2362 -1575 -4295 -2866 -4295 -2869
0 -3 9 -17 19 -30 l18 -23 4289 2859 c2359 1573 4295 2863 4303 2868 11 6 13
4 7 -11 -4 -10 -10 -55 -13 -100 -6 -87 6 -128 35 -122 14 3 17 17 18 88 1 64
8 104 29 163 31 90 28 111 -12 103 -44 -10 -189 20 -238 48 -51 30 -49 30 -64
12z"/>
<path d="M8160 6884 c0 -19 8 -22 58 -28 31 -4 62 -10 69 -14 8 -5 12 -96 15
-327 l3 -320 33 -67 c63 -128 174 -198 316 -198 128 0 230 69 288 196 22 47
23 63 28 367 5 304 6 319 25 333 11 8 30 17 43 19 12 3 33 7 47 10 18 4 25 12
25 28 0 22 -1 22 -165 22 -162 0 -165 0 -165 -21 0 -22 17 -34 50 -34 33 0 68
-22 80 -50 8 -18 10 -118 8 -316 -3 -287 -3 -289 -29 -344 -52 -110 -140 -166
-248 -158 -108 8 -179 84 -200 218 -13 81 -14 590 -2 623 9 22 18 26 75 32 59
7 66 10 66 29 0 21 -2 21 -210 21 -207 0 -210 0 -210 -21z"/>
<path d="M14900 6624 c0 -19 8 -22 58 -28 31 -4 62 -10 69 -14 8 -5 12 -96 15
-327 l3 -320 33 -67 c63 -128 174 -198 316 -198 128 0 230 69 288 196 22 47
23 63 28 367 5 304 6 319 25 333 11 8 30 17 43 19 12 3 33 7 47 10 18 4 25 12
25 28 0 22 -1 22 -165 22 -162 0 -165 0 -165 -21 0 -22 17 -34 50 -34 33 0 68
-22 80 -50 8 -18 10 -118 8 -316 -3 -287 -3 -289 -29 -344 -52 -110 -140 -166
-248 -158 -108 8 -179 84 -200 218 -13 81 -14 590 -2 623 9 22 18 26 75 32 59
7 66 10 66 29 0 21 -2 21 -210 21 -207 0 -210 0 -210 -21z"/>
<path d="M17271 6168 c-100 -255 -226 -569 -236 -589 -14 -27 -53 -49 -85 -49
-13 0 -20 -7 -20 -20 0 -19 7 -20 115 -20 104 0 115 2 115 18 0 12 -11 21 -32
27 -30 9 -33 14 -32 45 1 19 11 56 22 83 l21 47 134 0 134 0 30 -77 c34 -86
31 -103 -18 -103 -22 0 -29 -5 -29 -20 0 -19 7 -20 140 -20 133 0 140 1 140
20 0 16 -7 20 -33 20 -18 0 -40 6 -49 13 -8 6 -68 147 -133 312 -65 165 -122
308 -127 318 -13 24 -47 21 -57 -5z m62 -273 l54 -140 -110 -3 c-60 -1 -112 0
-115 3 -3 3 12 49 33 103 57 144 75 185 80 181 2 -3 28 -67 58 -144z"/>
<path d="M17793 6163 c-25 -3 -33 -9 -33 -24 0 -13 7 -19 23 -19 48 0 47 1 45
-301 l-3 -284 -32 -3 c-25 -2 -33 -8 -33 -23 0 -18 8 -19 115 -19 108 0 115 1
115 20 0 16 -7 20 -30 20 -19 0 -33 7 -40 19 -6 12 -10 132 -10 320 l0 301
-42 -2 c-24 0 -58 -3 -75 -5z"/>
<path d="M15950 6140 c0 -16 7 -20 31 -20 17 0 39 -5 50 -10 18 -10 19 -24 19
-273 0 -144 -4 -267 -8 -273 -11 -16 -48 -34 -71 -34 -14 0 -21 -6 -21 -20 0
-19 7 -20 120 -20 113 0 120 1 120 20 0 13 -7 20 -20 20 -32 0 -70 22 -76 44
-2 12 -3 131 -2 266 l3 245 125 -295 c103 -243 129 -296 146 -298 23 -3 13
-24 215 456 l64 152 3 -271 c2 -192 -1 -276 -9 -285 -6 -8 -29 -14 -50 -14
-32 0 -39 -3 -39 -20 0 -19 7 -20 145 -20 137 0 145 1 145 19 0 17 -8 20 -47
23 l-48 3 -3 284 c-2 221 1 286 10 293 7 4 30 8 51 8 30 0 37 4 37 20 0 20 -5
21 -106 18 l-106 -3 -117 -277 c-64 -152 -119 -274 -122 -270 -3 4 -52 117
-109 252 -56 135 -109 257 -117 273 -13 27 -14 27 -113 27 -93 0 -100 -1 -100
-20z"/>
<path d="M18413 5914 c-26 -13 -39 -14 -64 -5 -18 6 -57 11 -88 11 -130 -1
-210 -112 -150 -209 17 -28 19 -39 10 -58 -15 -33 -14 -79 4 -113 14 -26 13
-29 -3 -35 -35 -10 -66 -54 -66 -90 0 -74 96 -125 238 -125 195 0 294 86 226
198 -31 50 -77 65 -214 72 -114 5 -120 6 -139 31 -12 17 -17 34 -13 47 7 19 9
20 41 6 77 -32 187 -4 225 58 24 39 27 114 5 145 -17 24 -7 37 38 48 24 6 27
4 27 -18 0 -26 20 -40 44 -31 23 9 28 35 11 60 -12 19 -24 24 -58 24 -23 0
-56 -8 -74 -16z m-103 -39 c35 -18 56 -76 46 -129 -13 -71 -102 -101 -151 -51
-20 19 -25 34 -25 77 0 58 18 94 54 108 31 13 44 12 76 -5z m128 -412 c62 -46
22 -111 -83 -133 -64 -13 -123 -6 -177 21 -65 33 -73 78 -20 120 25 19 36 21
140 17 93 -4 117 -8 140 -25z"/>
<path d="M23655 4798 c-3 -7 -69 -200 -148 -428 -79 -228 -149 -425 -156 -438
-17 -32 -70 -62 -108 -62 -28 0 -33 -3 -33 -25 l0 -25 155 0 155 0 0 25 c0 20
-5 25 -26 25 -14 0 -34 5 -45 11 -37 20 -38 48 -4 149 l32 95 169 3 170 2 38
-116 c37 -112 38 -118 20 -131 -10 -7 -35 -13 -56 -13 -34 0 -38 -3 -38 -25
l0 -25 190 0 190 0 0 25 c0 23 -3 25 -48 25 -27 0 -56 6 -65 13 -10 7 -82 199
-172 460 -85 247 -158 453 -161 458 -8 14 -54 11 -59 -3z m65 -397 c38 -112
70 -208 70 -212 0 -5 -66 -9 -146 -9 -113 0 -145 3 -142 13 3 6 36 103 74 214
38 111 70 201 71 199 1 -1 34 -93 73 -205z"/>
<path d="M24313 4773 c-59 -4 -63 -6 -63 -28 0 -21 6 -25 45 -31 29 -4 49 -13
55 -25 15 -28 13 -792 -2 -807 -7 -7 -31 -12 -55 -12 -39 0 -43 -2 -43 -25 l0
-25 160 0 160 0 0 25 c0 23 -4 25 -43 25 -24 0 -48 5 -55 12 -9 9 -12 124 -12
455 l0 443 -42 -2 c-24 -1 -71 -3 -105 -5z"/>
<path d="M21950 4746 c0 -21 6 -24 57 -30 31 -4 63 -12 70 -18 10 -8 13 -88
13 -389 l0 -378 -23 -26 c-17 -20 -35 -28 -70 -32 -41 -5 -47 -8 -47 -29 l0
-24 165 0 165 0 0 25 c0 22 -4 25 -35 25 -47 0 -93 25 -100 53 -3 12 -4 184
-3 382 l3 360 149 -385 c82 -212 155 -402 164 -423 11 -30 19 -37 36 -35 18 3
46 67 188 433 92 237 170 435 172 440 3 6 4 -174 3 -398 -2 -350 -4 -409 -17
-417 -8 -5 -41 -10 -72 -10 -55 0 -58 -1 -58 -25 l0 -25 205 0 205 0 0 25 c0
24 -3 25 -57 25 -32 0 -65 5 -73 10 -13 8 -15 65 -18 393 -2 233 1 394 7 410
9 22 17 26 75 32 61 7 66 9 66 31 l0 24 -135 0 c-129 0 -135 -1 -148 -22 -8
-13 -79 -190 -158 -395 -79 -205 -147 -369 -150 -365 -4 4 -72 178 -153 387
-81 209 -152 383 -159 387 -7 4 -69 8 -139 8 -128 0 -128 0 -128 -24z"/>
<path d="M19380 4735 c0 -23 3 -25 51 -25 96 0 89 34 89 -418 0 -296 -3 -401
-12 -410 -7 -7 -38 -12 -70 -12 -55 0 -58 -1 -58 -25 l0 -25 225 0 225 0 0 25
c0 24 -2 25 -70 25 -109 0 -110 1 -110 215 l0 175 99 0 c90 0 103 -2 127 -23
22 -19 28 -34 32 -80 4 -47 8 -57 23 -57 18 0 19 11 19 190 0 179 -1 190 -19
190 -15 0 -19 -10 -23 -57 -4 -46 -10 -61 -32 -80 -24 -21 -37 -23 -127 -23
l-99 0 0 178 c0 131 3 183 13 196 12 16 29 17 173 14 179 -4 222 -17 258 -78
21 -37 46 -123 46 -162 0 -23 5 -28 23 -28 l23 0 -17 143 c-10 78 -18 150 -19
160 0 16 -25 17 -385 17 l-385 0 0 -25z"/>
<path d="M25125 4438 c-16 -6 -42 -19 -57 -30 -27 -19 -28 -19 -67 2 -52 26
-150 27 -206 1 -79 -36 -125 -104 -125 -183 0 -43 29 -120 48 -132 7 -4 4 -23
-10 -53 -25 -56 -20 -121 11 -164 l21 -28 -27 -15 c-97 -50 -115 -157 -39
-224 132 -116 458 -100 543 27 40 59 26 158 -28 208 -49 45 -96 56 -250 62
-125 5 -150 9 -168 25 -26 23 -37 77 -22 105 11 21 13 21 44 4 21 -12 55 -18
102 -18 82 0 139 26 189 88 25 31 31 49 34 102 4 53 0 71 -17 100 -11 20 -21
40 -21 45 0 13 39 37 72 45 24 6 27 4 30 -26 6 -64 70 -65 76 -1 6 61 -54 88
-133 60z m-162 -68 c36 -28 50 -79 45 -166 -3 -68 -6 -77 -36 -107 -27 -26
-40 -32 -76 -32 -82 0 -123 70 -113 192 5 64 22 99 59 120 35 19 92 16 121 -7z
m133 -569 c72 -32 86 -95 34 -155 -43 -48 -108 -71 -200 -71 -124 1 -223 62
-223 137 0 43 24 79 68 100 35 17 55 18 159 13 85 -4 132 -11 162 -24z"/>
<path d="M20871 4409 c-130 -65 -195 -229 -152 -385 37 -138 192 -241 332
-220 86 13 175 90 194 169 6 23 4 27 -13 27 -14 0 -27 -14 -42 -45 -26 -54
-69 -89 -127 -104 -123 -33 -233 81 -233 241 l0 48 208 2 207 3 -3 54 c-11
197 -192 299 -371 210z m189 -24 c34 -18 75 -99 85 -167 l6 -48 -162 0 -162 0
7 47 c19 140 126 220 226 168z"/>
<path d="M21481 4409 c-130 -65 -195 -229 -152 -385 37 -138 192 -241 332
-220 86 13 175 90 194 169 6 23 4 27 -13 27 -14 0 -27 -14 -42 -45 -26 -54
-69 -89 -127 -104 -123 -33 -233 81 -233 241 l0 48 208 2 207 3 -3 54 c-11
197 -192 299 -371 210z m189 -24 c34 -18 75 -99 85 -167 l6 -48 -162 0 -162 0
7 47 c19 140 126 220 226 168z"/>
<path d="M20208 4423 c-43 -4 -48 -7 -48 -29 0 -21 5 -24 33 -24 18 0 43 -7
55 -16 22 -15 22 -19 22 -243 0 -255 4 -241 -71 -241 -35 0 -39 -3 -39 -25 l0
-25 170 0 170 0 0 25 c0 23 -3 25 -48 25 -84 0 -85 1 -80 196 3 157 5 173 29
225 26 55 63 91 106 101 20 5 21 4 12 -13 -17 -32 -7 -72 22 -88 82 -46 134
73 54 125 -19 12 -40 15 -80 12 -46 -4 -62 -10 -90 -38 -19 -18 -41 -47 -49
-64 l-16 -31 0 68 0 67 -52 -2 c-29 -1 -74 -3 -100 -5z"/>
<path d="M25763 4423 c-37 -4 -43 -7 -43 -27 0 -20 6 -24 42 -29 23 -3 48 -14
55 -23 16 -22 19 -425 3 -455 -8 -14 -21 -19 -55 -19 -41 0 -45 -2 -45 -25 l0
-25 160 0 160 0 0 25 c0 23 -4 25 -43 25 -24 0 -48 5 -55 12 -8 8 -12 60 -12
168 0 191 12 241 69 293 69 62 145 68 185 13 19 -25 21 -43 24 -243 2 -154 0
-219 -9 -229 -7 -8 -30 -14 -55 -14 -40 0 -44 -2 -44 -25 l0 -25 160 0 160 0
0 25 c0 23 -4 25 -45 25 -60 0 -65 15 -65 180 0 145 11 215 43 261 63 93 184
112 224 35 13 -25 18 -69 21 -216 2 -102 0 -201 -5 -220 -9 -33 -12 -35 -56
-38 -42 -3 -47 -6 -47 -28 l0 -24 160 0 160 0 0 25 c0 23 -4 25 -42 25 -24 0
-48 4 -55 8 -8 5 -12 73 -15 222 -3 193 -5 218 -23 249 -34 58 -67 75 -149 79
-88 5 -128 -11 -181 -69 -19 -21 -37 -39 -39 -39 -2 0 -7 11 -10 25 -3 13 -23
37 -43 52 -30 23 -48 28 -109 31 -91 5 -148 -19 -194 -81 l-30 -41 0 62 0 62
-57 -2 c-32 -1 -77 -3 -100 -5z"/>
<path d="M6130 4325 c0 -23 3 -25 51 -25 96 0 89 34 89 -418 0 -296 -3 -401
-12 -410 -7 -7 -38 -12 -70 -12 -55 0 -58 -1 -58 -25 l0 -25 225 0 225 0 0 25
c0 24 -2 25 -70 25 -109 0 -110 1 -110 215 l0 175 99 0 c90 0 103 -2 127 -23
22 -19 28 -34 32 -80 4 -47 8 -57 23 -57 18 0 19 11 19 190 0 179 -1 190 -19
190 -15 0 -19 -10 -23 -57 -4 -46 -10 -61 -32 -80 -24 -21 -37 -23 -127 -23
l-99 0 0 178 c0 131 3 183 13 196 12 16 29 17 173 14 179 -4 222 -17 258 -78
21 -37 46 -123 46 -162 0 -23 5 -28 23 -28 l23 0 -17 143 c-10 78 -18 150 -19
160 0 16 -25 17 -385 17 l-385 0 0 -25z"/>
<path d="M14203 1413 c-59 -4 -63 -6 -63 -28 0 -20 6 -24 43 -30 23 -4 48 -12
55 -17 9 -8 12 -103 12 -413 0 -449 6 -415 -71 -415 -35 0 -39 -3 -39 -25 l0
-25 155 0 155 0 0 24 c0 23 -5 25 -47 28 l-48 3 -3 96 -3 97 41 32 c23 18 45
29 49 24 18 -21 129 -181 140 -202 16 -30 8 -52 -19 -52 -15 0 -20 -7 -20 -25
l0 -25 140 0 140 0 0 25 c0 22 -4 25 -35 25 -45 0 -74 31 -195 202 l-89 127
52 44 c90 76 136 105 187 117 41 10 50 16 50 33 0 21 -4 22 -130 24 -129 1
-130 1 -130 -22 0 -12 10 -29 22 -37 33 -22 18 -44 -97 -143 l-100 -86 -3 325
-2 326 -43 -2 c-23 -1 -70 -3 -104 -5z"/>
<path d="M11880 1384 c0 -18 8 -22 54 -28 95 -11 86 33 86 -420 0 -299 -3
-405 -12 -414 -7 -7 -38 -12 -70 -12 -55 0 -58 -1 -58 -25 l0 -25 210 0 210 0
0 25 c0 24 -3 25 -57 25 -32 0 -65 5 -73 10 -12 8 -16 45 -18 210 l-3 200 205
0 206 0 0 -200 c0 -228 3 -220 -89 -220 -48 0 -51 -2 -51 -25 l0 -25 205 0
205 0 0 25 c0 24 -3 25 -58 25 -32 0 -63 5 -70 12 -18 18 -17 801 1 816 7 6
39 14 70 18 49 6 57 10 57 28 0 21 -3 21 -205 21 -202 0 -205 0 -205 -21 0
-18 8 -22 57 -28 31 -4 63 -12 70 -18 10 -8 13 -53 13 -184 l0 -174 -205 0
-205 0 0 159 c0 88 4 171 9 184 9 22 18 26 75 32 59 7 66 10 66 29 0 21 -2 21
-210 21 -207 0 -210 0 -210 -21z"/>
<path d="M13082 1067 c-87 -33 -139 -115 -110 -174 19 -41 61 -52 96 -26 41
30 42 71 2 105 l-32 26 40 21 c60 31 132 28 172 -5 41 -35 58 -71 66 -137 l6
-54 -78 -6 c-115 -9 -197 -40 -255 -96 -107 -104 -79 -223 63 -266 100 -29
179 -14 238 45 35 35 40 37 45 20 11 -36 63 -70 107 -70 32 0 47 7 74 34 32
32 34 38 34 105 0 64 -2 71 -20 71 -18 0 -20 -7 -20 -63 0 -49 -4 -68 -18 -80
-25 -23 -38 -21 -56 5 -13 18 -16 56 -16 203 -1 235 -11 266 -109 323 -34 20
-60 26 -120 29 -44 1 -90 -3 -109 -10z m238 -348 c0 -123 -22 -176 -91 -218
-86 -52 -189 2 -189 99 0 98 108 174 268 189 8 1 12 -19 12 -70z"/>
<path d="M13727 1065 c-98 -34 -142 -133 -101 -222 27 -55 70 -80 193 -112
135 -34 176 -64 176 -129 0 -80 -65 -128 -163 -120 -84 7 -137 60 -168 165
-12 41 -20 53 -32 51 -15 -3 -17 -20 -17 -127 0 -140 7 -152 54 -101 20 22 31
28 36 20 13 -22 89 -50 136 -50 173 -1 275 133 210 276 -29 63 -73 90 -200
122 -126 32 -161 56 -161 107 0 48 32 81 90 95 103 25 191 -20 205 -106 10
-59 13 -66 32 -62 16 3 18 17 21 101 2 81 0 98 -13 103 -9 4 -24 -1 -35 -11
-18 -16 -22 -16 -60 -1 -49 19 -151 20 -203 1z"/>
</g>
</svg>
