<?xml version="1.0" standalone="no"?>
<!DOCTYPE svg PUBLIC "-//W3C//DTD SVG 20010904//EN"
 "http://www.w3.org/TR/2001/REC-SVG-20010904/DTD/svg10.dtd">
<svg version="1.0" xmlns="http://www.w3.org/2000/svg"
 width="2677.000000pt" height="1081.000000pt" viewBox="0 0 2677.000000 1081.000000"
 preserveAspectRatio="xMidYMid meet">
<metadata>
Created by potrace 1.16, written by Peter Selinger 2001-2019
</metadata>
<g transform="translate(0.000000,1081.000000) scale(0.100000,-0.100000)"
fill="#000000" stroke="none">
<path d="M16654 10356 c-56 -18 -97 -50 -125 -99 -20 -36 -24 -59 -27 -154
l-4 -113 -54 0 c-51 0 -54 -1 -54 -25 0 -24 3 -25 55 -25 l55 0 0 -238 c0
-172 -3 -241 -12 -250 -7 -7 -31 -12 -55 -12 -39 0 -43 -2 -43 -25 l0 -25 170
0 170 0 0 25 c0 24 -3 25 -53 25 -29 0 -58 5 -65 12 -9 9 -12 78 -12 250 l0
238 80 0 c79 0 80 0 80 25 0 25 -1 25 -80 25 l-80 0 0 110 c0 117 13 162 57
202 37 34 105 34 72 1 -20 -20 -6 -76 23 -92 58 -33 116 25 86 85 -29 59 -107
85 -184 60z"/>
<path d="M21125 10185 c-13 -106 -86 -205 -151 -205 -17 0 -24 -6 -24 -20 0
-18 7 -20 60 -20 l60 0 0 -218 c0 -206 1 -220 23 -262 27 -54 68 -80 139 -86
102 -10 157 58 158 194 0 65 -2 72 -20 72 -18 0 -20 -7 -20 -62 -1 -116 -54
-186 -118 -156 -51 25 -57 53 -60 296 l-3 222 100 0 101 0 0 25 0 25 -100 0
-100 0 0 125 c0 116 -1 125 -19 125 -15 0 -20 -10 -26 -55z"/>
<path d="M18132 9997 c-87 -33 -139 -115 -110 -174 19 -41 61 -52 96 -26 41
30 42 71 2 105 l-32 26 40 21 c60 31 132 28 172 -5 41 -35 58 -71 66 -137 l6
-54 -78 -6 c-115 -9 -197 -40 -255 -96 -107 -104 -79 -223 63 -266 100 -29
179 -14 238 45 35 35 40 37 45 20 11 -36 63 -70 107 -70 32 0 47 7 74 34 32
32 34 38 34 105 0 64 -2 71 -20 71 -18 0 -20 -7 -20 -63 0 -49 -4 -68 -18 -80
-25 -23 -38 -21 -56 5 -13 18 -16 56 -16 203 -1 235 -11 266 -109 323 -34 20
-60 26 -120 29 -44 1 -90 -3 -109 -10z m238 -348 c0 -123 -22 -176 -91 -218
-86 -52 -189 2 -189 99 0 98 108 174 268 189 8 1 12 -19 12 -70z"/>
<path d="M20511 9979 c-130 -65 -195 -229 -152 -385 37 -138 192 -241 332
-220 86 13 175 90 194 169 6 23 4 27 -13 27 -14 0 -27 -14 -42 -45 -26 -54
-69 -89 -127 -104 -123 -33 -233 81 -233 241 l0 48 208 2 207 3 -3 54 c-11
197 -192 299 -371 210z m189 -24 c34 -18 75 -99 85 -167 l6 -48 -162 0 -162 0
7 47 c19 140 126 220 226 168z"/>
<path d="M16853 9993 c-37 -4 -43 -7 -43 -27 0 -20 6 -24 42 -29 23 -3 48 -14
55 -23 16 -22 19 -425 3 -455 -8 -14 -21 -19 -55 -19 -41 0 -45 -2 -45 -25 l0
-25 160 0 160 0 0 25 c0 23 -4 25 -43 25 -24 0 -48 5 -55 12 -8 8 -12 60 -12
168 0 191 12 241 69 293 69 62 145 68 185 13 19 -25 21 -43 24 -243 2 -154 0
-219 -9 -229 -7 -8 -30 -14 -55 -14 -40 0 -44 -2 -44 -25 l0 -25 160 0 160 0
0 25 c0 23 -4 25 -45 25 -60 0 -65 15 -65 180 0 145 11 215 43 261 63 93 184
112 224 35 13 -25 18 -69 21 -216 2 -102 0 -201 -5 -220 -9 -33 -12 -35 -56
-38 -42 -3 -47 -6 -47 -28 l0 -24 160 0 160 0 0 25 c0 23 -4 25 -42 25 -24 0
-48 4 -55 8 -8 5 -12 73 -15 222 -3 193 -5 218 -23 249 -34 58 -67 75 -149 79
-88 5 -128 -11 -181 -69 -19 -21 -37 -39 -39 -39 -2 0 -7 11 -10 25 -3 13 -23
37 -43 52 -30 23 -48 28 -109 31 -91 5 -148 -19 -194 -81 l-30 -41 0 62 0 62
-57 -2 c-32 -1 -77 -3 -100 -5z"/>
<path d="M18698 9993 c-43 -4 -48 -7 -48 -29 0 -20 5 -24 29 -24 16 0 41 -4
55 -10 l26 -10 0 -363 c0 -269 -3 -366 -12 -375 -7 -7 -31 -12 -55 -12 -39 0
-43 -2 -43 -25 l0 -25 160 0 160 0 0 25 c0 22 -4 25 -34 25 -67 0 -66 -1 -66
142 l0 130 30 -26 c93 -78 258 -50 359 60 58 63 81 123 81 210 0 87 -25 156
-79 216 -60 67 -126 98 -209 98 -71 0 -124 -19 -164 -57 l-28 -27 0 42 0 42
-57 -2 c-32 -1 -79 -3 -105 -5z m419 -62 c26 -19 51 -50 69 -88 26 -51 29 -69
29 -153 0 -84 -3 -102 -28 -152 -67 -137 -192 -167 -281 -68 l-36 40 0 178 0
178 33 31 c74 71 147 82 214 34z"/>
<path d="M19848 9993 c-43 -4 -48 -7 -48 -29 0 -21 5 -24 33 -24 18 0 43 -7
55 -16 22 -15 22 -19 22 -243 0 -255 4 -241 -71 -241 -35 0 -39 -3 -39 -25 l0
-25 170 0 170 0 0 25 c0 23 -3 25 -48 25 -84 0 -85 1 -80 196 3 157 5 173 29
225 26 55 63 91 106 101 20 5 21 4 12 -13 -17 -32 -7 -72 22 -88 82 -46 134
73 54 125 -19 12 -40 15 -80 12 -46 -4 -62 -10 -90 -38 -19 -18 -41 -47 -49
-64 l-16 -31 0 68 0 67 -52 -2 c-29 -1 -74 -3 -100 -5z"/>
<path d="M21548 9993 c-43 -4 -48 -7 -48 -29 0 -21 5 -24 33 -24 18 0 42 -6
53 -14 17 -13 19 -31 24 -228 4 -190 7 -217 25 -248 26 -45 80 -71 160 -78 78
-6 143 21 180 76 l25 37 0 -57 0 -57 88 5 c109 7 112 8 112 38 0 22 -5 25 -42
28 -66 5 -68 13 -68 306 l0 252 -37 0 c-21 0 -68 -3 -105 -7 -62 -5 -68 -8
-68 -28 0 -19 7 -23 40 -28 70 -9 70 -10 70 -197 0 -180 -10 -232 -53 -278
-64 -69 -176 -71 -212 -3 -12 25 -15 74 -15 286 l0 255 -57 -2 c-32 -1 -79 -3
-105 -5z"/>
<path d="M22308 9993 c-43 -4 -48 -7 -48 -29 0 -21 5 -24 33 -24 18 0 43 -7
55 -16 22 -15 22 -19 22 -243 0 -255 4 -241 -71 -241 -35 0 -39 -3 -39 -25 l0
-25 170 0 170 0 0 25 c0 23 -3 25 -48 25 -84 0 -85 1 -80 196 3 157 5 173 29
225 26 55 63 91 106 101 20 5 21 4 12 -13 -17 -32 -7 -72 22 -88 82 -46 134
73 54 125 -19 12 -40 15 -80 12 -46 -4 -62 -10 -90 -38 -19 -18 -41 -47 -49
-64 l-16 -31 0 68 0 67 -52 -2 c-29 -1 -74 -3 -100 -5z"/>
<path d="M22863 9993 c-37 -4 -43 -7 -43 -27 0 -20 6 -24 42 -29 23 -3 48 -14
55 -23 16 -22 19 -425 3 -455 -8 -14 -21 -19 -55 -19 -41 0 -45 -2 -45 -25 l0
-25 160 0 160 0 0 25 c0 23 -4 25 -43 25 -24 0 -48 5 -55 12 -8 8 -12 60 -12
168 0 191 12 241 69 293 69 62 145 68 185 13 19 -25 21 -43 24 -243 2 -154 0
-219 -9 -229 -7 -8 -30 -14 -55 -14 -40 0 -44 -2 -44 -25 l0 -25 160 0 160 0
0 25 c0 23 -4 25 -45 25 -34 0 -47 5 -55 19 -6 12 -10 102 -10 223 0 179 -2
207 -19 238 -30 57 -62 74 -146 78 -92 5 -149 -19 -195 -81 l-30 -41 0 62 0
62 -57 -2 c-32 -1 -77 -3 -100 -5z"/>
<path d="M6295 9915 c-13 -106 -86 -205 -151 -205 -17 0 -24 -6 -24 -20 0 -18
7 -20 60 -20 l60 0 0 -218 c0 -206 1 -220 23 -262 27 -54 68 -80 139 -86 102
-10 157 58 158 194 0 65 -2 72 -20 72 -18 0 -20 -7 -20 -62 -1 -116 -54 -186
-118 -156 -51 25 -57 53 -60 296 l-3 222 100 0 101 0 0 25 0 25 -100 0 -100 0
0 125 c0 116 -1 125 -19 125 -15 0 -20 -10 -26 -55z"/>
<path d="M5681 9709 c-130 -65 -195 -229 -152 -385 37 -138 192 -241 332 -220
86 13 175 90 194 169 6 23 4 27 -13 27 -14 0 -27 -14 -42 -45 -26 -54 -69 -89
-127 -104 -123 -33 -233 81 -233 241 l0 48 208 2 207 3 -3 54 c-11 197 -192
299 -371 210z m189 -24 c34 -18 75 -99 85 -167 l6 -48 -162 0 -162 0 7 47 c19
140 126 220 226 168z"/>
<path d="M5018 9723 c-43 -4 -48 -7 -48 -29 0 -21 5 -24 33 -24 18 0 43 -7 55
-16 22 -15 22 -19 22 -243 0 -255 4 -241 -71 -241 -35 0 -39 -3 -39 -25 l0
-25 170 0 170 0 0 25 c0 23 -3 25 -48 25 -84 0 -85 1 -80 196 3 157 5 173 29
225 26 55 63 91 106 101 20 5 21 4 12 -13 -17 -32 -7 -72 22 -88 82 -46 134
73 54 125 -19 12 -40 15 -80 12 -46 -4 -62 -10 -90 -38 -19 -18 -41 -47 -49
-64 l-16 -31 0 68 0 67 -52 -2 c-29 -1 -74 -3 -100 -5z"/>
<path d="M6728 9723 c-43 -4 -48 -7 -48 -29 0 -21 5 -24 33 -24 18 0 42 -6 53
-14 17 -13 19 -31 24 -228 4 -190 7 -217 25 -248 26 -45 80 -71 160 -78 78 -6
143 21 180 76 l25 37 0 -57 0 -57 88 5 c109 7 112 8 112 38 0 22 -5 25 -42 28
-66 5 -68 13 -68 306 l0 252 -37 0 c-21 0 -68 -3 -105 -7 -62 -5 -68 -8 -68
-28 0 -19 7 -23 40 -28 70 -9 70 -10 70 -197 0 -180 -10 -232 -53 -278 -64
-69 -176 -71 -212 -3 -12 25 -15 74 -15 286 l0 255 -57 -2 c-32 -1 -79 -3
-105 -5z"/>
<path d="M7478 9723 c-43 -4 -48 -7 -48 -29 0 -21 5 -24 33 -24 18 0 43 -7 55
-16 22 -15 22 -19 22 -243 0 -255 4 -241 -71 -241 -35 0 -39 -3 -39 -25 l0
-25 170 0 170 0 0 25 c0 23 -3 25 -48 25 -84 0 -85 1 -80 196 3 157 5 173 29
225 26 55 63 91 106 101 20 5 21 4 12 -13 -17 -32 -7 -72 22 -88 82 -46 134
73 54 125 -19 12 -40 15 -80 12 -46 -4 -62 -10 -90 -38 -19 -18 -41 -47 -49
-64 l-16 -31 0 68 0 67 -52 -2 c-29 -1 -74 -3 -100 -5z"/>
<path d="M8033 9723 c-37 -4 -43 -7 -43 -27 0 -20 6 -24 42 -29 23 -3 48 -14
55 -23 16 -22 19 -425 3 -455 -8 -14 -21 -19 -55 -19 -41 0 -45 -2 -45 -25 l0
-25 160 0 160 0 0 25 c0 23 -4 25 -43 25 -24 0 -48 5 -55 12 -8 8 -12 60 -12
168 0 191 12 241 69 293 69 62 145 68 185 13 19 -25 21 -43 24 -243 2 -154 0
-219 -9 -229 -7 -8 -30 -14 -55 -14 -40 0 -44 -2 -44 -25 l0 -25 160 0 160 0
0 25 c0 23 -4 25 -45 25 -34 0 -47 5 -55 19 -6 12 -10 102 -10 223 0 179 -2
207 -19 238 -30 57 -62 74 -146 78 -92 5 -149 -19 -195 -81 l-30 -41 0 62 0
62 -57 -2 c-32 -1 -77 -3 -100 -5z"/>
<path d="M12886 9289 c-278 -245 -337 -797 -125 -1156 40 -67 159 -193 183
-193 27 0 18 23 -34 85 -174 206 -236 575 -154 914 22 92 93 234 153 308 28
34 51 67 51 72 0 22 -28 10 -74 -30z"/>
<path d="M15345 9320 c-4 -6 16 -35 44 -66 62 -68 134 -210 161 -319 41 -160
41 -441 1 -600 -28 -108 -99 -248 -161 -317 -47 -52 -56 -78 -29 -78 42 0 170
156 223 271 67 145 81 220 80 429 -1 209 -14 282 -80 420 -43 91 -130 208
-182 244 -42 29 -48 31 -57 16z"/>
<path d="M2212 8947 c-87 -33 -139 -115 -110 -174 19 -41 61 -52 96 -26 41 30
42 71 2 105 l-32 26 40 21 c60 31 132 28 172 -5 41 -35 58 -71 66 -137 l6 -54
-78 -6 c-115 -9 -197 -40 -255 -96 -107 -104 -79 -223 63 -266 100 -29 179
-14 238 45 35 35 40 37 45 20 11 -36 63 -70 107 -70 32 0 47 7 74 34 32 32 34
38 34 105 0 64 -2 71 -20 71 -18 0 -20 -7 -20 -63 0 -49 -4 -68 -18 -80 -25
-23 -38 -21 -56 5 -13 18 -16 56 -16 203 -1 235 -11 266 -109 323 -34 20 -60
26 -120 29 -44 1 -90 -3 -109 -10z m238 -348 c0 -123 -22 -176 -91 -218 -86
-52 -189 2 -189 99 0 98 108 174 268 189 8 1 12 -19 12 -70z"/>
<path d="M25832 8947 c-87 -33 -139 -115 -110 -174 19 -41 61 -52 96 -26 41
30 42 71 2 105 l-32 26 40 21 c60 31 132 28 172 -5 41 -35 58 -71 66 -137 l6
-54 -78 -6 c-115 -9 -197 -40 -255 -96 -107 -104 -79 -223 63 -266 100 -29
179 -14 238 45 35 35 40 37 45 20 11 -36 63 -70 107 -70 32 0 47 7 74 34 32
32 34 38 34 105 0 64 -2 71 -20 71 -18 0 -20 -7 -20 -63 0 -49 -4 -68 -18 -80
-25 -23 -38 -21 -56 5 -13 18 -16 56 -16 203 -1 235 -11 266 -109 323 -34 20
-60 26 -120 29 -44 1 -90 -3 -109 -10z m238 -348 c0 -123 -22 -176 -91 -218
-86 -52 -189 2 -189 99 0 98 108 174 268 189 8 1 12 -19 12 -70z"/>
<path d="M543 8943 c-37 -4 -43 -7 -43 -27 0 -20 6 -24 42 -29 23 -3 48 -14
55 -23 16 -22 19 -425 3 -455 -8 -14 -21 -19 -55 -19 -41 0 -45 -2 -45 -25 l0
-25 160 0 160 0 0 25 c0 23 -4 25 -43 25 -24 0 -48 5 -55 12 -8 8 -12 60 -12
168 0 191 12 241 69 293 69 62 145 68 185 13 19 -25 21 -43 24 -243 2 -154 0
-219 -9 -229 -7 -8 -30 -14 -55 -14 -40 0 -44 -2 -44 -25 l0 -25 160 0 160 0
0 25 c0 23 -4 25 -45 25 -60 0 -65 15 -65 180 0 145 11 215 43 261 63 93 184
112 224 35 13 -25 18 -69 21 -216 2 -102 0 -201 -5 -220 -9 -33 -12 -35 -56
-38 -42 -3 -47 -6 -47 -28 l0 -24 160 0 160 0 0 25 c0 23 -4 25 -42 25 -24 0
-48 4 -55 8 -8 5 -12 73 -15 222 -3 193 -5 218 -23 249 -34 58 -67 75 -149 79
-88 5 -128 -11 -181 -69 -19 -21 -37 -39 -39 -39 -2 0 -7 11 -10 25 -3 13 -23
37 -43 52 -30 23 -48 28 -109 31 -91 5 -148 -19 -194 -81 l-30 -41 0 62 0 62
-57 -2 c-32 -1 -77 -3 -100 -5z"/>
<path d="M24163 8943 c-37 -4 -43 -7 -43 -27 0 -20 6 -24 42 -29 23 -3 48 -14
55 -23 16 -22 19 -425 3 -455 -8 -14 -21 -19 -55 -19 -41 0 -45 -2 -45 -25 l0
-25 160 0 160 0 0 25 c0 23 -4 25 -43 25 -24 0 -48 5 -55 12 -8 8 -12 60 -12
168 0 191 12 241 69 293 69 62 145 68 185 13 19 -25 21 -43 24 -243 2 -154 0
-219 -9 -229 -7 -8 -30 -14 -55 -14 -40 0 -44 -2 -44 -25 l0 -25 160 0 160 0
0 25 c0 23 -4 25 -45 25 -60 0 -65 15 -65 180 0 145 11 215 43 261 63 93 184
112 224 35 13 -25 18 -69 21 -216 2 -102 0 -201 -5 -220 -9 -33 -12 -35 -56
-38 -42 -3 -47 -6 -47 -28 l0 -24 160 0 160 0 0 25 c0 23 -4 25 -42 25 -24 0
-48 4 -55 8 -8 5 -12 73 -15 222 -3 193 -5 218 -23 249 -34 58 -67 75 -149 79
-88 5 -128 -11 -181 -69 -19 -21 -37 -39 -39 -39 -2 0 -7 11 -10 25 -3 13 -23
37 -43 52 -30 23 -48 28 -109 31 -91 5 -148 -19 -194 -81 l-30 -41 0 62 0 62
-57 -2 c-32 -1 -77 -3 -100 -5z"/>
<path d="M14792 8897 c-87 -33 -139 -115 -110 -174 19 -41 61 -52 96 -26 41
30 42 71 2 105 l-32 26 40 21 c60 31 132 28 172 -5 41 -35 58 -71 66 -137 l6
-54 -78 -6 c-115 -9 -197 -40 -255 -96 -107 -104 -79 -223 63 -266 100 -29
179 -14 238 45 35 35 40 37 45 20 11 -36 63 -70 107 -70 32 0 47 7 74 34 32
32 34 38 34 105 0 64 -2 71 -20 71 -18 0 -20 -7 -20 -63 0 -49 -4 -68 -18 -80
-25 -23 -38 -21 -56 5 -13 18 -16 56 -16 203 -1 235 -11 266 -109 323 -34 20
-60 26 -120 29 -44 1 -90 -3 -109 -10z m238 -348 c0 -123 -22 -176 -91 -218
-86 -52 -189 2 -189 99 0 98 108 174 268 189 8 1 12 -19 12 -70z"/>
<path d="M11053 8893 c-37 -4 -43 -7 -43 -27 0 -20 6 -24 42 -29 23 -3 48 -14
55 -23 16 -22 19 -425 3 -455 -8 -14 -21 -19 -55 -19 -41 0 -45 -2 -45 -25 l0
-25 160 0 160 0 0 25 c0 23 -4 25 -43 25 -24 0 -48 5 -55 12 -8 8 -12 60 -12
168 0 191 12 241 69 293 69 62 145 68 185 13 19 -25 21 -43 24 -243 2 -154 0
-219 -9 -229 -7 -8 -30 -14 -55 -14 -40 0 -44 -2 -44 -25 l0 -25 160 0 160 0
0 25 c0 23 -4 25 -45 25 -60 0 -65 15 -65 180 0 145 11 215 43 261 63 93 184
112 224 35 13 -25 18 -69 21 -216 2 -102 0 -201 -5 -220 -9 -33 -12 -35 -56
-38 -42 -3 -47 -6 -47 -28 l0 -24 160 0 160 0 0 25 c0 23 -4 25 -42 25 -24 0
-48 4 -55 8 -8 5 -12 73 -15 222 -3 193 -5 218 -23 249 -34 58 -67 75 -149 79
-88 5 -128 -11 -181 -69 -19 -21 -37 -39 -39 -39 -2 0 -7 11 -10 25 -3 13 -23
37 -43 52 -30 23 -48 28 -109 31 -91 5 -148 -19 -194 -81 l-30 -41 0 62 0 62
-57 -2 c-32 -1 -77 -3 -100 -5z"/>
<path d="M13123 8893 c-37 -4 -43 -7 -43 -27 0 -20 6 -24 42 -29 23 -3 48 -14
55 -23 16 -22 19 -425 3 -455 -8 -14 -21 -19 -55 -19 -41 0 -45 -2 -45 -25 l0
-25 160 0 160 0 0 25 c0 23 -4 25 -43 25 -24 0 -48 5 -55 12 -8 8 -12 60 -12
168 0 191 12 241 69 293 69 62 145 68 185 13 19 -25 21 -43 24 -243 2 -154 0
-219 -9 -229 -7 -8 -30 -14 -55 -14 -40 0 -44 -2 -44 -25 l0 -25 160 0 160 0
0 25 c0 23 -4 25 -45 25 -60 0 -65 15 -65 180 0 145 11 215 43 261 63 93 184
112 224 35 13 -25 18 -69 21 -216 2 -102 0 -201 -5 -220 -9 -33 -12 -35 -56
-38 -42 -3 -47 -6 -47 -28 l0 -24 160 0 160 0 0 25 c0 23 -4 25 -42 25 -24 0
-48 4 -55 8 -8 5 -12 73 -15 222 -3 193 -5 218 -23 249 -34 58 -67 75 -149 79
-88 5 -128 -11 -181 -69 -19 -21 -37 -39 -39 -39 -2 0 -7 11 -10 25 -3 13 -23
37 -43 52 -30 23 -48 28 -109 31 -91 5 -148 -19 -194 -81 l-30 -41 0 62 0 62
-57 -2 c-32 -1 -77 -3 -100 -5z"/>
<path d="M10225 8869 c-17 -26 19 -92 88 -166 l31 -33 -3587 0 -3587 0 0 -35
0 -35 3592 0 3592 0 -51 -52 c-73 -76 -104 -148 -70 -161 19 -7 29 2 60 54 27
48 125 144 164 162 34 15 28 41 -15 69 -56 38 -140 127 -159 170 -17 37 -44
50 -58 27z"/>
<path d="M16489 8839 c-28 -55 -90 -121 -150 -159 -27 -18 -49 -38 -49 -46 0
-7 20 -27 44 -43 63 -43 144 -130 158 -168 19 -53 58 -56 58 -4 0 32 -34 88
-88 144 l-36 37 3587 0 3587 0 0 35 0 35 -3586 0 -3587 0 46 48 c52 56 77 100
77 137 0 42 -36 33 -61 -16z"/>
<path d="M2748 7845 c-6 -14 -9 -27 -7 -29 2 -2 2107 -1405 4677 -3118 l4673
-3116 -55 -6 c-66 -9 -160 -54 -164 -80 -7 -37 14 -39 82 -6 56 28 80 34 160
38 63 3 97 9 100 17 2 7 -7 41 -22 76 -21 52 -26 82 -28 159 -1 93 -2 95 -25
95 -35 0 -45 -48 -32 -144 6 -42 10 -77 9 -78 -1 -1 -2101 1397 -4666 3107
-2566 1711 -4671 3110 -4678 3110 -7 0 -18 -11 -24 -25z"/>
<path d="M19325 4760 c-2563 -1710 -4663 -3109 -4666 -3109 -4 -1 -3 16 2 37
10 43 12 153 3 176 -3 9 -16 16 -29 16 -21 0 -22 -3 -22 -83 1 -64 -5 -99 -27
-161 -15 -44 -25 -85 -22 -93 4 -9 25 -13 69 -13 73 0 167 -22 213 -50 17 -11
36 -20 42 -20 13 0 23 26 16 45 -8 21 -83 54 -154 68 l-61 13 4676 3118 c4591
3060 4676 3118 4662 3139 -8 12 -21 23 -28 24 -8 1 -2111 -1397 -4674 -3107z"/>
<path d="M13350 4569 l0 -2891 -52 47 c-61 55 -101 77 -131 73 -35 -5 -32 -35
5 -54 56 -28 117 -83 160 -145 23 -32 48 -59 54 -59 7 0 26 19 43 43 38 56
145 155 176 163 41 10 44 54 3 54 -34 0 -88 -31 -139 -81 l-49 -48 0 2895 0
2894 -35 0 -35 0 0 -2891z"/>
<path d="M14063 5090 c-67 -27 -52 -132 22 -146 74 -14 118 88 59 135 -29 23
-46 25 -81 11z"/>
<path d="M15133 5090 c-67 -27 -52 -132 22 -146 74 -14 118 88 59 135 -29 23
-46 25 -81 11z"/>
<path d="M14547 4776 c-129 -47 -208 -165 -209 -314 -1 -325 430 -429 584
-140 20 37 23 58 23 143 0 90 -3 105 -27 152 -74 139 -234 208 -371 159z m166
-37 c83 -43 117 -120 117 -264 0 -115 -19 -180 -65 -227 -86 -85 -209 -67
-273 40 -26 45 -27 52 -27 187 0 131 2 143 25 183 32 57 90 92 153 92 27 0 58
-5 70 -11z"/>
<path d="M14008 4773 c-42 -4 -48 -7 -48 -27 0 -19 7 -24 52 -32 53 -9 53 -9
61 -54 4 -25 6 -178 4 -340 -3 -243 -6 -301 -19 -332 -22 -50 -58 -72 -104
-63 -35 6 -35 7 -18 26 20 23 23 71 4 93 -20 25 -86 21 -104 -6 -20 -28 -20
-51 -1 -88 22 -42 69 -63 140 -64 73 -1 117 21 160 83 l30 43 3 384 3 384 -58
-2 c-32 -1 -79 -3 -105 -5z"/>
<path d="M15083 4773 c-38 -4 -43 -7 -43 -29 0 -20 5 -24 28 -24 15 0 38 -7
50 -16 22 -15 22 -19 22 -238 0 -159 -3 -225 -12 -234 -7 -7 -31 -12 -55 -12
-39 0 -43 -2 -43 -25 l0 -25 150 0 150 0 0 25 c0 21 -5 25 -29 25 -64 0 -61
-14 -61 286 l0 274 -57 -2 c-32 -1 -77 -3 -100 -5z"/>
<path d="M15453 4773 c-37 -4 -43 -7 -43 -27 0 -20 6 -24 42 -29 23 -3 48 -14
55 -23 16 -22 19 -425 3 -455 -8 -14 -21 -19 -55 -19 -41 0 -45 -2 -45 -25 l0
-25 160 0 160 0 0 25 c0 23 -4 25 -43 25 -24 0 -48 5 -55 12 -8 8 -12 60 -12
168 0 191 12 241 69 293 69 62 145 68 185 13 19 -25 21 -43 24 -243 2 -154 0
-219 -9 -229 -7 -8 -30 -14 -55 -14 -40 0 -44 -2 -44 -25 l0 -25 160 0 160 0
0 25 c0 23 -4 25 -45 25 -34 0 -47 5 -55 19 -6 12 -10 102 -10 223 0 179 -2
207 -19 238 -30 57 -62 74 -146 78 -92 5 -149 -19 -195 -81 l-30 -41 0 62 0
62 -57 -2 c-32 -1 -77 -3 -100 -5z"/>
<path d="M6698 4203 c-54 -4 -58 -6 -58 -28 0 -20 6 -25 38 -31 62 -11 62 -11
62 -185 l0 -159 -41 27 c-54 35 -152 43 -227 19 -142 -47 -232 -208 -202 -361
28 -146 152 -255 290 -255 51 0 98 17 143 52 l37 29 0 -41 0 -40 83 5 c119 9
127 11 127 40 0 22 -4 25 -39 25 -73 0 -71 -12 -71 477 l0 433 -42 -2 c-24 -1
-69 -3 -100 -5z m-31 -405 c68 -41 73 -57 73 -248 l0 -173 -48 -48 c-93 -93
-212 -74 -274 45 -17 32 -23 63 -26 146 -2 59 1 123 7 146 36 135 161 196 268
132z"/>
<path d="M20648 4203 c-54 -4 -58 -6 -58 -28 0 -20 6 -25 38 -31 62 -11 62
-11 62 -185 l0 -159 -41 27 c-54 35 -152 43 -227 19 -142 -47 -232 -208 -202
-361 28 -146 152 -255 290 -255 51 0 98 17 143 52 l37 29 0 -41 0 -40 83 5
c119 9 127 11 127 40 0 22 -4 25 -39 25 -73 0 -71 -12 -71 477 l0 433 -42 -2
c-24 -1 -69 -3 -100 -5z m-31 -405 c68 -41 73 -57 73 -248 l0 -173 -48 -48
c-93 -93 -212 -74 -274 45 -17 32 -23 63 -26 146 -2 59 1 123 7 146 36 135
161 196 268 132z"/>
<path d="M5983 4170 c-67 -27 -52 -132 22 -146 74 -14 118 88 59 135 -29 23
-46 25 -81 11z"/>
<path d="M19923 4170 c-67 -27 -52 -132 22 -146 74 -14 118 88 59 135 -29 23
-46 25 -81 11z"/>
<path d="M5933 3853 c-38 -4 -43 -7 -43 -29 0 -20 5 -24 28 -24 15 0 38 -7 50
-16 22 -15 22 -19 22 -238 0 -159 -3 -225 -12 -234 -7 -7 -31 -12 -55 -12 -39
0 -43 -2 -43 -25 l0 -25 150 0 150 0 0 25 c0 21 -5 25 -29 25 -64 0 -61 -14
-61 286 l0 274 -57 -2 c-32 -1 -77 -3 -100 -5z"/>
<path d="M19873 3853 c-38 -4 -43 -7 -43 -29 0 -20 5 -24 28 -24 15 0 38 -7
50 -16 22 -15 22 -19 22 -238 0 -159 -3 -225 -12 -234 -7 -7 -31 -12 -55 -12
-39 0 -43 -2 -43 -25 l0 -25 150 0 150 0 0 25 c0 21 -5 25 -29 25 -64 0 -61
-14 -61 286 l0 274 -57 -2 c-32 -1 -77 -3 -100 -5z"/>
<path d="M14022 1067 c-87 -33 -139 -115 -110 -174 19 -41 61 -52 96 -26 41
30 42 71 2 105 l-32 26 40 21 c60 31 132 28 172 -5 41 -35 58 -71 66 -137 l6
-54 -78 -6 c-115 -9 -197 -40 -255 -96 -107 -104 -79 -223 63 -266 100 -29
179 -14 238 45 35 35 40 37 45 20 11 -36 63 -70 107 -70 32 0 47 7 74 34 32
32 34 38 34 105 0 64 -2 71 -20 71 -18 0 -20 -7 -20 -63 0 -49 -4 -68 -18 -80
-25 -23 -38 -21 -56 5 -13 18 -16 56 -16 203 -1 235 -11 266 -109 323 -34 20
-60 26 -120 29 -44 1 -90 -3 -109 -10z m238 -348 c0 -123 -22 -176 -91 -218
-86 -52 -189 2 -189 99 0 98 108 174 268 189 8 1 12 -19 12 -70z"/>
<path d="M12353 1063 c-37 -4 -43 -7 -43 -27 0 -20 6 -24 42 -29 23 -3 48 -14
55 -23 16 -22 19 -425 3 -455 -8 -14 -21 -19 -55 -19 -41 0 -45 -2 -45 -25 l0
-25 160 0 160 0 0 25 c0 23 -4 25 -43 25 -24 0 -48 5 -55 12 -8 8 -12 60 -12
168 0 191 12 241 69 293 69 62 145 68 185 13 19 -25 21 -43 24 -243 2 -154 0
-219 -9 -229 -7 -8 -30 -14 -55 -14 -40 0 -44 -2 -44 -25 l0 -25 160 0 160 0
0 25 c0 23 -4 25 -45 25 -60 0 -65 15 -65 180 0 145 11 215 43 261 63 93 184
112 224 35 13 -25 18 -69 21 -216 2 -102 0 -201 -5 -220 -9 -33 -12 -35 -56
-38 -42 -3 -47 -6 -47 -28 l0 -24 160 0 160 0 0 25 c0 23 -4 25 -42 25 -24 0
-48 4 -55 8 -8 5 -12 73 -15 222 -3 193 -5 218 -23 249 -34 58 -67 75 -149 79
-88 5 -128 -11 -181 -69 -19 -21 -37 -39 -39 -39 -2 0 -7 11 -10 25 -3 13 -23
37 -43 52 -30 23 -48 28 -109 31 -91 5 -148 -19 -194 -81 l-30 -41 0 62 0 62
-57 -2 c-32 -1 -77 -3 -100 -5z"/>
</g>
</svg>
