<?xml version="1.0" standalone="no"?>
<!DOCTYPE svg PUBLIC "-//W3C//DTD SVG 20010904//EN"
 "http://www.w3.org/TR/2001/REC-SVG-20010904/DTD/svg10.dtd">
<svg version="1.0" xmlns="http://www.w3.org/2000/svg"
 width="2167.000000pt" height="1216.000000pt" viewBox="0 0 2167.000000 1216.000000"
 preserveAspectRatio="xMidYMid meet">
<metadata>
Created by potrace 1.16, written by Peter Selinger 2001-2019
</metadata>
<g transform="translate(0.000000,1216.000000) scale(0.100000,-0.100000)"
fill="#000000" stroke="none">
<path d="M12243 11700 c-67 -27 -52 -132 22 -146 74 -14 118 88 59 135 -29 23
-46 25 -81 11z"/>
<path d="M13323 11700 c-67 -27 -52 -132 22 -146 74 -14 118 88 59 135 -29 23
-46 25 -81 11z"/>
<path d="M12737 11386 c-129 -47 -208 -165 -209 -314 -1 -325 430 -429 584
-140 20 37 23 58 23 143 0 90 -3 105 -27 152 -74 139 -234 208 -371 159z m166
-37 c83 -43 117 -120 117 -264 0 -115 -19 -180 -65 -227 -86 -85 -209 -67
-273 40 -26 45 -27 52 -27 187 0 131 2 143 25 183 32 57 90 92 153 92 27 0 58
-5 70 -11z"/>
<path d="M12188 11383 c-42 -4 -48 -7 -48 -27 0 -19 7 -24 52 -32 53 -9 53 -9
61 -54 4 -25 6 -178 4 -340 -3 -243 -6 -301 -19 -332 -22 -50 -58 -72 -104
-63 -35 6 -35 7 -18 26 20 23 23 71 4 93 -20 25 -86 21 -104 -6 -20 -28 -20
-51 -1 -88 22 -42 69 -63 140 -64 73 -1 117 21 160 83 l30 43 3 384 3 384 -58
-2 c-32 -1 -79 -3 -105 -5z"/>
<path d="M13273 11383 c-38 -4 -43 -7 -43 -29 0 -20 5 -24 28 -24 15 0 38 -7
50 -16 22 -15 22 -19 22 -238 0 -159 -3 -225 -12 -234 -7 -7 -31 -12 -55 -12
-39 0 -43 -2 -43 -25 l0 -25 150 0 150 0 0 25 c0 21 -5 25 -29 25 -64 0 -61
-14 -61 286 l0 274 -57 -2 c-32 -1 -77 -3 -100 -5z"/>
<path d="M13643 11383 c-37 -4 -43 -7 -43 -27 0 -20 6 -24 42 -29 23 -3 48
-14 55 -23 16 -22 19 -425 3 -455 -8 -14 -21 -19 -55 -19 -41 0 -45 -2 -45
-25 l0 -25 160 0 160 0 0 25 c0 23 -4 25 -43 25 -24 0 -48 5 -55 12 -8 8 -12
60 -12 168 0 191 12 241 69 293 69 62 145 68 185 13 19 -25 21 -43 24 -243 2
-154 0 -219 -9 -229 -7 -8 -30 -14 -55 -14 -40 0 -44 -2 -44 -25 l0 -25 160 0
160 0 0 25 c0 23 -4 25 -45 25 -34 0 -47 5 -55 19 -6 12 -10 102 -10 223 0
179 -2 207 -19 238 -30 57 -62 74 -146 78 -92 5 -149 -19 -195 -81 l-30 -41 0
62 0 62 -57 -2 c-32 -1 -77 -3 -100 -5z"/>
<path d="M4836 10669 c-278 -245 -337 -797 -125 -1156 40 -67 159 -193 183
-193 27 0 18 23 -34 85 -174 206 -236 575 -154 914 22 92 93 234 153 308 28
34 51 67 51 72 0 22 -28 10 -74 -30z"/>
<path d="M6906 10669 c-278 -245 -337 -797 -125 -1156 40 -67 159 -193 183
-193 27 0 18 23 -34 85 -174 206 -236 575 -154 914 22 92 93 234 153 308 28
34 51 67 51 72 0 22 -28 10 -74 -30z"/>
<path d="M9365 10700 c-4 -6 16 -35 44 -66 62 -68 134 -210 161 -319 41 -160
41 -441 1 -600 -28 -108 -99 -248 -161 -317 -47 -52 -56 -78 -29 -78 42 0 170
156 223 271 67 145 81 220 80 429 -1 209 -14 282 -80 420 -43 91 -130 208
-182 244 -42 29 -48 31 -57 16z"/>
<path d="M9905 10700 c-4 -6 16 -35 44 -66 62 -68 134 -210 161 -319 41 -160
41 -441 1 -600 -28 -108 -99 -248 -161 -317 -47 -52 -56 -78 -29 -78 42 0 170
156 223 271 67 145 81 220 80 429 -1 209 -14 282 -80 420 -43 91 -130 208
-182 244 -42 29 -48 31 -57 16z"/>
<path d="M17956 10669 c-278 -245 -337 -797 -125 -1156 40 -67 159 -193 183
-193 27 0 18 23 -34 85 -174 206 -236 575 -154 914 22 92 93 234 153 308 28
34 51 67 51 72 0 22 -28 10 -74 -30z"/>
<path d="M20405 10700 c-4 -6 16 -35 44 -66 62 -68 134 -210 161 -319 41 -160
41 -441 1 -600 -28 -108 -99 -248 -161 -317 -47 -52 -56 -78 -29 -78 42 0 170
156 223 271 67 145 81 220 80 429 -1 209 -14 282 -80 420 -43 91 -130 208
-182 244 -42 29 -48 31 -57 16z"/>
<path d="M8812 10277 c-87 -33 -139 -115 -110 -174 19 -41 61 -52 96 -26 41
30 42 71 2 105 l-32 26 40 21 c60 31 132 28 172 -5 41 -35 58 -71 66 -137 l6
-54 -78 -6 c-115 -9 -197 -40 -255 -96 -107 -104 -79 -223 63 -266 100 -29
179 -14 238 45 35 35 40 37 45 20 11 -36 63 -70 107 -70 32 0 47 7 74 34 32
32 34 38 34 105 0 64 -2 71 -20 71 -18 0 -20 -7 -20 -63 0 -49 -4 -68 -18 -80
-25 -23 -38 -21 -56 5 -13 18 -16 56 -16 203 -1 235 -11 266 -109 323 -34 20
-60 26 -120 29 -44 1 -90 -3 -109 -10z m238 -348 c0 -123 -22 -176 -91 -218
-86 -52 -189 2 -189 99 0 98 108 174 268 189 8 1 12 -19 12 -70z"/>
<path d="M19852 10277 c-87 -33 -139 -115 -110 -174 19 -41 61 -52 96 -26 41
30 42 71 2 105 l-32 26 40 21 c60 31 132 28 172 -5 41 -35 58 -71 66 -137 l6
-54 -78 -6 c-115 -9 -197 -40 -255 -96 -107 -104 -79 -223 63 -266 100 -29
179 -14 238 45 35 35 40 37 45 20 11 -36 63 -70 107 -70 32 0 47 7 74 34 32
32 34 38 34 105 0 64 -2 71 -20 71 -18 0 -20 -7 -20 -63 0 -49 -4 -68 -18 -80
-25 -23 -38 -21 -56 5 -13 18 -16 56 -16 203 -1 235 -11 266 -109 323 -34 20
-60 26 -120 29 -44 1 -90 -3 -109 -10z m238 -348 c0 -123 -22 -176 -91 -218
-86 -52 -189 2 -189 99 0 98 108 174 268 189 8 1 12 -19 12 -70z"/>
<path d="M2993 10273 c-37 -4 -43 -7 -43 -27 0 -20 6 -24 42 -29 23 -3 48 -14
55 -23 16 -22 19 -425 3 -455 -8 -14 -21 -19 -55 -19 -41 0 -45 -2 -45 -25 l0
-25 160 0 160 0 0 25 c0 23 -4 25 -43 25 -24 0 -48 5 -55 12 -8 8 -12 60 -12
168 0 191 12 241 69 293 69 62 145 68 185 13 19 -25 21 -43 24 -243 2 -154 0
-219 -9 -229 -7 -8 -30 -14 -55 -14 -40 0 -44 -2 -44 -25 l0 -25 160 0 160 0
0 25 c0 23 -4 25 -45 25 -60 0 -65 15 -65 180 0 145 11 215 43 261 63 93 184
112 224 35 13 -25 18 -69 21 -216 2 -102 0 -201 -5 -220 -9 -33 -12 -35 -56
-38 -42 -3 -47 -6 -47 -28 l0 -24 160 0 160 0 0 25 c0 23 -4 25 -42 25 -24 0
-48 4 -55 8 -8 5 -12 73 -15 222 -3 193 -5 218 -23 249 -34 58 -67 75 -149 79
-88 5 -128 -11 -181 -69 -19 -21 -37 -39 -39 -39 -2 0 -7 11 -10 25 -3 13 -23
37 -43 52 -30 23 -48 28 -109 31 -91 5 -148 -19 -194 -81 l-30 -41 0 62 0 62
-57 -2 c-32 -1 -77 -3 -100 -5z"/>
<path d="M5073 10273 c-37 -4 -43 -7 -43 -27 0 -20 6 -24 42 -29 23 -3 48 -14
55 -23 16 -22 19 -425 3 -455 -8 -14 -21 -19 -55 -19 -41 0 -45 -2 -45 -25 l0
-25 160 0 160 0 0 25 c0 23 -4 25 -43 25 -24 0 -48 5 -55 12 -8 8 -12 60 -12
168 0 191 12 241 69 293 69 62 145 68 185 13 19 -25 21 -43 24 -243 2 -154 0
-219 -9 -229 -7 -8 -30 -14 -55 -14 -40 0 -44 -2 -44 -25 l0 -25 160 0 160 0
0 25 c0 23 -4 25 -45 25 -60 0 -65 15 -65 180 0 145 11 215 43 261 63 93 184
112 224 35 13 -25 18 -69 21 -216 2 -102 0 -201 -5 -220 -9 -33 -12 -35 -56
-38 -42 -3 -47 -6 -47 -28 l0 -24 160 0 160 0 0 25 c0 23 -4 25 -42 25 -24 0
-48 4 -55 8 -8 5 -12 73 -15 222 -3 193 -5 218 -23 249 -34 58 -67 75 -149 79
-88 5 -128 -11 -181 -69 -19 -21 -37 -39 -39 -39 -2 0 -7 11 -10 25 -3 13 -23
37 -43 52 -30 23 -48 28 -109 31 -91 5 -148 -19 -194 -81 l-30 -41 0 62 0 62
-57 -2 c-32 -1 -77 -3 -100 -5z"/>
<path d="M7143 10273 c-37 -4 -43 -7 -43 -27 0 -20 6 -24 42 -29 23 -3 48 -14
55 -23 16 -22 19 -425 3 -455 -8 -14 -21 -19 -55 -19 -41 0 -45 -2 -45 -25 l0
-25 160 0 160 0 0 25 c0 23 -4 25 -43 25 -24 0 -48 5 -55 12 -8 8 -12 60 -12
168 0 191 12 241 69 293 69 62 145 68 185 13 19 -25 21 -43 24 -243 2 -154 0
-219 -9 -229 -7 -8 -30 -14 -55 -14 -40 0 -44 -2 -44 -25 l0 -25 160 0 160 0
0 25 c0 23 -4 25 -45 25 -60 0 -65 15 -65 180 0 145 11 215 43 261 63 93 184
112 224 35 13 -25 18 -69 21 -216 2 -102 0 -201 -5 -220 -9 -33 -12 -35 -56
-38 -42 -3 -47 -6 -47 -28 l0 -24 160 0 160 0 0 25 c0 23 -4 25 -42 25 -24 0
-48 4 -55 8 -8 5 -12 73 -15 222 -3 193 -5 218 -23 249 -34 58 -67 75 -149 79
-88 5 -128 -11 -181 -69 -19 -21 -37 -39 -39 -39 -2 0 -7 11 -10 25 -3 13 -23
37 -43 52 -30 23 -48 28 -109 31 -91 5 -148 -19 -194 -81 l-30 -41 0 62 0 62
-57 -2 c-32 -1 -77 -3 -100 -5z"/>
<path d="M16113 10273 c-37 -4 -43 -7 -43 -27 0 -20 6 -24 42 -29 23 -3 48
-14 55 -23 16 -22 19 -425 3 -455 -8 -14 -21 -19 -55 -19 -41 0 -45 -2 -45
-25 l0 -25 160 0 160 0 0 25 c0 23 -4 25 -43 25 -24 0 -48 5 -55 12 -8 8 -12
60 -12 168 0 191 12 241 69 293 69 62 145 68 185 13 19 -25 21 -43 24 -243 2
-154 0 -219 -9 -229 -7 -8 -30 -14 -55 -14 -40 0 -44 -2 -44 -25 l0 -25 160 0
160 0 0 25 c0 23 -4 25 -45 25 -60 0 -65 15 -65 180 0 145 11 215 43 261 63
93 184 112 224 35 13 -25 18 -69 21 -216 2 -102 0 -201 -5 -220 -9 -33 -12
-35 -56 -38 -42 -3 -47 -6 -47 -28 l0 -24 160 0 160 0 0 25 c0 23 -4 25 -42
25 -24 0 -48 4 -55 8 -8 5 -12 73 -15 222 -3 193 -5 218 -23 249 -34 58 -67
75 -149 79 -88 5 -128 -11 -181 -69 -19 -21 -37 -39 -39 -39 -2 0 -7 11 -10
25 -3 13 -23 37 -43 52 -30 23 -48 28 -109 31 -91 5 -148 -19 -194 -81 l-30
-41 0 62 0 62 -57 -2 c-32 -1 -77 -3 -100 -5z"/>
<path d="M18183 10273 c-37 -4 -43 -7 -43 -27 0 -20 6 -24 42 -29 23 -3 48
-14 55 -23 16 -22 19 -425 3 -455 -8 -14 -21 -19 -55 -19 -41 0 -45 -2 -45
-25 l0 -25 160 0 160 0 0 25 c0 23 -4 25 -43 25 -24 0 -48 5 -55 12 -8 8 -12
60 -12 168 0 191 12 241 69 293 69 62 145 68 185 13 19 -25 21 -43 24 -243 2
-154 0 -219 -9 -229 -7 -8 -30 -14 -55 -14 -40 0 -44 -2 -44 -25 l0 -25 160 0
160 0 0 25 c0 23 -4 25 -45 25 -60 0 -65 15 -65 180 0 145 11 215 43 261 63
93 184 112 224 35 13 -25 18 -69 21 -216 2 -102 0 -201 -5 -220 -9 -33 -12
-35 -56 -38 -42 -3 -47 -6 -47 -28 l0 -24 160 0 160 0 0 25 c0 23 -4 25 -42
25 -24 0 -48 4 -55 8 -8 5 -12 73 -15 222 -3 193 -5 218 -23 249 -34 58 -67
75 -149 79 -88 5 -128 -11 -181 -69 -19 -21 -37 -39 -39 -39 -2 0 -7 11 -10
25 -3 13 -23 37 -43 52 -30 23 -48 28 -109 31 -91 5 -148 -19 -194 -81 l-30
-41 0 62 0 62 -57 -2 c-32 -1 -77 -3 -100 -5z"/>
<path d="M15291 10256 c-22 -27 7 -84 83 -163 l40 -43 -2282 0 -2282 0 0 -35
0 -35 2280 0 2280 0 -44 -46 c-80 -83 -108 -164 -56 -164 13 0 25 12 35 38 18
42 90 120 153 163 23 17 42 38 42 47 0 9 -23 32 -51 51 -57 39 -111 97 -143
155 -25 46 -38 53 -55 32z"/>
<path d="M6610 6144 l0 -2696 -56 51 c-65 60 -106 83 -137 79 -35 -5 -32 -35
5 -54 56 -28 117 -83 160 -145 23 -32 49 -59 58 -59 9 0 23 13 33 29 32 55
111 133 164 163 57 32 68 60 26 66 -31 5 -79 -23 -140 -81 l-53 -50 0 2697 0
2696 -30 0 -30 0 0 -2696z"/>
<path d="M18420 5947 l0 -2893 -49 47 c-85 81 -171 111 -171 58 0 -12 13 -24
38 -34 41 -17 142 -111 173 -162 27 -43 51 -42 81 5 39 58 119 133 166 154 44
20 52 37 27 58 -23 19 -85 -12 -151 -75 l-54 -51 0 2893 0 2893 -30 0 -30 0 0
-2893z"/>
<path d="M764 6696 c-56 -18 -97 -50 -125 -99 -20 -36 -24 -59 -27 -154 l-4
-113 -54 0 c-51 0 -54 -1 -54 -25 0 -24 3 -25 55 -25 l55 0 0 -238 c0 -172 -3
-241 -12 -250 -7 -7 -31 -12 -55 -12 -39 0 -43 -2 -43 -25 l0 -25 170 0 170 0
0 25 c0 24 -3 25 -53 25 -29 0 -58 5 -65 12 -9 9 -12 78 -12 250 l0 238 80 0
c79 0 80 0 80 25 0 25 -1 25 -80 25 l-80 0 0 110 c0 117 13 162 57 202 37 34
105 34 72 1 -20 -20 -6 -76 23 -92 58 -33 116 25 86 85 -29 59 -107 85 -184
60z"/>
<path d="M4063 6650 c-67 -27 -52 -132 22 -146 74 -14 118 88 59 135 -29 23
-46 25 -81 11z"/>
<path d="M5143 6650 c-67 -27 -52 -132 22 -146 74 -14 118 88 59 135 -29 23
-46 25 -81 11z"/>
<path d="M19123 6480 c-67 -27 -52 -132 22 -146 74 -14 118 88 59 135 -29 23
-46 25 -81 11z"/>
<path d="M20193 6480 c-67 -27 -52 -132 22 -146 74 -14 118 88 59 135 -29 23
-46 25 -81 11z"/>
<path d="M2252 6337 c-87 -33 -139 -115 -110 -174 19 -41 61 -52 96 -26 41 30
42 71 2 105 l-32 26 40 21 c60 31 132 28 172 -5 41 -35 58 -71 66 -137 l6 -54
-78 -6 c-115 -9 -197 -40 -255 -96 -107 -104 -79 -223 63 -266 100 -29 179
-14 238 45 35 35 40 37 45 20 11 -36 63 -70 107 -70 32 0 47 7 74 34 32 32 34
38 34 105 0 64 -2 71 -20 71 -18 0 -20 -7 -20 -63 0 -49 -4 -68 -18 -80 -25
-23 -38 -21 -56 5 -13 18 -16 56 -16 203 -1 235 -11 266 -109 323 -34 20 -60
26 -120 29 -44 1 -90 -3 -109 -10z m238 -348 c0 -123 -22 -176 -91 -218 -86
-52 -189 2 -189 99 0 98 108 174 268 189 8 1 12 -19 12 -70z"/>
<path d="M4557 6336 c-129 -47 -208 -165 -209 -314 -1 -325 430 -429 584 -140
20 37 23 58 23 143 0 90 -3 105 -27 152 -74 139 -234 208 -371 159z m166 -37
c83 -43 117 -120 117 -264 0 -115 -19 -180 -65 -227 -86 -85 -209 -67 -273 40
-26 45 -27 52 -27 187 0 131 2 143 25 183 32 57 90 92 153 92 27 0 58 -5 70
-11z"/>
<path d="M963 6333 c-37 -4 -43 -7 -43 -27 0 -20 6 -24 42 -29 23 -3 48 -14
55 -23 16 -22 19 -425 3 -455 -8 -14 -21 -19 -55 -19 -41 0 -45 -2 -45 -25 l0
-25 160 0 160 0 0 25 c0 23 -4 25 -43 25 -24 0 -48 5 -55 12 -8 8 -12 60 -12
168 0 191 12 241 69 293 69 62 145 68 185 13 19 -25 21 -43 24 -243 2 -154 0
-219 -9 -229 -7 -8 -30 -14 -55 -14 -40 0 -44 -2 -44 -25 l0 -25 160 0 160 0
0 25 c0 23 -4 25 -45 25 -60 0 -65 15 -65 180 0 145 11 215 43 261 63 93 184
112 224 35 13 -25 18 -69 21 -216 2 -102 0 -201 -5 -220 -9 -33 -12 -35 -56
-38 -42 -3 -47 -6 -47 -28 l0 -24 160 0 160 0 0 25 c0 23 -4 25 -42 25 -24 0
-48 4 -55 8 -8 5 -12 73 -15 222 -3 193 -5 218 -23 249 -34 58 -67 75 -149 79
-88 5 -128 -11 -181 -69 -19 -21 -37 -39 -39 -39 -2 0 -7 11 -10 25 -3 13 -23
37 -43 52 -30 23 -48 28 -109 31 -91 5 -148 -19 -194 -81 l-30 -41 0 62 0 62
-57 -2 c-32 -1 -77 -3 -100 -5z"/>
<path d="M2808 6333 c-43 -4 -48 -7 -48 -29 0 -20 5 -24 29 -24 16 0 41 -4 55
-10 l26 -10 0 -363 c0 -269 -3 -366 -12 -375 -7 -7 -31 -12 -55 -12 -39 0 -43
-2 -43 -25 l0 -25 160 0 160 0 0 25 c0 22 -4 25 -34 25 -67 0 -66 -1 -66 142
l0 130 30 -26 c93 -78 258 -50 359 60 58 63 81 123 81 210 0 87 -25 156 -79
216 -60 67 -126 98 -209 98 -71 0 -124 -19 -164 -57 l-28 -27 0 42 0 42 -57
-2 c-32 -1 -79 -3 -105 -5z m419 -62 c26 -19 51 -50 69 -88 26 -51 29 -69 29
-153 0 -84 -3 -102 -28 -152 -67 -137 -192 -167 -281 -68 l-36 40 0 178 0 178
33 31 c74 71 147 82 214 34z"/>
<path d="M4008 6333 c-42 -4 -48 -7 -48 -27 0 -19 7 -24 52 -32 53 -9 53 -9
61 -54 4 -25 6 -178 4 -340 -3 -243 -6 -301 -19 -332 -22 -50 -58 -72 -104
-63 -35 6 -35 7 -18 26 20 23 23 71 4 93 -20 25 -86 21 -104 -6 -20 -28 -20
-51 -1 -88 22 -42 69 -63 140 -64 73 -1 117 21 160 83 l30 43 3 384 3 384 -58
-2 c-32 -1 -79 -3 -105 -5z"/>
<path d="M5093 6333 c-38 -4 -43 -7 -43 -29 0 -20 5 -24 28 -24 15 0 38 -7 50
-16 22 -15 22 -19 22 -238 0 -159 -3 -225 -12 -234 -7 -7 -31 -12 -55 -12 -39
0 -43 -2 -43 -25 l0 -25 150 0 150 0 0 25 c0 21 -5 25 -29 25 -64 0 -61 -14
-61 286 l0 274 -57 -2 c-32 -1 -77 -3 -100 -5z"/>
<path d="M5463 6333 c-37 -4 -43 -7 -43 -27 0 -20 6 -24 42 -29 23 -3 48 -14
55 -23 16 -22 19 -425 3 -455 -8 -14 -21 -19 -55 -19 -41 0 -45 -2 -45 -25 l0
-25 160 0 160 0 0 25 c0 23 -4 25 -43 25 -24 0 -48 5 -55 12 -8 8 -12 60 -12
168 0 191 12 241 69 293 69 62 145 68 185 13 19 -25 21 -43 24 -243 2 -154 0
-219 -9 -229 -7 -8 -30 -14 -55 -14 -40 0 -44 -2 -44 -25 l0 -25 160 0 160 0
0 25 c0 23 -4 25 -45 25 -34 0 -47 5 -55 19 -6 12 -10 102 -10 223 0 179 -2
207 -19 238 -30 57 -62 74 -146 78 -92 5 -149 -19 -195 -81 l-30 -41 0 62 0
62 -57 -2 c-32 -1 -77 -3 -100 -5z"/>
<path d="M19607 6166 c-129 -47 -208 -165 -209 -314 -1 -325 430 -429 584
-140 20 37 23 58 23 143 0 90 -3 105 -27 152 -74 139 -234 208 -371 159z m166
-37 c83 -43 117 -120 117 -264 0 -115 -19 -180 -65 -227 -86 -85 -209 -67
-273 40 -26 45 -27 52 -27 187 0 131 2 143 25 183 32 57 90 92 153 92 27 0 58
-5 70 -11z"/>
<path d="M19068 6163 c-42 -4 -48 -7 -48 -27 0 -19 7 -24 52 -32 53 -9 53 -9
61 -54 4 -25 6 -178 4 -340 -3 -243 -6 -301 -19 -332 -22 -50 -58 -72 -104
-63 -35 6 -35 7 -18 26 20 23 23 71 4 93 -20 25 -86 21 -104 -6 -20 -28 -20
-51 -1 -88 22 -42 69 -63 140 -64 73 -1 117 21 160 83 l30 43 3 384 3 384 -58
-2 c-32 -1 -79 -3 -105 -5z"/>
<path d="M20143 6163 c-38 -4 -43 -7 -43 -29 0 -20 5 -24 28 -24 15 0 38 -7
50 -16 22 -15 22 -19 22 -238 0 -159 -3 -225 -12 -234 -7 -7 -31 -12 -55 -12
-39 0 -43 -2 -43 -25 l0 -25 150 0 150 0 0 25 c0 21 -5 25 -29 25 -64 0 -61
-14 -61 286 l0 274 -57 -2 c-32 -1 -77 -3 -100 -5z"/>
<path d="M20523 6163 c-37 -4 -43 -7 -43 -27 0 -20 6 -24 42 -29 23 -3 48 -14
55 -23 16 -22 19 -425 3 -455 -8 -14 -21 -19 -55 -19 -41 0 -45 -2 -45 -25 l0
-25 160 0 160 0 0 25 c0 23 -4 25 -43 25 -24 0 -48 5 -55 12 -8 8 -12 60 -12
168 0 191 12 241 69 293 69 62 145 68 185 13 19 -25 21 -43 24 -243 2 -154 0
-219 -9 -229 -7 -8 -30 -14 -55 -14 -40 0 -44 -2 -44 -25 l0 -25 160 0 160 0
0 25 c0 23 -4 25 -45 25 -34 0 -47 5 -55 19 -6 12 -10 102 -10 223 0 179 -2
207 -19 238 -30 57 -62 74 -146 78 -92 5 -149 -19 -195 -81 l-30 -41 0 62 0
62 -57 -2 c-32 -1 -77 -3 -100 -5z"/>
<path d="M6136 2799 c-278 -245 -337 -797 -125 -1156 40 -67 159 -193 183
-193 27 0 18 23 -34 85 -174 206 -236 575 -154 914 22 92 93 234 153 308 28
34 51 67 51 72 0 22 -28 10 -74 -30z"/>
<path d="M8595 2830 c-4 -6 16 -35 44 -66 62 -68 134 -210 161 -319 41 -160
41 -441 1 -600 -28 -108 -99 -248 -161 -317 -47 -52 -56 -78 -29 -78 42 0 170
156 223 271 67 145 81 220 80 429 -1 209 -14 282 -80 420 -43 91 -130 208
-182 244 -42 29 -48 31 -57 16z"/>
<path d="M19082 2457 c-87 -33 -139 -115 -110 -174 19 -41 61 -52 96 -26 41
30 42 71 2 105 l-32 26 40 21 c60 31 132 28 172 -5 41 -35 58 -71 66 -137 l6
-54 -78 -6 c-115 -9 -197 -40 -255 -96 -107 -104 -79 -223 63 -266 100 -29
179 -14 238 45 35 35 40 37 45 20 11 -36 63 -70 107 -70 32 0 47 7 74 34 32
32 34 38 34 105 0 64 -2 71 -20 71 -18 0 -20 -7 -20 -63 0 -49 -4 -68 -18 -80
-25 -23 -38 -21 -56 5 -13 18 -16 56 -16 203 -1 235 -11 266 -109 323 -34 20
-60 26 -120 29 -44 1 -90 -3 -109 -10z m238 -348 c0 -123 -22 -176 -91 -218
-86 -52 -189 2 -189 99 0 98 108 174 268 189 8 1 12 -19 12 -70z"/>
<path d="M17423 2453 c-37 -4 -43 -7 -43 -27 0 -20 6 -24 42 -29 23 -3 48 -14
55 -23 16 -22 19 -425 3 -455 -8 -14 -21 -19 -55 -19 -41 0 -45 -2 -45 -25 l0
-25 160 0 160 0 0 25 c0 23 -4 25 -43 25 -24 0 -48 5 -55 12 -8 8 -12 60 -12
168 0 191 12 241 69 293 69 62 145 68 185 13 19 -25 21 -43 24 -243 2 -154 0
-219 -9 -229 -7 -8 -30 -14 -55 -14 -40 0 -44 -2 -44 -25 l0 -25 160 0 160 0
0 25 c0 23 -4 25 -45 25 -60 0 -65 15 -65 180 0 145 11 215 43 261 63 93 184
112 224 35 13 -25 18 -69 21 -216 2 -102 0 -201 -5 -220 -9 -33 -12 -35 -56
-38 -42 -3 -47 -6 -47 -28 l0 -24 160 0 160 0 0 25 c0 23 -4 25 -42 25 -24 0
-48 4 -55 8 -8 5 -12 73 -15 222 -3 193 -5 218 -23 249 -34 58 -67 75 -149 79
-88 5 -128 -11 -181 -69 -19 -21 -37 -39 -39 -39 -2 0 -7 11 -10 25 -3 13 -23
37 -43 52 -30 23 -48 28 -109 31 -91 5 -148 -19 -194 -81 l-30 -41 0 62 0 62
-57 -2 c-32 -1 -77 -3 -100 -5z"/>
<path d="M8042 2407 c-87 -33 -139 -115 -110 -174 19 -41 61 -52 96 -26 41 30
42 71 2 105 l-32 26 40 21 c60 31 132 28 172 -5 41 -35 58 -71 66 -137 l6 -54
-78 -6 c-115 -9 -197 -40 -255 -96 -107 -104 -79 -223 63 -266 100 -29 179
-14 238 45 35 35 40 37 45 20 11 -36 63 -70 107 -70 32 0 47 7 74 34 32 32 34
38 34 105 0 64 -2 71 -20 71 -18 0 -20 -7 -20 -63 0 -49 -4 -68 -18 -80 -25
-23 -38 -21 -56 5 -13 18 -16 56 -16 203 -1 235 -11 266 -109 323 -34 20 -60
26 -120 29 -44 1 -90 -3 -109 -10z m238 -348 c0 -123 -22 -176 -91 -218 -86
-52 -189 2 -189 99 0 98 108 174 268 189 8 1 12 -19 12 -70z"/>
<path d="M4303 2403 c-37 -4 -43 -7 -43 -27 0 -20 6 -24 42 -29 23 -3 48 -14
55 -23 16 -22 19 -425 3 -455 -8 -14 -21 -19 -55 -19 -41 0 -45 -2 -45 -25 l0
-25 160 0 160 0 0 25 c0 23 -4 25 -43 25 -24 0 -48 5 -55 12 -8 8 -12 60 -12
168 0 191 12 241 69 293 69 62 145 68 185 13 19 -25 21 -43 24 -243 2 -154 0
-219 -9 -229 -7 -8 -30 -14 -55 -14 -40 0 -44 -2 -44 -25 l0 -25 160 0 160 0
0 25 c0 23 -4 25 -45 25 -60 0 -65 15 -65 180 0 145 11 215 43 261 63 93 184
112 224 35 13 -25 18 -69 21 -216 2 -102 0 -201 -5 -220 -9 -33 -12 -35 -56
-38 -42 -3 -47 -6 -47 -28 l0 -24 160 0 160 0 0 25 c0 23 -4 25 -42 25 -24 0
-48 4 -55 8 -8 5 -12 73 -15 222 -3 193 -5 218 -23 249 -34 58 -67 75 -149 79
-88 5 -128 -11 -181 -69 -19 -21 -37 -39 -39 -39 -2 0 -7 11 -10 25 -3 13 -23
37 -43 52 -30 23 -48 28 -109 31 -91 5 -148 -19 -194 -81 l-30 -41 0 62 0 62
-57 -2 c-32 -1 -77 -3 -100 -5z"/>
<path d="M6373 2403 c-37 -4 -43 -7 -43 -27 0 -20 6 -24 42 -29 23 -3 48 -14
55 -23 16 -22 19 -425 3 -455 -8 -14 -21 -19 -55 -19 -41 0 -45 -2 -45 -25 l0
-25 160 0 160 0 0 25 c0 23 -4 25 -43 25 -24 0 -48 5 -55 12 -8 8 -12 60 -12
168 0 191 12 241 69 293 69 62 145 68 185 13 19 -25 21 -43 24 -243 2 -154 0
-219 -9 -229 -7 -8 -30 -14 -55 -14 -40 0 -44 -2 -44 -25 l0 -25 160 0 160 0
0 25 c0 23 -4 25 -45 25 -60 0 -65 15 -65 180 0 145 11 215 43 261 63 93 184
112 224 35 13 -25 18 -69 21 -216 2 -102 0 -201 -5 -220 -9 -33 -12 -35 -56
-38 -42 -3 -47 -6 -47 -28 l0 -24 160 0 160 0 0 25 c0 23 -4 25 -42 25 -24 0
-48 4 -55 8 -8 5 -12 73 -15 222 -3 193 -5 218 -23 249 -34 58 -67 75 -149 79
-88 5 -128 -11 -181 -69 -19 -21 -37 -39 -39 -39 -2 0 -7 11 -10 25 -3 13 -23
37 -43 52 -30 23 -48 28 -109 31 -91 5 -148 -19 -194 -81 l-30 -41 0 62 0 62
-57 -2 c-32 -1 -77 -3 -100 -5z"/>
<path d="M16595 2379 c-17 -26 19 -92 88 -166 l31 -33 -3587 0 -3587 0 0 -35
0 -35 3592 0 3592 0 -51 -52 c-73 -76 -104 -148 -70 -161 20 -7 32 3 55 48 21
41 89 111 155 160 20 15 37 33 37 40 0 7 -17 24 -39 38 -58 38 -138 124 -158
168 -16 38 -44 51 -58 28z"/>
<path d="M12243 1650 c-67 -27 -52 -132 22 -146 74 -14 118 88 59 135 -29 23
-46 25 -81 11z"/>
<path d="M13323 1650 c-67 -27 -52 -132 22 -146 74 -14 118 88 59 135 -29 23
-46 25 -81 11z"/>
<path d="M12737 1336 c-129 -47 -208 -165 -209 -314 -1 -325 430 -429 584
-140 20 37 23 58 23 143 0 90 -3 105 -27 152 -74 139 -234 208 -371 159z m166
-37 c83 -43 117 -120 117 -264 0 -115 -19 -180 -65 -227 -86 -85 -209 -67
-273 40 -26 45 -27 52 -27 187 0 131 2 143 25 183 32 57 90 92 153 92 27 0 58
-5 70 -11z"/>
<path d="M12188 1333 c-42 -4 -48 -7 -48 -27 0 -19 7 -24 52 -32 53 -9 53 -9
61 -54 4 -25 6 -178 4 -340 -3 -243 -6 -301 -19 -332 -22 -50 -58 -72 -104
-63 -35 6 -35 7 -18 26 20 23 23 71 4 93 -20 25 -86 21 -104 -6 -20 -28 -20
-51 -1 -88 22 -42 69 -63 140 -64 73 -1 117 21 160 83 l30 43 3 384 3 384 -58
-2 c-32 -1 -79 -3 -105 -5z"/>
<path d="M13273 1333 c-38 -4 -43 -7 -43 -29 0 -20 5 -24 28 -24 15 0 38 -7
50 -16 22 -15 22 -19 22 -238 0 -159 -3 -225 -12 -234 -7 -7 -31 -12 -55 -12
-39 0 -43 -2 -43 -25 l0 -25 150 0 150 0 0 25 c0 21 -5 25 -29 25 -64 0 -61
-14 -61 286 l0 274 -57 -2 c-32 -1 -77 -3 -100 -5z"/>
<path d="M13643 1333 c-37 -4 -43 -7 -43 -27 0 -20 6 -24 42 -29 23 -3 48 -14
55 -23 16 -22 19 -425 3 -455 -8 -14 -21 -19 -55 -19 -41 0 -45 -2 -45 -25 l0
-25 160 0 160 0 0 25 c0 23 -4 25 -43 25 -24 0 -48 5 -55 12 -8 8 -12 60 -12
168 0 191 12 241 69 293 69 62 145 68 185 13 19 -25 21 -43 24 -243 2 -154 0
-219 -9 -229 -7 -8 -30 -14 -55 -14 -40 0 -44 -2 -44 -25 l0 -25 160 0 160 0
0 25 c0 23 -4 25 -45 25 -34 0 -47 5 -55 19 -6 12 -10 102 -10 223 0 179 -2
207 -19 238 -30 57 -62 74 -146 78 -92 5 -149 -19 -195 -81 l-30 -41 0 62 0
62 -57 -2 c-32 -1 -77 -3 -100 -5z"/>
</g>
</svg>
