<?xml version="1.0" standalone="no"?>
<!DOCTYPE svg PUBLIC "-//W3C//DTD SVG 20010904//EN"
 "http://www.w3.org/TR/2001/REC-SVG-20010904/DTD/svg10.dtd">
<svg version="1.0" xmlns="http://www.w3.org/2000/svg"
 width="2570.000000pt" height="1081.000000pt" viewBox="0 0 2570.000000 1081.000000"
 preserveAspectRatio="xMidYMid meet">
<metadata>
Created by potrace 1.16, written by Peter Selinger 2001-2019
</metadata>
<g transform="translate(0.000000,1081.000000) scale(0.100000,-0.100000)"
fill="#000000" stroke="none">
<path d="M9838 10343 c-54 -4 -58 -6 -58 -28 0 -20 6 -25 38 -31 62 -11 62
-11 62 -185 l0 -159 -41 27 c-54 35 -152 43 -227 19 -142 -47 -232 -208 -202
-361 28 -146 152 -255 290 -255 51 0 98 17 143 52 l37 29 0 -41 0 -40 83 5
c119 9 127 11 127 40 0 22 -4 25 -39 25 -73 0 -71 -12 -71 477 l0 433 -42 -2
c-24 -1 -69 -3 -100 -5z m-31 -405 c68 -41 73 -57 73 -248 l0 -173 -48 -48
c-93 -93 -212 -74 -274 45 -17 32 -23 63 -26 146 -2 59 1 123 7 146 36 135
161 196 268 132z"/>
<path d="M16438 10343 c-54 -4 -58 -6 -58 -28 0 -20 6 -25 38 -31 62 -11 62
-11 62 -185 l0 -159 -41 27 c-54 35 -152 43 -227 19 -142 -47 -232 -208 -202
-361 28 -146 152 -255 290 -255 51 0 98 17 143 52 l37 29 0 -41 0 -40 83 5
c119 9 127 11 127 40 0 22 -4 25 -39 25 -73 0 -71 -12 -71 477 l0 433 -42 -2
c-24 -1 -69 -3 -100 -5z m-31 -405 c68 -41 73 -57 73 -248 l0 -173 -48 -48
c-93 -93 -212 -74 -274 45 -17 32 -23 63 -26 146 -2 59 1 123 7 146 36 135
161 196 268 132z"/>
<path d="M9113 10310 c-67 -27 -52 -132 22 -146 74 -14 118 88 59 135 -29 23
-46 25 -81 11z"/>
<path d="M15713 10310 c-67 -27 -52 -132 22 -146 74 -14 118 88 59 135 -29 23
-46 25 -81 11z"/>
<path d="M6225 10185 c-13 -106 -86 -205 -151 -205 -17 0 -24 -6 -24 -20 0
-18 7 -20 60 -20 l60 0 0 -218 c0 -206 1 -220 23 -262 27 -54 68 -80 139 -86
102 -10 157 58 158 194 0 65 -2 72 -20 72 -18 0 -20 -7 -20 -62 -1 -116 -54
-186 -118 -156 -51 25 -57 53 -60 296 l-3 222 100 0 101 0 0 25 0 25 -100 0
-100 0 0 125 c0 116 -1 125 -19 125 -15 0 -20 -10 -26 -55z"/>
<path d="M22305 10185 c-13 -106 -86 -205 -151 -205 -17 0 -24 -6 -24 -20 0
-18 7 -20 60 -20 l60 0 0 -218 c0 -206 1 -220 23 -262 27 -54 68 -80 139 -86
102 -10 157 58 158 194 0 65 -2 72 -20 72 -18 0 -20 -7 -20 -62 -1 -116 -54
-186 -118 -156 -51 25 -57 53 -60 296 l-3 222 100 0 101 0 0 25 0 25 -100 0
-100 0 0 125 c0 116 -1 125 -19 125 -15 0 -20 -10 -26 -55z"/>
<path d="M8030 10189 c-80 -15 -183 -74 -241 -137 -253 -276 -103 -713 266
-774 236 -39 474 125 524 360 43 207 -56 416 -243 507 -105 52 -198 65 -306
44z m230 -56 c43 -15 140 -72 140 -83 0 -3 -61 -68 -134 -145 l-134 -140 -143
142 c-163 162 -160 147 -42 204 102 50 207 57 313 22z m-307 -261 l137 -137
-140 -140 c-159 -159 -144 -156 -201 -39 -54 112 -58 231 -9 341 22 50 61 113
70 113 3 0 67 -62 143 -138z m525 91 c59 -93 82 -203 62 -299 -13 -63 -48
-143 -80 -184 l-19 -25 -141 140 -140 140 137 137 c76 76 141 138 144 138 4 0
20 -21 37 -47z m-68 -539 c0 -2 -24 -19 -52 -38 -93 -59 -197 -82 -291 -67
-67 12 -161 52 -195 84 l-23 21 137 137 138 138 143 -136 c79 -74 143 -137
143 -139z"/>
<path d="M17470 10189 c-80 -15 -183 -74 -241 -137 -253 -276 -103 -713 266
-774 236 -39 474 125 524 360 43 207 -56 416 -243 507 -105 52 -198 65 -306
44z m230 -56 c43 -15 140 -72 140 -83 0 -3 -61 -68 -134 -145 l-134 -140 -143
142 c-163 162 -160 147 -42 204 102 50 207 57 313 22z m-307 -261 l137 -137
-140 -140 c-159 -159 -144 -156 -201 -39 -54 112 -58 231 -9 341 22 50 61 113
70 113 3 0 67 -62 143 -138z m525 91 c59 -93 82 -203 62 -299 -13 -63 -48
-143 -80 -184 l-19 -25 -141 140 -140 140 137 137 c76 76 141 138 144 138 4 0
20 -21 37 -47z m-68 -539 c0 -2 -24 -19 -52 -38 -93 -59 -197 -82 -291 -67
-67 12 -161 52 -195 84 l-23 21 137 137 138 138 143 -136 c79 -74 143 -137
143 -139z"/>
<path d="M3691 9979 c-130 -65 -195 -229 -152 -385 37 -138 192 -241 332 -220
86 13 175 90 194 169 6 23 4 27 -13 27 -14 0 -27 -14 -42 -45 -26 -54 -69 -89
-127 -104 -123 -33 -233 81 -233 241 l0 48 208 2 207 3 -3 54 c-11 197 -192
299 -371 210z m189 -24 c34 -18 75 -99 85 -167 l6 -48 -162 0 -162 0 7 47 c19
140 126 220 226 168z"/>
<path d="M19771 9979 c-130 -65 -195 -229 -152 -385 37 -138 192 -241 332
-220 86 13 175 90 194 169 6 23 4 27 -13 27 -14 0 -27 -14 -42 -45 -26 -54
-69 -89 -127 -104 -123 -33 -233 81 -233 241 l0 48 208 2 207 3 -3 54 c-11
197 -192 299 -371 210z m189 -24 c34 -18 75 -99 85 -167 l6 -48 -162 0 -162 0
7 47 c19 140 126 220 226 168z"/>
<path d="M2423 9993 c-37 -4 -43 -7 -43 -27 0 -20 6 -24 42 -29 23 -3 48 -14
55 -23 16 -22 19 -425 3 -455 -8 -14 -21 -19 -55 -19 -41 0 -45 -2 -45 -25 l0
-25 160 0 160 0 0 25 c0 23 -4 25 -43 25 -24 0 -48 5 -55 12 -8 8 -12 60 -12
168 0 191 12 241 69 293 69 62 145 68 185 13 19 -25 21 -43 24 -243 2 -154 0
-219 -9 -229 -7 -8 -30 -14 -55 -14 -40 0 -44 -2 -44 -25 l0 -25 160 0 160 0
0 25 c0 23 -4 25 -45 25 -60 0 -65 15 -65 180 0 145 11 215 43 261 63 93 184
112 224 35 13 -25 18 -69 21 -216 2 -102 0 -201 -5 -220 -9 -33 -12 -35 -56
-38 -42 -3 -47 -6 -47 -28 l0 -24 160 0 160 0 0 25 c0 23 -4 25 -42 25 -24 0
-48 4 -55 8 -8 5 -12 73 -15 222 -3 193 -5 218 -23 249 -34 58 -67 75 -149 79
-88 5 -128 -11 -181 -69 -19 -21 -37 -39 -39 -39 -2 0 -7 11 -10 25 -3 13 -23
37 -43 52 -30 23 -48 28 -109 31 -91 5 -148 -19 -194 -81 l-30 -41 0 62 0 62
-57 -2 c-32 -1 -77 -3 -100 -5z"/>
<path d="M4193 9993 c-37 -4 -43 -7 -43 -27 0 -20 6 -24 42 -29 23 -3 48 -14
55 -23 16 -22 19 -425 3 -455 -8 -14 -21 -19 -55 -19 -41 0 -45 -2 -45 -25 l0
-25 160 0 160 0 0 25 c0 23 -4 25 -43 25 -24 0 -48 5 -55 12 -8 8 -12 60 -12
168 0 191 12 241 69 293 69 62 145 68 185 13 19 -25 21 -43 24 -243 2 -154 0
-219 -9 -229 -7 -8 -30 -14 -55 -14 -40 0 -44 -2 -44 -25 l0 -25 160 0 160 0
0 25 c0 23 -4 25 -45 25 -60 0 -65 15 -65 180 0 145 11 215 43 261 63 93 184
112 224 35 13 -25 18 -69 21 -216 2 -102 0 -201 -5 -220 -9 -33 -12 -35 -56
-38 -42 -3 -47 -6 -47 -28 l0 -24 160 0 160 0 0 25 c0 23 -4 25 -42 25 -24 0
-48 4 -55 8 -8 5 -12 73 -15 222 -3 193 -5 218 -23 249 -34 58 -67 75 -149 79
-88 5 -128 -11 -181 -69 -19 -21 -37 -39 -39 -39 -2 0 -7 11 -10 25 -3 13 -23
37 -43 52 -30 23 -48 28 -109 31 -91 5 -148 -19 -194 -81 l-30 -41 0 62 0 62
-57 -2 c-32 -1 -77 -3 -100 -5z"/>
<path d="M5338 9993 c-43 -4 -48 -7 -48 -29 0 -20 5 -24 29 -24 16 0 41 -4 55
-10 l26 -10 0 -363 c0 -269 -3 -366 -12 -375 -7 -7 -31 -12 -55 -12 -39 0 -43
-2 -43 -25 l0 -25 160 0 160 0 0 25 c0 22 -4 25 -34 25 -67 0 -66 -1 -66 142
l0 130 30 -26 c93 -78 258 -50 359 60 58 63 81 123 81 210 0 87 -25 156 -79
216 -60 67 -126 98 -209 98 -71 0 -124 -19 -164 -57 l-28 -27 0 42 0 42 -57
-2 c-32 -1 -79 -3 -105 -5z m419 -62 c26 -19 51 -50 69 -88 26 -51 29 -69 29
-153 0 -84 -3 -102 -28 -152 -67 -137 -192 -167 -281 -68 l-36 40 0 178 0 178
33 31 c74 71 147 82 214 34z"/>
<path d="M9063 9993 c-38 -4 -43 -7 -43 -29 0 -20 5 -24 28 -24 15 0 38 -7 50
-16 22 -15 22 -19 22 -238 0 -159 -3 -225 -12 -234 -7 -7 -31 -12 -55 -12 -39
0 -43 -2 -43 -25 l0 -25 150 0 150 0 0 25 c0 21 -5 25 -29 25 -64 0 -61 -14
-61 286 l0 274 -57 -2 c-32 -1 -77 -3 -100 -5z"/>
<path d="M15663 9993 c-38 -4 -43 -7 -43 -29 0 -20 5 -24 28 -24 15 0 38 -7
50 -16 22 -15 22 -19 22 -238 0 -159 -3 -225 -12 -234 -7 -7 -31 -12 -55 -12
-39 0 -43 -2 -43 -25 l0 -25 150 0 150 0 0 25 c0 21 -5 25 -29 25 -64 0 -61
-14 -61 286 l0 274 -57 -2 c-32 -1 -77 -3 -100 -5z"/>
<path d="M18503 9993 c-37 -4 -43 -7 -43 -27 0 -20 6 -24 42 -29 23 -3 48 -14
55 -23 16 -22 19 -425 3 -455 -8 -14 -21 -19 -55 -19 -41 0 -45 -2 -45 -25 l0
-25 160 0 160 0 0 25 c0 23 -4 25 -43 25 -24 0 -48 5 -55 12 -8 8 -12 60 -12
168 0 191 12 241 69 293 69 62 145 68 185 13 19 -25 21 -43 24 -243 2 -154 0
-219 -9 -229 -7 -8 -30 -14 -55 -14 -40 0 -44 -2 -44 -25 l0 -25 160 0 160 0
0 25 c0 23 -4 25 -45 25 -60 0 -65 15 -65 180 0 145 11 215 43 261 63 93 184
112 224 35 13 -25 18 -69 21 -216 2 -102 0 -201 -5 -220 -9 -33 -12 -35 -56
-38 -42 -3 -47 -6 -47 -28 l0 -24 160 0 160 0 0 25 c0 23 -4 25 -42 25 -24 0
-48 4 -55 8 -8 5 -12 73 -15 222 -3 193 -5 218 -23 249 -34 58 -67 75 -149 79
-88 5 -128 -11 -181 -69 -19 -21 -37 -39 -39 -39 -2 0 -7 11 -10 25 -3 13 -23
37 -43 52 -30 23 -48 28 -109 31 -91 5 -148 -19 -194 -81 l-30 -41 0 62 0 62
-57 -2 c-32 -1 -77 -3 -100 -5z"/>
<path d="M20273 9993 c-37 -4 -43 -7 -43 -27 0 -20 6 -24 42 -29 23 -3 48 -14
55 -23 16 -22 19 -425 3 -455 -8 -14 -21 -19 -55 -19 -41 0 -45 -2 -45 -25 l0
-25 160 0 160 0 0 25 c0 23 -4 25 -43 25 -24 0 -48 5 -55 12 -8 8 -12 60 -12
168 0 191 12 241 69 293 69 62 145 68 185 13 19 -25 21 -43 24 -243 2 -154 0
-219 -9 -229 -7 -8 -30 -14 -55 -14 -40 0 -44 -2 -44 -25 l0 -25 160 0 160 0
0 25 c0 23 -4 25 -45 25 -60 0 -65 15 -65 180 0 145 11 215 43 261 63 93 184
112 224 35 13 -25 18 -69 21 -216 2 -102 0 -201 -5 -220 -9 -33 -12 -35 -56
-38 -42 -3 -47 -6 -47 -28 l0 -24 160 0 160 0 0 25 c0 23 -4 25 -42 25 -24 0
-48 4 -55 8 -8 5 -12 73 -15 222 -3 193 -5 218 -23 249 -34 58 -67 75 -149 79
-88 5 -128 -11 -181 -69 -19 -21 -37 -39 -39 -39 -2 0 -7 11 -10 25 -3 13 -23
37 -43 52 -30 23 -48 28 -109 31 -91 5 -148 -19 -194 -81 l-30 -41 0 62 0 62
-57 -2 c-32 -1 -77 -3 -100 -5z"/>
<path d="M21418 9993 c-43 -4 -48 -7 -48 -29 0 -20 5 -24 29 -24 16 0 41 -4
55 -10 l26 -10 0 -363 c0 -269 -3 -366 -12 -375 -7 -7 -31 -12 -55 -12 -39 0
-43 -2 -43 -25 l0 -25 160 0 160 0 0 25 c0 22 -4 25 -34 25 -67 0 -66 -1 -66
142 l0 130 30 -26 c93 -78 258 -50 359 60 58 63 81 123 81 210 0 87 -25 156
-79 216 -60 67 -126 98 -209 98 -71 0 -124 -19 -164 -57 l-28 -27 0 42 0 42
-57 -2 c-32 -1 -79 -3 -105 -5z m419 -62 c26 -19 51 -50 69 -88 26 -51 29 -69
29 -153 0 -84 -3 -102 -28 -152 -67 -137 -192 -167 -281 -68 l-36 40 0 178 0
178 33 31 c74 71 147 82 214 34z"/>
<path d="M6550 9964 c0 -18 7 -22 41 -27 23 -3 47 -11 54 -19 7 -7 61 -129
119 -271 l106 -258 -26 -62 c-64 -153 -134 -217 -194 -177 -13 9 -13 12 1 20
26 15 32 58 14 87 -13 20 -23 24 -53 21 -70 -6 -82 -82 -21 -139 63 -59 162
-43 223 36 20 26 85 171 167 371 139 340 159 376 219 389 22 5 30 12 30 29 0
21 -4 22 -115 23 -114 1 -115 1 -115 -22 0 -16 7 -25 25 -29 14 -4 30 -17 36
-30 9 -19 -1 -52 -63 -204 l-74 -180 -77 190 c-43 104 -76 196 -73 204 3 8 19
17 36 20 23 5 30 12 30 29 0 22 -1 22 -145 22 -142 -1 -145 -1 -145 -23z"/>
<path d="M22630 9964 c0 -18 7 -22 41 -27 23 -3 47 -11 54 -19 7 -7 61 -129
119 -271 l106 -258 -26 -62 c-64 -153 -134 -217 -194 -177 -13 9 -13 12 1 20
26 15 32 58 14 87 -13 20 -23 24 -53 21 -70 -6 -82 -82 -21 -139 63 -59 162
-43 223 36 20 26 85 171 167 371 139 340 159 376 219 389 22 5 30 12 30 29 0
21 -4 22 -115 23 -114 1 -115 1 -115 -22 0 -16 7 -25 25 -29 14 -4 30 -17 36
-30 9 -19 -1 -52 -63 -204 l-74 -180 -77 190 c-43 104 -76 196 -73 204 3 8 19
17 36 20 23 5 30 12 30 29 0 22 -1 22 -145 22 -142 -1 -145 -1 -145 -23z"/>
<path d="M12750 9089 c-80 -15 -183 -74 -241 -137 -253 -276 -103 -713 266
-774 236 -39 474 125 524 360 43 207 -56 416 -243 507 -105 52 -198 65 -306
44z m230 -56 c43 -15 140 -72 140 -83 0 -3 -61 -68 -134 -145 l-134 -140 -143
142 c-163 162 -160 147 -42 204 102 50 207 57 313 22z m-307 -261 l137 -137
-140 -140 c-159 -159 -144 -156 -201 -39 -54 112 -58 231 -9 341 22 50 61 113
70 113 3 0 67 -62 143 -138z m525 91 c59 -93 82 -203 62 -299 -13 -63 -48
-143 -80 -184 l-19 -25 -141 140 -140 140 137 137 c76 76 141 138 144 138 4 0
20 -21 37 -47z m-68 -539 c0 -2 -24 -19 -52 -38 -93 -59 -197 -82 -291 -67
-67 12 -161 52 -195 84 l-23 21 137 137 138 138 143 -136 c79 -74 143 -137
143 -139z"/>
<path d="M543 8943 c-37 -4 -43 -7 -43 -27 0 -20 6 -24 42 -29 23 -3 48 -14
55 -23 16 -22 19 -425 3 -455 -8 -14 -21 -19 -55 -19 -41 0 -45 -2 -45 -25 l0
-25 160 0 160 0 0 25 c0 23 -4 25 -43 25 -24 0 -48 5 -55 12 -8 8 -12 60 -12
168 0 191 12 241 69 293 69 62 145 68 185 13 19 -25 21 -43 24 -243 2 -154 0
-219 -9 -229 -7 -8 -30 -14 -55 -14 -40 0 -44 -2 -44 -25 l0 -25 160 0 160 0
0 25 c0 23 -4 25 -45 25 -60 0 -65 15 -65 180 0 145 11 215 43 261 63 93 184
112 224 35 13 -25 18 -69 21 -216 2 -102 0 -201 -5 -220 -9 -33 -12 -35 -56
-38 -42 -3 -47 -6 -47 -28 l0 -24 160 0 160 0 0 25 c0 23 -4 25 -42 25 -24 0
-48 4 -55 8 -8 5 -12 73 -15 222 -3 193 -5 218 -23 249 -34 58 -67 75 -149 79
-88 5 -128 -11 -181 -69 -19 -21 -37 -39 -39 -39 -2 0 -7 11 -10 25 -3 13 -23
37 -43 52 -30 23 -48 28 -109 31 -91 5 -148 -19 -194 -81 l-30 -41 0 62 0 62
-57 -2 c-32 -1 -77 -3 -100 -5z"/>
<path d="M24163 8943 c-37 -4 -43 -7 -43 -27 0 -20 6 -24 42 -29 23 -3 48 -14
55 -23 16 -22 19 -425 3 -455 -8 -14 -21 -19 -55 -19 -41 0 -45 -2 -45 -25 l0
-25 160 0 160 0 0 25 c0 23 -4 25 -43 25 -24 0 -48 5 -55 12 -8 8 -12 60 -12
168 0 191 12 241 69 293 69 62 145 68 185 13 19 -25 21 -43 24 -243 2 -154 0
-219 -9 -229 -7 -8 -30 -14 -55 -14 -40 0 -44 -2 -44 -25 l0 -25 160 0 160 0
0 25 c0 23 -4 25 -45 25 -60 0 -65 15 -65 180 0 145 11 215 43 261 63 93 184
112 224 35 13 -25 18 -69 21 -216 2 -102 0 -201 -5 -220 -9 -33 -12 -35 -56
-38 -42 -3 -47 -6 -47 -28 l0 -24 160 0 160 0 0 25 c0 23 -4 25 -42 25 -24 0
-48 4 -55 8 -8 5 -12 73 -15 222 -3 193 -5 218 -23 249 -34 58 -67 75 -149 79
-88 5 -128 -11 -181 -69 -19 -21 -37 -39 -39 -39 -2 0 -7 11 -10 25 -3 13 -23
37 -43 52 -30 23 -48 28 -109 31 -91 5 -148 -19 -194 -81 l-30 -41 0 62 0 62
-57 -2 c-32 -1 -77 -3 -100 -5z"/>
<path d="M10933 8893 c-37 -4 -43 -7 -43 -27 0 -20 6 -24 42 -29 23 -3 48 -14
55 -23 16 -22 19 -425 3 -455 -8 -14 -21 -19 -55 -19 -41 0 -45 -2 -45 -25 l0
-25 160 0 160 0 0 25 c0 23 -4 25 -43 25 -24 0 -48 5 -55 12 -8 8 -12 60 -12
168 0 191 12 241 69 293 69 62 145 68 185 13 19 -25 21 -43 24 -243 2 -154 0
-219 -9 -229 -7 -8 -30 -14 -55 -14 -40 0 -44 -2 -44 -25 l0 -25 160 0 160 0
0 25 c0 23 -4 25 -45 25 -60 0 -65 15 -65 180 0 145 11 215 43 261 63 93 184
112 224 35 13 -25 18 -69 21 -216 2 -102 0 -201 -5 -220 -9 -33 -12 -35 -56
-38 -42 -3 -47 -6 -47 -28 l0 -24 160 0 160 0 0 25 c0 23 -4 25 -42 25 -24 0
-48 4 -55 8 -8 5 -12 73 -15 222 -3 193 -5 218 -23 249 -34 58 -67 75 -149 79
-88 5 -128 -11 -181 -69 -19 -21 -37 -39 -39 -39 -2 0 -7 11 -10 25 -3 13 -23
37 -43 52 -30 23 -48 28 -109 31 -91 5 -148 -19 -194 -81 l-30 -41 0 62 0 62
-57 -2 c-32 -1 -77 -3 -100 -5z"/>
<path d="M13773 8893 c-37 -4 -43 -7 -43 -27 0 -20 6 -24 42 -29 23 -3 48 -14
55 -23 16 -22 19 -425 3 -455 -8 -14 -21 -19 -55 -19 -41 0 -45 -2 -45 -25 l0
-25 160 0 160 0 0 25 c0 23 -4 25 -43 25 -24 0 -48 5 -55 12 -8 8 -12 60 -12
168 0 191 12 241 69 293 69 62 145 68 185 13 19 -25 21 -43 24 -243 2 -154 0
-219 -9 -229 -7 -8 -30 -14 -55 -14 -40 0 -44 -2 -44 -25 l0 -25 160 0 160 0
0 25 c0 23 -4 25 -45 25 -60 0 -65 15 -65 180 0 145 11 215 43 261 63 93 184
112 224 35 13 -25 18 -69 21 -216 2 -102 0 -201 -5 -220 -9 -33 -12 -35 -56
-38 -42 -3 -47 -6 -47 -28 l0 -24 160 0 160 0 0 25 c0 23 -4 25 -42 25 -24 0
-48 4 -55 8 -8 5 -12 73 -15 222 -3 193 -5 218 -23 249 -34 58 -67 75 -149 79
-88 5 -128 -11 -181 -69 -19 -21 -37 -39 -39 -39 -2 0 -7 11 -10 25 -3 13 -23
37 -43 52 -30 23 -48 28 -109 31 -91 5 -148 -19 -194 -81 l-30 -41 0 62 0 62
-57 -2 c-32 -1 -77 -3 -100 -5z"/>
<path d="M10109 8868 c-4 -47 13 -81 80 -150 l45 -48 -4067 0 -4067 0 0 -35 0
-35 4066 0 4066 0 -48 -52 c-57 -65 -87 -124 -73 -150 13 -25 26 -23 45 10 59
96 91 128 194 202 28 20 19 39 -31 70 -51 31 -138 124 -156 168 -13 32 -52 46
-54 20z"/>
<path d="M15534 8848 c-28 -56 -83 -117 -145 -160 -32 -23 -59 -48 -59 -54 0
-7 19 -26 43 -43 56 -38 155 -145 163 -176 6 -24 29 -39 45 -29 5 3 9 18 9 33
0 31 -72 137 -111 165 -22 15 292 16 4049 16 l4072 0 0 35 0 35 -4066 0 -4067
0 46 48 c52 56 77 100 77 137 0 38 -35 33 -56 -7z"/>
<path d="M2095 7924 c-10 -16 -13 -29 -7 -33 123 -77 9562 -6376 9562 -6381 0
-4 -20 -10 -45 -13 -61 -9 -143 -45 -156 -70 -8 -14 -7 -23 3 -33 12 -13 20
-11 59 10 58 32 111 45 199 50 39 2 74 7 77 10 3 3 -7 43 -22 88 -21 63 -28
104 -29 168 -1 71 -4 85 -18 88 -29 6 -41 -35 -35 -122 3 -45 9 -90 13 -100 6
-15 4 -17 -7 -11 -8 5 -2160 1439 -4783 3188 -2622 1748 -4774 3181 -4781
3183 -6 3 -20 -7 -30 -22z"/>
<path d="M18786 4759 c-2629 -1754 -4781 -3187 -4783 -3185 -2 2 1 23 6 47 22
95 8 194 -27 187 -14 -3 -17 -16 -18 -82 -1 -55 -10 -103 -29 -162 -31 -96
-29 -119 12 -110 44 10 189 -20 237 -48 36 -21 46 -23 60 -13 10 8 15 19 11
29 -9 24 -100 67 -157 74 -26 4 -48 10 -48 14 0 4 586 397 1303 875 716 477
2869 1914 4784 3192 l3483 2324 -16 24 c-9 14 -21 25 -28 24 -6 0 -2162 -1436
-4790 -3190z"/>
<path d="M12820 4679 l0 -3012 -53 50 c-61 58 -109 86 -140 81 -42 -6 -31 -34
26 -66 55 -31 137 -113 163 -164 19 -37 45 -35 69 5 32 55 118 138 168 164 51
26 61 55 20 61 -32 5 -82 -24 -140 -81 l-53 -51 0 3012 0 3012 -30 0 -30 0 0
-3011z"/>
<path d="M18213 6213 c-38 -4 -43 -7 -43 -29 0 -20 5 -24 33 -24 60 0 62 -4
65 -171 l3 -152 -30 25 c-85 72 -240 54 -335 -38 -62 -61 -81 -107 -81 -204 0
-73 4 -92 27 -136 59 -112 183 -172 299 -144 28 7 63 23 80 37 l29 25 0 -36 0
-36 78 6 c108 7 122 11 122 33 0 14 -10 20 -40 25 -31 5 -43 12 -50 32 -6 15
-10 186 -10 410 l0 384 -52 -2 c-29 -1 -72 -3 -95 -5z m-45 -359 c20 -8 49
-27 65 -41 l27 -27 0 -158 0 -157 -30 -35 c-38 -42 -107 -71 -151 -62 -48 9
-99 53 -122 104 -28 66 -29 209 0 272 32 71 91 116 156 119 10 1 34 -6 55 -15z"/>
<path d="M13480 5903 c-81 -5 -100 -11 -100 -32 0 -14 10 -20 40 -25 25 -4 43
-14 50 -27 12 -22 10 -402 -2 -414 -3 -4 -25 -9 -47 -12 -31 -4 -41 -10 -41
-24 0 -18 10 -19 145 -19 138 0 145 1 145 20 0 15 -7 20 -26 20 -14 0 -34 5
-45 10 -18 10 -19 23 -19 166 0 200 16 244 105 285 56 26 82 24 116 -10 l29
-29 0 -201 c0 -188 -1 -201 -19 -211 -11 -5 -31 -10 -45 -10 -19 0 -26 -5 -26
-20 0 -19 7 -20 145 -20 135 0 145 1 145 19 0 14 -10 20 -41 24 -22 3 -44 8
-47 12 -4 4 -8 67 -10 141 -4 167 10 225 67 277 44 39 106 56 141 37 42 -22
50 -66 50 -264 0 -173 -1 -186 -19 -196 -11 -5 -33 -10 -50 -10 -24 0 -31 -4
-31 -20 0 -19 7 -20 150 -20 143 0 150 1 150 20 0 15 -7 20 -24 20 -14 0 -36
4 -50 10 l-26 10 0 187 c0 163 -3 194 -19 230 -46 100 -214 110 -306 19 l-41
-41 -14 30 c-23 46 -74 70 -150 70 -73 -1 -116 -19 -162 -68 l-28 -31 0 52 c0
44 -3 52 -17 50 -10 -1 -43 -3 -73 -5z"/>
<path d="M14568 5890 c-55 -30 -80 -66 -76 -114 2 -33 8 -43 31 -54 22 -11 32
-11 55 0 37 18 44 78 11 102 -28 19 -22 25 40 42 104 27 181 -32 181 -139 l0
-44 -72 -6 c-183 -14 -306 -114 -284 -230 8 -45 51 -82 118 -102 92 -27 167
-13 220 41 l31 32 22 -31 c41 -63 130 -61 172 2 31 46 34 151 4 151 -15 0 -19
-10 -24 -61 -6 -65 -24 -96 -51 -86 -29 11 -36 56 -36 220 0 190 -8 214 -85
262 -43 26 -59 30 -134 33 -70 2 -93 -2 -123 -18z m242 -325 c0 -97 -13 -131
-60 -165 -87 -62 -200 -8 -187 89 6 50 31 83 82 113 32 18 112 42 158 47 4 1
7 -37 7 -84z"/>
<path d="M15175 5903 c-87 -5 -105 -10 -105 -33 0 -15 7 -20 24 -20 14 0 36
-4 50 -10 l26 -10 0 -328 c0 -242 -3 -331 -12 -340 -7 -7 -29 -12 -50 -12 -33
0 -38 -3 -38 -22 0 -23 1 -23 150 -23 149 0 150 0 150 23 0 19 -5 22 -38 22
-21 0 -43 5 -50 12 -11 11 -18 228 -7 228 2 0 20 -11 40 -24 70 -48 180 -42
267 13 86 55 130 136 130 242 0 222 -232 362 -406 244 l-36 -24 0 34 c0 27 -4
35 -17 33 -10 -1 -45 -3 -78 -5z m351 -88 c94 -98 96 -285 5 -389 -21 -24 -85
-56 -112 -56 -39 0 -107 40 -129 74 -18 30 -20 50 -20 179 0 143 0 146 27 178
34 41 75 58 137 59 46 0 53 -3 92 -45z"/>
<path d="M15895 5903 c-87 -5 -105 -10 -105 -33 0 -15 7 -20 24 -20 14 0 36
-4 50 -10 l26 -10 0 -328 c0 -242 -3 -331 -12 -340 -7 -7 -29 -12 -50 -12 -33
0 -38 -3 -38 -22 0 -23 1 -23 150 -23 149 0 150 0 150 23 0 19 -5 22 -38 22
-21 0 -43 5 -50 12 -11 11 -18 228 -7 228 2 0 20 -11 40 -24 70 -48 180 -42
267 13 86 55 130 136 130 242 0 222 -232 362 -406 244 l-36 -24 0 34 c0 27 -4
35 -17 33 -10 -1 -45 -3 -78 -5z m351 -88 c94 -98 96 -285 5 -389 -21 -24 -85
-56 -112 -56 -39 0 -107 40 -129 74 -18 30 -20 50 -20 179 0 143 0 146 27 178
34 41 75 58 137 59 46 0 53 -3 92 -45z"/>
<path d="M16695 5891 c-172 -79 -216 -330 -82 -469 82 -86 224 -114 316 -62
55 31 101 87 104 125 3 47 -26 43 -48 -6 -11 -22 -35 -53 -54 -67 -29 -23 -44
-27 -100 -27 -53 0 -72 5 -99 23 -43 31 -73 92 -79 164 l-6 58 194 2 194 3 4
25 c6 43 -19 127 -50 170 -17 24 -48 50 -72 61 -56 25 -167 25 -222 0z m148
-25 c57 -24 84 -68 101 -163 l6 -33 -151 0 -151 0 6 38 c13 71 47 125 96 150
52 26 51 26 93 8z"/>
<path d="M17210 5903 c-81 -5 -100 -11 -100 -32 0 -14 10 -20 40 -25 25 -4 43
-14 50 -27 12 -22 10 -402 -2 -414 -3 -4 -25 -9 -47 -12 -31 -4 -41 -10 -41
-24 0 -18 10 -19 145 -19 138 0 145 1 145 20 0 15 -7 20 -26 20 -14 0 -34 5
-45 10 -18 10 -19 23 -19 168 0 131 3 164 19 198 34 74 127 123 179 93 47 -26
52 -49 52 -256 0 -180 -1 -193 -19 -203 -11 -5 -31 -10 -45 -10 -19 0 -26 -5
-26 -20 0 -19 7 -20 145 -20 135 0 145 1 145 19 0 14 -10 20 -41 24 -23 3 -46
11 -50 19 -5 7 -9 96 -9 198 0 156 -3 190 -18 220 -26 51 -74 75 -152 75 -73
-1 -116 -19 -162 -68 l-28 -31 0 52 c0 44 -3 52 -17 50 -10 -1 -43 -3 -73 -5z"/>
<path d="M6168 4203 c-54 -4 -58 -6 -58 -28 0 -20 6 -25 38 -31 62 -11 62 -11
62 -185 l0 -159 -41 27 c-54 35 -152 43 -227 19 -142 -47 -232 -208 -202 -361
28 -146 152 -255 290 -255 51 0 98 17 143 52 l37 29 0 -41 0 -40 83 5 c119 9
127 11 127 40 0 22 -4 25 -39 25 -73 0 -71 -12 -71 477 l0 433 -42 -2 c-24 -1
-69 -3 -100 -5z m-31 -405 c68 -41 73 -57 73 -248 l0 -173 -48 -48 c-93 -93
-212 -74 -274 45 -17 32 -23 63 -26 146 -2 59 1 123 7 146 36 135 161 196 268
132z"/>
<path d="M20108 4203 c-54 -4 -58 -6 -58 -28 0 -20 6 -25 38 -31 62 -11 62
-11 62 -185 l0 -159 -41 27 c-54 35 -152 43 -227 19 -142 -47 -232 -208 -202
-361 28 -146 152 -255 290 -255 51 0 98 17 143 52 l37 29 0 -41 0 -40 83 5
c119 9 127 11 127 40 0 22 -4 25 -39 25 -73 0 -71 -12 -71 477 l0 433 -42 -2
c-24 -1 -69 -3 -100 -5z m-31 -405 c68 -41 73 -57 73 -248 l0 -173 -48 -48
c-93 -93 -212 -74 -274 45 -17 32 -23 63 -26 146 -2 59 1 123 7 146 36 135
161 196 268 132z"/>
<path d="M5443 4170 c-67 -27 -52 -132 22 -146 74 -14 118 88 59 135 -29 23
-46 25 -81 11z"/>
<path d="M19383 4170 c-67 -27 -52 -132 22 -146 74 -14 118 88 59 135 -29 23
-46 25 -81 11z"/>
<path d="M5393 3853 c-38 -4 -43 -7 -43 -29 0 -20 5 -24 28 -24 15 0 38 -7 50
-16 22 -15 22 -19 22 -238 0 -159 -3 -225 -12 -234 -7 -7 -31 -12 -55 -12 -39
0 -43 -2 -43 -25 l0 -25 150 0 150 0 0 25 c0 21 -5 25 -29 25 -64 0 -61 -14
-61 286 l0 274 -57 -2 c-32 -1 -77 -3 -100 -5z"/>
<path d="M19333 3853 c-38 -4 -43 -7 -43 -29 0 -20 5 -24 28 -24 15 0 38 -7
50 -16 22 -15 22 -19 22 -238 0 -159 -3 -225 -12 -234 -7 -7 -31 -12 -55 -12
-39 0 -43 -2 -43 -25 l0 -25 150 0 150 0 0 25 c0 21 -5 25 -29 25 -64 0 -61
-14 -61 286 l0 274 -57 -2 c-32 -1 -77 -3 -100 -5z"/>
<path d="M12353 1063 c-37 -4 -43 -7 -43 -27 0 -20 6 -24 42 -29 23 -3 48 -14
55 -23 16 -22 19 -425 3 -455 -8 -14 -21 -19 -55 -19 -41 0 -45 -2 -45 -25 l0
-25 160 0 160 0 0 25 c0 23 -4 25 -43 25 -24 0 -48 5 -55 12 -8 8 -12 60 -12
168 0 191 12 241 69 293 69 62 145 68 185 13 19 -25 21 -43 24 -243 2 -154 0
-219 -9 -229 -7 -8 -30 -14 -55 -14 -40 0 -44 -2 -44 -25 l0 -25 160 0 160 0
0 25 c0 23 -4 25 -45 25 -60 0 -65 15 -65 180 0 145 11 215 43 261 63 93 184
112 224 35 13 -25 18 -69 21 -216 2 -102 0 -201 -5 -220 -9 -33 -12 -35 -56
-38 -42 -3 -47 -6 -47 -28 l0 -24 160 0 160 0 0 25 c0 23 -4 25 -42 25 -24 0
-48 4 -55 8 -8 5 -12 73 -15 222 -3 193 -5 218 -23 249 -34 58 -67 75 -149 79
-88 5 -128 -11 -181 -69 -19 -21 -37 -39 -39 -39 -2 0 -7 11 -10 25 -3 13 -23
37 -43 52 -30 23 -48 28 -109 31 -91 5 -148 -19 -194 -81 l-30 -41 0 62 0 62
-57 -2 c-32 -1 -77 -3 -100 -5z"/>
</g>
</svg>
