<?xml version="1.0" standalone="no"?>
<!DOCTYPE svg PUBLIC "-//W3C//DTD SVG 20010904//EN"
 "http://www.w3.org/TR/2001/REC-SVG-20010904/DTD/svg10.dtd">
<svg version="1.0" xmlns="http://www.w3.org/2000/svg"
 width="2770.000000pt" height="1223.000000pt" viewBox="0 0 2770.000000 1223.000000"
 preserveAspectRatio="xMidYMid meet">
<metadata>
Created by potrace 1.16, written by Peter Selinger 2001-2019
</metadata>
<g transform="translate(0.000000,1223.000000) scale(0.100000,-0.100000)"
fill="#000000" stroke="none">
<path d="M17058 11763 c-54 -4 -58 -6 -58 -28 0 -20 6 -25 38 -31 62 -11 62
-11 62 -185 l0 -159 -41 27 c-54 35 -152 43 -227 19 -142 -47 -232 -208 -202
-361 28 -146 152 -255 290 -255 51 0 98 17 143 52 l37 29 0 -41 0 -40 83 5
c119 9 127 11 127 40 0 22 -4 25 -39 25 -73 0 -71 -12 -71 477 l0 433 -42 -2
c-24 -1 -69 -3 -100 -5z m-31 -405 c68 -41 73 -57 73 -248 l0 -173 -48 -48
c-93 -93 -212 -74 -274 45 -17 32 -23 63 -26 146 -2 59 1 123 7 146 36 135
161 196 268 132z"/>
<path d="M19898 11763 c-54 -4 -58 -6 -58 -28 0 -20 6 -25 38 -31 62 -11 62
-11 62 -185 l0 -159 -41 27 c-54 35 -152 43 -227 19 -142 -47 -232 -208 -202
-361 28 -146 152 -255 290 -255 51 0 98 17 143 52 l37 29 0 -41 0 -40 83 5
c119 9 127 11 127 40 0 22 -4 25 -39 25 -73 0 -71 -12 -71 477 l0 433 -42 -2
c-24 -1 -69 -3 -100 -5z m-31 -405 c68 -41 73 -57 73 -248 l0 -173 -48 -48
c-93 -93 -212 -74 -274 45 -17 32 -23 63 -26 146 -2 59 1 123 7 146 36 135
161 196 268 132z"/>
<path d="M19183 11730 c-67 -27 -52 -132 22 -146 74 -14 118 88 59 135 -29 23
-46 25 -81 11z"/>
<path d="M18100 11609 c-80 -15 -183 -74 -241 -137 -253 -276 -103 -713 266
-774 236 -39 474 125 524 360 43 207 -56 416 -243 507 -105 52 -198 65 -306
44z m230 -56 c43 -15 140 -72 140 -83 0 -3 -61 -68 -134 -145 l-134 -140 -143
142 c-163 162 -160 147 -42 204 102 50 207 57 313 22z m-307 -261 l137 -137
-140 -140 c-159 -159 -144 -156 -201 -39 -54 112 -58 231 -9 341 22 50 61 113
70 113 3 0 67 -62 143 -138z m525 91 c59 -93 82 -203 62 -299 -13 -63 -48
-143 -80 -184 l-19 -25 -141 140 -140 140 137 137 c76 76 141 138 144 138 4 0
20 -21 37 -47z m-68 -539 c0 -2 -24 -19 -52 -38 -93 -59 -197 -82 -291 -67
-67 12 -161 52 -195 84 l-23 21 137 137 138 138 143 -136 c79 -74 143 -137
143 -139z"/>
<path d="M13142 11417 c-87 -33 -139 -115 -110 -174 19 -41 61 -52 96 -26 41
30 42 71 2 105 l-32 26 40 21 c60 31 132 28 172 -5 41 -35 58 -71 66 -137 l6
-54 -78 -6 c-115 -9 -197 -40 -255 -96 -107 -104 -79 -223 63 -266 100 -29
179 -14 238 45 35 35 40 37 45 20 11 -36 63 -70 107 -70 32 0 47 7 74 34 32
32 34 38 34 105 0 64 -2 71 -20 71 -18 0 -20 -7 -20 -63 0 -49 -4 -68 -18 -80
-25 -23 -38 -21 -56 5 -13 18 -16 56 -16 203 -1 235 -11 266 -109 323 -34 20
-60 26 -120 29 -44 1 -90 -3 -109 -10z m238 -348 c0 -123 -22 -176 -91 -218
-86 -52 -189 2 -189 99 0 98 108 174 268 189 8 1 12 -19 12 -70z"/>
<path d="M15401 11399 c-130 -65 -195 -229 -152 -385 37 -138 192 -241 332
-220 86 13 175 90 194 169 6 23 4 27 -13 27 -14 0 -27 -14 -42 -45 -26 -54
-69 -89 -127 -104 -123 -33 -233 81 -233 241 l0 48 208 2 207 3 -3 54 c-11
197 -192 299 -371 210z m189 -24 c34 -18 75 -99 85 -167 l6 -48 -162 0 -162 0
7 47 c19 140 126 220 226 168z"/>
<path d="M11863 11413 c-37 -4 -43 -7 -43 -27 0 -20 6 -24 42 -29 23 -3 48
-14 55 -23 16 -22 19 -425 3 -455 -8 -14 -21 -19 -55 -19 -41 0 -45 -2 -45
-25 l0 -25 160 0 160 0 0 25 c0 23 -4 25 -43 25 -24 0 -48 5 -55 12 -8 8 -12
60 -12 168 0 191 12 241 69 293 69 62 145 68 185 13 19 -25 21 -43 24 -243 2
-154 0 -219 -9 -229 -7 -8 -30 -14 -55 -14 -40 0 -44 -2 -44 -25 l0 -25 160 0
160 0 0 25 c0 23 -4 25 -45 25 -60 0 -65 15 -65 180 0 145 11 215 43 261 63
93 184 112 224 35 13 -25 18 -69 21 -216 2 -102 0 -201 -5 -220 -9 -33 -12
-35 -56 -38 -42 -3 -47 -6 -47 -28 l0 -24 160 0 160 0 0 25 c0 23 -4 25 -42
25 -24 0 -48 4 -55 8 -8 5 -12 73 -15 222 -3 193 -5 218 -23 249 -34 58 -67
75 -149 79 -88 5 -128 -11 -181 -69 -19 -21 -37 -39 -39 -39 -2 0 -7 11 -10
25 -3 13 -23 37 -43 52 -30 23 -48 28 -109 31 -91 5 -148 -19 -194 -81 l-30
-41 0 62 0 62 -57 -2 c-32 -1 -77 -3 -100 -5z"/>
<path d="M13698 11413 c-43 -4 -48 -7 -48 -29 0 -20 5 -24 29 -24 16 0 41 -4
55 -10 l26 -10 0 -363 c0 -269 -3 -366 -12 -375 -7 -7 -31 -12 -55 -12 -39 0
-43 -2 -43 -25 l0 -25 160 0 160 0 0 25 c0 22 -4 25 -34 25 -67 0 -66 -1 -66
142 l0 130 30 -26 c93 -78 258 -50 359 60 58 63 81 123 81 210 0 87 -25 156
-79 216 -60 67 -126 98 -209 98 -71 0 -124 -19 -164 -57 l-28 -27 0 42 0 42
-57 -2 c-32 -1 -79 -3 -105 -5z m419 -62 c26 -19 51 -50 69 -88 26 -51 29 -69
29 -153 0 -84 -3 -102 -28 -152 -67 -137 -192 -167 -281 -68 l-36 40 0 178 0
178 33 31 c74 71 147 82 214 34z"/>
<path d="M14468 11413 c-43 -4 -48 -7 -48 -29 0 -20 5 -24 29 -24 16 0 41 -4
55 -10 l26 -10 0 -363 c0 -269 -3 -366 -12 -375 -7 -7 -31 -12 -55 -12 -39 0
-43 -2 -43 -25 l0 -25 160 0 160 0 0 25 c0 22 -4 25 -34 25 -67 0 -66 -1 -66
142 l0 130 30 -26 c93 -78 258 -50 359 60 58 63 81 123 81 210 0 87 -25 156
-79 216 -60 67 -126 98 -209 98 -71 0 -124 -19 -164 -57 l-28 -27 0 42 0 42
-57 -2 c-32 -1 -79 -3 -105 -5z m419 -62 c26 -19 51 -50 69 -88 26 -51 29 -69
29 -153 0 -84 -3 -102 -28 -152 -67 -137 -192 -167 -281 -68 l-36 40 0 178 0
178 33 31 c74 71 147 82 214 34z"/>
<path d="M15893 11413 c-37 -4 -43 -7 -43 -27 0 -20 6 -24 42 -29 23 -3 48
-14 55 -23 16 -22 19 -425 3 -455 -8 -14 -21 -19 -55 -19 -41 0 -45 -2 -45
-25 l0 -25 160 0 160 0 0 25 c0 23 -4 25 -43 25 -24 0 -48 5 -55 12 -8 8 -12
60 -12 168 0 191 12 241 69 293 69 62 145 68 185 13 19 -25 21 -43 24 -243 2
-154 0 -219 -9 -229 -7 -8 -30 -14 -55 -14 -40 0 -44 -2 -44 -25 l0 -25 160 0
160 0 0 25 c0 23 -4 25 -45 25 -34 0 -47 5 -55 19 -6 12 -10 102 -10 223 0
179 -2 207 -19 238 -30 57 -62 74 -146 78 -92 5 -149 -19 -195 -81 l-30 -41 0
62 0 62 -57 -2 c-32 -1 -77 -3 -100 -5z"/>
<path d="M19133 11413 c-38 -4 -43 -7 -43 -29 0 -20 5 -24 28 -24 15 0 38 -7
50 -16 22 -15 22 -19 22 -238 0 -159 -3 -225 -12 -234 -7 -7 -31 -12 -55 -12
-39 0 -43 -2 -43 -25 l0 -25 150 0 150 0 0 25 c0 21 -5 25 -29 25 -64 0 -61
-14 -61 286 l0 274 -57 -2 c-32 -1 -77 -3 -100 -5z"/>
<path d="M7850 10509 c-80 -15 -183 -74 -241 -137 -253 -276 -103 -713 266
-774 236 -39 474 125 524 360 43 207 -56 416 -243 507 -105 52 -198 65 -306
44z m230 -56 c43 -15 140 -72 140 -83 0 -3 -61 -68 -134 -145 l-134 -140 -143
142 c-163 162 -160 147 -42 204 102 50 207 57 313 22z m-307 -261 l137 -137
-140 -140 c-159 -159 -144 -156 -201 -39 -54 112 -58 231 -9 341 22 50 61 113
70 113 3 0 67 -62 143 -138z m525 91 c59 -93 82 -203 62 -299 -13 -63 -48
-143 -80 -184 l-19 -25 -141 140 -140 140 137 137 c76 76 141 138 144 138 4 0
20 -21 37 -47z m-68 -539 c0 -2 -24 -19 -52 -38 -93 -59 -197 -82 -291 -67
-67 12 -161 52 -195 84 l-23 21 137 137 138 138 143 -136 c79 -74 143 -137
143 -139z"/>
<path d="M10690 10509 c-80 -15 -183 -74 -241 -137 -253 -276 -103 -713 266
-774 236 -39 474 125 524 360 43 207 -56 416 -243 507 -105 52 -198 65 -306
44z m230 -56 c43 -15 140 -72 140 -83 0 -3 -61 -68 -134 -145 l-134 -140 -143
142 c-163 162 -160 147 -42 204 102 50 207 57 313 22z m-307 -261 l137 -137
-140 -140 c-159 -159 -144 -156 -201 -39 -54 112 -58 231 -9 341 22 50 61 113
70 113 3 0 67 -62 143 -138z m525 91 c59 -93 82 -203 62 -299 -13 -63 -48
-143 -80 -184 l-19 -25 -141 140 -140 140 137 137 c76 76 141 138 144 138 4 0
20 -21 37 -47z m-68 -539 c0 -2 -24 -19 -52 -38 -93 -59 -197 -82 -291 -67
-67 12 -161 52 -195 84 l-23 21 137 137 138 138 143 -136 c79 -74 143 -137
143 -139z"/>
<path d="M21080 10509 c-80 -15 -183 -74 -241 -137 -253 -276 -103 -713 266
-774 236 -39 474 125 524 360 43 207 -56 416 -243 507 -105 52 -198 65 -306
44z m230 -56 c43 -15 140 -72 140 -83 0 -3 -61 -68 -134 -145 l-134 -140 -143
142 c-163 162 -160 147 -42 204 102 50 207 57 313 22z m-307 -261 l137 -137
-140 -140 c-159 -159 -144 -156 -201 -39 -54 112 -58 231 -9 341 22 50 61 113
70 113 3 0 67 -62 143 -138z m525 91 c59 -93 82 -203 62 -299 -13 -63 -48
-143 -80 -184 l-19 -25 -141 140 -140 140 137 137 c76 76 141 138 144 138 4 0
20 -21 37 -47z m-68 -539 c0 -2 -24 -19 -52 -38 -93 -59 -197 -82 -291 -67
-67 12 -161 52 -195 84 l-23 21 137 137 138 138 143 -136 c79 -74 143 -137
143 -139z"/>
<path d="M6033 10313 c-37 -4 -43 -7 -43 -27 0 -20 6 -24 42 -29 23 -3 48 -14
55 -23 16 -22 19 -425 3 -455 -8 -14 -21 -19 -55 -19 -41 0 -45 -2 -45 -25 l0
-25 160 0 160 0 0 25 c0 23 -4 25 -43 25 -24 0 -48 5 -55 12 -8 8 -12 60 -12
168 0 191 12 241 69 293 69 62 145 68 185 13 19 -25 21 -43 24 -243 2 -154 0
-219 -9 -229 -7 -8 -30 -14 -55 -14 -40 0 -44 -2 -44 -25 l0 -25 160 0 160 0
0 25 c0 23 -4 25 -45 25 -60 0 -65 15 -65 180 0 145 11 215 43 261 63 93 184
112 224 35 13 -25 18 -69 21 -216 2 -102 0 -201 -5 -220 -9 -33 -12 -35 -56
-38 -42 -3 -47 -6 -47 -28 l0 -24 160 0 160 0 0 25 c0 23 -4 25 -42 25 -24 0
-48 4 -55 8 -8 5 -12 73 -15 222 -3 193 -5 218 -23 249 -34 58 -67 75 -149 79
-88 5 -128 -11 -181 -69 -19 -21 -37 -39 -39 -39 -2 0 -7 11 -10 25 -3 13 -23
37 -43 52 -30 23 -48 28 -109 31 -91 5 -148 -19 -194 -81 l-30 -41 0 62 0 62
-57 -2 c-32 -1 -77 -3 -100 -5z"/>
<path d="M8873 10313 c-37 -4 -43 -7 -43 -27 0 -20 6 -24 42 -29 23 -3 48 -14
55 -23 16 -22 19 -425 3 -455 -8 -14 -21 -19 -55 -19 -41 0 -45 -2 -45 -25 l0
-25 160 0 160 0 0 25 c0 23 -4 25 -43 25 -24 0 -48 5 -55 12 -8 8 -12 60 -12
168 0 191 12 241 69 293 69 62 145 68 185 13 19 -25 21 -43 24 -243 2 -154 0
-219 -9 -229 -7 -8 -30 -14 -55 -14 -40 0 -44 -2 -44 -25 l0 -25 160 0 160 0
0 25 c0 23 -4 25 -45 25 -60 0 -65 15 -65 180 0 145 11 215 43 261 63 93 184
112 224 35 13 -25 18 -69 21 -216 2 -102 0 -201 -5 -220 -9 -33 -12 -35 -56
-38 -42 -3 -47 -6 -47 -28 l0 -24 160 0 160 0 0 25 c0 23 -4 25 -42 25 -24 0
-48 4 -55 8 -8 5 -12 73 -15 222 -3 193 -5 218 -23 249 -34 58 -67 75 -149 79
-88 5 -128 -11 -181 -69 -19 -21 -37 -39 -39 -39 -2 0 -7 11 -10 25 -3 13 -23
37 -43 52 -30 23 -48 28 -109 31 -91 5 -148 -19 -194 -81 l-30 -41 0 62 0 62
-57 -2 c-32 -1 -77 -3 -100 -5z"/>
<path d="M11723 10313 c-37 -4 -43 -7 -43 -27 0 -20 6 -24 42 -29 23 -3 48
-14 55 -23 16 -22 19 -425 3 -455 -8 -14 -21 -19 -55 -19 -41 0 -45 -2 -45
-25 l0 -25 160 0 160 0 0 25 c0 23 -4 25 -43 25 -24 0 -48 5 -55 12 -8 8 -12
60 -12 168 0 191 12 241 69 293 69 62 145 68 185 13 19 -25 21 -43 24 -243 2
-154 0 -219 -9 -229 -7 -8 -30 -14 -55 -14 -40 0 -44 -2 -44 -25 l0 -25 160 0
160 0 0 25 c0 23 -4 25 -45 25 -60 0 -65 15 -65 180 0 145 11 215 43 261 63
93 184 112 224 35 13 -25 18 -69 21 -216 2 -102 0 -201 -5 -220 -9 -33 -12
-35 -56 -38 -42 -3 -47 -6 -47 -28 l0 -24 160 0 160 0 0 25 c0 23 -4 25 -42
25 -24 0 -48 4 -55 8 -8 5 -12 73 -15 222 -3 193 -5 218 -23 249 -34 58 -67
75 -149 79 -88 5 -128 -11 -181 -69 -19 -21 -37 -39 -39 -39 -2 0 -7 11 -10
25 -3 13 -23 37 -43 52 -30 23 -48 28 -109 31 -91 5 -148 -19 -194 -81 l-30
-41 0 62 0 62 -57 -2 c-32 -1 -77 -3 -100 -5z"/>
<path d="M19263 10313 c-37 -4 -43 -7 -43 -27 0 -20 6 -24 42 -29 23 -3 48
-14 55 -23 16 -22 19 -425 3 -455 -8 -14 -21 -19 -55 -19 -41 0 -45 -2 -45
-25 l0 -25 160 0 160 0 0 25 c0 23 -4 25 -43 25 -24 0 -48 5 -55 12 -8 8 -12
60 -12 168 0 191 12 241 69 293 69 62 145 68 185 13 19 -25 21 -43 24 -243 2
-154 0 -219 -9 -229 -7 -8 -30 -14 -55 -14 -40 0 -44 -2 -44 -25 l0 -25 160 0
160 0 0 25 c0 23 -4 25 -45 25 -60 0 -65 15 -65 180 0 145 11 215 43 261 63
93 184 112 224 35 13 -25 18 -69 21 -216 2 -102 0 -201 -5 -220 -9 -33 -12
-35 -56 -38 -42 -3 -47 -6 -47 -28 l0 -24 160 0 160 0 0 25 c0 23 -4 25 -42
25 -24 0 -48 4 -55 8 -8 5 -12 73 -15 222 -3 193 -5 218 -23 249 -34 58 -67
75 -149 79 -88 5 -128 -11 -181 -69 -19 -21 -37 -39 -39 -39 -2 0 -7 11 -10
25 -3 13 -23 37 -43 52 -30 23 -48 28 -109 31 -91 5 -148 -19 -194 -81 l-30
-41 0 62 0 62 -57 -2 c-32 -1 -77 -3 -100 -5z"/>
<path d="M22103 10313 c-37 -4 -43 -7 -43 -27 0 -20 6 -24 42 -29 23 -3 48
-14 55 -23 16 -22 19 -425 3 -455 -8 -14 -21 -19 -55 -19 -41 0 -45 -2 -45
-25 l0 -25 160 0 160 0 0 25 c0 23 -4 25 -43 25 -24 0 -48 5 -55 12 -8 8 -12
60 -12 168 0 191 12 241 69 293 69 62 145 68 185 13 19 -25 21 -43 24 -243 2
-154 0 -219 -9 -229 -7 -8 -30 -14 -55 -14 -40 0 -44 -2 -44 -25 l0 -25 160 0
160 0 0 25 c0 23 -4 25 -45 25 -60 0 -65 15 -65 180 0 145 11 215 43 261 63
93 184 112 224 35 13 -25 18 -69 21 -216 2 -102 0 -201 -5 -220 -9 -33 -12
-35 -56 -38 -42 -3 -47 -6 -47 -28 l0 -24 160 0 160 0 0 25 c0 23 -4 25 -42
25 -24 0 -48 4 -55 8 -8 5 -12 73 -15 222 -3 193 -5 218 -23 249 -34 58 -67
75 -149 79 -88 5 -128 -11 -181 -69 -19 -21 -37 -39 -39 -39 -2 0 -7 11 -10
25 -3 13 -23 37 -43 52 -30 23 -48 28 -109 31 -91 5 -148 -19 -194 -81 l-30
-41 0 62 0 62 -57 -2 c-32 -1 -77 -3 -100 -5z"/>
<path d="M18436 10284 c-9 -24 29 -92 82 -146 l46 -48 -2647 0 -2647 0 0 -35
0 -35 2646 0 2647 0 -47 -50 c-50 -53 -88 -124 -79 -147 11 -27 42 -13 63 27
28 56 80 110 145 156 30 20 55 40 55 43 0 12 -16 27 -58 55 -54 37 -124 114
-146 161 -18 37 -49 47 -60 19z"/>
<path d="M9330 6185 l0 -2926 -47 46 c-80 77 -163 104 -163 54 0 -12 13 -24
35 -33 42 -18 127 -96 167 -153 35 -52 61 -55 83 -12 23 43 123 140 170 164
42 22 50 41 24 58 -22 14 -79 -16 -145 -76 l-54 -49 0 2926 0 2926 -35 0 -35
0 0 -2925z"/>
<path d="M21150 6098 l0 -3012 -52 51 c-59 57 -109 86 -141 81 -42 -6 -31 -34
26 -66 55 -31 137 -113 163 -164 20 -39 37 -35 78 20 48 66 129 140 172 158
43 18 43 47 1 52 -33 4 -88 -29 -147 -88 l-40 -40 0 3010 0 3010 -30 0 -30 0
0 -3012z"/>
<path d="M1328 6723 c-54 -4 -58 -6 -58 -28 0 -20 6 -25 38 -31 62 -11 62 -11
62 -185 l0 -159 -41 27 c-54 35 -152 43 -227 19 -142 -47 -232 -208 -202 -361
28 -146 152 -255 290 -255 51 0 98 17 143 52 l37 29 0 -41 0 -40 83 5 c119 9
127 11 127 40 0 22 -4 25 -39 25 -73 0 -71 -12 -71 477 l0 433 -42 -2 c-24 -1
-69 -3 -100 -5z m-31 -405 c68 -41 73 -57 73 -248 l0 -173 -48 -48 c-93 -93
-212 -74 -274 45 -17 32 -23 63 -26 146 -2 59 1 123 7 146 36 135 161 196 268
132z"/>
<path d="M8588 6723 c-54 -4 -58 -6 -58 -28 0 -20 6 -25 38 -31 62 -11 62 -11
62 -185 l0 -159 -41 27 c-54 35 -152 43 -227 19 -142 -47 -232 -208 -202 -361
28 -146 152 -255 290 -255 51 0 98 17 143 52 l37 29 0 -41 0 -40 83 5 c119 9
127 11 127 40 0 22 -4 25 -39 25 -73 0 -71 -12 -71 477 l0 433 -42 -2 c-24 -1
-69 -3 -100 -5z m-31 -405 c68 -41 73 -57 73 -248 l0 -173 -48 -48 c-93 -93
-212 -74 -274 45 -17 32 -23 63 -26 146 -2 59 1 123 7 146 36 135 161 196 268
132z"/>
<path d="M603 6690 c-67 -27 -52 -132 22 -146 74 -14 118 88 59 135 -29 23
-46 25 -81 11z"/>
<path d="M26948 6643 c-54 -4 -58 -6 -58 -28 0 -20 6 -25 38 -31 62 -11 62
-11 62 -185 l0 -159 -41 27 c-54 35 -152 43 -227 19 -142 -47 -232 -208 -202
-361 28 -146 152 -255 290 -255 51 0 98 17 143 52 l37 29 0 -41 0 -40 83 5
c119 9 127 11 127 40 0 22 -4 25 -39 25 -73 0 -71 -12 -71 477 l0 433 -42 -2
c-24 -1 -69 -3 -100 -5z m-31 -405 c68 -41 73 -57 73 -248 l0 -173 -48 -48
c-93 -93 -212 -74 -274 45 -17 32 -23 63 -26 146 -2 59 1 123 7 146 36 135
161 196 268 132z"/>
<path d="M2360 6569 c-80 -15 -183 -74 -241 -137 -253 -276 -103 -713 266
-774 236 -39 474 125 524 360 43 207 -56 416 -243 507 -105 52 -198 65 -306
44z m230 -56 c43 -15 140 -72 140 -83 0 -3 -61 -68 -134 -145 l-134 -140 -143
142 c-163 162 -160 147 -42 204 102 50 207 57 313 22z m-307 -261 l137 -137
-140 -140 c-159 -159 -144 -156 -201 -39 -54 112 -58 231 -9 341 22 50 61 113
70 113 3 0 67 -62 143 -138z m525 91 c59 -93 82 -203 62 -299 -13 -63 -48
-143 -80 -184 l-19 -25 -141 140 -140 140 137 137 c76 76 141 138 144 138 4 0
20 -21 37 -47z m-68 -539 c0 -2 -24 -19 -52 -38 -93 -59 -197 -82 -291 -67
-67 12 -161 52 -195 84 l-23 21 137 137 138 138 143 -136 c79 -74 143 -137
143 -139z"/>
<path d="M4672 6377 c-87 -33 -139 -115 -110 -174 19 -41 61 -52 96 -26 41 30
42 71 2 105 l-32 26 40 21 c60 31 132 28 172 -5 41 -35 58 -71 66 -137 l6 -54
-78 -6 c-115 -9 -197 -40 -255 -96 -107 -104 -79 -223 63 -266 100 -29 179
-14 238 45 35 35 40 37 45 20 11 -36 63 -70 107 -70 32 0 47 7 74 34 32 32 34
38 34 105 0 64 -2 71 -20 71 -18 0 -20 -7 -20 -63 0 -49 -4 -68 -18 -80 -25
-23 -38 -21 -56 5 -13 18 -16 56 -16 203 -1 235 -11 266 -109 323 -34 20 -60
26 -120 29 -44 1 -90 -3 -109 -10z m238 -348 c0 -123 -22 -176 -91 -218 -86
-52 -189 2 -189 99 0 98 108 174 268 189 8 1 12 -19 12 -70z"/>
<path d="M6931 6359 c-130 -65 -195 -229 -152 -385 37 -138 192 -241 332 -220
86 13 175 90 194 169 6 23 4 27 -13 27 -14 0 -27 -14 -42 -45 -26 -54 -69 -89
-127 -104 -123 -33 -233 81 -233 241 l0 48 208 2 207 3 -3 54 c-11 197 -192
299 -371 210z m189 -24 c34 -18 75 -99 85 -167 l6 -48 -162 0 -162 0 7 47 c19
140 126 220 226 168z"/>
<path d="M553 6373 c-38 -4 -43 -7 -43 -29 0 -20 5 -24 28 -24 15 0 38 -7 50
-16 22 -15 22 -19 22 -238 0 -159 -3 -225 -12 -234 -7 -7 -31 -12 -55 -12 -39
0 -43 -2 -43 -25 l0 -25 150 0 150 0 0 25 c0 21 -5 25 -29 25 -64 0 -61 -14
-61 286 l0 274 -57 -2 c-32 -1 -77 -3 -100 -5z"/>
<path d="M3393 6373 c-37 -4 -43 -7 -43 -27 0 -20 6 -24 42 -29 23 -3 48 -14
55 -23 16 -22 19 -425 3 -455 -8 -14 -21 -19 -55 -19 -41 0 -45 -2 -45 -25 l0
-25 160 0 160 0 0 25 c0 23 -4 25 -43 25 -24 0 -48 5 -55 12 -8 8 -12 60 -12
168 0 191 12 241 69 293 69 62 145 68 185 13 19 -25 21 -43 24 -243 2 -154 0
-219 -9 -229 -7 -8 -30 -14 -55 -14 -40 0 -44 -2 -44 -25 l0 -25 160 0 160 0
0 25 c0 23 -4 25 -45 25 -60 0 -65 15 -65 180 0 145 11 215 43 261 63 93 184
112 224 35 13 -25 18 -69 21 -216 2 -102 0 -201 -5 -220 -9 -33 -12 -35 -56
-38 -42 -3 -47 -6 -47 -28 l0 -24 160 0 160 0 0 25 c0 23 -4 25 -42 25 -24 0
-48 4 -55 8 -8 5 -12 73 -15 222 -3 193 -5 218 -23 249 -34 58 -67 75 -149 79
-88 5 -128 -11 -181 -69 -19 -21 -37 -39 -39 -39 -2 0 -7 11 -10 25 -3 13 -23
37 -43 52 -30 23 -48 28 -109 31 -91 5 -148 -19 -194 -81 l-30 -41 0 62 0 62
-57 -2 c-32 -1 -77 -3 -100 -5z"/>
<path d="M5228 6373 c-43 -4 -48 -7 -48 -29 0 -20 5 -24 29 -24 16 0 41 -4 55
-10 l26 -10 0 -363 c0 -269 -3 -366 -12 -375 -7 -7 -31 -12 -55 -12 -39 0 -43
-2 -43 -25 l0 -25 160 0 160 0 0 25 c0 22 -4 25 -34 25 -67 0 -66 -1 -66 142
l0 130 30 -26 c93 -78 258 -50 359 60 58 63 81 123 81 210 0 87 -25 156 -79
216 -60 67 -126 98 -209 98 -71 0 -124 -19 -164 -57 l-28 -27 0 42 0 42 -57
-2 c-32 -1 -79 -3 -105 -5z m419 -62 c26 -19 51 -50 69 -88 26 -51 29 -69 29
-153 0 -84 -3 -102 -28 -152 -67 -137 -192 -167 -281 -68 l-36 40 0 178 0 178
33 31 c74 71 147 82 214 34z"/>
<path d="M5998 6373 c-43 -4 -48 -7 -48 -29 0 -20 5 -24 29 -24 16 0 41 -4 55
-10 l26 -10 0 -363 c0 -269 -3 -366 -12 -375 -7 -7 -31 -12 -55 -12 -39 0 -43
-2 -43 -25 l0 -25 160 0 160 0 0 25 c0 22 -4 25 -34 25 -67 0 -66 -1 -66 142
l0 130 30 -26 c93 -78 258 -50 359 60 58 63 81 123 81 210 0 87 -25 156 -79
216 -60 67 -126 98 -209 98 -71 0 -124 -19 -164 -57 l-28 -27 0 42 0 42 -57
-2 c-32 -1 -79 -3 -105 -5z m419 -62 c26 -19 51 -50 69 -88 26 -51 29 -69 29
-153 0 -84 -3 -102 -28 -152 -67 -137 -192 -167 -281 -68 l-36 40 0 178 0 178
33 31 c74 71 147 82 214 34z"/>
<path d="M7423 6373 c-37 -4 -43 -7 -43 -27 0 -20 6 -24 42 -29 23 -3 48 -14
55 -23 16 -22 19 -425 3 -455 -8 -14 -21 -19 -55 -19 -41 0 -45 -2 -45 -25 l0
-25 160 0 160 0 0 25 c0 23 -4 25 -43 25 -24 0 -48 5 -55 12 -8 8 -12 60 -12
168 0 191 12 241 69 293 69 62 145 68 185 13 19 -25 21 -43 24 -243 2 -154 0
-219 -9 -229 -7 -8 -30 -14 -55 -14 -40 0 -44 -2 -44 -25 l0 -25 160 0 160 0
0 25 c0 23 -4 25 -45 25 -34 0 -47 5 -55 19 -6 12 -10 102 -10 223 0 179 -2
207 -19 238 -30 57 -62 74 -146 78 -92 5 -149 -19 -195 -81 l-30 -41 0 62 0
62 -57 -2 c-32 -1 -77 -3 -100 -5z"/>
<path d="M23032 6297 c-87 -33 -139 -115 -110 -174 19 -41 61 -52 96 -26 41
30 42 71 2 105 l-32 26 40 21 c60 31 132 28 172 -5 41 -35 58 -71 66 -137 l6
-54 -78 -6 c-115 -9 -197 -40 -255 -96 -107 -104 -79 -223 63 -266 100 -29
179 -14 238 45 35 35 40 37 45 20 11 -36 63 -70 107 -70 32 0 47 7 74 34 32
32 34 38 34 105 0 64 -2 71 -20 71 -18 0 -20 -7 -20 -63 0 -49 -4 -68 -18 -80
-25 -23 -38 -21 -56 5 -13 18 -16 56 -16 203 -1 235 -11 266 -109 323 -34 20
-60 26 -120 29 -44 1 -90 -3 -109 -10z m238 -348 c0 -123 -22 -176 -91 -218
-86 -52 -189 2 -189 99 0 98 108 174 268 189 8 1 12 -19 12 -70z"/>
<path d="M25291 6279 c-130 -65 -195 -229 -152 -385 37 -138 192 -241 332
-220 86 13 175 90 194 169 6 23 4 27 -13 27 -14 0 -27 -14 -42 -45 -26 -54
-69 -89 -127 -104 -123 -33 -233 81 -233 241 l0 48 208 2 207 3 -3 54 c-11
197 -192 299 -371 210z m189 -24 c34 -18 75 -99 85 -167 l6 -48 -162 0 -162 0
7 47 c19 140 126 220 226 168z"/>
<path d="M21753 6293 c-37 -4 -43 -7 -43 -27 0 -20 6 -24 42 -29 23 -3 48 -14
55 -23 16 -22 19 -425 3 -455 -8 -14 -21 -19 -55 -19 -41 0 -45 -2 -45 -25 l0
-25 160 0 160 0 0 25 c0 23 -4 25 -43 25 -24 0 -48 5 -55 12 -8 8 -12 60 -12
168 0 191 12 241 69 293 69 62 145 68 185 13 19 -25 21 -43 24 -243 2 -154 0
-219 -9 -229 -7 -8 -30 -14 -55 -14 -40 0 -44 -2 -44 -25 l0 -25 160 0 160 0
0 25 c0 23 -4 25 -45 25 -60 0 -65 15 -65 180 0 145 11 215 43 261 63 93 184
112 224 35 13 -25 18 -69 21 -216 2 -102 0 -201 -5 -220 -9 -33 -12 -35 -56
-38 -42 -3 -47 -6 -47 -28 l0 -24 160 0 160 0 0 25 c0 23 -4 25 -42 25 -24 0
-48 4 -55 8 -8 5 -12 73 -15 222 -3 193 -5 218 -23 249 -34 58 -67 75 -149 79
-88 5 -128 -11 -181 -69 -19 -21 -37 -39 -39 -39 -2 0 -7 11 -10 25 -3 13 -23
37 -43 52 -30 23 -48 28 -109 31 -91 5 -148 -19 -194 -81 l-30 -41 0 62 0 62
-57 -2 c-32 -1 -77 -3 -100 -5z"/>
<path d="M23588 6293 c-43 -4 -48 -7 -48 -29 0 -20 5 -24 29 -24 16 0 41 -4
55 -10 l26 -10 0 -363 c0 -269 -3 -366 -12 -375 -7 -7 -31 -12 -55 -12 -39 0
-43 -2 -43 -25 l0 -25 160 0 160 0 0 25 c0 22 -4 25 -34 25 -67 0 -66 -1 -66
142 l0 130 30 -26 c93 -78 258 -50 359 60 58 63 81 123 81 210 0 87 -25 156
-79 216 -60 67 -126 98 -209 98 -71 0 -124 -19 -164 -57 l-28 -27 0 42 0 42
-57 -2 c-32 -1 -79 -3 -105 -5z m419 -62 c26 -19 51 -50 69 -88 26 -51 29 -69
29 -153 0 -84 -3 -102 -28 -152 -67 -137 -192 -167 -281 -68 l-36 40 0 178 0
178 33 31 c74 71 147 82 214 34z"/>
<path d="M24358 6293 c-43 -4 -48 -7 -48 -29 0 -20 5 -24 29 -24 16 0 41 -4
55 -10 l26 -10 0 -363 c0 -269 -3 -366 -12 -375 -7 -7 -31 -12 -55 -12 -39 0
-43 -2 -43 -25 l0 -25 160 0 160 0 0 25 c0 22 -4 25 -34 25 -67 0 -66 -1 -66
142 l0 130 30 -26 c93 -78 258 -50 359 60 58 63 81 123 81 210 0 87 -25 156
-79 216 -60 67 -126 98 -209 98 -71 0 -124 -19 -164 -57 l-28 -27 0 42 0 42
-57 -2 c-32 -1 -79 -3 -105 -5z m419 -62 c26 -19 51 -50 69 -88 26 -51 29 -69
29 -153 0 -84 -3 -102 -28 -152 -67 -137 -192 -167 -281 -68 l-36 40 0 178 0
178 33 31 c74 71 147 82 214 34z"/>
<path d="M25783 6293 c-37 -4 -43 -7 -43 -27 0 -20 6 -24 42 -29 23 -3 48 -14
55 -23 16 -22 19 -425 3 -455 -8 -14 -21 -19 -55 -19 -41 0 -45 -2 -45 -25 l0
-25 160 0 160 0 0 25 c0 23 -4 25 -43 25 -24 0 -48 5 -55 12 -8 8 -12 60 -12
168 0 191 12 241 69 293 69 62 145 68 185 13 19 -25 21 -43 24 -243 2 -154 0
-219 -9 -229 -7 -8 -30 -14 -55 -14 -40 0 -44 -2 -44 -25 l0 -25 160 0 160 0
0 25 c0 23 -4 25 -45 25 -34 0 -47 5 -55 19 -6 12 -10 102 -10 223 0 179 -2
207 -19 238 -30 57 -62 74 -146 78 -92 5 -149 -19 -195 -81 l-30 -41 0 62 0
62 -57 -2 c-32 -1 -77 -3 -100 -5z"/>
<path d="M9270 2629 c-80 -15 -183 -74 -241 -137 -253 -276 -103 -713 266
-774 236 -39 474 125 524 360 43 207 -56 416 -243 507 -105 52 -198 65 -306
44z m230 -56 c43 -15 140 -72 140 -83 0 -3 -61 -68 -134 -145 l-134 -140 -143
142 c-163 162 -160 147 -42 204 102 50 207 57 313 22z m-307 -261 l137 -137
-140 -140 c-159 -159 -144 -156 -201 -39 -54 112 -58 231 -9 341 22 50 61 113
70 113 3 0 67 -62 143 -138z m525 91 c59 -93 82 -203 62 -299 -13 -63 -48
-143 -80 -184 l-19 -25 -141 140 -140 140 137 137 c76 76 141 138 144 138 4 0
20 -21 37 -47z m-68 -539 c0 -2 -24 -19 -52 -38 -93 -59 -197 -82 -291 -67
-67 12 -161 52 -195 84 l-23 21 137 137 138 138 143 -136 c79 -74 143 -137
143 -139z"/>
<path d="M20683 2483 c-37 -4 -43 -7 -43 -27 0 -20 6 -24 42 -29 23 -3 48 -14
55 -23 16 -22 19 -425 3 -455 -8 -14 -21 -19 -55 -19 -41 0 -45 -2 -45 -25 l0
-25 160 0 160 0 0 25 c0 23 -4 25 -43 25 -24 0 -48 5 -55 12 -8 8 -12 60 -12
168 0 191 12 241 69 293 69 62 145 68 185 13 19 -25 21 -43 24 -243 2 -154 0
-219 -9 -229 -7 -8 -30 -14 -55 -14 -40 0 -44 -2 -44 -25 l0 -25 160 0 160 0
0 25 c0 23 -4 25 -45 25 -60 0 -65 15 -65 180 0 145 11 215 43 261 63 93 184
112 224 35 13 -25 18 -69 21 -216 2 -102 0 -201 -5 -220 -9 -33 -12 -35 -56
-38 -42 -3 -47 -6 -47 -28 l0 -24 160 0 160 0 0 25 c0 23 -4 25 -42 25 -24 0
-48 4 -55 8 -8 5 -12 73 -15 222 -3 193 -5 218 -23 249 -34 58 -67 75 -149 79
-88 5 -128 -11 -181 -69 -19 -21 -37 -39 -39 -39 -2 0 -7 11 -10 25 -3 13 -23
37 -43 52 -30 23 -48 28 -109 31 -91 5 -148 -19 -194 -81 l-30 -41 0 62 0 62
-57 -2 c-32 -1 -77 -3 -100 -5z"/>
<path d="M7453 2433 c-37 -4 -43 -7 -43 -27 0 -20 6 -24 42 -29 23 -3 48 -14
55 -23 16 -22 19 -425 3 -455 -8 -14 -21 -19 -55 -19 -41 0 -45 -2 -45 -25 l0
-25 160 0 160 0 0 25 c0 23 -4 25 -43 25 -24 0 -48 5 -55 12 -8 8 -12 60 -12
168 0 191 12 241 69 293 69 62 145 68 185 13 19 -25 21 -43 24 -243 2 -154 0
-219 -9 -229 -7 -8 -30 -14 -55 -14 -40 0 -44 -2 -44 -25 l0 -25 160 0 160 0
0 25 c0 23 -4 25 -45 25 -60 0 -65 15 -65 180 0 145 11 215 43 261 63 93 184
112 224 35 13 -25 18 -69 21 -216 2 -102 0 -201 -5 -220 -9 -33 -12 -35 -56
-38 -42 -3 -47 -6 -47 -28 l0 -24 160 0 160 0 0 25 c0 23 -4 25 -42 25 -24 0
-48 4 -55 8 -8 5 -12 73 -15 222 -3 193 -5 218 -23 249 -34 58 -67 75 -149 79
-88 5 -128 -11 -181 -69 -19 -21 -37 -39 -39 -39 -2 0 -7 11 -10 25 -3 13 -23
37 -43 52 -30 23 -48 28 -109 31 -91 5 -148 -19 -194 -81 l-30 -41 0 62 0 62
-57 -2 c-32 -1 -77 -3 -100 -5z"/>
<path d="M10293 2433 c-37 -4 -43 -7 -43 -27 0 -20 6 -24 42 -29 23 -3 48 -14
55 -23 16 -22 19 -425 3 -455 -8 -14 -21 -19 -55 -19 -41 0 -45 -2 -45 -25 l0
-25 160 0 160 0 0 25 c0 23 -4 25 -43 25 -24 0 -48 5 -55 12 -8 8 -12 60 -12
168 0 191 12 241 69 293 69 62 145 68 185 13 19 -25 21 -43 24 -243 2 -154 0
-219 -9 -229 -7 -8 -30 -14 -55 -14 -40 0 -44 -2 -44 -25 l0 -25 160 0 160 0
0 25 c0 23 -4 25 -45 25 -60 0 -65 15 -65 180 0 145 11 215 43 261 63 93 184
112 224 35 13 -25 18 -69 21 -216 2 -102 0 -201 -5 -220 -9 -33 -12 -35 -56
-38 -42 -3 -47 -6 -47 -28 l0 -24 160 0 160 0 0 25 c0 23 -4 25 -42 25 -24 0
-48 4 -55 8 -8 5 -12 73 -15 222 -3 193 -5 218 -23 249 -34 58 -67 75 -149 79
-88 5 -128 -11 -181 -69 -19 -21 -37 -39 -39 -39 -2 0 -7 11 -10 25 -3 13 -23
37 -43 52 -30 23 -48 28 -109 31 -91 5 -148 -19 -194 -81 l-30 -41 0 62 0 62
-57 -2 c-32 -1 -77 -3 -100 -5z"/>
<path d="M19867 2423 c-24 -23 8 -90 76 -160 l51 -53 -4072 0 -4072 0 0 -30 0
-30 4072 0 4072 0 -51 -52 c-57 -59 -86 -109 -81 -141 5 -38 37 -33 54 9 20
47 106 138 161 171 55 32 55 54 0 86 -55 32 -141 124 -161 171 -14 33 -33 45
-49 29z"/>
<path d="M18478 1683 c-54 -4 -58 -6 -58 -28 0 -20 6 -25 38 -31 62 -11 62
-11 62 -185 l0 -159 -41 27 c-54 35 -152 43 -227 19 -142 -47 -232 -208 -202
-361 28 -146 152 -255 290 -255 51 0 98 17 143 52 l37 29 0 -41 0 -40 83 5
c119 9 127 11 127 40 0 22 -4 25 -39 25 -73 0 -71 -12 -71 477 l0 433 -42 -2
c-24 -1 -69 -3 -100 -5z m-31 -405 c68 -41 73 -57 73 -248 l0 -173 -48 -48
c-93 -93 -212 -74 -274 45 -17 32 -23 63 -26 146 -2 59 1 123 7 146 36 135
161 196 268 132z"/>
<path d="M14562 1337 c-87 -33 -139 -115 -110 -174 19 -41 61 -52 96 -26 41
30 42 71 2 105 l-32 26 40 21 c60 31 132 28 172 -5 41 -35 58 -71 66 -137 l6
-54 -78 -6 c-115 -9 -197 -40 -255 -96 -107 -104 -79 -223 63 -266 100 -29
179 -14 238 45 35 35 40 37 45 20 11 -36 63 -70 107 -70 32 0 47 7 74 34 32
32 34 38 34 105 0 64 -2 71 -20 71 -18 0 -20 -7 -20 -63 0 -49 -4 -68 -18 -80
-25 -23 -38 -21 -56 5 -13 18 -16 56 -16 203 -1 235 -11 266 -109 323 -34 20
-60 26 -120 29 -44 1 -90 -3 -109 -10z m238 -348 c0 -123 -22 -176 -91 -218
-86 -52 -189 2 -189 99 0 98 108 174 268 189 8 1 12 -19 12 -70z"/>
<path d="M16821 1319 c-130 -65 -195 -229 -152 -385 37 -138 192 -241 332
-220 86 13 175 90 194 169 6 23 4 27 -13 27 -14 0 -27 -14 -42 -45 -26 -54
-69 -89 -127 -104 -123 -33 -233 81 -233 241 l0 48 208 2 207 3 -3 54 c-11
197 -192 299 -371 210z m189 -24 c34 -18 75 -99 85 -167 l6 -48 -162 0 -162 0
7 47 c19 140 126 220 226 168z"/>
<path d="M13283 1333 c-37 -4 -43 -7 -43 -27 0 -20 6 -24 42 -29 23 -3 48 -14
55 -23 16 -22 19 -425 3 -455 -8 -14 -21 -19 -55 -19 -41 0 -45 -2 -45 -25 l0
-25 160 0 160 0 0 25 c0 23 -4 25 -43 25 -24 0 -48 5 -55 12 -8 8 -12 60 -12
168 0 191 12 241 69 293 69 62 145 68 185 13 19 -25 21 -43 24 -243 2 -154 0
-219 -9 -229 -7 -8 -30 -14 -55 -14 -40 0 -44 -2 -44 -25 l0 -25 160 0 160 0
0 25 c0 23 -4 25 -45 25 -60 0 -65 15 -65 180 0 145 11 215 43 261 63 93 184
112 224 35 13 -25 18 -69 21 -216 2 -102 0 -201 -5 -220 -9 -33 -12 -35 -56
-38 -42 -3 -47 -6 -47 -28 l0 -24 160 0 160 0 0 25 c0 23 -4 25 -42 25 -24 0
-48 4 -55 8 -8 5 -12 73 -15 222 -3 193 -5 218 -23 249 -34 58 -67 75 -149 79
-88 5 -128 -11 -181 -69 -19 -21 -37 -39 -39 -39 -2 0 -7 11 -10 25 -3 13 -23
37 -43 52 -30 23 -48 28 -109 31 -91 5 -148 -19 -194 -81 l-30 -41 0 62 0 62
-57 -2 c-32 -1 -77 -3 -100 -5z"/>
<path d="M15118 1333 c-43 -4 -48 -7 -48 -29 0 -20 5 -24 29 -24 16 0 41 -4
55 -10 l26 -10 0 -363 c0 -269 -3 -366 -12 -375 -7 -7 -31 -12 -55 -12 -39 0
-43 -2 -43 -25 l0 -25 160 0 160 0 0 25 c0 22 -4 25 -34 25 -67 0 -66 -1 -66
142 l0 130 30 -26 c93 -78 258 -50 359 60 58 63 81 123 81 210 0 87 -25 156
-79 216 -60 67 -126 98 -209 98 -71 0 -124 -19 -164 -57 l-28 -27 0 42 0 42
-57 -2 c-32 -1 -79 -3 -105 -5z m419 -62 c26 -19 51 -50 69 -88 26 -51 29 -69
29 -153 0 -84 -3 -102 -28 -152 -67 -137 -192 -167 -281 -68 l-36 40 0 178 0
178 33 31 c74 71 147 82 214 34z"/>
<path d="M15888 1333 c-43 -4 -48 -7 -48 -29 0 -20 5 -24 29 -24 16 0 41 -4
55 -10 l26 -10 0 -363 c0 -269 -3 -366 -12 -375 -7 -7 -31 -12 -55 -12 -39 0
-43 -2 -43 -25 l0 -25 160 0 160 0 0 25 c0 22 -4 25 -34 25 -67 0 -66 -1 -66
142 l0 130 30 -26 c93 -78 258 -50 359 60 58 63 81 123 81 210 0 87 -25 156
-79 216 -60 67 -126 98 -209 98 -71 0 -124 -19 -164 -57 l-28 -27 0 42 0 42
-57 -2 c-32 -1 -79 -3 -105 -5z m419 -62 c26 -19 51 -50 69 -88 26 -51 29 -69
29 -153 0 -84 -3 -102 -28 -152 -67 -137 -192 -167 -281 -68 l-36 40 0 178 0
178 33 31 c74 71 147 82 214 34z"/>
<path d="M17313 1333 c-37 -4 -43 -7 -43 -27 0 -20 6 -24 42 -29 23 -3 48 -14
55 -23 16 -22 19 -425 3 -455 -8 -14 -21 -19 -55 -19 -41 0 -45 -2 -45 -25 l0
-25 160 0 160 0 0 25 c0 23 -4 25 -43 25 -24 0 -48 5 -55 12 -8 8 -12 60 -12
168 0 191 12 241 69 293 69 62 145 68 185 13 19 -25 21 -43 24 -243 2 -154 0
-219 -9 -229 -7 -8 -30 -14 -55 -14 -40 0 -44 -2 -44 -25 l0 -25 160 0 160 0
0 25 c0 23 -4 25 -45 25 -34 0 -47 5 -55 19 -6 12 -10 102 -10 223 0 179 -2
207 -19 238 -30 57 -62 74 -146 78 -92 5 -149 -19 -195 -81 l-30 -41 0 62 0
62 -57 -2 c-32 -1 -77 -3 -100 -5z"/>
</g>
</svg>
