<?xml version="1.0" standalone="no"?>
<!DOCTYPE svg PUBLIC "-//W3C//DTD SVG 20010904//EN"
 "http://www.w3.org/TR/2001/REC-SVG-20010904/DTD/svg10.dtd">
<svg version="1.0" xmlns="http://www.w3.org/2000/svg"
 width="1344.000000pt" height="757.000000pt" viewBox="0 0 1344.000000 757.000000"
 preserveAspectRatio="xMidYMid meet">
<metadata>
Created by potrace 1.16, written by Peter Selinger 2001-2019
</metadata>
<g transform="translate(0.000000,757.000000) scale(0.100000,-0.100000)"
fill="#000000" stroke="none">
<path d="M6087 7104 c-4 -4 -7 -196 -7 -426 l0 -418 26 -10 c34 -13 230 -13
255 0 11 6 19 21 19 36 0 33 -32 44 -131 44 l-79 0 0 350 0 349 103 3 102 3 0
35 0 35 -141 3 c-77 1 -143 -1 -147 -4z"/>
<path d="M7062 7098 c-7 -7 -12 -19 -12 -28 0 -33 22 -40 122 -40 l98 0 0
-350 0 -350 -82 -1 c-110 -1 -132 -8 -136 -42 -5 -40 30 -49 171 -45 91 2 120
6 127 18 14 21 13 806 0 831 -10 17 -22 19 -143 19 -90 0 -137 -4 -145 -12z"/>
<path d="M6654 6816 c-63 -20 -110 -62 -140 -123 -69 -140 0 -304 147 -347 66
-20 112 -20 176 -1 81 24 139 105 101 143 -23 23 -54 13 -86 -28 -23 -27 -43
-41 -68 -46 -69 -13 -156 32 -190 97 l-15 29 174 0 c121 0 177 4 185 12 7 7
12 30 12 53 0 68 -20 117 -64 161 -61 61 -141 78 -232 50z m131 -80 c32 -14
54 -43 69 -93 l7 -23 -140 0 c-129 0 -140 1 -134 18 14 39 48 75 87 93 50 22
67 23 111 5z"/>
<path d="M6490 5984 c-430 -40 -734 -116 -1040 -261 -452 -213 -745 -536 -846
-932 -138 -541 87 -1204 654 -1920 214 -271 566 -641 887 -935 l160 -146 25
25 c24 25 24 25 5 44 -11 10 -101 92 -200 183 -1002 918 -1534 1792 -1502
2471 15 323 128 578 357 808 237 237 537 398 945 504 267 70 497 98 810 97
479 0 890 -87 1260 -267 581 -282 881 -754 825 -1300 -66 -654 -527 -1376
-1406 -2206 -112 -105 -212 -198 -221 -204 -17 -12 -18 -8 -14 49 1 33 -2 85
-9 114 -10 44 -15 52 -34 52 -33 0 -35 -5 -20 -68 14 -57 7 -161 -15 -240 -5
-17 -7 -33 -4 -36 3 -3 47 -3 97 0 68 4 105 1 146 -11 81 -24 105 -24 105 0 0
30 -64 56 -151 64 l-75 6 123 111 c401 364 797 800 1034 1140 226 321 400 678
466 954 47 197 61 415 37 586 -89 645 -689 1127 -1591 1278 -78 14 -201 29
-271 35 -116 10 -450 13 -537 5z"/>
<path d="M6692 1707 c-6 -7 -12 -45 -14 -84 l-3 -71 -58 34 c-67 39 -92 42
-107 14 -18 -33 -3 -55 50 -80 78 -36 78 -43 10 -79 -68 -36 -74 -43 -66 -76
10 -40 40 -40 106 -1 34 20 63 36 65 36 2 0 5 -35 7 -77 l3 -78 32 -3 c44 -4
57 23 49 104 l-6 63 69 -40 c58 -34 73 -39 90 -29 14 7 21 21 21 40 0 27 -7
33 -67 63 l-67 34 65 34 c66 35 84 64 59 95 -19 21 -39 17 -103 -21 -32 -19
-59 -35 -61 -35 -2 0 -3 34 -2 75 1 57 -3 78 -14 85 -21 14 -46 12 -58 -3z"/>
<path d="M6460 920 c-16 -30 3 -58 42 -62 l31 -3 64 -190 c35 -106 71 -196 80
-202 24 -19 77 -16 95 5 8 9 44 101 79 204 l64 187 35 3 c31 3 35 6 38 35 4
40 -11 45 -127 41 -67 -2 -86 -7 -95 -20 -15 -25 4 -52 38 -56 16 -2 26 -8 23
-15 -2 -7 -25 -77 -52 -155 -26 -79 -51 -140 -55 -135 -7 8 -100 281 -100 295
0 4 12 8 28 10 24 3 27 7 27 38 l0 35 -102 3 c-94 2 -103 1 -113 -18z"/>
</g>
</svg>
