<?xml version="1.0" standalone="no"?>
<!DOCTYPE svg PUBLIC "-//W3C//DTD SVG 20010904//EN"
 "http://www.w3.org/TR/2001/REC-SVG-20010904/DTD/svg10.dtd">
<svg version="1.0" xmlns="http://www.w3.org/2000/svg"
 width="4085.000000pt" height="2281.000000pt" viewBox="0 0 4085.000000 2281.000000"
 preserveAspectRatio="xMidYMid meet">
<metadata>
Created by potrace 1.16, written by Peter Selinger 2001-2019
</metadata>
<g transform="translate(0.000000,2281.000000) scale(0.100000,-0.100000)"
fill="#000000" stroke="none">
<path d="M8876 22350 c-76 -23 -148 -102 -183 -204 -26 -75 -23 -222 6 -298
29 -74 98 -151 156 -173 70 -27 172 -18 227 21 54 38 88 96 88 151 0 38 -3 43
-27 49 -37 10 -56 -6 -66 -54 -12 -61 -63 -102 -126 -102 -71 0 -113 35 -158
130 -33 69 -37 176 -9 259 22 64 88 135 135 146 71 15 137 -36 161 -123 11
-42 12 -43 48 -40 l37 3 0 120 0 120 -27 3 c-17 2 -31 -4 -40 -17 -14 -20 -14
-20 -66 -1 -55 21 -107 24 -156 10z"/>
<path d="M16689 22347 c-88 -33 -133 -94 -132 -178 1 -49 13 -80 47 -117 31
-35 62 -48 177 -77 85 -20 109 -30 132 -55 41 -45 38 -101 -7 -146 -31 -31
-39 -34 -92 -34 -105 1 -149 32 -168 122 -10 46 -78 50 -90 5 -8 -29 -7 -156
0 -184 7 -27 48 -31 74 -8 15 14 21 14 60 0 62 -22 182 -20 228 4 130 67 149
231 39 328 -28 24 -57 36 -141 56 -117 27 -152 45 -167 85 -30 79 64 152 160
123 48 -14 79 -48 95 -102 13 -42 15 -44 52 -44 l39 0 3 104 c3 107 -4 131
-39 131 -10 0 -24 -9 -32 -21 -15 -20 -16 -20 -48 -3 -44 22 -144 28 -190 11z"/>
<path d="M11640 22336 c-6 -8 -10 -25 -8 -38 3 -22 8 -23 96 -26 l92 -3 0
-259 0 -260 -78 0 c-88 0 -116 -13 -110 -51 l3 -24 225 0 225 0 3 29 c5 39
-10 46 -100 46 l-78 0 0 288 c0 211 -3 291 -12 300 -19 19 -242 16 -258 -2z"/>
<path d="M17750 22336 c-6 -8 -10 -25 -8 -38 3 -22 8 -23 96 -26 l92 -3 0
-259 0 -260 -78 0 c-88 0 -116 -13 -110 -51 l3 -24 225 0 225 0 3 29 c5 39
-10 46 -100 46 l-78 0 0 288 c0 211 -3 291 -12 300 -19 19 -242 16 -258 -2z"/>
<path d="M19630 22283 c-24 -9 -30 -25 -30 -80 l0 -53 -60 0 c-49 0 -61 -3
-70 -20 -8 -14 -8 -26 0 -40 9 -17 21 -20 69 -20 l59 0 4 -152 c4 -177 14
-204 86 -240 113 -54 261 23 250 132 -3 32 -6 35 -37 38 -37 4 -51 -9 -51 -45
0 -34 -48 -66 -90 -59 -55 9 -60 23 -60 183 l0 142 101 3 c84 3 104 6 113 21
8 12 8 22 0 35 -9 14 -29 17 -111 20 l-101 3 -4 59 c-2 33 -6 61 -9 64 -9 8
-45 14 -59 9z"/>
<path d="M9365 22145 c-22 -8 -41 -15 -41 -15 -1 0 -7 -14 -14 -30 -10 -23
-10 -37 -2 -55 22 -48 95 -41 108 10 5 21 12 25 43 25 78 0 130 -27 145 -76 6
-20 2 -21 -71 -27 -138 -9 -233 -56 -252 -122 -21 -79 32 -162 121 -186 51
-13 146 -6 188 16 27 14 32 14 54 0 17 -12 43 -15 92 -13 65 3 69 5 72 27 5
32 -21 51 -70 51 l-38 0 0 133 c0 121 -2 138 -23 178 -33 61 -93 91 -195 96
-52 2 -90 -2 -117 -12z m245 -290 c0 -65 -18 -88 -82 -105 -81 -22 -162 14
-156 70 4 33 74 68 159 79 35 5 67 9 72 10 4 0 7 -24 7 -54z"/>
<path d="M10105 22150 c-22 -4 -55 -14 -72 -23 -27 -14 -33 -15 -33 -3 0 20
-22 26 -93 26 -75 0 -90 -8 -85 -46 3 -26 7 -29 46 -32 l42 -3 0 -160 0 -159
-34 0 c-39 0 -59 -19 -54 -52 3 -22 6 -23 128 -26 106 -2 127 0 137 14 12 17
7 44 -11 56 -6 4 -26 8 -43 8 l-33 0 0 102 c0 116 19 171 69 201 41 24 107 23
121 -2 5 -11 10 -83 10 -160 0 -141 0 -141 -23 -141 -35 0 -59 -22 -55 -51 3
-24 4 -24 127 -27 125 -3 140 1 141 35 0 22 -32 43 -66 43 l-34 0 0 151 c0
199 -15 232 -110 249 -19 3 -53 3 -75 0z"/>
<path d="M10655 22151 c-72 -18 -142 -77 -169 -143 -22 -51 -20 -153 3 -203
66 -147 275 -193 383 -85 54 54 49 110 -9 110 -16 0 -30 -11 -44 -34 -23 -40
-74 -61 -121 -52 -114 23 -172 150 -115 250 30 54 75 79 145 80 49 1 57 -2 60
-19 8 -44 66 -60 95 -27 21 23 22 61 2 89 -25 36 -147 54 -230 34z"/>
<path d="M11204 22146 c-63 -20 -110 -62 -140 -123 -69 -140 0 -304 147 -347
66 -20 112 -20 176 -1 81 24 139 105 101 143 -23 23 -54 13 -86 -28 -23 -27
-43 -41 -68 -46 -69 -13 -156 32 -190 97 l-15 29 174 0 c121 0 177 4 185 12 7
7 12 30 12 53 0 68 -20 117 -64 161 -61 61 -141 78 -232 50z m131 -80 c32 -14
54 -43 69 -93 l7 -23 -140 0 c-129 0 -140 1 -134 18 14 39 48 75 87 93 50 22
67 23 111 5z"/>
<path d="M17314 22146 c-63 -20 -110 -62 -140 -123 -69 -140 0 -304 147 -347
66 -20 112 -20 176 -1 81 24 139 105 101 143 -23 23 -54 13 -86 -28 -23 -27
-43 -41 -68 -46 -69 -13 -156 32 -190 97 l-15 29 174 0 c121 0 177 4 185 12 7
7 12 30 12 53 0 68 -20 117 -64 161 -61 61 -141 78 -232 50z m131 -80 c32 -14
54 -43 69 -93 l7 -23 -140 0 c-129 0 -140 1 -134 18 14 39 48 75 87 93 50 22
67 23 111 5z"/>
<path d="M18494 22146 c-63 -20 -110 -62 -140 -123 -69 -140 0 -304 147 -347
66 -20 112 -20 176 -1 81 24 139 105 101 143 -23 23 -54 13 -86 -28 -23 -27
-43 -41 -68 -46 -69 -13 -156 32 -190 97 l-15 29 174 0 c121 0 177 4 185 12 7
7 12 30 12 53 0 68 -20 117 -64 161 -61 61 -141 78 -232 50z m131 -80 c32 -14
54 -43 69 -93 l7 -23 -140 0 c-129 0 -140 1 -134 18 14 39 48 75 87 93 50 22
67 23 111 5z"/>
<path d="M19125 22151 c-72 -18 -142 -77 -169 -143 -22 -51 -20 -153 3 -203
66 -147 275 -193 383 -85 54 54 49 110 -9 110 -16 0 -30 -11 -44 -34 -23 -40
-74 -61 -121 -52 -114 23 -172 150 -115 250 30 54 75 79 145 80 49 1 57 -2 60
-19 8 -44 66 -60 95 -27 21 23 22 61 2 89 -25 36 -147 54 -230 34z"/>
<path d="M9990 21214 c-211 -7 -632 -46 -906 -84 -1431 -198 -2777 -725 -3913
-1532 -768 -546 -1437 -1219 -1997 -2011 l-62 -87 -11 51 c-23 106 -64 174
-98 162 -18 -7 -16 -27 7 -71 25 -47 50 -160 50 -224 0 -57 1 -58 107 -22 54
18 101 26 157 27 68 2 81 5 84 19 5 28 -43 41 -123 34 -38 -3 -81 -8 -94 -12
l-25 -7 24 34 c327 472 764 978 1191 1375 2696 2509 6956 3013 10299 1217 958
-515 1820 -1223 2506 -2058 174 -213 344 -437 452 -598 53 -77 53 -77 77 -61
14 9 25 20 25 25 0 5 -31 57 -69 116 -335 528 -564 1015 -685 1458 -104 383
-127 759 -65 1064 120 595 533 1003 1124 1108 120 21 352 21 470 0 293 -53
559 -188 748 -379 195 -198 327 -463 383 -773 22 -122 25 -474 6 -600 -80
-508 -253 -971 -565 -1515 -89 -156 -218 -360 -227 -360 -4 0 -10 20 -13 45
-15 104 -74 190 -103 150 -11 -15 -10 -24 11 -59 35 -61 49 -129 55 -268 0
-13 27 -9 107 18 54 18 101 26 157 27 68 2 81 5 84 19 5 28 -43 41 -123 34
-38 -3 -81 -8 -95 -12 l-24 -7 22 34 c156 240 379 647 477 869 282 639 378
1211 285 1691 -61 318 -194 566 -418 780 -157 150 -319 248 -522 313 -185 60
-261 71 -490 70 -184 0 -216 -3 -315 -26 -410 -96 -726 -325 -929 -673 -286
-491 -272 -1211 40 -2000 49 -124 190 -434 225 -495 27 -46 15 -33 -128 141
-170 206 -454 503 -693 726 -1283 1194 -2949 1978 -4757 2238 -422 60 -760 85
-1218 89 -220 2 -447 2 -505 0z"/>
<path d="M7349 17717 c-88 -33 -133 -94 -132 -178 1 -49 13 -80 47 -117 31
-35 62 -48 177 -77 85 -20 109 -30 132 -55 41 -45 38 -101 -7 -146 -31 -31
-39 -34 -93 -34 -104 1 -148 32 -167 122 -10 46 -78 50 -90 5 -8 -29 -7 -156
0 -184 7 -27 48 -31 74 -8 15 14 21 14 60 0 62 -22 182 -20 228 4 130 67 149
231 39 328 -28 24 -57 36 -141 56 -117 27 -152 45 -167 85 -30 79 64 152 160
123 48 -14 79 -48 95 -102 13 -42 15 -44 52 -44 l39 0 3 104 c3 107 -4 131
-39 131 -10 0 -24 -9 -32 -21 -15 -20 -16 -20 -48 -3 -44 22 -144 28 -190 11z"/>
<path d="M22659 17717 c-88 -33 -133 -94 -132 -178 1 -49 13 -80 47 -117 31
-35 62 -48 177 -77 85 -20 109 -30 132 -55 41 -45 38 -101 -7 -146 -31 -31
-39 -34 -92 -34 -105 1 -149 32 -168 122 -10 46 -78 50 -90 5 -8 -29 -7 -156
0 -184 7 -27 48 -31 74 -8 15 14 21 14 60 0 62 -22 182 -20 228 4 130 67 149
231 39 328 -28 24 -57 36 -141 56 -117 27 -152 45 -167 85 -30 79 64 152 160
123 48 -14 79 -48 95 -102 13 -42 15 -44 52 -44 l39 0 3 104 c3 107 -4 131
-39 131 -10 0 -24 -9 -32 -21 -15 -20 -16 -20 -48 -3 -44 22 -144 28 -190 11z"/>
<path d="M26236 17720 c-76 -23 -148 -102 -183 -204 -26 -75 -23 -222 6 -298
29 -74 98 -151 156 -173 70 -27 172 -18 227 21 54 38 88 96 88 151 0 38 -3 43
-27 49 -37 10 -56 -6 -66 -54 -12 -61 -63 -102 -126 -102 -71 0 -113 35 -158
130 -33 69 -37 176 -9 259 22 64 88 135 135 146 71 15 137 -36 161 -123 11
-42 12 -43 48 -40 l37 3 0 120 0 120 -27 3 c-17 2 -31 -4 -40 -17 -14 -20 -14
-20 -66 -1 -55 21 -107 24 -156 10z"/>
<path d="M8410 17706 c-6 -8 -10 -25 -8 -38 3 -22 8 -23 96 -26 l92 -3 0 -259
0 -260 -78 0 c-88 0 -116 -13 -110 -51 l3 -24 225 0 225 0 3 29 c5 39 -10 46
-100 46 l-78 0 0 288 c0 211 -3 291 -12 300 -19 19 -242 16 -258 -2z"/>
<path d="M10732 17711 c-8 -5 -12 -21 -10 -37 3 -26 7 -29 41 -32 l37 -3 0
-260 0 -259 -27 0 c-41 0 -55 -13 -51 -46 l3 -29 130 0 130 0 3 24 c5 31 -21
51 -65 51 l-33 0 0 110 0 110 69 0 c69 0 70 0 73 -27 3 -24 8 -29 37 -31 44
-4 51 8 51 94 0 83 -13 107 -55 102 -24 -2 -31 -8 -33 -30 -3 -28 -4 -28 -73
-28 l-69 0 0 110 0 110 130 0 130 0 0 -45 c0 -38 4 -47 24 -56 17 -8 29 -8 45
0 18 10 21 20 21 84 0 44 -5 78 -12 85 -14 14 -474 17 -496 3z"/>
<path d="M11526 17701 c-26 -29 -18 -82 17 -101 24 -13 30 -13 55 0 55 31 34
120 -28 120 -15 0 -35 -9 -44 -19z"/>
<path d="M23710 17706 c-6 -8 -10 -25 -8 -38 3 -22 8 -23 96 -26 l92 -3 0
-259 0 -260 -78 0 c-88 0 -116 -13 -110 -51 l3 -24 225 0 225 0 3 29 c5 39
-10 46 -100 46 l-78 0 0 288 c0 211 -3 291 -12 300 -19 19 -242 16 -258 -2z"/>
<path d="M28070 17706 c-6 -8 -10 -25 -8 -38 2 -19 10 -23 46 -26 l42 -3 0
-75 0 -75 -31 16 c-35 19 -131 22 -172 6 -88 -34 -150 -127 -151 -226 0 -77
17 -128 63 -178 61 -68 142 -92 222 -66 19 7 41 18 51 26 14 13 17 12 23 -6 6
-19 14 -21 90 -21 82 0 95 5 95 40 0 20 -34 40 -66 40 l-34 0 0 294 c0 334 9
306 -95 306 -42 0 -66 -5 -75 -14z m46 -300 c33 -33 34 -37 34 -107 0 -88 -19
-133 -70 -167 -85 -57 -190 22 -190 145 0 93 63 163 147 163 38 0 51 -6 79
-34z"/>
<path d="M10290 17653 c-24 -9 -30 -25 -30 -80 l0 -53 -60 0 c-49 0 -61 -3
-70 -20 -8 -14 -8 -26 0 -40 9 -17 21 -20 69 -20 l59 0 4 -152 c4 -177 14
-204 86 -240 113 -54 261 23 250 132 -3 32 -6 35 -37 38 -37 4 -51 -9 -51 -45
0 -34 -48 -66 -90 -59 -55 9 -60 23 -60 183 l0 142 101 3 c84 3 104 6 113 21
8 12 8 22 0 35 -9 14 -29 17 -111 20 l-101 3 -4 59 c-2 33 -6 61 -9 64 -9 8
-45 14 -59 9z"/>
<path d="M13230 17653 c-24 -9 -30 -25 -30 -80 l0 -53 -60 0 c-49 0 -61 -3
-70 -20 -8 -14 -8 -26 0 -40 9 -17 21 -20 69 -20 l59 0 4 -152 c4 -177 14
-204 86 -240 113 -54 261 23 250 132 -3 32 -6 35 -37 38 -37 4 -51 -9 -51 -45
0 -34 -48 -66 -90 -59 -55 9 -60 23 -60 183 l0 142 101 3 c84 3 104 6 113 21
8 12 8 22 0 35 -9 14 -29 17 -111 20 l-101 3 -4 59 c-2 33 -6 61 -9 64 -9 8
-45 14 -59 9z"/>
<path d="M25600 17653 c-24 -9 -30 -25 -30 -80 l0 -53 -60 0 c-49 0 -61 -3
-70 -20 -8 -14 -8 -26 0 -40 9 -17 21 -20 69 -20 l59 0 4 -152 c4 -177 14
-204 86 -240 113 -54 261 23 250 132 -3 32 -6 35 -37 38 -37 4 -51 -9 -51 -45
0 -34 -48 -66 -90 -59 -55 9 -60 23 -60 183 l0 142 101 3 c84 3 104 6 113 21
8 12 8 22 0 35 -9 14 -29 17 -111 20 l-101 3 -4 59 c-2 33 -6 61 -9 64 -9 8
-45 14 -59 9z"/>
<path d="M7974 17516 c-63 -20 -110 -62 -140 -123 -69 -140 0 -304 147 -347
66 -20 112 -20 176 -1 81 24 139 105 101 143 -23 23 -54 13 -86 -28 -23 -27
-43 -41 -68 -46 -69 -13 -156 32 -190 97 l-15 29 174 0 c121 0 177 4 185 12 7
7 12 30 12 53 0 68 -20 117 -64 161 -61 61 -141 78 -232 50z m131 -80 c32 -14
54 -43 69 -93 l7 -23 -140 0 c-129 0 -140 1 -134 18 14 39 48 75 87 93 50 22
67 23 111 5z"/>
<path d="M9144 17516 c-63 -20 -110 -62 -140 -123 -69 -140 0 -304 147 -347
66 -20 112 -20 176 -1 81 24 139 105 101 143 -23 23 -54 13 -86 -28 -23 -27
-43 -41 -68 -46 -69 -13 -156 32 -190 97 l-15 29 174 0 c121 0 177 4 185 12 7
7 12 30 12 53 0 68 -20 117 -64 161 -61 61 -141 78 -232 50z m131 -80 c32 -14
54 -43 69 -93 l7 -23 -140 0 c-129 0 -140 1 -134 18 14 39 48 75 87 93 50 22
67 23 111 5z"/>
<path d="M9775 17521 c-72 -18 -142 -77 -169 -143 -22 -51 -20 -153 3 -203 66
-147 275 -193 383 -85 54 54 49 110 -9 110 -16 0 -30 -11 -44 -34 -23 -40 -74
-61 -121 -52 -114 23 -172 150 -115 250 30 54 75 79 145 80 49 1 57 -2 60 -19
8 -44 66 -60 95 -27 21 23 22 61 2 89 -25 36 -147 54 -230 34z"/>
<path d="M12253 17520 c-23 -3 -64 -20 -92 -37 l-50 -31 -3 31 -3 32 -94 3
c-100 3 -121 -4 -121 -43 0 -28 17 -35 81 -35 l49 0 0 -160 0 -160 -48 0 c-58
0 -85 -17 -80 -51 l3 -24 187 -3 188 -2 6 26 c10 40 -16 54 -98 54 l-68 0 0
66 c0 36 5 86 12 111 15 61 79 129 130 138 33 6 40 4 61 -20 19 -22 29 -27 50
-21 32 8 51 39 43 72 -11 44 -74 66 -153 54z"/>
<path d="M12655 17521 c-83 -21 -125 -63 -125 -126 0 -79 49 -113 203 -140
106 -19 147 -41 147 -80 0 -34 -38 -56 -107 -62 -73 -5 -117 16 -148 72 -19
35 -26 40 -56 40 l-34 0 0 -95 c0 -92 1 -95 23 -98 13 -2 31 3 41 12 15 14 21
14 61 0 60 -21 172 -13 228 15 50 25 72 64 72 125 0 84 -52 120 -215 151 -94
17 -135 35 -135 60 0 42 126 69 192 42 28 -12 37 -22 40 -44 3 -26 7 -28 43
-28 l40 0 0 74 c0 59 -3 76 -17 85 -13 8 -23 8 -37 -1 -14 -9 -29 -9 -53 -3
-38 11 -119 11 -163 1z"/>
<path d="M23274 17516 c-63 -20 -110 -62 -140 -123 -69 -140 0 -304 147 -347
66 -20 112 -20 176 -1 81 24 139 105 101 143 -23 23 -54 13 -86 -28 -23 -27
-43 -41 -68 -46 -69 -13 -156 32 -190 97 l-15 29 174 0 c121 0 177 4 185 12 7
7 12 30 12 53 0 68 -20 117 -64 161 -61 61 -141 78 -232 50z m131 -80 c32 -14
54 -43 69 -93 l7 -23 -140 0 c-129 0 -140 1 -134 18 14 39 48 75 87 93 50 22
67 23 111 5z"/>
<path d="M24454 17516 c-63 -20 -110 -62 -140 -123 -69 -140 0 -304 147 -347
66 -20 112 -20 176 -1 81 24 139 105 101 143 -23 23 -54 13 -86 -28 -23 -27
-43 -41 -68 -46 -69 -13 -156 32 -190 97 l-15 29 174 0 c121 0 177 4 185 12 7
7 12 30 12 53 0 68 -20 117 -64 161 -61 61 -141 78 -232 50z m131 -80 c32 -14
54 -43 69 -93 l7 -23 -140 0 c-129 0 -140 1 -134 18 14 39 48 75 87 93 50 22
67 23 111 5z"/>
<path d="M25085 17521 c-72 -18 -142 -77 -169 -143 -22 -51 -20 -153 3 -203
66 -147 275 -193 383 -85 54 54 49 110 -9 110 -16 0 -30 -11 -44 -34 -23 -40
-74 -61 -121 -52 -114 23 -172 150 -115 250 30 54 75 79 145 80 49 1 57 -2 60
-19 8 -44 66 -60 95 -27 21 23 22 61 2 89 -25 36 -147 54 -230 34z"/>
<path d="M26725 17515 c-22 -8 -41 -15 -41 -15 -1 0 -7 -14 -14 -30 -10 -23
-10 -37 -2 -55 22 -48 95 -41 108 10 5 21 12 25 43 25 78 0 130 -27 145 -76 6
-20 2 -21 -71 -27 -138 -9 -233 -56 -252 -122 -21 -79 32 -162 121 -186 51
-13 146 -6 188 16 27 14 32 14 54 0 17 -12 43 -15 92 -13 65 3 69 5 72 27 5
32 -21 51 -70 51 l-38 0 0 133 c0 121 -2 138 -23 178 -33 61 -93 91 -195 96
-52 2 -90 -2 -117 -12z m245 -290 c0 -65 -18 -88 -82 -105 -81 -22 -162 14
-156 70 4 33 74 68 159 79 35 5 67 9 72 10 4 0 7 -24 7 -54z"/>
<path d="M27563 17520 c-23 -3 -64 -20 -92 -37 l-50 -31 -3 31 -3 32 -94 3
c-100 3 -121 -4 -121 -43 0 -28 17 -35 81 -35 l49 0 0 -160 0 -160 -48 0 c-58
0 -85 -17 -80 -51 l3 -24 187 -3 188 -2 6 26 c10 40 -16 54 -98 54 l-68 0 0
66 c0 36 5 86 12 111 15 61 79 129 130 138 33 6 40 4 61 -20 19 -22 29 -27 50
-21 32 8 51 39 43 72 -11 44 -74 66 -153 54z"/>
<path d="M11382 17508 c-7 -7 -12 -19 -12 -28 0 -31 23 -40 97 -40 l73 0 0
-160 0 -160 -74 0 c-74 0 -106 -13 -106 -43 1 -35 13 -37 221 -35 l204 3 3 24
c6 36 -22 51 -95 51 l-63 0 0 194 c0 168 -2 195 -16 200 -30 11 -219 7 -232
-6z"/>
<path d="M30736 16890 c-76 -23 -148 -102 -183 -204 -26 -75 -23 -222 6 -298
29 -74 98 -151 156 -173 70 -27 172 -18 227 21 54 38 88 96 88 151 0 38 -3 43
-27 49 -37 10 -56 -6 -66 -54 -12 -61 -63 -102 -126 -102 -71 0 -113 35 -158
130 -33 69 -37 176 -9 259 22 64 88 135 135 146 71 15 137 -36 161 -123 11
-42 12 -43 48 -40 l37 3 0 120 0 120 -27 3 c-17 2 -31 -4 -40 -17 -14 -20 -14
-20 -66 -1 -55 21 -107 24 -156 10z"/>
<path d="M33029 16887 c-88 -33 -133 -94 -132 -178 1 -49 13 -80 47 -117 31
-35 62 -48 177 -77 85 -20 109 -30 132 -55 41 -45 38 -101 -7 -146 -31 -31
-39 -34 -92 -34 -105 1 -149 32 -168 122 -10 46 -78 50 -90 5 -8 -29 -7 -156
0 -184 7 -27 48 -31 74 -8 15 14 21 14 60 0 62 -22 182 -20 228 4 130 67 149
231 39 328 -28 24 -57 36 -141 56 -117 27 -152 45 -167 85 -30 79 64 152 160
123 48 -14 79 -48 95 -102 13 -42 15 -44 52 -44 l39 0 3 104 c3 107 -4 131
-39 131 -10 0 -24 -9 -32 -21 -15 -20 -16 -20 -48 -3 -44 22 -144 28 -190 11z"/>
<path d="M502 16881 c-8 -5 -12 -21 -10 -37 2 -25 8 -29 36 -32 l32 -3 0 -260
0 -259 -22 0 c-36 0 -50 -15 -46 -46 l3 -29 95 -3 c80 -2 97 0 107 15 7 9 13
20 13 24 0 16 -33 39 -56 39 l-24 0 0 243 1 242 98 -271 c53 -148 101 -276
105 -282 11 -19 103 -15 110 4 3 9 6 144 6 300 l0 284 30 0 c23 0 31 5 36 25
11 45 -9 55 -106 55 -95 0 -114 -9 -108 -52 2 -18 10 -24 36 -26 l32 -3 0
-237 -1 -237 -79 220 c-111 306 -110 304 -127 320 -16 17 -138 21 -161 6z"/>
<path d="M1736 16874 c-41 -40 -10 -64 81 -64 l73 0 0 -260 0 -260 -69 0 c-69
0 -101 -14 -101 -43 1 -35 13 -37 216 -35 l199 3 3 24 c6 36 -22 51 -95 51
l-63 0 0 260 0 259 78 3 c72 3 77 5 80 26 7 49 -7 52 -204 52 -153 0 -185 -3
-198 -16z"/>
<path d="M16240 16876 c-6 -8 -10 -25 -8 -38 2 -18 10 -24 36 -26 l32 -3 0
-258 0 -257 -32 -9 c-28 -8 -33 -15 -33 -40 l0 -30 110 0 c107 0 110 1 113 23
5 30 -14 52 -44 52 -24 0 -24 1 -24 115 l0 115 110 0 110 0 0 -115 c0 -104 -2
-115 -18 -115 -34 0 -56 -24 -48 -53 l6 -27 109 0 c92 0 110 3 115 16 11 28
-4 55 -35 61 l-29 6 0 258 0 259 24 0 c30 0 50 23 41 49 -8 27 -33 33 -134 29
-67 -2 -86 -7 -95 -20 -15 -25 3 -52 38 -56 l26 -3 0 -105 0 -104 -110 0 -110
0 0 104 0 105 33 3 c27 3 33 7 35 32 2 16 -2 32 -10 37 -7 5 -54 9 -104 9 -68
0 -95 -4 -104 -14z"/>
<path d="M18066 16874 c-41 -40 -10 -64 81 -64 l73 0 0 -260 0 -260 -69 0
c-69 0 -101 -14 -101 -43 1 -35 13 -37 216 -35 l199 3 3 24 c6 36 -22 51 -95
51 l-63 0 0 260 0 259 78 3 c72 3 77 5 80 26 7 49 -7 52 -204 52 -153 0 -185
-3 -198 -16z"/>
<path d="M32560 16876 c-6 -8 -10 -25 -8 -38 2 -19 10 -23 46 -26 l42 -3 0
-75 0 -75 -31 16 c-35 19 -131 22 -172 6 -88 -34 -150 -127 -151 -226 0 -77
17 -128 63 -178 61 -68 142 -92 222 -66 19 7 41 18 51 26 14 13 17 12 23 -6 6
-19 14 -21 90 -21 82 0 95 5 95 40 0 20 -34 40 -66 40 l-34 0 0 294 c0 334 9
306 -95 306 -42 0 -66 -5 -75 -14z m46 -300 c33 -33 34 -37 34 -107 0 -88 -19
-133 -70 -167 -85 -57 -190 22 -190 145 0 93 63 163 147 163 38 0 51 -6 79
-34z"/>
<path d="M34090 16876 c-6 -8 -10 -25 -8 -38 3 -22 8 -23 96 -26 l92 -3 0
-259 0 -260 -78 0 c-88 0 -116 -13 -110 -51 l3 -24 225 0 225 0 3 29 c5 39
-10 46 -100 46 l-78 0 0 288 c0 211 -3 291 -12 300 -19 19 -242 16 -258 -2z"/>
<path d="M37270 16876 c-6 -8 -10 -25 -8 -38 2 -19 10 -23 46 -26 l42 -3 0
-75 0 -75 -31 16 c-35 19 -131 22 -172 6 -88 -34 -150 -127 -151 -226 0 -77
17 -128 63 -178 61 -68 142 -92 222 -66 19 7 41 18 51 26 14 13 17 12 23 -6 6
-19 14 -21 90 -21 82 0 95 5 95 40 0 20 -34 40 -66 40 l-34 0 0 294 c0 334 9
306 -95 306 -42 0 -66 -5 -75 -14z m46 -300 c33 -33 34 -37 34 -107 0 -88 -19
-133 -70 -167 -85 -57 -190 22 -190 145 0 93 63 163 147 163 38 0 51 -6 79
-34z"/>
<path d="M2420 16823 c-24 -9 -30 -25 -30 -80 l0 -53 -60 0 c-49 0 -61 -3 -70
-20 -8 -14 -8 -26 0 -40 9 -17 21 -20 69 -20 l59 0 4 -152 c4 -177 14 -204 86
-240 113 -54 261 23 250 132 -3 32 -6 35 -37 38 -37 4 -51 -9 -51 -45 0 -34
-48 -66 -90 -59 -55 9 -60 23 -60 183 l0 142 101 3 c84 3 104 6 113 21 8 12 8
22 0 35 -9 14 -29 17 -111 20 l-101 3 -4 59 c-2 33 -6 61 -9 64 -9 8 -45 14
-59 9z"/>
<path d="M18750 16823 c-24 -9 -30 -25 -30 -80 l0 -53 -60 0 c-49 0 -61 -3
-70 -20 -8 -14 -8 -26 0 -40 9 -17 21 -20 69 -20 l59 0 4 -152 c4 -177 14
-204 86 -240 113 -54 261 23 250 132 -3 32 -6 35 -37 38 -37 4 -51 -9 -51 -45
0 -34 -48 -66 -90 -59 -55 9 -60 23 -60 183 l0 142 101 3 c84 3 104 6 113 21
8 12 8 22 0 35 -9 14 -29 17 -111 20 l-101 3 -4 59 c-2 33 -6 61 -9 64 -9 8
-45 14 -59 9z"/>
<path d="M35970 16823 c-24 -9 -30 -25 -30 -80 l0 -53 -60 0 c-49 0 -61 -3
-70 -20 -8 -14 -8 -26 0 -40 9 -17 21 -20 69 -20 l59 0 4 -152 c4 -177 14
-204 86 -240 113 -54 261 23 250 132 -3 32 -6 35 -37 38 -37 4 -51 -9 -51 -45
0 -34 -48 -66 -90 -59 -55 9 -60 23 -60 183 l0 142 101 3 c84 3 104 6 113 21
8 12 8 22 0 35 -9 14 -29 17 -111 20 l-101 3 -4 59 c-2 33 -6 61 -9 64 -9 8
-45 14 -59 9z"/>
<path d="M15470 16785 c-18 -22 15 -90 77 -156 l46 -49 -5267 0 -5266 0 0 -35
0 -35 5266 0 5267 0 -52 -55 c-77 -81 -101 -155 -50 -155 12 0 24 12 33 34 18
44 86 118 153 168 58 42 60 59 12 83 -43 22 -132 114 -160 164 -27 51 -40 58
-59 36z"/>
<path d="M29752 16788 c-7 -7 -12 -17 -12 -23 0 -23 44 -93 88 -137 l46 -48
-4532 0 -4532 0 0 -35 0 -35 4528 0 4528 0 -47 -51 c-76 -82 -100 -159 -49
-159 13 0 25 12 35 38 18 42 90 120 153 163 23 17 42 38 42 47 0 9 -23 32 -51
51 -58 40 -124 111 -148 160 -18 39 -31 47 -49 29z"/>
<path d="M1269 16687 c-50 -19 -88 -50 -121 -99 -33 -48 -42 -89 -36 -168 14
-190 234 -286 378 -163 167 143 82 421 -134 439 -29 2 -66 -1 -87 -9z m151
-97 c89 -63 84 -216 -8 -285 -36 -27 -102 -26 -139 1 -37 27 -73 99 -73 145 0
130 123 208 220 139z"/>
<path d="M3034 16686 c-63 -20 -110 -62 -140 -123 -69 -140 0 -304 147 -347
66 -20 112 -20 176 -1 81 24 139 105 101 143 -23 23 -54 13 -86 -28 -23 -27
-43 -41 -68 -46 -69 -13 -156 32 -190 97 l-15 29 174 0 c121 0 177 4 185 12 7
7 12 30 12 53 0 68 -20 117 -64 161 -61 61 -141 78 -232 50z m131 -80 c32 -14
54 -43 69 -93 l7 -23 -140 0 c-129 0 -140 1 -134 18 14 39 48 75 87 93 50 22
67 23 111 5z"/>
<path d="M3570 16685 c-30 -10 -48 -11 -56 -4 -20 16 -105 7 -118 -13 -14 -23
3 -52 33 -56 20 -3 21 -7 21 -161 l0 -157 -31 -11 c-25 -10 -30 -16 -27 -40
l3 -28 95 0 95 0 3 28 c3 24 -2 30 -27 40 l-31 11 0 116 c0 129 16 177 64 194
45 17 51 0 54 -164 3 -140 2 -149 -16 -154 -24 -8 -35 -32 -26 -58 5 -17 14
-18 87 -16 l82 3 3 33 c3 29 0 33 -27 38 l-31 7 0 101 c0 114 10 159 42 193
25 26 63 30 72 7 3 -9 6 -79 6 -157 0 -133 -1 -143 -21 -155 -14 -9 -19 -21
-17 -40 3 -27 3 -27 88 -27 l85 0 3 28 c3 23 -2 30 -26 39 l-30 12 -4 160 c-5
211 -20 241 -117 238 -18 -1 -48 -10 -66 -21 -31 -18 -33 -18 -51 -1 -27 25
-63 30 -114 15z"/>
<path d="M4195 16691 c-83 -21 -125 -63 -125 -126 0 -79 49 -113 203 -140 106
-19 147 -41 147 -80 0 -34 -38 -56 -107 -62 -73 -5 -117 16 -148 72 -19 35
-26 40 -56 40 l-34 0 0 -95 c0 -92 1 -95 23 -98 13 -2 31 3 41 12 15 14 21 14
61 0 60 -21 172 -13 228 15 50 25 72 64 72 125 0 84 -52 120 -215 151 -94 17
-135 35 -135 60 0 42 126 69 192 42 28 -12 37 -22 40 -44 3 -26 7 -28 43 -28
l40 0 0 74 c0 59 -3 76 -17 85 -13 8 -23 8 -37 -1 -14 -9 -29 -9 -53 -3 -38
11 -119 11 -163 1z"/>
<path d="M16945 16685 c-22 -8 -41 -15 -41 -15 -1 0 -7 -14 -14 -30 -10 -23
-10 -37 -2 -55 22 -48 95 -41 108 10 5 21 12 25 43 25 78 0 130 -27 145 -76 6
-20 2 -21 -71 -27 -138 -9 -233 -56 -252 -122 -21 -79 32 -162 121 -186 51
-13 146 -6 188 16 27 14 32 14 54 0 17 -12 43 -15 92 -13 65 3 69 5 72 27 5
32 -21 51 -70 51 l-38 0 0 133 c0 121 -2 138 -23 178 -33 61 -93 91 -195 96
-52 2 -90 -2 -117 -12z m245 -290 c0 -65 -18 -88 -82 -105 -81 -22 -162 14
-156 70 4 33 74 68 159 79 35 5 67 9 72 10 4 0 7 -24 7 -54z"/>
<path d="M17595 16691 c-83 -21 -125 -63 -125 -126 0 -79 49 -113 203 -140
106 -19 147 -41 147 -80 0 -34 -38 -56 -107 -62 -73 -5 -117 16 -148 72 -19
35 -26 40 -56 40 l-34 0 0 -95 c0 -92 1 -95 23 -98 13 -2 31 3 41 12 15 14 21
14 61 0 60 -21 172 -13 228 15 50 25 72 64 72 125 0 84 -52 120 -215 151 -94
17 -135 35 -135 60 0 42 126 69 192 42 28 -12 37 -22 40 -44 3 -26 7 -28 43
-28 l40 0 0 74 c0 59 -3 76 -17 85 -13 8 -23 8 -37 -1 -14 -9 -29 -9 -53 -3
-38 11 -119 11 -163 1z"/>
<path d="M19374 16686 c-63 -20 -110 -62 -140 -123 -69 -140 0 -304 147 -347
66 -20 112 -20 176 -1 81 24 139 105 101 143 -23 23 -54 13 -86 -28 -23 -27
-43 -41 -68 -46 -69 -13 -156 32 -190 97 l-15 29 174 0 c121 0 177 4 185 12 7
7 12 30 12 53 0 68 -20 117 -64 161 -61 61 -141 78 -232 50z m131 -80 c32 -14
54 -43 69 -93 l7 -23 -140 0 c-129 0 -140 1 -134 18 14 39 48 75 87 93 50 22
67 23 111 5z"/>
<path d="M19910 16685 c-30 -10 -48 -11 -56 -4 -20 16 -105 7 -118 -13 -14
-23 3 -52 33 -56 20 -3 21 -7 21 -161 l0 -157 -31 -11 c-25 -10 -30 -16 -27
-40 l3 -28 95 0 95 0 3 28 c3 24 -2 30 -27 40 l-31 11 0 116 c0 129 16 177 64
194 45 17 51 0 54 -164 3 -140 2 -149 -16 -154 -24 -8 -35 -32 -26 -58 5 -17
14 -18 87 -16 l82 3 3 33 c3 29 0 33 -27 38 l-31 7 0 101 c0 114 10 159 42
193 25 26 63 30 72 7 3 -9 6 -79 6 -157 0 -133 -1 -143 -21 -155 -14 -9 -19
-21 -17 -40 3 -27 3 -27 88 -27 l85 0 3 28 c3 23 -2 30 -26 39 l-30 12 -4 160
c-5 211 -20 241 -117 238 -18 -1 -48 -10 -66 -21 -31 -18 -33 -18 -51 -1 -27
25 -63 30 -114 15z"/>
<path d="M31225 16685 c-22 -8 -41 -15 -41 -15 -1 0 -7 -14 -14 -30 -10 -23
-10 -37 -2 -55 22 -48 95 -41 108 10 5 21 12 25 43 25 78 0 130 -27 145 -76 6
-20 2 -21 -71 -27 -138 -9 -233 -56 -252 -122 -21 -79 32 -162 121 -186 51
-13 146 -6 188 16 27 14 32 14 54 0 17 -12 43 -15 92 -13 65 3 69 5 72 27 5
32 -21 51 -70 51 l-38 0 0 133 c0 121 -2 138 -23 178 -33 61 -93 91 -195 96
-52 2 -90 -2 -117 -12z m245 -290 c0 -65 -18 -88 -82 -105 -81 -22 -162 14
-156 70 4 33 74 68 159 79 35 5 67 9 72 10 4 0 7 -24 7 -54z"/>
<path d="M32053 16690 c-23 -3 -64 -20 -92 -37 l-50 -31 -3 31 -3 32 -94 3
c-100 3 -121 -4 -121 -43 0 -28 17 -35 81 -35 l49 0 0 -160 0 -160 -48 0 c-58
0 -85 -17 -80 -51 l3 -24 187 -3 188 -2 6 26 c10 40 -16 54 -98 54 l-68 0 0
66 c0 36 5 86 12 111 15 61 79 129 130 138 33 6 40 4 61 -20 19 -22 29 -27 50
-21 32 8 51 39 43 72 -11 44 -74 66 -153 54z"/>
<path d="M33654 16686 c-63 -20 -110 -62 -140 -123 -69 -140 0 -304 147 -347
66 -20 112 -20 176 -1 81 24 139 105 101 143 -23 23 -54 13 -86 -28 -23 -27
-43 -41 -68 -46 -69 -13 -156 32 -190 97 l-15 29 174 0 c121 0 177 4 185 12 7
7 12 30 12 53 0 68 -20 117 -64 161 -61 61 -141 78 -232 50z m131 -80 c32 -14
54 -43 69 -93 l7 -23 -140 0 c-129 0 -140 1 -134 18 14 39 48 75 87 93 50 22
67 23 111 5z"/>
<path d="M34824 16686 c-63 -20 -110 -62 -140 -123 -69 -140 0 -304 147 -347
66 -20 112 -20 176 -1 81 24 139 105 101 143 -23 23 -54 13 -86 -28 -23 -27
-43 -41 -68 -46 -69 -13 -156 32 -190 97 l-15 29 174 0 c121 0 177 4 185 12 7
7 12 30 12 53 0 68 -20 117 -64 161 -61 61 -141 78 -232 50z m131 -80 c32 -14
54 -43 69 -93 l7 -23 -140 0 c-129 0 -140 1 -134 18 14 39 48 75 87 93 50 22
67 23 111 5z"/>
<path d="M35455 16691 c-72 -18 -142 -77 -169 -143 -22 -51 -20 -153 3 -203
66 -147 275 -193 383 -85 54 54 49 110 -9 110 -16 0 -30 -11 -44 -34 -23 -40
-74 -61 -121 -52 -114 23 -172 150 -115 250 30 54 75 79 145 80 49 1 57 -2 60
-19 8 -44 66 -60 95 -27 21 23 22 61 2 89 -25 36 -147 54 -230 34z"/>
<path d="M36594 16686 c-63 -20 -110 -62 -140 -123 -69 -140 0 -304 147 -347
66 -20 112 -20 176 -1 81 24 139 105 101 143 -23 23 -54 13 -86 -28 -23 -27
-43 -41 -68 -46 -69 -13 -156 32 -190 97 l-15 29 174 0 c121 0 177 4 185 12 7
7 12 30 12 53 0 68 -20 117 -64 161 -61 61 -141 78 -232 50z m131 -80 c32 -14
54 -43 69 -93 l7 -23 -140 0 c-129 0 -140 1 -134 18 14 39 48 75 87 93 50 22
67 23 111 5z"/>
<path d="M3882 15763 c-41 -19 -76 -26 -160 -31 -123 -8 -117 2 -82 -122 17
-60 20 -91 15 -152 -5 -73 -4 -78 14 -78 33 0 43 35 39 136 -1 52 -2 94 0 94
2 0 72 -49 155 -108 2648 -1893 6749 -3146 11512 -3516 809 -63 1451 -92 2320
-105 2796 -41 5517 223 8020 779 2498 555 4697 1401 6370 2453 279 175 632
415 813 553 l43 32 -23 26 -23 25 -145 -105 c-2356 -1708 -5866 -2910 -10015
-3428 -871 -109 -1739 -184 -2665 -230 -679 -35 -954 -41 -1825 -40 -867 0
-1130 5 -1825 40 -3596 176 -6946 867 -9600 1979 -664 278 -1368 627 -1925
953 -343 201 -676 415 -994 641 l-163 116 58 7 c112 14 192 59 164 93 -15 19
-13 19 -78 -12z"/>
<path d="M2614 15722 c-6 -4 -24 -31 -38 -61 -24 -46 -103 -136 -160 -179 -22
-17 -16 -36 13 -40 30 -5 76 29 130 94 l45 54 47 -328 c351 -2434 1015 -4469
2022 -6202 1488 -2560 3711 -4423 6762 -5670 2439 -996 5451 -1622 9410 -1955
1703 -143 3069 -217 6500 -355 1551 -62 2729 -113 2883 -125 l72 -6 0 36 c0
30 -3 35 -24 35 -14 0 -262 11 -553 25 -595 28 -1324 59 -2603 110 -3419 137
-5013 229 -6765 390 -3946 364 -6929 1035 -9345 2100 -4063 1793 -6596 4763
-7785 9130 -230 845 -381 1612 -550 2788 l-5 37 61 -45 c34 -25 65 -45 69 -45
5 0 21 -5 35 -10 l27 -10 -27 -36 c-29 -38 -27 -64 4 -64 33 0 75 66 105 164
l13 39 73 -134 c624 -1135 1549 -2092 2839 -2937 965 -632 2168 -1206 3521
-1679 3083 -1078 7115 -1749 12225 -2033 1956 -108 3770 -154 6598 -167 l1497
-6 0 35 0 35 -1697 6 c-1596 6 -2091 12 -3153 37 -6253 150 -10976 759 -14620
1885 -3433 1061 -5775 2592 -6978 4562 -97 158 -241 416 -237 421 2 2 24 -4
50 -13 75 -25 158 -31 174 -11 24 28 6 46 -46 46 -59 0 -120 18 -202 59 -34
18 -66 29 -71 26 -4 -3 -11 -24 -15 -48 -16 -102 -26 -127 -50 -127 -33 0
-139 74 -188 131 -45 52 -46 53 -63 41z"/>
<path d="M33980 12679 l0 -3052 -55 52 c-81 77 -155 102 -155 52 0 -13 15 -26
45 -41 45 -22 148 -124 168 -167 17 -38 48 -29 86 28 41 60 113 126 159 145
34 15 44 50 17 60 -22 9 -94 -32 -147 -84 l-48 -46 0 3052 0 3052 -35 0 -35 0
0 -3051z"/>
<path d="M34746 12950 c-76 -23 -148 -102 -183 -204 -26 -75 -23 -222 6 -298
29 -74 98 -151 156 -173 70 -27 172 -18 227 21 54 38 88 96 88 151 0 38 -3 43
-27 49 -37 10 -56 -6 -66 -54 -12 -61 -63 -102 -126 -102 -71 0 -113 35 -158
130 -33 69 -37 176 -9 259 22 64 88 135 135 146 71 15 137 -36 161 -123 11
-42 12 -43 48 -40 l37 3 0 120 0 120 -27 3 c-17 2 -31 -4 -40 -17 -14 -20 -14
-20 -66 -1 -55 21 -107 24 -156 10z"/>
<path d="M36550 12931 c-52 -27 -80 -74 -80 -132 l0 -49 -70 0 c-65 0 -71 -2
-82 -25 -18 -41 3 -55 83 -55 l69 0 0 -160 0 -160 -64 0 c-80 0 -107 -20 -90
-64 5 -14 32 -16 195 -16 176 0 189 1 199 19 13 25 13 27 -6 45 -11 11 -35 16
-80 16 l-64 0 0 160 0 159 81 3 c65 2 84 7 93 21 8 12 8 22 0 35 -9 13 -28 18
-93 20 l-81 3 0 38 c0 64 74 110 100 61 15 -29 56 -36 80 -15 20 18 26 60 12
81 -25 38 -143 47 -202 15z"/>
<path d="M37106 12931 c-26 -29 -18 -82 17 -101 24 -13 30 -13 55 0 55 31 34
120 -28 120 -15 0 -35 -9 -44 -19z"/>
<path d="M35309 12747 c-50 -19 -88 -50 -121 -99 -33 -48 -42 -89 -36 -168 14
-190 234 -286 378 -163 167 143 82 421 -134 439 -29 2 -66 -1 -87 -9z m151
-97 c89 -63 84 -216 -8 -285 -36 -27 -102 -26 -139 1 -37 27 -73 99 -73 145 0
130 123 208 220 139z"/>
<path d="M35975 12750 c-22 -4 -55 -14 -72 -23 -27 -14 -33 -15 -33 -3 0 20
-22 26 -93 26 -75 0 -90 -8 -85 -46 3 -26 7 -29 46 -32 l42 -3 0 -160 0 -159
-34 0 c-39 0 -59 -19 -54 -52 3 -22 6 -23 128 -26 106 -2 127 0 137 14 12 17
7 44 -11 56 -6 4 -26 8 -43 8 l-33 0 0 102 c0 116 19 171 69 201 41 24 107 23
121 -2 5 -11 10 -83 10 -160 0 -141 0 -141 -23 -141 -35 0 -59 -22 -55 -51 3
-24 4 -24 127 -27 125 -3 140 1 141 35 0 22 -32 43 -66 43 l-34 0 0 151 c0
199 -15 232 -110 249 -19 3 -53 3 -75 0z"/>
<path d="M37833 12750 c-23 -3 -64 -20 -92 -37 l-50 -31 -3 31 -3 32 -94 3
c-100 3 -121 -4 -121 -43 0 -28 17 -35 81 -35 l49 0 0 -160 0 -160 -48 0 c-58
0 -85 -17 -80 -51 l3 -24 187 -3 188 -2 6 26 c10 40 -16 54 -98 54 l-68 0 0
66 c0 36 5 86 12 111 15 61 79 129 130 138 33 6 40 4 61 -20 19 -22 29 -27 50
-21 32 8 51 39 43 72 -11 44 -74 66 -153 54z"/>
<path d="M38200 12745 c-30 -10 -48 -11 -56 -4 -20 16 -105 7 -118 -13 -14
-23 3 -52 33 -56 20 -3 21 -7 21 -161 l0 -157 -31 -11 c-25 -10 -30 -16 -27
-40 l3 -28 95 0 95 0 3 28 c3 24 -2 30 -27 40 l-31 11 0 116 c0 129 16 177 64
194 45 17 51 0 54 -164 3 -140 2 -149 -16 -154 -24 -8 -35 -32 -26 -58 5 -17
14 -18 87 -16 l82 3 3 33 c3 29 0 33 -27 38 l-31 7 0 101 c0 114 10 159 42
193 25 26 63 30 72 7 3 -9 6 -79 6 -157 0 -133 -1 -143 -21 -155 -14 -9 -19
-21 -17 -40 3 -27 3 -27 88 -27 l85 0 3 28 c3 23 -2 30 -26 39 l-30 12 -4 160
c-5 211 -20 241 -117 238 -18 -1 -48 -10 -66 -21 -31 -18 -33 -18 -51 -1 -27
25 -63 30 -114 15z"/>
<path d="M36962 12738 c-7 -7 -12 -19 -12 -28 0 -31 23 -40 97 -40 l73 0 0
-160 0 -160 -74 0 c-74 0 -106 -13 -106 -43 1 -35 13 -37 221 -35 l204 3 3 24
c6 36 -22 51 -95 51 l-63 0 0 194 c0 168 -2 195 -16 200 -30 11 -219 7 -232
-6z"/>
<path d="M16746 11430 c-76 -23 -148 -102 -183 -204 -26 -75 -23 -222 6 -298
29 -74 98 -151 156 -173 70 -27 172 -18 227 21 54 38 88 96 88 151 0 38 -3 43
-27 49 -37 10 -56 -6 -66 -54 -12 -61 -63 -102 -126 -102 -71 0 -113 35 -158
130 -33 69 -37 176 -9 259 22 64 88 135 135 146 71 15 137 -36 161 -123 11
-42 12 -43 48 -40 l37 3 0 120 0 120 -27 3 c-17 2 -31 -4 -40 -17 -14 -20 -14
-20 -66 -1 -55 21 -107 24 -156 10z"/>
<path d="M19510 11416 c-6 -8 -10 -25 -8 -38 3 -22 8 -23 96 -26 l92 -3 0
-259 0 -260 -78 0 c-88 0 -116 -13 -110 -51 l3 -24 225 0 225 0 3 29 c5 39
-10 46 -100 46 l-78 0 0 288 c0 211 -3 291 -12 300 -19 19 -242 16 -258 -2z"/>
<path d="M17235 11225 c-22 -8 -41 -15 -41 -15 -1 0 -7 -14 -14 -30 -10 -23
-10 -37 -2 -55 22 -48 95 -41 108 10 5 21 12 25 43 25 78 0 130 -27 145 -76 6
-20 2 -21 -71 -27 -138 -9 -233 -56 -252 -122 -21 -79 32 -162 121 -186 51
-13 146 -6 188 16 27 14 32 14 54 0 17 -12 43 -15 92 -13 65 3 69 5 72 27 5
32 -21 51 -70 51 l-38 0 0 133 c0 121 -2 138 -23 178 -33 61 -93 91 -195 96
-52 2 -90 -2 -117 -12z m245 -290 c0 -65 -18 -88 -82 -105 -81 -22 -162 14
-156 70 4 33 74 68 159 79 35 5 67 9 72 10 4 0 7 -24 7 -54z"/>
<path d="M17975 11230 c-22 -4 -55 -14 -72 -23 -27 -14 -33 -15 -33 -3 0 20
-22 26 -93 26 -75 0 -90 -8 -85 -46 3 -26 7 -29 46 -32 l42 -3 0 -160 0 -159
-34 0 c-39 0 -59 -19 -54 -52 3 -22 6 -23 128 -26 106 -2 127 0 137 14 12 17
7 44 -11 56 -6 4 -26 8 -43 8 l-33 0 0 102 c0 116 19 171 69 201 41 24 107 23
121 -2 5 -11 10 -83 10 -160 0 -141 0 -141 -23 -141 -35 0 -59 -22 -55 -51 3
-24 4 -24 127 -27 125 -3 140 1 141 35 0 22 -32 43 -66 43 l-34 0 0 151 c0
199 -15 232 -110 249 -19 3 -53 3 -75 0z"/>
<path d="M18535 11231 c-72 -18 -142 -77 -169 -143 -22 -51 -20 -153 3 -203
66 -147 275 -193 383 -85 54 54 49 110 -9 110 -16 0 -30 -11 -44 -34 -23 -40
-74 -61 -121 -52 -114 23 -172 150 -115 250 30 54 75 79 145 80 49 1 57 -2 60
-19 8 -44 66 -60 95 -27 21 23 22 61 2 89 -25 36 -147 54 -230 34z"/>
<path d="M19084 11226 c-63 -20 -110 -62 -140 -123 -69 -140 0 -304 147 -347
66 -20 112 -20 176 -1 81 24 139 105 101 143 -23 23 -54 13 -86 -28 -23 -27
-43 -41 -68 -46 -69 -13 -156 32 -190 97 l-15 29 174 0 c121 0 177 4 185 12 7
7 12 30 12 53 0 68 -20 117 -64 161 -61 61 -141 78 -232 50z m131 -80 c32 -14
54 -43 69 -93 l7 -23 -140 0 c-129 0 -140 1 -134 18 14 39 48 75 87 93 50 22
67 23 111 5z"/>
<path d="M11056 9070 c-76 -23 -148 -102 -183 -204 -26 -75 -23 -222 6 -298
29 -74 98 -151 156 -173 70 -27 172 -18 227 21 54 38 88 96 88 151 0 38 -3 43
-27 49 -37 10 -56 -6 -66 -54 -12 -61 -63 -102 -126 -102 -71 0 -113 35 -158
130 -33 69 -37 176 -9 259 22 64 88 135 135 146 71 15 137 -36 161 -123 11
-42 12 -43 48 -40 l37 3 0 120 0 120 -27 3 c-17 2 -31 -4 -40 -17 -14 -20 -14
-20 -66 -1 -55 21 -107 24 -156 10z"/>
<path d="M13820 9056 c-6 -8 -10 -25 -8 -38 3 -22 8 -23 96 -26 l92 -3 0 -259
0 -260 -78 0 c-88 0 -116 -13 -110 -51 l3 -24 225 0 225 0 3 29 c5 39 -10 46
-100 46 l-78 0 0 288 c0 211 -3 291 -12 300 -19 19 -242 16 -258 -2z"/>
<path d="M30436 9020 c-76 -23 -148 -102 -183 -204 -26 -75 -23 -222 6 -298
29 -74 98 -151 156 -173 70 -27 172 -18 227 21 54 38 88 96 88 151 0 38 -3 43
-27 49 -37 10 -56 -6 -66 -54 -12 -61 -63 -102 -126 -102 -71 0 -113 35 -158
130 -33 69 -37 176 -9 259 22 64 88 135 135 146 71 15 137 -36 161 -123 11
-42 12 -43 48 -40 l37 3 0 120 0 120 -27 3 c-17 2 -31 -4 -40 -17 -14 -20 -14
-20 -66 -1 -55 21 -107 24 -156 10z"/>
<path d="M32796 9020 c-76 -23 -148 -102 -183 -204 -26 -75 -23 -222 6 -298
29 -74 98 -151 156 -173 70 -27 172 -18 227 21 54 38 88 96 88 151 0 38 -3 43
-27 49 -37 10 -56 -6 -66 -54 -12 -61 -63 -102 -126 -102 -71 0 -113 35 -158
130 -33 69 -37 176 -9 259 22 64 88 135 135 146 71 15 137 -36 161 -123 11
-42 12 -43 48 -40 l37 3 0 120 0 120 -27 3 c-17 2 -31 -4 -40 -17 -14 -20 -14
-20 -66 -1 -55 21 -107 24 -156 10z"/>
<path d="M32270 9006 c-6 -8 -10 -25 -8 -38 2 -19 10 -23 46 -26 l42 -3 0 -75
0 -75 -31 16 c-35 19 -131 22 -172 6 -88 -34 -150 -127 -151 -226 0 -77 17
-128 63 -178 61 -68 142 -92 222 -66 19 7 41 18 51 26 14 13 17 12 23 -6 6
-19 14 -21 90 -21 82 0 95 5 95 40 0 20 -34 40 -66 40 l-34 0 0 294 c0 334 9
306 -95 306 -42 0 -66 -5 -75 -14z m46 -300 c33 -33 34 -37 34 -107 0 -88 -19
-133 -70 -167 -85 -57 -190 22 -190 145 0 93 63 163 147 163 38 0 51 -6 79
-34z"/>
<path d="M34590 9001 c-52 -27 -80 -74 -80 -132 l0 -49 -70 0 c-65 0 -71 -2
-82 -25 -18 -41 3 -55 83 -55 l69 0 0 -160 0 -160 -64 0 c-80 0 -107 -20 -90
-64 5 -14 32 -16 195 -16 176 0 189 1 199 19 13 25 13 27 -6 45 -11 11 -35 16
-80 16 l-64 0 0 160 0 159 81 3 c65 2 84 7 93 21 8 12 8 22 0 35 -9 13 -28 18
-93 20 l-81 3 0 38 c0 64 74 110 100 61 15 -29 56 -36 80 -15 20 18 26 60 12
81 -25 38 -143 47 -202 15z"/>
<path d="M35146 9001 c-26 -29 -18 -82 17 -101 24 -13 30 -13 55 0 55 31 34
120 -28 120 -15 0 -35 -9 -44 -19z"/>
<path d="M37560 9006 c-6 -8 -10 -25 -8 -38 2 -19 10 -23 46 -26 l42 -3 0 -75
0 -75 -31 16 c-35 19 -131 22 -172 6 -88 -34 -150 -127 -151 -226 0 -77 17
-128 63 -178 61 -68 142 -92 222 -66 19 7 41 18 51 26 14 13 17 12 23 -6 6
-19 14 -21 90 -21 82 0 95 5 95 40 0 20 -34 40 -66 40 l-34 0 0 294 c0 334 9
306 -95 306 -42 0 -66 -5 -75 -14z m46 -300 c33 -33 34 -37 34 -107 0 -88 -19
-133 -70 -167 -85 -57 -190 22 -190 145 0 93 63 163 147 163 38 0 51 -6 79
-34z"/>
<path d="M11545 8865 c-22 -8 -41 -15 -41 -15 -1 0 -7 -14 -14 -30 -10 -23
-10 -37 -2 -55 22 -48 95 -41 108 10 5 21 12 25 43 25 78 0 130 -27 145 -76 6
-20 2 -21 -71 -27 -138 -9 -233 -56 -252 -122 -21 -79 32 -162 121 -186 51
-13 146 -6 188 16 27 14 32 14 54 0 17 -12 43 -15 92 -13 65 3 69 5 72 27 5
32 -21 51 -70 51 l-38 0 0 133 c0 121 -2 138 -23 178 -33 61 -93 91 -195 96
-52 2 -90 -2 -117 -12z m245 -290 c0 -65 -18 -88 -82 -105 -81 -22 -162 14
-156 70 4 33 74 68 159 79 35 5 67 9 72 10 4 0 7 -24 7 -54z"/>
<path d="M12285 8870 c-22 -4 -55 -14 -72 -23 -27 -14 -33 -15 -33 -3 0 20
-22 26 -93 26 -75 0 -90 -8 -85 -46 3 -26 7 -29 46 -32 l42 -3 0 -160 0 -159
-34 0 c-39 0 -59 -19 -54 -52 3 -22 6 -23 128 -26 106 -2 127 0 137 14 12 17
7 44 -11 56 -6 4 -26 8 -43 8 l-33 0 0 102 c0 116 19 171 69 201 41 24 107 23
121 -2 5 -11 10 -83 10 -160 0 -141 0 -141 -23 -141 -35 0 -59 -22 -55 -51 3
-24 4 -24 127 -27 125 -3 140 1 141 35 0 22 -32 43 -66 43 l-34 0 0 151 c0
199 -15 232 -110 249 -19 3 -53 3 -75 0z"/>
<path d="M12835 8871 c-72 -18 -142 -77 -169 -143 -22 -51 -20 -153 3 -203 66
-147 275 -193 383 -85 54 54 49 110 -9 110 -16 0 -30 -11 -44 -34 -23 -40 -74
-61 -121 -52 -114 23 -172 150 -115 250 30 54 75 79 145 80 49 1 57 -2 60 -19
8 -44 66 -60 95 -27 21 23 22 61 2 89 -25 36 -147 54 -230 34z"/>
<path d="M13384 8866 c-63 -20 -110 -62 -140 -123 -69 -140 0 -304 147 -347
66 -20 112 -20 176 -1 81 24 139 105 101 143 -23 23 -54 13 -86 -28 -23 -27
-43 -41 -68 -46 -69 -13 -156 32 -190 97 l-15 29 174 0 c121 0 177 4 185 12 7
7 12 30 12 53 0 68 -20 117 -64 161 -61 61 -141 78 -232 50z m131 -80 c32 -14
54 -43 69 -93 l7 -23 -140 0 c-129 0 -140 1 -134 18 14 39 48 75 87 93 50 22
67 23 111 5z"/>
<path d="M30925 8815 c-22 -8 -41 -15 -41 -15 -1 0 -7 -14 -14 -30 -10 -23
-10 -37 -2 -55 22 -48 95 -41 108 10 5 21 12 25 43 25 78 0 130 -27 145 -76 6
-20 2 -21 -71 -27 -138 -9 -233 -56 -252 -122 -21 -79 32 -162 121 -186 51
-13 146 -6 188 16 27 14 32 14 54 0 17 -12 43 -15 92 -13 65 3 69 5 72 27 5
32 -21 51 -70 51 l-38 0 0 133 c0 121 -2 138 -23 178 -33 61 -93 91 -195 96
-52 2 -90 -2 -117 -12z m245 -290 c0 -65 -18 -88 -82 -105 -81 -22 -162 14
-156 70 4 33 74 68 159 79 35 5 67 9 72 10 4 0 7 -24 7 -54z"/>
<path d="M31763 8820 c-23 -3 -64 -20 -92 -37 l-50 -31 -3 31 -3 32 -94 3
c-100 3 -121 -4 -121 -43 0 -28 17 -35 81 -35 l49 0 0 -160 0 -160 -48 0 c-58
0 -85 -17 -80 -51 l3 -24 187 -3 188 -2 6 26 c10 40 -16 54 -98 54 l-68 0 0
66 c0 36 5 86 12 111 15 61 79 129 130 138 33 6 40 4 61 -20 19 -22 29 -27 50
-21 32 8 51 39 43 72 -11 44 -74 66 -153 54z"/>
<path d="M33349 8817 c-50 -19 -88 -50 -121 -99 -33 -48 -42 -89 -36 -168 14
-190 234 -286 378 -163 167 143 82 421 -134 439 -29 2 -66 -1 -87 -9z m151
-97 c89 -63 84 -216 -8 -285 -36 -27 -102 -26 -139 1 -37 27 -73 99 -73 145 0
130 123 208 220 139z"/>
<path d="M34015 8820 c-22 -4 -55 -14 -72 -23 -27 -14 -33 -15 -33 -3 0 20
-22 26 -93 26 -75 0 -90 -8 -85 -46 3 -26 7 -29 46 -32 l42 -3 0 -160 0 -159
-34 0 c-39 0 -59 -19 -54 -52 3 -22 6 -23 128 -26 106 -2 127 0 137 14 12 17
7 44 -11 56 -6 4 -26 8 -43 8 l-33 0 0 102 c0 116 19 171 69 201 41 24 107 23
121 -2 5 -11 10 -83 10 -160 0 -141 0 -141 -23 -141 -35 0 -59 -22 -55 -51 3
-24 4 -24 127 -27 125 -3 140 1 141 35 0 22 -32 43 -66 43 l-34 0 0 151 c0
199 -15 232 -110 249 -19 3 -53 3 -75 0z"/>
<path d="M35883 8820 c-23 -3 -64 -20 -92 -37 l-50 -31 -3 31 -3 32 -94 3
c-100 3 -121 -4 -121 -43 0 -28 17 -35 81 -35 l49 0 0 -160 0 -160 -48 0 c-58
0 -85 -17 -80 -51 l3 -24 187 -3 188 -2 6 26 c10 40 -16 54 -98 54 l-68 0 0
66 c0 36 5 86 12 111 15 61 79 129 130 138 33 6 40 4 61 -20 19 -22 29 -27 50
-21 32 8 51 39 43 72 -11 44 -74 66 -153 54z"/>
<path d="M36240 8815 c-30 -10 -48 -11 -56 -4 -20 16 -105 7 -118 -13 -14 -23
3 -52 33 -56 20 -3 21 -7 21 -161 l0 -157 -31 -11 c-25 -10 -30 -16 -27 -40
l3 -28 95 0 95 0 3 28 c3 24 -2 30 -27 40 l-31 11 0 116 c0 129 16 177 64 194
45 17 51 0 54 -164 3 -140 2 -149 -16 -154 -24 -8 -35 -32 -26 -58 5 -17 14
-18 87 -16 l82 3 3 33 c3 29 0 33 -27 38 l-31 7 0 101 c0 114 10 159 42 193
25 26 63 30 72 7 3 -9 6 -79 6 -157 0 -133 -1 -143 -21 -155 -14 -9 -19 -21
-17 -40 3 -27 3 -27 88 -27 l85 0 3 28 c3 23 -2 30 -26 39 l-30 12 -4 160 c-5
211 -20 241 -117 238 -18 -1 -48 -10 -66 -21 -31 -18 -33 -18 -51 -1 -27 25
-63 30 -114 15z"/>
<path d="M36884 8816 c-63 -20 -110 -62 -140 -123 -69 -140 0 -304 147 -347
66 -20 112 -20 176 -1 81 24 139 105 101 143 -23 23 -54 13 -86 -28 -23 -27
-43 -41 -68 -46 -69 -13 -156 32 -190 97 l-15 29 174 0 c121 0 177 4 185 12 7
7 12 30 12 53 0 68 -20 117 -64 161 -61 61 -141 78 -232 50z m131 -80 c32 -14
54 -43 69 -93 l7 -23 -140 0 c-129 0 -140 1 -134 18 14 39 48 75 87 93 50 22
67 23 111 5z"/>
<path d="M35002 8808 c-7 -7 -12 -19 -12 -28 0 -31 23 -40 97 -40 l73 0 0
-160 0 -160 -74 0 c-74 0 -106 -13 -106 -43 1 -35 13 -37 221 -35 l204 3 3 24
c6 36 -22 51 -95 51 l-63 0 0 194 c0 168 -2 195 -16 200 -30 11 -219 7 -232
-6z"/>
<path d="M33980 4803 l0 -3047 -37 36 c-57 54 -112 88 -144 88 -42 0 -39 -34
4 -56 54 -28 110 -78 157 -143 24 -33 50 -61 57 -61 7 0 26 20 42 44 44 63
130 144 168 158 24 9 33 18 33 35 0 50 -85 18 -172 -65 l-38 -36 0 3047 0
3047 -35 0 -35 0 0 -3047z"/>
<path d="M37612 5081 c-18 -5 -44 -19 -57 -31 -44 -42 -50 -79 -50 -320 0
-205 2 -229 20 -265 31 -62 67 -75 208 -75 140 0 176 12 202 67 26 54 39 248
27 403 -15 200 -36 223 -212 227 -58 1 -120 -2 -138 -6z m202 -85 c49 -20 56
-53 56 -250 0 -255 -10 -276 -137 -276 -125 0 -141 31 -142 272 -1 186 16 247
74 261 41 10 117 6 149 -7z"/>
<path d="M34528 5055 c-14 -32 4 -55 43 -55 l29 0 0 -260 0 -260 -24 0 c-26 0
-56 -23 -56 -43 1 -34 16 -38 131 -35 112 3 114 3 117 27 4 29 -20 51 -55 51
-22 0 -23 3 -23 90 l0 90 83 0 c45 0 99 5 120 11 81 22 147 111 147 199 0 88
-66 177 -147 199 -21 6 -109 11 -196 11 l-157 0 -12 -25z m360 -81 c38 -29 65
-87 57 -124 -10 -44 -51 -88 -93 -100 -20 -5 -65 -10 -99 -10 l-63 0 0 131 0
132 85 -5 c65 -3 92 -9 113 -24z"/>
<path d="M35160 5066 c-6 -8 -10 -25 -8 -38 3 -22 8 -23 96 -26 l92 -3 0 -259
0 -260 -78 0 c-88 0 -116 -13 -110 -51 l3 -24 225 0 225 0 3 29 c5 39 -10 46
-100 46 l-78 0 0 288 c0 211 -3 291 -12 300 -19 19 -242 16 -258 -2z"/>
<path d="M38930 5066 c-6 -8 -10 -25 -8 -38 2 -19 10 -23 46 -26 l42 -3 0 -75
0 -75 -31 16 c-35 19 -131 22 -172 6 -88 -34 -150 -127 -151 -226 0 -77 17
-128 63 -178 61 -68 142 -92 222 -66 19 7 41 18 51 26 14 13 17 12 23 -6 6
-19 14 -21 90 -21 82 0 95 5 95 40 0 20 -34 40 -66 40 l-34 0 0 294 c0 334 9
306 -95 306 -42 0 -66 -5 -75 -14z m46 -300 c33 -33 34 -37 34 -107 0 -88 -19
-133 -70 -167 -85 -57 -190 22 -190 145 0 93 63 163 147 163 38 0 51 -6 79
-34z"/>
<path d="M35825 4875 c-22 -8 -41 -15 -41 -15 -1 0 -7 -14 -14 -30 -10 -23
-10 -37 -2 -55 22 -48 95 -41 108 10 5 21 12 25 43 25 78 0 130 -27 145 -76 6
-20 2 -21 -71 -27 -138 -9 -233 -56 -252 -122 -21 -79 32 -162 121 -186 51
-13 146 -6 188 16 27 14 32 14 54 0 17 -12 43 -15 92 -13 65 3 69 5 72 27 5
32 -21 51 -70 51 l-38 0 0 133 c0 121 -2 138 -23 178 -33 61 -93 91 -195 96
-52 2 -90 -2 -117 -12z m245 -290 c0 -65 -18 -88 -82 -105 -81 -22 -162 14
-156 70 4 33 74 68 159 79 35 5 67 9 72 10 4 0 7 -24 7 -54z"/>
<path d="M36535 4881 c-72 -18 -142 -77 -169 -143 -22 -51 -20 -153 3 -203 66
-147 275 -193 383 -85 54 54 49 110 -9 110 -16 0 -30 -11 -44 -34 -23 -40 -74
-61 -121 -52 -114 23 -172 150 -115 250 30 54 75 79 145 80 49 1 57 -2 60 -19
8 -44 66 -60 95 -27 21 23 22 61 2 89 -25 36 -147 54 -230 34z"/>
<path d="M37084 4876 c-63 -20 -110 -62 -140 -123 -69 -140 0 -304 147 -347
66 -20 112 -20 176 -1 81 24 139 105 101 143 -23 23 -54 13 -86 -28 -23 -27
-43 -41 -68 -46 -69 -13 -156 32 -190 97 l-15 29 174 0 c121 0 177 4 185 12 7
7 12 30 12 53 0 68 -20 117 -64 161 -61 61 -141 78 -232 50z m131 -80 c32 -14
54 -43 69 -93 l7 -23 -140 0 c-129 0 -140 1 -134 18 14 39 48 75 87 93 50 22
67 23 111 5z"/>
<path d="M38423 4880 c-23 -3 -64 -20 -92 -37 l-50 -31 -3 31 -3 32 -94 3
c-100 3 -121 -4 -121 -43 0 -28 17 -35 81 -35 l49 0 0 -160 0 -160 -48 0 c-58
0 -85 -17 -80 -51 l3 -24 187 -3 188 -2 6 26 c10 40 -16 54 -98 54 l-68 0 0
66 c0 36 5 86 12 111 15 61 79 129 130 138 33 6 40 4 61 -20 19 -22 29 -27 50
-21 32 8 51 39 43 72 -11 44 -74 66 -153 54z"/>
<path d="M39434 4876 c-63 -20 -110 -62 -140 -123 -69 -140 0 -304 147 -347
66 -20 112 -20 176 -1 81 24 139 105 101 143 -23 23 -54 13 -86 -28 -23 -27
-43 -41 -68 -46 -69 -13 -156 32 -190 97 l-15 29 174 0 c121 0 177 4 185 12 7
7 12 30 12 53 0 68 -20 117 -64 161 -61 61 -141 78 -232 50z m131 -80 c32 -14
54 -43 69 -93 l7 -23 -140 0 c-129 0 -140 1 -134 18 14 39 48 75 87 93 50 22
67 23 111 5z"/>
<path d="M40193 4880 c-23 -3 -64 -20 -92 -37 l-50 -31 -3 31 -3 32 -94 3
c-100 3 -121 -4 -121 -43 0 -28 17 -35 81 -35 l49 0 0 -160 0 -160 -48 0 c-58
0 -85 -17 -80 -51 l3 -24 187 -3 188 -2 6 26 c10 40 -16 54 -98 54 l-68 0 0
66 c0 36 5 86 12 111 15 61 79 129 130 138 33 6 40 4 61 -20 19 -22 29 -27 50
-21 32 8 51 39 43 72 -11 44 -74 66 -153 54z"/>
<path d="M8876 2500 c-76 -23 -148 -102 -183 -204 -26 -75 -23 -222 6 -298 29
-74 98 -151 156 -173 70 -27 172 -18 227 21 54 38 88 96 88 151 0 38 -3 43
-27 49 -37 10 -56 -6 -66 -54 -12 -61 -63 -102 -126 -102 -71 0 -113 35 -158
130 -33 69 -37 176 -9 259 22 64 88 135 135 146 71 15 137 -36 161 -123 11
-42 12 -43 48 -40 l37 3 0 120 0 120 -27 3 c-17 2 -31 -4 -40 -17 -14 -20 -14
-20 -66 -1 -55 21 -107 24 -156 10z"/>
<path d="M11640 2486 c-6 -8 -10 -25 -8 -38 3 -22 8 -23 96 -26 l92 -3 0 -259
0 -260 -78 0 c-88 0 -116 -13 -110 -51 l3 -24 225 0 225 0 3 29 c5 39 -10 46
-100 46 l-78 0 0 288 c0 211 -3 291 -12 300 -19 19 -242 16 -258 -2z"/>
<path d="M9365 2295 c-22 -8 -41 -15 -41 -15 -1 0 -7 -14 -14 -30 -10 -23 -10
-37 -2 -55 22 -48 95 -41 108 10 5 21 12 25 43 25 78 0 130 -27 145 -76 6 -20
2 -21 -71 -27 -138 -9 -233 -56 -252 -122 -21 -79 32 -162 121 -186 51 -13
146 -6 188 16 27 14 32 14 54 0 17 -12 43 -15 92 -13 65 3 69 5 72 27 5 32
-21 51 -70 51 l-38 0 0 133 c0 121 -2 138 -23 178 -33 61 -93 91 -195 96 -52
2 -90 -2 -117 -12z m245 -290 c0 -65 -18 -88 -82 -105 -81 -22 -162 14 -156
70 4 33 74 68 159 79 35 5 67 9 72 10 4 0 7 -24 7 -54z"/>
<path d="M10105 2300 c-22 -4 -55 -14 -72 -23 -27 -14 -33 -15 -33 -3 0 20
-22 26 -93 26 -75 0 -90 -8 -85 -46 3 -26 7 -29 46 -32 l42 -3 0 -160 0 -159
-34 0 c-39 0 -59 -19 -54 -52 3 -22 6 -23 128 -26 106 -2 127 0 137 14 12 17
7 44 -11 56 -6 4 -26 8 -43 8 l-33 0 0 102 c0 116 19 171 69 201 41 24 107 23
121 -2 5 -11 10 -83 10 -160 0 -141 0 -141 -23 -141 -35 0 -59 -22 -55 -51 3
-24 4 -24 127 -27 125 -3 140 1 141 35 0 22 -32 43 -66 43 l-34 0 0 151 c0
199 -15 232 -110 249 -19 3 -53 3 -75 0z"/>
<path d="M10655 2301 c-72 -18 -142 -77 -169 -143 -22 -51 -20 -153 3 -203 66
-147 275 -193 383 -85 54 54 49 110 -9 110 -16 0 -30 -11 -44 -34 -23 -40 -74
-61 -121 -52 -114 23 -172 150 -115 250 30 54 75 79 145 80 49 1 57 -2 60 -19
8 -44 66 -60 95 -27 21 23 22 61 2 89 -25 36 -147 54 -230 34z"/>
<path d="M11204 2296 c-63 -20 -110 -62 -140 -123 -69 -140 0 -304 147 -347
66 -20 112 -20 176 -1 81 24 139 105 101 143 -23 23 -54 13 -86 -28 -23 -27
-43 -41 -68 -46 -69 -13 -156 32 -190 97 l-15 29 174 0 c121 0 177 4 185 12 7
7 12 30 12 53 0 68 -20 117 -64 161 -61 61 -141 78 -232 50z m131 -80 c32 -14
54 -43 69 -93 l7 -23 -140 0 c-129 0 -140 1 -134 18 14 39 48 75 87 93 50 22
67 23 111 5z"/>
<path d="M30952 1141 c-18 -5 -44 -19 -57 -31 -44 -42 -50 -79 -50 -320 0
-205 2 -229 20 -265 31 -62 67 -75 208 -75 140 0 176 12 202 67 26 54 39 248
27 403 -15 200 -36 223 -212 227 -58 1 -120 -2 -138 -6z m202 -85 c49 -20 56
-53 56 -250 0 -255 -10 -276 -137 -276 -125 0 -141 31 -142 272 -1 186 16 247
74 261 41 10 117 6 149 -7z"/>
<path d="M32270 1126 c-6 -8 -10 -25 -8 -38 2 -19 10 -23 46 -26 l42 -3 0 -75
0 -75 -31 16 c-35 19 -131 22 -172 6 -88 -34 -150 -127 -151 -226 0 -77 17
-128 63 -178 61 -68 142 -92 222 -66 19 7 41 18 51 26 14 13 17 12 23 -6 6
-19 14 -21 90 -21 82 0 95 5 95 40 0 20 -34 40 -66 40 l-34 0 0 294 c0 334 9
306 -95 306 -42 0 -66 -5 -75 -14z m46 -300 c33 -33 34 -37 34 -107 0 -88 -19
-133 -70 -167 -85 -57 -190 22 -190 145 0 93 63 163 147 163 38 0 51 -6 79
-34z"/>
<path d="M33748 1115 c-14 -32 4 -55 43 -55 l29 0 0 -260 0 -260 -24 0 c-26 0
-56 -23 -56 -43 1 -34 16 -38 131 -35 112 3 114 3 117 27 4 29 -20 51 -55 51
-22 0 -23 3 -23 90 l0 90 83 0 c45 0 99 5 120 11 81 22 147 111 147 199 0 88
-66 177 -147 199 -21 6 -109 11 -196 11 l-157 0 -12 -25z m360 -81 c38 -29 65
-87 57 -124 -10 -44 -51 -88 -93 -100 -20 -5 -65 -10 -99 -10 l-63 0 0 131 0
132 85 -5 c65 -3 92 -9 113 -24z"/>
<path d="M34380 1126 c-6 -8 -10 -25 -8 -38 3 -22 8 -23 96 -26 l92 -3 0 -259
0 -260 -78 0 c-88 0 -116 -13 -110 -51 l3 -24 225 0 225 0 3 29 c5 39 -10 46
-100 46 l-78 0 0 288 c0 211 -3 291 -12 300 -19 19 -242 16 -258 -2z"/>
<path d="M36970 1126 c-6 -8 -10 -25 -8 -38 2 -19 10 -23 46 -26 l42 -3 0 -75
0 -75 -31 16 c-35 19 -131 22 -172 6 -88 -34 -150 -127 -151 -226 0 -77 17
-128 63 -178 61 -68 142 -92 222 -66 19 7 41 18 51 26 14 13 17 12 23 -6 6
-19 14 -21 90 -21 82 0 95 5 95 40 0 20 -34 40 -66 40 l-34 0 0 294 c0 334 9
306 -95 306 -42 0 -66 -5 -75 -14z m46 -300 c33 -33 34 -37 34 -107 0 -88 -19
-133 -70 -167 -85 -57 -190 22 -190 145 0 93 63 163 147 163 38 0 51 -6 79
-34z"/>
<path d="M31763 940 c-23 -3 -64 -20 -92 -37 l-50 -31 -3 31 -3 32 -94 3
c-100 3 -121 -4 -121 -43 0 -28 17 -35 81 -35 l49 0 0 -160 0 -160 -48 0 c-58
0 -85 -17 -80 -51 l3 -24 187 -3 188 -2 6 26 c10 40 -16 54 -98 54 l-68 0 0
66 c0 36 5 86 12 111 15 61 79 129 130 138 33 6 40 4 61 -20 19 -22 29 -27 50
-21 32 8 51 39 43 72 -11 44 -74 66 -153 54z"/>
<path d="M32774 936 c-63 -20 -110 -62 -140 -123 -69 -140 0 -304 147 -347 66
-20 112 -20 176 -1 81 24 139 105 101 143 -23 23 -54 13 -86 -28 -23 -27 -43
-41 -68 -46 -69 -13 -156 32 -190 97 l-15 29 174 0 c121 0 177 4 185 12 7 7
12 30 12 53 0 68 -20 117 -64 161 -61 61 -141 78 -232 50z m131 -80 c32 -14
54 -43 69 -93 l7 -23 -140 0 c-129 0 -140 1 -134 18 14 39 48 75 87 93 50 22
67 23 111 5z"/>
<path d="M33523 940 c-23 -3 -64 -20 -92 -37 l-50 -31 -3 31 -3 32 -94 3
c-100 3 -121 -4 -121 -43 0 -28 17 -35 81 -35 l49 0 0 -160 0 -160 -48 0 c-58
0 -85 -17 -80 -51 l3 -24 187 -3 188 -2 6 26 c10 40 -16 54 -98 54 l-68 0 0
66 c0 36 5 86 12 111 15 61 79 129 130 138 33 6 40 4 61 -20 19 -22 29 -27 50
-21 32 8 51 39 43 72 -11 44 -74 66 -153 54z"/>
<path d="M35045 935 c-22 -8 -41 -15 -41 -15 -1 0 -7 -14 -14 -30 -10 -23 -10
-37 -2 -55 22 -48 95 -41 108 10 5 21 12 25 43 25 78 0 130 -27 145 -76 6 -20
2 -21 -71 -27 -138 -9 -233 -56 -252 -122 -21 -79 32 -162 121 -186 51 -13
146 -6 188 16 27 14 32 14 54 0 17 -12 43 -15 92 -13 65 3 69 5 72 27 5 32
-21 51 -70 51 l-38 0 0 133 c0 121 -2 138 -23 178 -33 61 -93 91 -195 96 -52
2 -90 -2 -117 -12z m245 -290 c0 -65 -18 -88 -82 -105 -81 -22 -162 14 -156
70 4 33 74 68 159 79 35 5 67 9 72 10 4 0 7 -24 7 -54z"/>
<path d="M35755 941 c-72 -18 -142 -77 -169 -143 -22 -51 -20 -153 3 -203 66
-147 275 -193 383 -85 54 54 49 110 -9 110 -16 0 -30 -11 -44 -34 -23 -40 -74
-61 -121 -52 -114 23 -172 150 -115 250 30 54 75 79 145 80 49 1 57 -2 60 -19
8 -44 66 -60 95 -27 21 23 22 61 2 89 -25 36 -147 54 -230 34z"/>
<path d="M36294 936 c-63 -20 -110 -62 -140 -123 -69 -140 0 -304 147 -347 66
-20 112 -20 176 -1 81 24 139 105 101 143 -23 23 -54 13 -86 -28 -23 -27 -43
-41 -68 -46 -69 -13 -156 32 -190 97 l-15 29 174 0 c121 0 177 4 185 12 7 7
12 30 12 53 0 68 -20 117 -64 161 -61 61 -141 78 -232 50z m131 -80 c32 -14
54 -43 69 -93 l7 -23 -140 0 c-129 0 -140 1 -134 18 14 39 48 75 87 93 50 22
67 23 111 5z"/>
</g>
</svg>
